<?xml version='1.0' encoding='UTF-8'?>
<svg xmlns="http://www.w3.org/2000/svg" width="512" height="512" version="1.1" desc="Created with imagetracer.js version 1.2.6" shape-rendering="geometricPrecision" text-rendering="geometricPrecision" image-rendering="optimizeQuality" viewBox="0 0 680.0 680.0">
  <path fill="rgb(0,0,0)" stroke="rgb(0,0,0)" stroke-width="1" opacity="0" d="M 0 0 L 312.5 0 L 313 3 L 315 3 L 315.5 0 L 365 0 Q 363.7 4.1 367 3 L 367.5 0 L 680 0 L 680 312.5 L 677.5 313 L 678.5 315 L 680 315.5 L 680 365 L 677 366.5 L 680 367 L 680 680 L 367 680 Q 368.3 675.9 365 677 L 364.5 680 L 315 680 Q 316.3 675.9 313 677 L 312.5 680 L 0 680 L 0 367.5 L 2.5 367 L 1.5 365 L 0 364.5 L 0 315 L 3 313.5 L 0 313 L 0 0 Z M 293 5 L 293 7 L 310 7 L 311 6 L 293 5 Z M 370 5 L 371 7 L 387 7 L 387 5 L 370 5 Z M 281 7 L 281 9 L 292 9 L 293 8 L 281 7 Z M 388 7 L 389 9 L 399 9 L 399 7 L 388 7 Z M 271 9 L 271 11 L 280 11 L 281 10 L 271 9 Z M 400 9 L 401 11 L 409 11 L 409 9 L 400 9 Z M 261 11 L 261 13 L 270 13 L 271 12 L 261 11 Z M 410 11 L 411 13 L 419 13 L 419 11 L 410 11 Z M 253 13 L 253 15 L 260 15 L 261 14 L 253 13 Z M 420 13 L 421 15 L 427 15 L 427 13 L 420 13 Z M 247 15 L 247 17 Q 252 18 253 16 L 247 15 Z M 428 15 Q 427 18 433 17 Q 434 13 428 15 Z M 239 17 L 239 19 L 246 19 L 247 18 L 239 17 Z M 434 17 L 435 19 L 441 19 L 441 17 L 434 17 Z M 233 19 L 233 21 Q 238 22 239 20 L 233 19 Z M 442 19 Q 441 22 447 21 Q 448 17 442 19 Z M 223 23 L 223 25 L 227 24 L 223 23 Z M 454 23 Q 453 26 457 25 Q 458 22 454 23 Z M 217 25 L 217 27 Q 222 28 223 26 L 217 25 Z M 458 25 Q 457 28 463 27 Q 464 23 458 25 Z M 199 33 L 199 35 L 203 34 L 199 33 Z M 478 33 Q 477 36 481 35 Q 482 32 478 33 Z M 185 39 L 185 41 L 189 40 L 185 39 Z M 492 39 Q 491 42 495 41 Q 496 38 492 39 Z M 167 49 L 167 51 L 171 50 L 167 49 Z M 510 49 Q 509 52 513 51 Q 514 48 510 49 Z M 161 53 L 161 55 L 165 54 L 161 53 Z M 516 53 Q 515 56 519 55 Q 520 52 516 53 Z M 151 59 L 152 61 L 155 60 L 151 59 Z M 526 59 L 527 61 L 530 60 L 526 59 Z M 149 61 Q 148 64 151 63 Q 152 60 149 61 Z M 529 61 Q 528 64 531 63 Q 532 60 529 61 Z M 143 65 L 143 67 L 147 66 L 143 65 Z M 534 65 Q 533 68 537 67 Q 538 64 534 65 Z M 137 69 L 138 71 L 141 70 L 137 69 Z M 540 69 L 541 71 L 544 70 L 540 69 Z M 135 71 L 137 73 Q 138 70 135 71 Z M 543 71 Q 542 74 545 73 Q 546 70 543 71 Z M 133 73 Q 132 76 135 75 Q 136 72 133 73 Z M 548 75 L 549 77 L 552 76 L 548 75 Z M 127 77 L 128 79 L 131 78 L 127 77 Z M 551 77 L 551 79 L 554 78 L 551 77 Z M 125 79 L 127 81 Q 128 78 125 79 Z M 553 79 L 553 81 L 556 80 L 553 79 Z M 123 81 Q 122 84 125 83 Q 126 80 123 81 Z M 555 81 L 555 83 L 558 82 L 555 81 Z M 557 83 Q 556 86 559 85 Q 560 82 557 83 Z M 117 85 L 118 87 L 121 86 L 117 85 Z M 115 87 L 117 89 Q 118 86 115 87 Z M 562 87 L 563 89 L 566 88 L 562 87 Z M 113 89 L 115 91 Q 116 88 113 89 Z M 565 89 L 565 91 L 568 90 L 565 89 Z M 111 91 L 113 93 Q 114 90 111 91 Z M 567 91 L 567 93 L 570 92 L 567 91 Z M 109 93 L 111 95 Q 112 92 109 93 Z M 569 93 L 569 95 L 572 94 L 569 93 Z M 107 95 L 109 97 Q 110 94 107 95 Z M 571 95 L 571 97 L 574 96 L 571 95 Z M 105 97 L 107 99 Q 108 96 105 97 Z M 573 97 L 573 99 L 576 98 L 573 97 Z M 103 99 L 105 101 Q 106 98 103 99 Z M 575 99 L 575 101 L 578 100 L 575 99 Z M 101 101 L 103 103 Q 104 100 101 101 Z M 577 101 L 577 103 L 580 102 L 577 101 Z M 99 103 L 101 105 Q 102 102 99 103 Z M 579 103 L 579 105 L 582 104 L 579 103 Z M 97 105 L 99 107 Q 100 104 97 105 Z M 581 105 L 581 107 L 584 106 L 581 105 Z M 95 107 L 97 109 Q 98 106 95 107 Z M 583 107 L 583 109 L 586 108 L 583 107 Z M 93 109 L 95 111 Q 96 108 93 109 Z M 585 109 L 585 111 L 588 110 L 585 109 Z M 91 111 L 93 113 Q 94 110 91 111 Z M 587 111 L 587 113 L 590 112 L 587 111 Z M 89 113 L 91 115 Q 92 112 89 113 Z M 589 113 L 589 115 L 592 114 L 589 113 Z M 87 115 L 89 117 Q 90 114 87 115 Z M 591 115 L 591 117 L 594 116 L 591 115 Z M 81 123 L 83 125 Q 84 122 81 123 Z M 597 123 L 597 125 L 600 124 L 597 123 Z M 79 125 L 81 127 Q 82 124 79 125 Z M 599 125 L 599 127 L 602 126 L 599 125 Z M 73 133 L 75 135 Q 76 132 73 133 Z M 605 133 L 605 135 L 608 134 L 605 133 Z M 71 135 L 73 137 Q 74 134 71 135 Z M 607 135 L 607 137 L 610 136 L 607 135 Z M 585 143 Q 584 147 589 145 Q 590 141 585 143 Z M 581 145 L 579 147 L 585 147 Q 586 143 581 145 Z M 575 147 L 573 149 L 579 149 Q 580 145 575 147 Z M 585 147 L 585 149 L 581 149 L 573 153 L 569 153 L 567 155 L 561 153 L 560 155 Q 564 154 563 157 L 557 155 L 556 157 Q 560 156 559 159 Q 556 160 555 157 L 551 159 L 555 159 Q 556 162 553 161 Q 551 157 549 161 L 551 161 L 549 165 L 545 163 L 544 165 Q 546 164 545 167 Q 545 170 541 169 Q 539 165 537 169 L 539 169 L 535 175 L 531 173 L 530 175 Q 532 174 531 177 L 519 189 L 517 189 Q 515 185 513 189 L 515 189 L 515 191 L 485 221 L 481 219 L 480 221 Q 482 220 481 223 L 473 231 L 471 231 Q 469 227 467 231 L 469 231 L 467 235 L 463 233 L 462 235 Q 464 234 463 237 Q 462 240 457 239 L 456 242 L 455 239 Q 452 240 453 245 L 451 247 Q 453 252 449 251 L 443 233 Q 440 232 441 235 Q 438 236 439 233 L 441 233 Q 439 229 438 233 Q 434 233 433 231 Q 432 228 435 229 L 434 227 Q 432 230 429 229 Q 428 226 433 227 L 432 225 L 428 227 Q 424 228 423 225 Q 422 222 425 223 L 424 221 Q 422 224 419 223 Q 418 220 423 221 L 422 219 L 415 221 Q 414 218 419 219 L 418 217 L 411 219 Q 410 216 415 217 L 414 215 L 407 217 Q 406 214 411 215 L 410 213 L 406 215 L 402 213 L 396 213 L 394 211 L 371 211 L 369 213 Q 366 214 367 211 L 363 213 L 363 217 Q 366 218 365 215 Q 368 214 367 217 Q 372 216 373 220 Q 374 222 372 221 L 373 223 L 377 221 L 389 234 L 389 235 L 385 233 L 387 239 L 389 239 Q 388 236 391 237 L 393 241 L 389 239 L 391 245 L 393 245 Q 392 242 395 243 L 397 247 L 393 245 L 393 248 L 405 271 L 407 271 Q 406 268 409 269 L 411 273 L 407 271 L 411 281 L 413 281 Q 412 278 415 279 L 419 285 L 415 283 Q 414 286 417 288 L 415 291 L 414 293 Q 416 292 415 295 Q 414 298 409 297 L 407 297 L 403 303 L 403 306 L 405 309 L 407 309 Q 406 306 409 307 L 415 315 L 411 313 L 411 317 Q 414 316 413 319 Q 416 320 415 317 L 419 319 L 426 319 L 434 311 L 438 313 Q 444 315 446 312 L 437 311 L 438 309 L 445 309 L 451 317 L 447 315 Q 446 318 449 320 L 449 324 L 451 326 Q 452 331 449 333 L 449 342 L 451 345 L 453 345 Q 452 342 455 343 L 457 347 L 453 345 Q 452 350 455 352 L 455 360 L 457 362 L 457 371 L 455 373 L 455 381 L 451 389 L 451 393 L 455 391 L 453 395 Q 450 396 451 393 L 449 393 L 447 399 L 451 397 L 451 399 L 443 407 Q 440 406 441 409 L 437 409 L 437 413 Q 442 414 444 411 L 456 411 Q 458 407 466 409 L 468 407 L 474 407 L 482 403 L 486 403 L 488 401 L 492 403 L 496 403 L 497 401 Q 490 403 491 399 Q 496 400 498 397 L 504 399 L 505 397 Q 500 398 501 395 Q 504 394 506 397 L 509 396 L 505 395 Q 504 392 508 393 Q 509 397 511 394 L 509 393 L 512 389 L 518 391 L 519 389 Q 514 390 515 387 Q 518 386 520 389 L 521 387 Q 518 388 519 386 L 524 381 L 526 381 Q 527 385 529 382 L 527 381 L 527 380 L 546 361 Q 548 360 547 363 L 549 363 L 551 357 L 547 359 L 552 353 Q 554 352 553 355 L 555 355 L 559 345 L 555 347 L 558 343 Q 560 342 559 345 L 561 345 L 567 334 L 567 330 L 571 324 L 571 318 L 573 316 Q 571 310 575 311 Q 577 306 573 307 L 573 310 L 571 307 L 565 307 L 557 311 L 553 311 L 551 313 L 547 313 L 545 315 L 526 315 Q 525 312 520 313 L 517 309 Q 520 308 519 311 L 525 311 L 522 309 L 519 305 L 517 305 Q 518 308 516 307 L 513 303 L 517 305 L 515 299 Q 512 298 513 301 L 504 293 L 488 293 Q 486 289 479 291 L 480 289 L 487 289 L 486 287 L 480 287 L 476 289 L 473 285 Q 476 284 475 287 L 479 287 L 475 283 L 476 281 L 486 281 L 487 279 L 472 280 L 473 283 Q 470 284 471 280 L 474 277 L 486 277 L 492 271 Q 494 270 493 273 L 495 273 L 497 267 L 493 269 L 498 263 Q 500 262 499 265 L 501 265 L 503 259 L 499 261 L 499 260 L 512 247 Q 514 246 513 249 L 515 249 L 517 243 L 513 245 L 513 244 L 566 191 Q 568 190 567 193 L 569 193 L 571 187 L 567 189 L 567 188 L 576 179 Q 578 178 577 181 L 579 181 L 583 171 L 579 173 L 582 169 Q 584 168 583 171 L 585 171 L 589 164 L 591 154 L 593 152 Q 594 148 592 147 L 591 152 L 589 151 Q 591 145 585 147 Z M 61 149 L 63 151 Q 64 148 61 149 Z M 569 149 L 567 151 L 573 151 Q 574 147 569 149 Z M 617 149 L 617 151 L 620 150 L 617 149 Z M 565 151 L 563 153 L 567 153 Q 568 150 565 151 Z M 547 161 L 545 163 L 549 163 Q 550 160 547 161 Z M 541 165 L 539 167 L 543 167 Q 544 164 541 165 Z M 535 169 Q 534 172 537 171 Q 538 168 535 169 Z M 533 171 L 532 173 L 536 173 L 533 171 Z M 527 175 Q 526 178 529 177 Q 530 174 527 175 Z M 525 177 L 525 179 L 528 179 L 525 177 Z M 523 179 L 523 181 L 526 181 L 523 179 Z M 521 181 L 521 183 L 524 183 L 521 181 Z M 575 181 L 577 183 Q 578 180 575 181 Z M 519 183 L 519 185 L 522 185 L 519 183 Z M 573 183 L 575 185 Q 576 182 573 183 Z M 517 185 L 516 187 L 520 187 L 517 185 Z M 571 185 L 573 187 Q 574 184 571 185 Z M 511 189 Q 510 192 513 191 Q 514 188 511 189 Z M 509 191 L 509 193 L 512 193 L 509 191 Z M 507 193 L 507 195 L 510 195 L 507 193 Z M 565 193 L 567 195 Q 568 192 565 193 Z M 505 195 L 505 197 L 508 197 L 505 195 Z M 563 195 L 565 197 Q 566 194 563 195 Z M 503 197 L 503 199 L 506 199 L 503 197 Z M 561 197 L 563 199 Q 564 196 561 197 Z M 501 199 L 501 201 L 504 201 L 501 199 Z M 559 199 L 561 201 Q 562 198 559 199 Z M 499 201 L 499 203 L 502 203 L 499 201 Z M 557 201 L 559 203 Q 560 200 557 201 Z M 497 203 L 497 205 L 500 205 L 497 203 Z M 555 203 L 557 205 Q 558 202 555 203 Z M 495 205 L 495 207 L 498 207 L 495 205 Z M 553 205 L 555 207 Q 556 204 553 205 Z M 371 207 L 370 209 L 395 209 L 394 207 L 371 207 Z M 493 207 L 493 209 L 496 209 L 493 207 Z M 551 207 L 553 209 Q 554 206 551 207 Z M 369 209 L 367 211 L 369 211 L 369 209 Z M 395 209 L 395 211 L 403 211 Q 401 207 395 209 Z M 491 209 L 491 211 L 494 211 L 491 209 Z M 549 209 L 551 211 Q 552 208 549 209 Z M 403 211 L 403 213 L 407 213 L 403 211 Z M 489 211 L 489 213 L 492 213 L 489 211 Z M 547 211 L 549 213 Q 550 210 547 211 Z M 487 213 L 487 215 L 490 215 L 487 213 Z M 545 213 L 547 215 Q 548 212 545 213 Z M 485 215 L 485 217 L 488 217 L 485 215 Z M 543 215 L 545 217 Q 546 214 543 215 Z M 483 217 L 482 219 L 486 219 L 483 217 Z M 541 217 L 543 219 Q 544 216 541 217 Z M 368 219 Q 367 222 371 221 Q 372 218 368 219 Z M 539 219 L 541 221 Q 542 218 539 219 Z M 477 221 Q 476 224 479 223 Q 480 220 477 221 Z M 537 221 L 539 223 Q 540 220 537 221 Z M 374 223 L 375 225 L 378 224 L 374 223 Z M 425 223 L 425 225 L 429 225 L 425 223 Z M 475 223 L 475 225 L 478 225 L 475 223 Z M 535 223 L 537 225 Q 538 222 535 223 Z M 377 225 L 377 227 L 380 226 L 377 225 Z M 473 225 L 473 227 L 476 227 L 473 225 Z M 533 225 L 535 227 Q 536 224 533 225 Z M 379 227 L 379 229 L 382 228 L 379 227 Z M 471 227 L 470 229 L 474 229 L 471 227 Z M 531 227 L 533 229 Q 534 226 531 227 Z M 381 229 L 381 231 L 384 230 L 381 229 Z M 435 229 L 435 231 L 439 231 L 435 229 Z M 529 229 L 531 231 Q 532 228 529 229 Z M 383 231 L 383 233 L 386 232 L 383 231 Z M 465 231 L 463 233 L 467 233 Q 468 230 465 231 Z M 527 231 L 529 233 Q 530 230 527 231 Z M 525 233 L 527 235 Q 528 232 525 233 Z M 459 235 L 457 237 L 461 237 Q 462 234 459 235 Z M 523 235 L 525 237 Q 526 234 523 235 Z M 521 237 L 523 239 Q 524 236 521 237 Z M 519 239 L 521 241 Q 522 238 519 239 Z M 517 241 L 519 243 Q 520 240 517 241 Z M 511 249 L 513 251 Q 514 248 511 249 Z M 509 251 L 511 253 Q 512 250 509 251 Z M 507 253 L 509 255 Q 510 252 507 253 Z M 505 255 L 507 257 Q 508 254 505 255 Z M 503 257 L 505 259 Q 506 256 503 257 Z M 497 265 L 499 267 Q 500 264 497 265 Z M 491 273 L 493 275 Q 494 272 491 273 Z M 489 275 Q 488 278 491 277 Q 492 274 489 275 Z M 487 277 L 487 279 L 489 278 L 487 277 Z M 413 281 L 413 283 L 416 282 L 413 281 Z M 487 289 L 487 291 L 505 291 L 504 289 L 487 289 Z M 506 291 Q 504 294 507 293 L 506 291 Z M 411 293 L 409 295 L 413 295 Q 414 292 411 293 Z M 507 293 Q 506 296 509 295 Q 510 292 507 293 Z M 510 295 L 508 297 L 511 297 Q 512 294 510 295 Z M 512 297 L 510 299 L 513 299 Q 514 296 512 297 Z M 565 303 L 564 305 L 571 305 Q 570 302 565 303 Z M 559 305 L 557 307 L 563 307 Q 564 303 559 305 Z M 553 307 L 551 309 L 557 309 Q 558 305 553 307 Z M 397 309 L 396 311 L 403 311 Q 402 308 397 309 Z M 407 309 L 407 311 L 410 310 L 407 309 Z M 547 309 L 545 311 L 551 311 Q 552 307 547 309 Z M 395 311 L 393 313 L 395 313 L 395 311 Z M 404 311 Q 402 314 405 313 L 404 311 Z M 409 311 L 409 313 L 412 312 L 409 311 Z M 525 311 L 526 313 L 545 313 L 545 311 L 525 311 Z M 391 313 Q 390 316 393 315 Q 394 312 391 313 Z M 397 313 L 339 371 L 337 371 Q 335 367 333 371 L 335 371 L 335 373 L 277 431 L 273 429 L 272 431 Q 274 430 273 433 L 227 479 L 225 479 Q 223 475 221 479 L 223 479 L 223 481 L 179 525 L 175 523 L 174 525 Q 176 524 175 527 L 135 567 L 133 567 Q 131 563 129 567 L 131 567 L 131 569 L 117 583 Q 114 584 115 581 Q 112 580 113 583 L 108 587 L 111 587 L 110 589 L 113 589 L 113 591 Q 116 592 115 589 L 117 589 L 127 600 L 126 602 Q 125 605 130 603 L 129 605 L 133 605 Q 134 602 131 603 L 131 602 L 140 593 L 144 595 L 145 593 Q 142 594 143 592 L 178 557 L 180 557 Q 181 561 183 558 L 181 557 L 181 556 L 208 529 L 212 531 L 213 529 Q 210 530 211 528 L 240 499 L 242 499 Q 243 503 245 500 L 243 499 L 243 498 L 274 467 L 278 469 L 279 467 Q 276 468 277 466 L 316 427 L 318 427 Q 319 431 321 428 L 319 427 L 319 426 L 394 351 Q 396 350 395 353 L 397 353 L 399 347 Q 396 346 397 349 Q 394 350 395 348 L 400 343 L 402 343 Q 403 347 405 344 L 403 343 L 410 335 Q 412 334 411 337 L 413 337 L 417 330 L 417 325 L 415 321 Q 412 320 413 323 L 412 323 L 402 313 L 397 313 Z M 405 313 Q 404 316 407 315 Q 408 312 405 313 Z M 433 313 L 434 315 L 437 314 L 433 313 Z M 445 313 L 445 315 L 448 314 L 445 313 Z M 389 315 L 389 317 L 392 317 L 389 315 Z M 408 315 L 406 317 L 409 317 Q 410 314 408 315 Z M 431 315 L 433 317 Q 434 314 431 315 Z M 387 317 L 387 319 L 390 319 L 387 317 Z M 410 317 L 408 319 L 411 319 Q 412 316 410 317 Z M 429 317 Q 428 320 431 319 Q 432 316 429 317 Z M 385 319 L 385 321 L 388 321 L 385 319 Z M 412 319 L 410 321 L 413 321 Q 414 318 412 319 Z M 415 319 Q 414 322 417 321 Q 418 318 415 319 Z M 427 319 L 427 321 L 429 320 L 427 319 Z M 383 321 L 383 323 L 386 323 L 383 321 Z M 418 321 L 419 323 Q 425 325 427 322 L 418 321 Z M 381 323 L 381 325 L 384 325 L 381 323 Z M 379 325 L 379 327 L 382 327 L 379 325 Z M 377 327 L 377 329 L 380 329 L 377 327 Z M 375 329 L 375 331 L 378 331 L 375 329 Z M 373 331 L 373 333 L 376 333 L 373 331 Z M 371 333 L 371 335 L 374 335 L 371 333 Z M 369 335 L 369 337 L 372 337 L 369 335 Z M 367 337 L 367 339 L 370 339 L 367 337 Z M 409 337 L 411 339 Q 412 336 409 337 Z M 365 339 L 365 341 L 368 341 L 365 339 Z M 407 339 L 409 341 Q 410 338 407 339 Z M 363 341 L 363 343 L 366 343 L 363 341 Z M 405 341 Q 404 344 407 343 Q 408 340 405 341 Z M 361 343 L 361 345 L 364 345 L 361 343 Z M 359 345 L 359 347 L 362 347 L 359 345 Z M 399 345 L 400 347 L 403 346 L 399 345 Z M 357 347 L 357 349 L 360 349 L 357 347 Z M 355 349 L 355 351 L 358 351 L 355 349 Z M 353 351 L 353 353 L 356 353 L 353 351 Z M 351 353 L 351 355 L 354 355 L 351 353 Z M 393 353 L 395 355 Q 396 352 393 353 Z M 349 355 L 349 357 L 352 357 L 349 355 Z M 391 355 L 393 357 Q 394 354 391 355 Z M 551 355 L 553 357 Q 554 354 551 355 Z M 347 357 L 347 359 L 350 359 L 347 357 Z M 389 357 L 391 359 Q 392 356 389 357 Z M 345 359 L 345 361 L 348 361 L 345 359 Z M 387 359 L 389 361 Q 390 358 387 359 Z M 343 361 L 343 363 L 346 363 L 343 361 Z M 385 361 L 387 363 Q 388 360 385 361 Z M 341 363 L 341 365 L 344 365 L 341 363 Z M 383 363 L 385 365 Q 386 362 383 363 Z M 545 363 L 547 365 Q 548 362 545 363 Z M 339 365 L 339 367 L 342 367 L 339 365 Z M 381 365 L 383 367 Q 384 364 381 365 Z M 543 365 L 545 367 Q 546 364 543 365 Z M 337 367 L 336 369 L 340 369 L 337 367 Z M 379 367 L 381 369 Q 382 366 379 367 Z M 541 367 L 543 369 Q 544 366 541 367 Z M 377 369 L 379 371 Q 380 368 377 369 Z M 539 369 L 541 371 Q 542 368 539 369 Z M 331 371 Q 330 374 333 373 Q 334 370 331 371 Z M 375 371 L 377 373 Q 378 370 375 371 Z M 537 371 L 539 373 Q 540 370 537 371 Z M 329 373 L 329 375 L 332 375 L 329 373 Z M 373 373 L 375 375 Q 376 372 373 373 Z M 535 373 L 537 375 Q 538 372 535 373 Z M 327 375 L 327 377 L 330 377 L 327 375 Z M 371 375 L 373 377 Q 374 374 371 375 Z M 533 375 L 535 377 Q 536 374 533 375 Z M 325 377 L 325 379 L 328 379 L 325 377 Z M 369 377 L 371 379 Q 372 376 369 377 Z M 531 377 L 533 379 Q 534 376 531 377 Z M 323 379 L 323 381 L 326 381 L 323 379 Z M 367 379 L 369 381 Q 370 378 367 379 Z M 529 379 Q 528 382 531 381 Q 532 378 529 379 Z M 321 381 L 321 383 L 324 383 L 321 381 Z M 365 381 L 367 383 Q 368 380 365 381 Z M 319 383 L 319 385 L 322 385 L 319 383 Z M 363 383 L 365 385 Q 366 382 363 383 Z M 523 383 L 524 385 L 527 384 L 523 383 Z M 317 385 L 317 387 L 320 387 L 317 385 Z M 361 385 L 363 387 Q 364 384 361 385 Z M 521 385 Q 520 388 523 387 Q 524 384 521 385 Z M 315 387 L 315 389 L 318 389 L 315 387 Z M 359 387 L 361 389 Q 362 386 359 387 Z M 313 389 L 313 391 L 316 391 L 313 389 Z M 357 389 L 359 391 Q 360 388 357 389 Z M 311 391 L 311 393 L 314 393 L 311 391 Z M 355 391 L 357 393 Q 358 390 355 391 Z M 511 391 L 511 393 L 515 392 L 511 391 Z M 309 393 L 309 395 L 312 395 L 309 393 Z M 353 393 L 355 395 Q 356 392 353 393 Z M 307 395 L 307 397 L 310 397 L 307 395 Z M 351 395 L 353 397 Q 354 394 351 395 Z M 305 397 L 305 399 L 308 399 L 305 397 Z M 349 397 L 351 399 Q 352 396 349 397 Z M 303 399 L 303 401 L 306 401 L 303 399 Z M 347 399 L 349 401 Q 350 398 347 399 Z M 445 399 L 445 401 L 448 401 L 445 399 Z M 497 399 L 497 401 L 501 400 L 497 399 Z M 301 401 L 301 403 L 304 403 L 301 401 Z M 345 401 L 347 403 Q 348 400 345 401 Z M 443 401 L 443 403 L 446 403 L 443 401 Z M 299 403 L 299 405 L 302 405 L 299 403 Z M 343 403 L 345 405 Q 346 402 343 403 Z M 441 403 L 441 405 L 444 405 L 441 403 Z M 487 403 L 487 405 L 491 404 L 487 403 Z M 297 405 L 297 407 L 300 407 L 297 405 Z M 341 405 L 343 407 Q 344 404 341 405 Z M 439 405 L 437 407 L 441 407 Q 442 404 439 405 Z M 481 405 L 481 407 Q 486 408 487 406 L 481 405 Z M 295 407 L 295 409 L 298 409 L 295 407 Z M 339 407 L 341 409 Q 342 406 339 407 Z M 475 407 L 475 409 Q 480 410 481 408 L 475 407 Z M 293 409 L 293 411 L 296 411 L 293 409 Z M 337 409 L 339 411 Q 340 408 337 409 Z M 433 409 Q 431 414 435 413 Q 437 408 433 409 Z M 467 409 L 467 411 L 474 411 L 475 410 L 467 409 Z M 291 411 L 291 413 L 294 413 L 291 411 Z M 335 411 L 337 413 Q 338 410 335 411 Z M 457 411 L 457 413 L 466 413 L 467 412 L 457 411 Z M 289 413 L 289 415 L 292 415 L 289 413 Z M 333 413 L 335 415 Q 336 412 333 413 Z M 443 413 L 443 415 L 456 415 L 457 414 L 443 413 Z M 287 415 L 287 417 L 290 417 L 287 415 Z M 331 415 L 333 417 Q 334 414 331 415 Z M 438 415 L 439 417 Q 442 418 443 416 L 438 415 Z M 285 417 L 285 419 L 288 419 L 285 417 Z M 329 417 L 331 419 Q 332 416 329 417 Z M 283 419 L 283 421 L 286 421 L 283 419 Z M 327 419 L 329 421 Q 330 418 327 419 Z M 281 421 L 281 423 L 284 423 L 281 421 Z M 325 421 L 327 423 Q 328 420 325 421 Z M 279 423 L 279 425 L 282 425 L 279 423 Z M 323 423 L 325 425 Q 326 422 323 423 Z M 277 425 L 277 427 L 280 427 L 277 425 Z M 321 425 Q 320 428 323 427 Q 324 424 321 425 Z M 275 427 L 274 429 L 278 429 L 275 427 Z M 315 429 L 316 431 L 319 430 L 315 429 Z M 269 431 Q 268 434 271 433 Q 272 430 269 431 Z M 313 431 L 315 433 Q 316 430 313 431 Z M 267 433 L 267 435 L 270 435 L 267 433 Z M 311 433 L 313 435 Q 314 432 311 433 Z M 265 435 L 265 437 L 268 437 L 265 435 Z M 309 435 L 311 437 Q 312 434 309 435 Z M 263 437 L 263 439 L 266 439 L 263 437 Z M 307 437 L 309 439 Q 310 436 307 437 Z M 261 439 L 261 441 L 264 441 L 261 439 Z M 305 439 L 307 441 Q 308 438 305 439 Z M 259 441 L 259 443 L 262 443 L 259 441 Z M 303 441 L 305 443 Q 306 440 303 441 Z M 257 443 L 257 445 L 260 445 L 257 443 Z M 301 443 L 303 445 Q 304 442 301 443 Z M 255 445 L 255 447 L 258 447 L 255 445 Z M 299 445 L 301 447 Q 302 444 299 445 Z M 253 447 L 253 449 L 256 449 L 253 447 Z M 297 447 L 299 449 Q 300 446 297 447 Z M 251 449 L 251 451 L 254 451 L 251 449 Z M 295 449 L 297 451 Q 298 448 295 449 Z M 249 451 L 249 453 L 252 453 L 249 451 Z M 293 451 L 295 453 Q 296 450 293 451 Z M 247 453 L 247 455 L 250 455 L 247 453 Z M 291 453 L 293 455 Q 294 452 291 453 Z M 245 455 L 245 457 L 248 457 L 245 455 Z M 289 455 L 291 457 Q 292 454 289 455 Z M 243 457 L 243 459 L 246 459 L 243 457 Z M 287 457 L 289 459 Q 290 456 287 457 Z M 241 459 L 241 461 L 244 461 L 241 459 Z M 285 459 L 287 461 Q 288 458 285 459 Z M 239 461 L 239 463 L 242 463 L 239 461 Z M 283 461 L 285 463 Q 286 460 283 461 Z M 237 463 L 237 465 L 240 465 L 237 463 Z M 281 463 L 283 465 Q 284 462 281 463 Z M 235 465 L 235 467 L 238 467 L 235 465 Z M 279 465 Q 278 468 281 467 Q 282 464 279 465 Z M 233 467 L 233 469 L 236 469 L 233 467 Z M 231 469 L 231 471 L 234 471 L 231 469 Z M 273 469 L 274 471 L 277 470 L 273 469 Z M 229 471 L 229 473 L 232 473 L 229 471 Z M 271 471 L 273 473 Q 274 470 271 471 Z M 227 473 L 227 475 L 230 475 L 227 473 Z M 269 473 L 271 475 Q 272 472 269 473 Z M 225 475 L 224 477 L 228 477 L 225 475 Z M 267 475 L 269 477 Q 270 474 267 475 Z M 265 477 L 267 479 Q 268 476 265 477 Z M 219 479 Q 218 482 221 481 Q 222 478 219 479 Z M 263 479 L 265 481 Q 266 478 263 479 Z M 217 481 L 217 483 L 220 483 L 217 481 Z M 261 481 L 263 483 Q 264 480 261 481 Z M 215 483 L 215 485 L 218 485 L 215 483 Z M 259 483 L 261 485 Q 262 482 259 483 Z M 213 485 L 213 487 L 216 487 L 213 485 Z M 257 485 L 259 487 Q 260 484 257 485 Z M 211 487 L 211 489 L 214 489 L 211 487 Z M 255 487 L 257 489 Q 258 486 255 487 Z M 209 489 L 209 491 L 212 491 L 209 489 Z M 253 489 L 255 491 Q 256 488 253 489 Z M 207 491 L 207 493 L 210 493 L 207 491 Z M 251 491 L 253 493 Q 254 490 251 491 Z M 205 493 L 205 495 L 208 495 L 205 493 Z M 249 493 L 251 495 Q 252 492 249 493 Z M 203 495 L 203 497 L 206 497 L 203 495 Z M 247 495 L 249 497 Q 250 494 247 495 Z M 201 497 L 201 499 L 204 499 L 201 497 Z M 245 497 Q 244 500 247 499 Q 248 496 245 497 Z M 199 499 L 199 501 L 202 501 L 199 499 Z M 197 501 L 197 503 L 200 503 L 197 501 Z M 239 501 L 240 503 L 243 502 L 239 501 Z M 195 503 L 195 505 L 198 505 L 195 503 Z M 237 503 L 239 505 Q 240 502 237 503 Z M 193 505 L 193 507 L 196 507 L 193 505 Z M 235 505 L 237 507 Q 238 504 235 505 Z M 191 507 L 191 509 L 194 509 L 191 507 Z M 233 507 L 235 509 Q 236 506 233 507 Z M 189 509 L 189 511 L 192 511 L 189 509 Z M 231 509 L 233 511 Q 234 508 231 509 Z M 187 511 L 187 513 L 190 513 L 187 511 Z M 229 511 L 231 513 Q 232 510 229 511 Z M 185 513 L 185 515 L 188 515 L 185 513 Z M 227 513 L 229 515 Q 230 512 227 513 Z M 183 515 L 183 517 L 186 517 L 183 515 Z M 225 515 L 227 517 Q 228 514 225 515 Z M 181 517 L 181 519 L 184 519 L 181 517 Z M 223 517 L 225 519 Q 226 516 223 517 Z M 179 519 L 179 521 L 182 521 L 179 519 Z M 221 519 L 223 521 Q 224 518 221 519 Z M 177 521 L 176 523 L 180 523 L 177 521 Z M 219 521 L 221 523 Q 222 520 219 521 Z M 217 523 L 219 525 Q 220 522 217 523 Z M 171 525 Q 170 528 173 527 Q 174 524 171 525 Z M 215 525 L 217 527 Q 218 524 215 525 Z M 169 527 L 169 529 L 172 529 L 169 527 Z M 213 527 Q 212 530 215 529 Q 216 526 213 527 Z M 62 529 L 60 531 L 63 531 Q 64 528 62 529 Z M 167 529 L 167 531 L 170 531 L 167 529 Z M 617 529 L 617 531 L 620 531 L 617 529 Z M 165 531 L 165 533 L 168 533 L 165 531 Z M 207 531 L 208 533 L 211 532 L 207 531 Z M 163 533 L 163 535 L 166 535 L 163 533 Z M 205 533 L 207 535 Q 208 532 205 533 Z M 161 535 L 161 537 L 164 537 L 161 535 Z M 203 535 L 205 537 Q 206 534 203 535 Z M 159 537 L 159 539 L 162 539 L 159 537 Z M 201 537 L 203 539 Q 204 536 201 537 Z M 157 539 L 157 541 L 160 541 L 157 539 Z M 199 539 L 201 541 Q 202 538 199 539 Z M 155 541 L 155 543 L 158 543 L 155 541 Z M 197 541 L 199 543 Q 200 540 197 541 Z M 72 543 L 70 545 L 73 545 Q 74 542 72 543 Z M 153 543 L 153 545 L 156 545 L 153 543 Z M 195 543 L 197 545 Q 198 542 195 543 Z M 607 543 L 607 545 L 610 545 L 607 543 Z M 74 545 L 72 547 L 75 547 Q 76 544 74 545 Z M 151 545 L 151 547 L 154 547 L 151 545 Z M 193 545 L 195 547 Q 196 544 193 545 Z M 149 547 L 149 549 L 152 549 L 149 547 Z M 191 547 L 193 549 Q 194 546 191 547 Z M 147 549 L 147 551 L 150 551 L 147 549 Z M 189 549 L 191 551 Q 192 548 189 549 Z M 145 551 L 145 553 L 148 553 L 145 551 Z M 187 551 L 189 553 Q 190 550 187 551 Z M 601 551 L 601 553 L 604 553 L 601 551 Z M 80 553 L 78 555 L 81 555 Q 82 552 80 553 Z M 143 553 L 143 555 L 146 555 L 143 553 Z M 185 553 L 187 555 Q 188 552 185 553 Z M 599 553 L 599 555 L 602 555 L 599 553 Z M 82 555 L 80 557 L 83 557 Q 84 554 82 555 Z M 141 555 L 141 557 L 144 557 L 141 555 Z M 183 555 Q 182 558 185 557 Q 186 554 183 555 Z M 597 555 L 597 557 L 600 557 L 597 555 Z M 139 557 L 139 559 L 142 559 L 139 557 Z M 137 559 L 137 561 L 140 561 L 137 559 Z M 177 559 L 178 561 L 181 560 L 177 559 Z M 135 561 L 135 563 L 138 563 L 135 561 Z M 175 561 L 177 563 Q 178 560 175 561 Z M 88 563 L 86 565 L 89 565 Q 90 562 88 563 Z M 133 563 L 132 565 L 136 565 L 133 563 Z M 173 563 L 175 565 Q 176 562 173 563 Z M 591 563 L 591 565 L 594 565 L 591 563 Z M 90 565 L 88 567 L 91 567 Q 92 564 90 565 Z M 171 565 L 173 567 Q 174 564 171 565 Z M 589 565 L 589 567 L 592 567 L 589 565 Z M 92 567 L 90 569 L 93 569 Q 94 566 92 567 Z M 127 567 Q 126 570 129 569 Q 130 566 127 567 Z M 169 567 L 171 569 Q 172 566 169 567 Z M 587 567 L 587 569 L 590 569 L 587 567 Z M 94 569 L 92 571 L 95 571 Q 96 568 94 569 Z M 125 569 L 125 571 L 128 571 L 125 569 Z M 167 569 L 169 571 Q 170 568 167 569 Z M 585 569 L 585 571 L 588 571 L 585 569 Z M 96 571 L 94 573 L 97 573 Q 98 570 96 571 Z M 123 571 L 123 573 L 126 573 L 123 571 Z M 165 571 L 167 573 Q 168 570 165 571 Z M 583 571 L 583 573 L 586 573 L 583 571 Z M 98 573 L 96 575 L 99 575 Q 100 572 98 573 Z M 121 573 L 121 575 L 124 575 L 121 573 Z M 163 573 L 165 575 Q 166 572 163 573 Z M 581 573 L 581 575 L 584 575 L 581 573 Z M 100 575 L 98 577 L 101 577 Q 102 574 100 575 Z M 119 575 L 119 577 L 122 577 L 119 575 Z M 161 575 L 163 577 Q 164 574 161 575 Z M 579 575 L 579 577 L 582 577 L 579 575 Z M 102 577 L 100 579 L 103 579 Q 104 576 102 577 Z M 117 577 L 117 579 L 120 579 L 117 577 Z M 159 577 L 161 579 Q 162 576 159 577 Z M 577 577 L 577 579 L 580 579 L 577 577 Z M 104 579 L 102 581 L 105 581 Q 106 578 104 579 Z M 115 579 L 115 581 L 118 581 L 115 579 Z M 157 579 L 159 581 Q 160 578 157 579 Z M 575 579 L 575 581 L 578 581 L 575 579 Z M 106 581 L 104 583 L 107 583 Q 108 580 106 581 Z M 155 581 L 157 583 Q 158 580 155 581 Z M 573 581 L 573 583 L 576 583 L 573 581 Z M 108 583 L 106 585 L 109 585 Q 110 582 108 583 Z M 153 583 L 155 585 Q 156 582 153 583 Z M 571 583 L 571 585 L 574 585 L 571 583 Z M 151 585 L 153 587 Q 154 584 151 585 Z M 569 585 L 569 587 L 572 587 L 569 585 Z M 149 587 L 151 589 Q 152 586 149 587 Z M 567 587 L 567 589 L 570 589 L 567 587 Z M 147 589 L 149 591 Q 150 588 147 589 Z M 565 589 L 565 591 L 568 591 L 565 589 Z M 115 591 Q 114 594 117 593 Q 118 590 115 591 Z M 145 591 Q 144 594 147 593 Q 148 590 145 591 Z M 563 591 L 563 593 L 566 593 L 563 591 Z M 117 593 Q 116 596 120 595 Q 121 592 117 593 Z M 561 593 L 560 595 L 564 595 L 561 593 Z M 120 595 Q 119 598 122 597 Q 123 594 120 595 Z M 139 595 L 140 597 L 143 596 L 139 595 Z M 122 597 Q 121 600 124 599 Q 125 596 122 597 Z M 137 597 L 139 599 Q 140 596 137 597 Z M 555 597 Q 554 600 557 599 Q 558 596 555 597 Z M 124 599 Q 123 602 126 601 Q 127 598 124 599 Z M 135 599 L 137 601 Q 138 598 135 599 Z M 553 599 L 553 601 L 556 601 L 553 599 Z M 133 601 L 135 603 Q 136 600 133 601 Z M 551 601 L 551 603 L 554 603 L 551 601 Z M 549 603 L 548 605 L 552 605 L 549 603 Z M 135 607 Q 134 610 137 609 Q 138 606 135 607 Z M 543 607 Q 542 610 545 609 Q 546 606 543 607 Z M 138 609 L 137 611 L 141 611 L 138 609 Z M 541 609 L 540 611 L 544 611 L 541 609 Z M 143 613 L 143 615 L 147 615 L 143 613 Z M 535 613 L 533 615 L 537 615 Q 538 612 535 613 Z M 149 617 Q 148 620 151 619 Q 152 616 149 617 Z M 529 617 Q 528 620 531 619 Q 532 616 529 617 Z M 152 619 L 151 621 L 155 621 L 152 619 Z M 527 619 L 526 621 L 530 621 L 527 619 Z M 521 623 L 519 625 L 523 625 Q 524 622 521 623 Z M 161 625 L 161 627 L 165 627 L 161 625 Z M 167 629 L 167 631 L 171 631 L 167 629 Z M 511 629 L 509 631 L 513 631 Q 514 628 511 629 Z M 185 639 L 185 641 L 189 641 L 185 639 Z M 493 639 L 491 641 L 495 641 Q 496 638 493 639 Z M 199 645 L 199 647 L 203 647 L 199 645 Z M 479 645 L 477 647 L 481 647 Q 482 644 479 645 Z M 217 653 L 217 655 L 223 655 Q 222 652 217 653 Z M 459 653 L 457 655 L 463 655 Q 464 651 459 653 Z M 223 655 L 223 657 L 227 657 L 223 655 Z M 455 655 L 453 657 L 457 657 Q 458 654 455 655 Z M 233 659 L 233 661 L 239 661 Q 238 658 233 659 Z M 443 659 L 441 661 L 447 661 Q 448 657 443 659 Z M 239 661 L 239 663 L 247 663 L 246 661 L 239 661 Z M 435 661 L 433 663 L 441 663 Q 442 660 435 661 Z M 247 663 L 247 665 L 253 665 Q 252 662 247 663 Z M 429 663 L 427 665 L 433 665 Q 434 661 429 663 Z M 253 665 L 253 667 L 261 667 Q 259 663 253 665 Z M 421 665 L 419 667 L 427 667 Q 428 664 421 665 Z M 261 667 L 261 669 L 271 669 L 270 667 L 261 667 Z M 411 667 L 409 669 L 419 669 L 419 667 L 411 667 Z M 271 669 L 271 671 L 281 671 L 280 669 L 271 669 Z M 401 669 L 399 671 L 409 671 L 409 669 L 401 669 Z M 281 671 L 281 673 L 293 673 L 292 671 L 281 671 Z M 389 671 L 387 673 L 399 673 L 399 671 L 389 671 Z M 293 673 L 293 675 L 311 675 L 310 673 L 293 673 Z M 371 673 L 369 675 L 387 675 L 387 673 L 371 673 Z "/>
  <path fill="rgb(0,0,0)" stroke="rgb(0,0,0)" stroke-width="1" opacity="0" d="M 587 153 Q 590 152 589 155 Q 586 156 587 153 Z "/>
  <path fill="rgb(0,0,0)" stroke="rgb(0,0,0)" stroke-width="1" opacity="0" d="M 585 159 Q 588 158 587 161 Q 584 162 585 159 Z "/>
  <path fill="rgb(0,0,0)" stroke="rgb(0,0,0)" stroke-width="1" opacity="0" d="M 583 165 Q 586 164 585 167 Q 582 168 583 165 Z "/>
  <path fill="rgb(0,0,0)" stroke="rgb(0,0,0)" stroke-width="1" opacity="0" d="M 577 175 Q 580 174 579 177 Q 576 178 577 175 Z "/>
  <path fill="rgb(0,0,0)" stroke="rgb(0,0,0)" stroke-width="1" opacity="0" d="M 441 239 Q 444 238 443 241 Q 440 242 441 239 Z "/>
  <path fill="rgb(0,0,0)" stroke="rgb(0,0,0)" stroke-width="1" opacity="0" d="M 455 243 Q 458 242 457 245 Q 454 246 455 243 Z "/>
  <path fill="rgb(0,0,0)" stroke="rgb(0,0,0)" stroke-width="1" opacity="0" d="M 443 245 Q 446 244 445 247 Q 442 248 443 245 Z "/>
  <path fill="rgb(0,0,0)" stroke="rgb(0,0,0)" stroke-width="1" opacity="0" d="M 453.5 246 L 455 248.5 L 453 249.5 L 453.5 246 Z "/>
  <path fill="rgb(0,0,0)" stroke="rgb(0,0,0)" stroke-width="1" opacity="0" d="M 397 249 Q 400 248 399 251 Q 396 252 397 249 Z "/>
  <path fill="rgb(0,0,0)" stroke="rgb(0,0,0)" stroke-width="1" opacity="0" d="M 445 251 Q 448.1 250.3 447.5 253 L 453 253 Q 452 250 455 251 L 452.5 255 Q 446.3 256.3 445 252.5 L 445 251 Z "/>
  <path fill="rgb(0,0,0)" stroke="rgb(0,0,0)" stroke-width="1" opacity="0" d="M 399 253 Q 402 252 401 255 Q 398 256 399 253 Z "/>
  <path fill="rgb(0,0,0)" stroke="rgb(0,0,0)" stroke-width="1" opacity="0" d="M 401 257 Q 404 256 403 259 Q 400 260 401 257 Z "/>
  <path fill="rgb(0,0,0)" stroke="rgb(0,0,0)" stroke-width="1" opacity="0" d="M 403 261 Q 406 260 405 263 Q 402 264 403 261 Z "/>
  <path fill="rgb(0,0,0)" stroke="rgb(0,0,0)" stroke-width="1" opacity="0" d="M 405 265 Q 408 264 407 267 Q 404 268 405 265 Z "/>
  <path fill="rgb(0,0,0)" stroke="rgb(0,0,0)" stroke-width="1" opacity="0" d="M 411 275 Q 414 274 413 277 Q 410 278 411 275 Z "/>
  <path fill="rgb(0,0,0)" stroke="rgb(0,0,0)" stroke-width="1" opacity="0" d="M 419 287 Q 422 286 421 289 Q 418 290 419 287 Z "/>
  <path fill="rgb(0,0,0)" stroke="rgb(0,0,0)" stroke-width="1" opacity="0" d="M 416 291 Q 420.1 289.7 419 293 Q 414.9 294.3 416 291 Z "/>
  <path fill="rgb(0,0,0)" stroke="rgb(0,0,0)" stroke-width="1" opacity="0" d="M 407 299 Q 410 298 409 301 Q 406 302 407 299 Z "/>
  <path fill="rgb(0,0,0)" stroke="rgb(0,0,0)" stroke-width="1" opacity="0" d="M 405.5 302 L 407 305 Q 403.5 306.1 405.5 302 Z "/>
  <path fill="rgb(0,0,0)" stroke="rgb(0,0,0)" stroke-width="1" opacity="0" d="M 569 311 Q 572 310 571 313 Q 568 314 569 311 Z "/>
  <path fill="rgb(0,0,0)" stroke="rgb(0,0,0)" stroke-width="1" opacity="0" d="M 567 317 Q 570 316 569 319 Q 566 320 567 317 Z "/>
  <path fill="rgb(0,0,0)" stroke="rgb(0,0,0)" stroke-width="1" opacity="0" d="M 451 319 Q 454 318 453 321 Q 450 322 451 319 Z "/>
  <path fill="rgb(0,0,0)" stroke="rgb(0,0,0)" stroke-width="1" opacity="0" d="M 568.5 320 L 569 323.5 L 567 322.5 L 568.5 320 Z "/>
  <path fill="rgb(0,0,0)" stroke="rgb(0,0,0)" stroke-width="1" opacity="0" d="M 413 325 Q 416.7 323.6 415 329.5 L 413 328.5 L 413 325 Z "/>
  <path fill="rgb(0,0,0)" stroke="rgb(0,0,0)" stroke-width="1" opacity="0" d="M 453 325 Q 456 324 455 327 Q 452 328 453 325 Z "/>
  <path fill="rgb(0,0,0)" stroke="rgb(0,0,0)" stroke-width="1" opacity="0" d="M 565 325 Q 568 324 567 327 Q 564 328 565 325 Z "/>
  <path fill="rgb(0,0,0)" stroke="rgb(0,0,0)" stroke-width="1" opacity="0" d="M 453 329 Q 456 328 455 331 Q 452 332 453 329 Z "/>
  <path fill="rgb(0,0,0)" stroke="rgb(0,0,0)" stroke-width="1" opacity="0" d="M 563 329 Q 566 328 565 331 Q 562 332 563 329 Z "/>
  <path fill="rgb(0,0,0)" stroke="rgb(0,0,0)" stroke-width="1" opacity="0" d="M 411 331 Q 414 330 413 333 Q 410 334 411 331 Z "/>
  <path fill="rgb(0,0,0)" stroke="rgb(0,0,0)" stroke-width="1" opacity="0" d="M 451.5 332 L 453 333.5 L 453 341 L 451 340.5 L 451.5 332 Z "/>
  <path fill="rgb(0,0,0)" stroke="rgb(0,0,0)" stroke-width="1" opacity="0" d="M 561 335 Q 564 334 563 337 Q 560 338 561 335 Z "/>
  <path fill="rgb(0,0,0)" stroke="rgb(0,0,0)" stroke-width="1" opacity="0" d="M 559 339 Q 562 338 561 341 Q 558 342 559 339 Z "/>
  <path fill="rgb(0,0,0)" stroke="rgb(0,0,0)" stroke-width="1" opacity="0" d="M 553 349 Q 556 348 555 351 Q 552 352 553 349 Z "/>
  <path fill="rgb(0,0,0)" stroke="rgb(0,0,0)" stroke-width="1" opacity="0" d="M 457 351 Q 460 350 459 353 Q 456 354 457 351 Z "/>
  <path fill="rgb(0,0,0)" stroke="rgb(0,0,0)" stroke-width="1" opacity="0" d="M 457.5 354 Q 459.8 354.8 459 358.5 L 457 359.5 L 457.5 354 Z "/>
  <path fill="rgb(0,0,0)" stroke="rgb(0,0,0)" stroke-width="1" opacity="0" d="M 459 361 Q 462 360 461 363 Q 458 364 459 361 Z "/>
  <path fill="rgb(0,0,0)" stroke="rgb(0,0,0)" stroke-width="1" opacity="0" d="M 459.5 364 L 461 366.5 L 459 367.5 L 459.5 364 Z "/>
  <path fill="rgb(0,0,0)" stroke="rgb(0,0,0)" stroke-width="1" opacity="0" d="M 459 369 Q 462 368 461 371 Q 458 372 459 369 Z "/>
  <path fill="rgb(0,0,0)" stroke="rgb(0,0,0)" stroke-width="1" opacity="0" d="M 457.5 372 Q 459.8 372.8 459 376.5 L 457 377.5 L 457.5 372 Z "/>
  <path fill="rgb(0,0,0)" stroke="rgb(0,0,0)" stroke-width="1" opacity="0" d="M 457 379 Q 460 378 459 381 Q 456 382 457 379 Z "/>
  <path fill="rgb(0,0,0)" stroke="rgb(0,0,0)" stroke-width="1" opacity="0" d="M 455 385 Q 458 384 457 387 Q 454 388 455 385 Z "/>
  <path fill="rgb(0,0,0)" stroke="rgb(0,0,0)" stroke-width="1" opacity="0" d="M 113 585 Q 115.7 583.9 115 586.5 L 113 587.5 L 113 585 Z "/>
  <path fill="rgb(255,255,255)" stroke="rgb(255,255,255)" stroke-width="1" opacity="0.796078431372549" d="M 313 0 Q 316.3 -1.1 315 3 Q 311.7 4.1 313 0 Z "/>
  <path fill="rgb(255,255,255)" stroke="rgb(255,255,255)" stroke-width="1" opacity="0.796078431372549" d="M 365 0 Q 368.3 -1.1 367 3 Q 363.7 4.1 365 0 Z "/>
  <path fill="rgb(255,255,255)" stroke="rgb(255,255,255)" stroke-width="1" opacity="0.796078431372549" d="M 293 5 L 311 5.5 L 309.5 7 L 293.5 7 L 291.5 9 L 281.5 9 L 279.5 11 L 271.5 11 Q 269.5 15 261.5 13 L 259.5 15 L 253.5 15 L 245.5 19 L 239.5 19 Q 238 22.3 233 21 L 233 19 L 239 19 L 239.5 17 L 246.5 17 L 247 15 L 253 15 L 253.5 13 Q 262.3 14.4 261.5 11 L 270.5 11 L 271.5 9 L 280.5 9 L 281.5 7 L 292.5 7 L 293 5 Z "/>
  <path fill="rgb(255,255,255)" stroke="rgb(255,255,255)" stroke-width="1" opacity="0.796078431372549" d="M 369.5 5 L 386.5 5 L 387.5 7 L 398.5 7 L 399.5 9 L 409 9 L 409.5 11 L 418.5 11 L 419.5 13 L 426.5 13 L 427 15 L 433 15 L 433.5 17 L 440.5 17 L 441 19 L 447 19 L 447 21 Q 441.9 22.3 440.5 19 L 434.5 19 L 426.5 15 L 420.5 15 L 418.5 13 L 410.5 13 Q 408.5 9 400.5 11 L 398.5 9 L 388.5 9 L 386.5 7 L 370.5 7 L 369.5 5 Z "/>
  <path fill="rgb(255,255,255)" stroke="rgb(255,255,255)" stroke-width="1" opacity="0.796078431372549" d="M 223 23 L 227 23.5 L 221.5 27 L 217 27 L 217 25 L 223 25 L 223 23 Z "/>
  <path fill="rgb(255,255,255)" stroke="rgb(255,255,255)" stroke-width="1" opacity="0.796078431372549" d="M 453.5 23 Q 458.5 22 457.5 25 L 463 25 L 463 27 L 458.5 27 L 454.5 25 L 453.5 23 Z "/>
  <path fill="rgb(255,255,255)" stroke="rgb(255,255,255)" stroke-width="1" opacity="0.796078431372549" d="M 199 33 L 203 33.5 L 199 35 L 199 33 Z "/>
  <path fill="rgb(255,255,255)" stroke="rgb(255,255,255)" stroke-width="1" opacity="0.796078431372549" d="M 477.5 33 Q 482.3 31.7 481 35 Q 477.2 35.8 477.5 33 Z "/>
  <path fill="rgb(255,255,255)" stroke="rgb(255,255,255)" stroke-width="1" opacity="0.796078431372549" d="M 185 39 L 189 39.5 L 185 41 L 185 39 Z "/>
  <path fill="rgb(255,255,255)" stroke="rgb(255,255,255)" stroke-width="1" opacity="0.796078431372549" d="M 491.5 39 Q 496.3 37.7 495 41 Q 491.2 41.8 491.5 39 Z "/>
  <path fill="rgb(255,255,255)" stroke="rgb(255,255,255)" stroke-width="1" opacity="0.796078431372549" d="M 167 49 L 171 49.5 L 167 51 L 167 49 Z "/>
  <path fill="rgb(255,255,255)" stroke="rgb(255,255,255)" stroke-width="1" opacity="0.796078431372549" d="M 509.5 49 Q 514.3 47.7 513 51 Q 509.2 51.8 509.5 49 Z "/>
  <path fill="rgb(255,255,255)" stroke="rgb(255,255,255)" stroke-width="1" opacity="0.796078431372549" d="M 161 53 L 165 53.5 L 161 55 L 161 53 Z "/>
  <path fill="rgb(255,255,255)" stroke="rgb(255,255,255)" stroke-width="1" opacity="0.796078431372549" d="M 515.5 53 Q 520.3 51.7 519 55 Q 515.2 55.8 515.5 53 Z "/>
  <path fill="rgb(255,255,255)" stroke="rgb(255,255,255)" stroke-width="1" opacity="0.796078431372549" d="M 150.5 59 L 155 59.5 L 151 61 Q 152 64 149 63 Q 147.9 60.3 150.5 61 L 150.5 59 Z "/>
  <path fill="rgb(255,255,255)" stroke="rgb(255,255,255)" stroke-width="1" opacity="0.796078431372549" d="M 525.5 59 L 530 59.5 L 529.5 61 Q 532.1 60.3 531 63 Q 528 64 529 61 L 526.5 61 L 525.5 59 Z "/>
  <path fill="rgb(255,255,255)" stroke="rgb(255,255,255)" stroke-width="1" opacity="0.796078431372549" d="M 143 65 L 147 65.5 L 143 67 L 143 65 Z "/>
  <path fill="rgb(255,255,255)" stroke="rgb(255,255,255)" stroke-width="1" opacity="0.796078431372549" d="M 533.5 65 Q 538.3 63.7 537 67 Q 533.2 67.8 533.5 65 Z "/>
  <path fill="rgb(255,255,255)" stroke="rgb(255,255,255)" stroke-width="1" opacity="0.796078431372549" d="M 136.5 69 L 141 69.5 L 137 71 L 137 73 L 133 75 Q 131.9 72.3 134.5 73 L 134.5 71 L 137 70.5 L 136.5 69 Z "/>
  <path fill="rgb(255,255,255)" stroke="rgb(255,255,255)" stroke-width="1" opacity="0.796078431372549" d="M 539.5 69 L 544 69.5 L 543.5 71 Q 546.1 70.3 545 73 Q 542 74 543 71 L 540.5 71 L 539.5 69 Z "/>
  <path fill="rgb(255,255,255)" stroke="rgb(255,255,255)" stroke-width="1" opacity="0.796078431372549" d="M 547.5 75 L 552 75.5 L 551.5 77 L 554 77.5 L 553.5 79 L 556 79.5 L 555.5 81 L 558 81.5 L 557.5 83 Q 560.1 82.3 559 85 L 557 85 L 557 83 L 555 83 L 555 81 L 553 81 L 551 77 L 548.5 77 L 547.5 75 Z "/>
  <path fill="rgb(255,255,255)" stroke="rgb(255,255,255)" stroke-width="1" opacity="0.796078431372549" d="M 126.5 77 L 131 77.5 L 127 79 L 127 81 L 123 83 Q 121.9 80.3 124.5 81 L 124.5 79 L 127 78.5 L 126.5 77 Z "/>
  <path fill="rgb(255,255,255)" stroke="rgb(255,255,255)" stroke-width="1" opacity="0.796078431372549" d="M 116.5 85 L 121 85.5 L 117 87 L 117 89 L 115 89 L 115 91 L 113 91 L 113 93 L 111 93 L 111 95 L 109 95 L 109 97 L 107 97 L 107 99 L 105 99 L 105 101 L 103 101 L 103 103 L 101 103 L 101 105 L 99 105 L 99 107 L 97 107 L 97 109 L 95 109 L 95 111 L 93 111 L 93 113 L 91 113 L 91 115 L 89 115 Q 90.1 117.7 87.5 117 L 86.5 115 L 89 114.5 L 88.5 113 L 91 112.5 L 90.5 111 L 93 110.5 L 92.5 109 L 95 108.5 L 94.5 107 L 97 106.5 L 96.5 105 L 99 104.5 L 98.5 103 L 101 102.5 L 100.5 101 L 103 100.5 L 102.5 99 L 105 98.5 L 104.5 97 L 107 96.5 L 106.5 95 L 109 94.5 L 108.5 93 L 111 92.5 L 110.5 91 L 113 90.5 L 112.5 89 L 115 88.5 L 114.5 87 L 117 86.5 L 116.5 85 Z "/>
  <path fill="rgb(255,255,255)" stroke="rgb(255,255,255)" stroke-width="1" opacity="0.796078431372549" d="M 561.5 87 L 566 87.5 L 565.5 89 L 568 89.5 L 567.5 91 L 570 91.5 L 569.5 93 L 572 93.5 L 571.5 95 L 574 95.5 L 573.5 97 L 576 97.5 L 575.5 99 L 578 99.5 L 577.5 101 L 580 101.5 L 579.5 103 L 582 103.5 L 581.5 105 L 584 105.5 L 583.5 107 L 586 107.5 L 585.5 109 L 588 109.5 L 587.5 111 L 590 111.5 L 589.5 113 L 592 113.5 L 591.5 115 L 594 115.5 L 591 117 L 591 115 L 589 115 L 589 113 L 587 113 L 587 111 L 585 111 L 585 109 L 583 109 L 583 107 L 581 107 L 581 105 L 579 105 L 579 103 L 577 103 L 577 101 L 575 101 L 575 99 L 573 99 L 573 97 L 571 97 L 571 95 L 569 95 L 569 93 L 565 91 L 565 89 L 562.5 89 L 561.5 87 Z "/>
  <path fill="rgb(255,255,255)" stroke="rgb(255,255,255)" stroke-width="1" opacity="0.796078431372549" d="M 80.5 123 Q 84.3 122 83 125 L 81 125 Q 82.1 127.7 79.5 127 L 78.5 125 L 81 124.5 L 80.5 123 Z "/>
  <path fill="rgb(255,255,255)" stroke="rgb(255,255,255)" stroke-width="1" opacity="0.796078431372549" d="M 597 123 L 600 123.5 L 599.5 125 L 602 125.5 L 599 127 L 597 123 Z "/>
  <path fill="rgb(255,255,255)" stroke="rgb(255,255,255)" stroke-width="1" opacity="0.796078431372549" d="M 72.5 133 Q 76.3 132 75 135 L 73 135 Q 74.1 137.7 71.5 137 L 70.5 135 L 73 134.5 L 72.5 133 Z "/>
  <path fill="rgb(255,255,255)" stroke="rgb(255,255,255)" stroke-width="1" opacity="0.796078431372549" d="M 605 133 L 608 133.5 L 607.5 135 L 610 135.5 L 607 137 L 605 133 Z "/>
  <path fill="rgb(255,255,255)" stroke="rgb(255,255,255)" stroke-width="1" opacity="0.796078431372549" d="M 585 143 Q 590.2 141.3 589 145 Q 583.8 143.3 585 147 Q 590.6 144.8 589 150.5 L 591 151.5 L 591.5 147 Q 593.8 147.8 593 151.5 L 591 153.5 L 589 163.5 L 585 171 Q 582 169.8 583 173.5 L 579 181 L 577 181 L 577 183 L 575 183 L 575 185 L 571 187 L 571 189.5 L 569 193 L 567 193 L 567 195 L 565 195 L 565 197 L 563 197 L 563 199 L 561 199 L 561 201 L 559 201 L 559 203 L 557 203 L 557 205 L 555 205 L 555 207 L 553 207 L 553 209 L 551 209 L 551 211 L 549 211 L 549 213 L 547 213 L 547 215 L 545 215 L 545 217 L 543 217 L 543 219 L 541 219 L 541 221 L 539 221 L 539 223 L 537 223 L 537 225 L 535 225 L 535 227 L 533 227 L 533 229 L 531 229 L 531 231 L 529 231 L 529 233 L 527 233 L 527 235 L 525 235 L 525 237 L 523 237 L 523 239 L 521 239 L 521 241 L 517 243 L 517 245.5 L 515 249 L 513 249 L 513 251 L 511 251 L 511 253 L 509 253 L 509 255 L 505 257 L 505 259 L 503 259 L 503 261.5 L 501 265 L 497 267 L 497 269.5 L 495 273 L 493 273 L 493 275 L 491 275 Q 492.1 277.7 489.5 277 L 485.5 281 L 475 281 L 479.5 287 Q 486 285.5 487.5 289 L 503.5 289 L 509 293 L 509 295 L 511 295 L 511 297 L 513 297 L 513 299 Q 515.7 297.9 515 300.5 Q 517.8 301.6 517 305 Q 519.7 303.9 519 306.5 L 525.5 311 L 544.5 311 L 546.5 309 L 550.5 309 L 552.5 307 L 556.5 307 L 564.5 303 L 569.5 303 L 570.5 305 L 563.5 305 L 563 307 L 557 307 L 557 309 L 551 309 L 551 311 L 545 311 L 544.5 313 L 525 313 L 525 311 L 519.5 311 Q 520.1 308.3 517 309 L 519.5 313 Q 524.5 312 525.5 315 L 544.5 315 L 546.5 313 L 550.5 313 L 552.5 311 L 556.5 311 L 564.5 307 L 571 307 L 572.5 310 L 573 307 Q 576.7 305.8 575 311 Q 571.3 309.6 573 315.5 L 571 317.5 L 571 323.5 L 567 329.5 L 567 333.5 L 561 345 Q 558 343.8 559 347.5 L 555 355 L 551 357 L 551 359.5 L 549 363 L 547 363 L 547 365 L 545 365 L 545 367 L 543 367 L 543 369 L 541 369 L 541 371 L 539 371 L 539 373 L 537 373 L 537 375 L 535 375 L 535 377 L 533 377 L 533 379 L 531 379 Q 532.1 381.7 529.5 381 Q 528.1 385.8 523 385 Q 524.1 387.7 521.5 387 L 507.5 397 L 495.5 403 L 491.5 403 L 485.5 407 L 481.5 407 L 473.5 411 L 467.5 411 L 465.5 413 Q 457.5 411 455.5 415 L 443.5 415 Q 442.7 417.7 438.5 417 L 437.5 415 Q 444.5 416.5 443.5 413 L 456.5 413 L 457.5 411 L 466.5 411 L 467 409 L 474.5 409 L 475 407 L 480.5 407 L 481 405 L 486.5 405 Q 485.5 402 490.5 403 L 489.5 401 L 485.5 403 L 481.5 403 L 479.5 405 L 475.5 405 L 473.5 407 L 467.5 407 L 465.5 409 Q 457.5 407 455.5 411 L 443.5 411 Q 442.1 414.3 437 413 L 437 409 Q 442.2 410.7 441 407 L 437 406.5 L 441 405 L 441 403 L 443 403 L 443 401 L 447 399 L 447 396.5 L 449 393 Q 452.7 394.4 451 388.5 L 455 380.5 Q 453 372.5 457 370.5 L 457 361.5 L 455 359.5 L 455 351.5 Q 451.7 350.1 453 345 Q 450.3 346.1 451 343.5 L 449 341.5 L 449 332.5 Q 452.3 331.3 451 325.5 L 449 323.5 L 449 319.5 Q 446.3 318.4 447 315 Q 443.9 315.8 444.5 313 L 437.5 313 Q 436.4 315.8 433 315 L 433 317 L 431 317 Q 432.1 319.7 429.5 319 Q 427.7 324.8 418.5 323 L 415 321 L 417 324.5 L 417 329.5 L 413 337 L 411 337 L 411 339 L 409 339 L 409 341 L 407 341 Q 408.1 343.7 405.5 343 Q 404.1 347.8 399 347 L 397 353 L 395 353 L 395 355 L 393 355 L 393 357 L 391 357 L 391 359 L 389 359 L 389 361 L 387 361 L 387 363 L 385 363 L 385 365 L 383 365 L 383 367 L 381 367 L 381 369 L 379 369 L 379 371 L 377 371 L 377 373 L 375 373 L 375 375 L 373 375 L 373 377 L 371 377 L 371 379 L 369 379 L 369 381 L 367 381 L 367 383 L 365 383 L 365 385 L 363 385 L 363 387 L 361 387 L 361 389 L 359 389 L 359 391 L 357 391 L 357 393 L 355 393 L 355 395 L 353 395 L 353 397 L 351 397 L 351 399 L 349 399 L 349 401 L 347 401 L 347 403 L 345 403 L 345 405 L 343 405 L 343 407 L 341 407 L 341 409 L 339 409 L 339 411 L 337 411 L 337 413 L 335 413 L 335 415 L 333 415 L 333 417 L 331 417 L 331 419 L 329 419 L 329 421 L 327 421 L 327 423 L 325 423 L 325 425 L 323 425 Q 324.1 427.7 321.5 427 Q 320.1 431.8 315 431 L 315 433 L 313 433 L 313 435 L 311 435 L 311 437 L 309 437 L 309 439 L 307 439 L 307 441 L 305 441 L 305 443 L 303 443 L 303 445 L 301 445 L 301 447 L 299 447 L 299 449 L 297 449 L 297 451 L 295 451 L 295 453 L 293 453 L 293 455 L 291 455 L 291 457 L 289 457 L 289 459 L 287 459 L 287 461 L 285 461 L 285 463 L 283 463 L 283 465 L 281 465 Q 282.1 467.7 279.5 467 Q 278.1 471.8 273 471 L 273 473 L 271 473 L 271 475 L 269 475 L 269 477 L 267 477 L 267 479 L 265 479 L 265 481 L 263 481 L 263 483 L 261 483 L 261 485 L 259 485 L 259 487 L 257 487 L 257 489 L 255 489 L 255 491 L 253 491 L 253 493 L 251 493 L 251 495 L 249 495 L 249 497 L 247 497 Q 248.1 499.7 245.5 499 Q 244.1 503.8 239 503 L 239 505 L 237 505 L 237 507 L 235 507 L 235 509 L 233 509 L 233 511 L 231 511 L 231 513 L 229 513 L 229 515 L 227 515 L 227 517 L 225 517 L 225 519 L 223 519 L 223 521 L 221 521 L 221 523 L 219 523 L 219 525 L 217 525 L 217 527 L 215 527 Q 216.1 529.7 213.5 529 Q 212.1 533.8 207 533 L 207 535 L 205 535 L 205 537 L 203 537 L 203 539 L 201 539 L 201 541 L 199 541 L 199 543 L 197 543 L 197 545 L 195 545 L 195 547 L 193 547 L 193 549 L 191 549 L 191 551 L 189 551 L 189 553 L 187 553 L 187 555 L 185 555 Q 186.1 557.7 183.5 557 Q 182.1 561.8 177 561 L 177 563 L 175 563 L 175 565 L 173 565 L 173 567 L 171 567 L 171 569 L 169 569 L 169 571 L 167 571 L 167 573 L 165 573 L 165 575 L 163 575 L 163 577 L 161 577 L 161 579 L 159 579 L 159 581 L 157 581 L 157 583 L 155 583 L 155 585 L 153 585 L 153 587 L 151 587 L 151 589 L 149 589 L 149 591 L 147 591 Q 148.1 593.7 145.5 593 Q 144.1 597.8 139 597 L 139 599 L 137 599 L 137 601 L 135 601 L 133 605 L 129.5 605 L 129.5 603 L 126 603 L 126 601 L 124 601 L 124 599 L 122 599 L 120 595 L 117 595 L 115 591 L 112.5 591 L 112.5 589 L 110 588.5 L 110.5 587 L 108 586.5 L 108.5 585 L 106 584.5 L 106.5 583 L 104 582.5 L 104.5 581 L 102 580.5 L 102.5 579 L 100 578.5 L 100.5 577 L 98 576.5 L 98.5 575 L 96 574.5 L 96.5 573 L 94 572.5 L 94.5 571 L 92 570.5 L 92.5 569 L 90 568.5 L 90.5 567 L 88 566.5 L 88.5 565 L 86 564.5 L 89 563 L 89 565 L 91 565 L 91 567 L 93 567 L 93 569 L 95 569 L 95 571 L 97 571 L 97 573 L 99 573 L 99 575 L 101 575 L 101 577 L 103 577 L 103 579 L 105 579 L 105 581 L 107 581 L 107 583 L 109 583 Q 107.9 585.7 110.5 585 L 113 581 L 115 581 L 115 579 L 117 579 L 117 577 L 119 577 L 119 575 L 121 575 L 121 573 L 123 573 L 123 571 L 125 571 L 125 569 L 127 569 Q 125.9 566.3 128.5 567 Q 129.9 562.3 135 563 L 135 561 L 137 561 L 137 559 L 139 559 L 139 557 L 141 557 L 141 555 L 143 555 L 143 553 L 145 553 L 145 551 L 147 551 L 147 549 L 149 549 L 149 547 L 151 547 L 151 545 L 153 545 L 153 543 L 155 543 L 155 541 L 157 541 L 157 539 L 159 539 L 159 537 L 161 537 L 161 535 L 163 535 L 163 533 L 165 533 L 165 531 L 167 531 L 167 529 L 169 529 L 169 527 L 171 527 Q 169.9 524.3 172.5 525 Q 173.9 520.3 179 521 L 179 519 L 181 519 L 181 517 L 183 517 L 183 515 L 185 515 L 185 513 L 187 513 L 187 511 L 189 511 L 189 509 L 191 509 L 191 507 L 193 507 L 193 505 L 195 505 L 195 503 L 197 503 L 197 501 L 199 501 L 199 499 L 201 499 L 201 497 L 203 497 L 203 495 L 205 495 L 205 493 L 207 493 L 207 491 L 209 491 L 209 489 L 211 489 L 211 487 L 213 487 L 213 485 L 215 485 L 215 483 L 217 483 L 217 481 L 219 481 Q 217.9 478.3 220.5 479 Q 221.9 474.3 227 475 L 227 473 L 229 473 L 229 471 L 231 471 L 231 469 L 233 469 L 233 467 L 235 467 L 235 465 L 237 465 L 237 463 L 239 463 L 239 461 L 241 461 L 241 459 L 243 459 L 243 457 L 245 457 L 245 455 L 247 455 L 247 453 L 249 453 L 249 451 L 251 451 L 251 449 L 253 449 L 253 447 L 255 447 L 255 445 L 257 445 L 257 443 L 259 443 L 259 441 L 261 441 L 261 439 L 263 439 L 263 437 L 265 437 L 265 435 L 267 435 L 267 433 L 269 433 Q 267.9 430.3 270.5 431 Q 271.9 426.3 277 427 L 277 425 L 279 425 L 279 423 L 281 423 L 281 421 L 283 421 L 283 419 L 285 419 L 285 417 L 287 417 L 287 415 L 289 415 L 289 413 L 291 413 L 291 411 L 293 411 L 293 409 L 295 409 L 295 407 L 297 407 L 297 405 L 299 405 L 299 403 L 301 403 L 301 401 L 303 401 L 303 399 L 305 399 L 305 397 L 307 397 L 307 395 L 309 395 L 309 393 L 311 393 L 311 391 L 313 391 L 313 389 L 315 389 L 315 387 L 317 387 L 317 385 L 319 385 L 319 383 L 321 383 L 321 381 L 323 381 L 323 379 L 325 379 L 325 377 L 327 377 L 327 375 L 329 375 L 329 373 L 331 373 Q 329.9 370.3 332.5 371 Q 333.9 366.3 339 367 L 339 365 L 341 365 L 341 363 L 343 363 L 343 361 L 345 361 L 345 359 L 347 359 L 347 357 L 349 357 L 349 355 L 351 355 L 351 353 L 353 353 L 353 351 L 355 351 L 355 349 L 357 349 L 357 347 L 359 347 L 359 345 L 361 345 L 361 343 L 363 343 L 363 341 L 365 341 L 365 339 L 367 339 L 367 337 L 369 337 L 369 335 L 371 335 L 371 333 L 373 333 L 373 331 L 375 331 L 375 329 L 377 329 L 377 327 L 379 327 L 379 325 L 381 325 L 381 323 L 383 323 L 383 321 L 385 321 L 385 319 L 387 319 L 387 317 L 389 317 L 389 315 L 391 315 Q 389.9 312.3 392.5 313 Q 393.8 307.8 401.5 309 L 407 313 L 407 315 L 411 317 L 411 313 L 409 313 L 409 311 L 407 311 L 407 309 Q 404.3 310.1 405 307.5 Q 402.3 306.8 403 302.5 L 406.5 297 L 408.5 297 Q 414 298 415 294.5 Q 415.7 291.9 413 293 Q 414.3 296.3 409.5 295 L 410.5 293 Q 414.5 293.5 415 290.5 L 417 287.5 Q 414.2 286.4 415 283 L 413 283 L 413 281 Q 410.3 282.1 411 279.5 L 407 273.5 L 407 271 Q 404.3 272.1 405 269.5 L 393 247.5 L 393 245 Q 390.3 246.1 391 243.5 Q 388.3 242.4 389 239 Q 386.3 240.1 387 237.5 Q 384.3 236.4 385 233 L 383 233 L 383 231 L 381 231 L 381 229 L 379 229 L 377 225 L 374.5 225 L 367 219.5 L 371 219 Q 370 222 373 221 L 370.5 217 L 367 217 Q 368 214 365 215 Q 366 218 363 217 L 363 213 L 365 213 Q 363.9 210.3 366.5 211 L 370.5 207 L 393.5 207 Q 395 210.5 401.5 209 L 421.5 219 L 425.5 223 L 431.5 225 L 435.5 229 L 437.5 229 L 443 233 L 449 251 Q 452.7 252.3 451 246.5 L 453 244.5 Q 452 240 454.5 239 L 455.5 242 L 457 239 Q 461.7 240 463 236.5 Q 463.7 233.9 461 235 Q 462.3 238.3 457.5 237 L 458.5 235 L 460.5 235 L 470.5 227 L 473 227 L 473 225 L 475 225 L 475 223 L 477 223 Q 475.9 220.3 478.5 221 Q 479.9 216.3 485 217 L 485 215 L 487 215 L 487 213 L 489 213 L 489 211 L 491 211 L 491 209 L 493 209 L 493 207 L 495 207 L 495 205 L 497 205 L 497 203 L 499 203 L 499 201 L 501 201 L 501 199 L 503 199 L 503 197 L 505 197 L 505 195 L 507 195 L 507 193 L 509 193 L 509 191 L 511 191 Q 509.9 188.3 512.5 189 Q 513.9 184.3 519 185 L 519 183 L 521 183 L 521 181 L 523 181 L 523 179 L 525 179 L 525 177 L 527 177 Q 525.9 174.3 528.5 175 Q 529.9 170.3 535 171 Q 533.9 168.3 536.5 169 L 552.5 157 L 568.5 149 L 572.5 149 L 580.5 145 L 585 145 L 585 143 Z M 579 147 L 579 149 L 574 149 L 573 151 L 568 151 Q 569 154 564 153 L 565 155 L 569 153 L 573 153 L 575 151 L 579 151 L 581 149 L 585 149 L 585 147 L 579 147 Z M 587 153 Q 586 156 589 155 Q 590 152 587 153 Z M 560 155 Q 559 158 563 157 Q 564 154 560 155 Z M 556 157 Q 555 160 559 159 Q 560 156 556 157 Z M 552 159 Q 551 162 555 161 Q 556 158 552 159 Z M 585 159 Q 584 162 587 161 Q 588 158 585 159 Z M 549 161 Q 550 164 546 163 L 547 165 Q 551 166 551 163 Q 552 160 549 161 Z M 543 165 Q 544 168 540 167 L 541 169 Q 545 170 545 167 Q 546 164 543 165 Z M 583 165 Q 582 168 585 167 Q 586 164 583 165 Z M 537 169 L 537 171 L 535 172 Q 537 175 539 171 Q 540 168 537 169 Z M 582 169 L 579 173 L 583 171 Q 584 168 582 169 Z M 532 173 L 533 175 L 536 174 L 532 173 Z M 529 175 L 529 177 L 527 178 Q 529 181 531 177 Q 532 174 529 175 Z M 577 175 Q 576 178 579 177 Q 580 174 577 175 Z M 526 179 Q 526 183 528 180 L 526 179 Z M 576 179 L 574 181 L 577 181 Q 578 178 576 179 Z M 524 181 Q 524 185 526 182 L 524 181 Z M 574 181 L 572 183 L 575 183 L 574 181 Z M 522 183 Q 522 187 524 184 L 522 183 Z M 572 183 L 570 185 L 573 185 L 572 183 Z M 520 185 Q 520 189 522 186 L 520 185 Z M 570 185 L 567 189 L 569 189 Q 568 186 571 187 L 570 185 Z M 516 187 L 517 189 L 520 188 L 516 187 Z M 513 189 L 513 191 L 511 192 Q 513 195 515 191 Q 516 188 513 189 Z M 566 191 L 564 193 L 567 193 Q 568 190 566 191 Z M 510 193 Q 510 197 512 194 L 510 193 Z M 564 193 L 562 195 L 565 195 L 564 193 Z M 508 195 Q 508 199 510 196 L 508 195 Z M 562 195 L 560 197 L 563 197 L 562 195 Z M 506 197 Q 506 201 508 198 L 506 197 Z M 560 197 L 558 199 L 561 199 L 560 197 Z M 504 199 Q 504 203 506 200 L 504 199 Z M 558 199 L 556 201 L 559 201 L 558 199 Z M 502 201 Q 502 205 504 202 L 502 201 Z M 556 201 L 554 203 L 557 203 L 556 201 Z M 500 203 Q 500 207 502 204 L 500 203 Z M 554 203 L 552 205 L 555 205 L 554 203 Z M 498 205 Q 498 209 500 206 L 498 205 Z M 552 205 L 550 207 L 553 207 L 552 205 Z M 496 207 Q 496 211 498 208 L 496 207 Z M 550 207 L 548 209 L 551 209 L 550 207 Z M 369 209 L 367 213 L 371 211 L 394 211 L 396 213 L 402 213 L 406 215 L 407 213 Q 402 214 403 211 L 395 211 L 395 209 L 369 209 Z M 494 209 Q 494 213 496 210 L 494 209 Z M 548 209 L 546 211 L 549 211 L 548 209 Z M 492 211 Q 492 215 494 212 L 492 211 Z M 546 211 L 544 213 L 547 213 L 546 211 Z M 490 213 Q 490 217 492 214 L 490 213 Z M 544 213 L 542 215 L 545 215 L 544 213 Z M 407 215 L 407 217 L 411 216 L 407 215 Z M 488 215 Q 488 219 490 216 L 488 215 Z M 542 215 L 540 217 L 543 217 L 542 215 Z M 411 217 L 411 219 L 415 218 L 411 217 Z M 486 217 Q 486 221 488 218 L 486 217 Z M 540 217 L 538 219 L 541 219 L 540 217 Z M 415 219 L 415 221 L 419 220 L 415 219 Z M 482 219 L 483 221 L 486 220 L 482 219 Z M 538 219 L 536 221 L 539 221 L 538 219 Z M 375 221 L 374 223 L 378 223 L 375 221 Z M 419 221 L 419 223 L 423 222 L 419 221 Z M 479 221 L 479 223 L 477 224 Q 479 227 481 223 Q 482 220 479 221 Z M 536 221 L 534 223 L 537 223 L 536 221 Z M 379 223 L 377 225 L 380 225 L 379 223 Z M 423 223 L 423 225 Q 424 228 428 227 L 429 225 L 425 225 Q 426 222 423 223 Z M 534 223 L 532 225 L 535 225 L 534 223 Z M 381 225 L 379 227 L 382 227 L 381 225 Z M 476 225 Q 476 229 478 226 L 476 225 Z M 532 225 L 530 227 L 533 227 L 532 225 Z M 383 227 L 381 229 L 384 229 L 383 227 Z M 429 227 L 429 229 L 433 228 L 429 227 Z M 474 227 Q 474 231 476 228 L 474 227 Z M 530 227 L 528 229 L 531 229 L 530 227 Z M 385 229 L 383 231 L 386 231 L 385 229 Z M 433 229 L 433 231 Q 434 233 438 233 L 439 231 L 435 231 Q 436 228 433 229 Z M 470 229 L 471 231 L 474 230 L 470 229 Z M 528 229 L 526 231 L 529 231 L 528 229 Z M 387 231 L 386 233 Q 388 232 387 235 L 389 235 L 387 231 Z M 467 231 Q 468 234 464 233 L 465 235 Q 469 236 469 233 Q 470 230 467 231 Z M 526 231 L 524 233 L 527 233 L 526 231 Z M 439 233 Q 438 236 441 235 Q 442 232 439 233 Z M 524 233 L 522 235 L 525 235 L 524 233 Z M 522 235 L 520 237 L 523 237 L 522 235 Z M 389 237 L 391 241 Q 394 242 393 240 L 389 237 Z M 520 237 L 518 239 L 521 239 L 520 237 Z M 441 239 Q 440 242 443 241 Q 444 238 441 239 Z M 518 239 L 516 241 L 519 241 L 518 239 Z M 516 241 L 513 245 L 515 245 Q 514 242 517 243 L 516 241 Z M 393 243 L 395 247 Q 398 248 397 246 L 393 243 Z M 455 243 Q 454 246 457 245 Q 458 242 455 243 Z M 443 245 Q 442 248 445 247 Q 446 244 443 245 Z M 454 246 L 453 250 L 455 249 L 454 246 Z M 512 247 L 510 249 L 513 249 Q 514 246 512 247 Z M 397 249 Q 396 252 399 251 Q 400 248 397 249 Z M 510 249 L 508 251 L 511 251 L 510 249 Z M 445 251 L 445 253 Q 446 256 453 255 L 455 251 Q 452 250 453 253 L 448 253 Q 448 250 445 251 Z M 508 251 L 506 253 L 509 253 L 508 251 Z M 399 253 Q 398 256 401 255 Q 402 252 399 253 Z M 506 253 L 504 255 L 507 255 L 506 253 Z M 504 255 L 502 257 L 505 257 L 504 255 Z M 401 257 Q 400 260 403 259 Q 404 256 401 257 Z M 502 257 L 499 261 L 501 261 Q 500 258 503 259 L 502 257 Z M 403 261 Q 402 264 405 263 Q 406 260 403 261 Z M 498 263 L 496 265 L 499 265 Q 500 262 498 263 Z M 405 265 Q 404 268 407 267 Q 408 264 405 265 Z M 496 265 L 493 269 L 495 269 Q 494 266 497 267 L 496 265 Z M 407 269 L 409 273 Q 412 274 411 272 L 407 269 Z M 492 271 L 490 273 L 493 273 Q 494 270 492 271 Z M 490 273 L 486 277 L 474 277 L 473 279 L 487 279 Q 486 276 489 277 L 489 275 L 491 275 L 490 273 Z M 411 275 Q 410 278 413 277 Q 414 274 411 275 Z M 413 279 L 413 281 L 416 281 L 413 279 Z M 472 279 Q 469 284 473 283 L 472 279 Z M 417 281 L 416 283 Q 418 282 417 285 L 419 285 L 417 281 Z M 473 285 L 473 287 Q 474 290 478 289 L 479 287 L 475 287 Q 476 284 473 285 Z M 419 287 Q 418 290 421 289 Q 422 286 419 287 Z M 479 289 L 479 291 Q 486 289 488 293 L 504 293 L 508 297 L 509 295 Q 506 296 507 293 L 505 293 L 505 291 L 488 291 L 487 289 L 479 289 Z M 416 291 Q 415 294 419 293 Q 420 290 416 291 Z M 509 297 Q 509 301 511 298 L 509 297 Z M 407 299 Q 406 302 409 301 Q 410 298 407 299 Z M 511 299 L 513 301 Q 514 298 511 299 Z M 406 302 Q 403 306 407 305 L 406 302 Z M 513 303 L 513 305 L 517 307 L 515 303 L 513 303 Z M 407 307 L 407 309 L 410 309 L 407 307 Z M 411 309 L 409 311 L 412 311 L 411 309 Z M 437 309 L 437 311 L 446 311 L 445 309 L 437 309 Z M 395 311 L 393 315 L 391 316 L 393 317 L 397 313 Q 404 312 406 317 L 407 315 Q 404 316 405 313 L 403 313 L 403 311 L 395 311 Z M 413 311 L 412 313 Q 414 312 413 315 L 415 315 L 413 311 Z M 434 311 L 433 313 L 437 313 L 434 311 Z M 447 311 L 445 313 L 448 313 L 447 311 Z M 569 311 Q 568 314 571 313 Q 572 310 569 311 Z M 432 313 L 430 315 L 433 315 L 432 313 Z M 449 313 L 448 315 Q 450 314 449 317 L 451 317 L 449 313 Z M 430 315 L 426 319 L 419 319 L 415 317 L 417 321 L 427 321 Q 426 318 429 319 L 429 317 L 431 317 L 430 315 Z M 390 317 Q 390 321 392 318 L 390 317 Z M 407 317 Q 407 321 409 318 L 407 317 Z M 411 317 Q 410 320 413 319 Q 414 316 411 317 Z M 567 317 Q 566 320 569 319 Q 570 316 567 317 Z M 388 319 Q 388 323 390 320 L 388 319 Z M 409 319 Q 409 323 411 320 L 409 319 Z M 413 319 Q 412 322 415 321 Q 416 318 413 319 Z M 451 319 Q 450 322 453 321 Q 454 318 451 319 Z M 569 320 L 567 323 L 569 324 L 569 320 Z M 386 321 Q 386 325 388 322 L 386 321 Z M 411 321 L 413 323 Q 414 320 411 321 Z M 384 323 Q 384 327 386 324 L 384 323 Z M 382 325 Q 382 329 384 326 L 382 325 Z M 413 325 L 413 329 L 415 330 Q 417 324 413 325 Z M 453 325 Q 452 328 455 327 Q 456 324 453 325 Z M 565 325 Q 564 328 567 327 Q 568 324 565 325 Z M 380 327 Q 380 331 382 328 L 380 327 Z M 378 329 Q 378 333 380 330 L 378 329 Z M 453 329 Q 452 332 455 331 Q 456 328 453 329 Z M 563 329 Q 562 332 565 331 Q 566 328 563 329 Z M 376 331 Q 376 335 378 332 L 376 331 Z M 411 331 Q 410 334 413 333 Q 414 330 411 331 Z M 452 332 L 451 341 L 453 341 L 453 334 L 452 332 Z M 374 333 Q 374 337 376 334 L 374 333 Z M 372 335 Q 372 339 374 336 L 372 335 Z M 410 335 L 408 337 L 411 337 Q 412 334 410 335 Z M 561 335 Q 560 338 563 337 Q 564 334 561 335 Z M 370 337 Q 370 341 372 338 L 370 337 Z M 408 337 L 406 339 L 409 339 L 408 337 Z M 368 339 Q 368 343 370 340 L 368 339 Z M 406 339 L 403 343 L 405 343 Q 404 340 407 341 L 406 339 Z M 559 339 Q 558 342 561 341 Q 562 338 559 339 Z M 366 341 Q 366 345 368 342 L 366 341 Z M 364 343 Q 364 347 366 344 L 364 343 Z M 400 343 L 399 345 L 403 345 L 400 343 Z M 453 343 L 455 347 Q 458 348 457 346 L 453 343 Z M 558 343 L 555 347 L 559 345 Q 560 342 558 343 Z M 362 345 Q 362 349 364 346 L 362 345 Z M 398 345 L 395 349 L 397 349 Q 396 346 399 347 L 398 345 Z M 360 347 Q 360 351 362 348 L 360 347 Z M 358 349 Q 358 353 360 350 L 358 349 Z M 553 349 Q 552 352 555 351 Q 556 348 553 349 Z M 356 351 Q 356 355 358 352 L 356 351 Z M 394 351 L 392 353 L 395 353 Q 396 350 394 351 Z M 457 351 Q 456 354 459 353 Q 460 350 457 351 Z M 354 353 Q 354 357 356 354 L 354 353 Z M 392 353 L 390 355 L 393 355 L 392 353 Z M 552 353 L 550 355 L 553 355 Q 554 352 552 353 Z M 458 354 L 457 360 L 459 359 Q 460 355 458 354 Z M 352 355 Q 352 359 354 356 L 352 355 Z M 390 355 L 388 357 L 391 357 L 390 355 Z M 550 355 L 547 359 L 549 359 Q 548 356 551 357 L 550 355 Z M 350 357 Q 350 361 352 358 L 350 357 Z M 388 357 L 386 359 L 389 359 L 388 357 Z M 348 359 Q 348 363 350 360 L 348 359 Z M 386 359 L 384 361 L 387 361 L 386 359 Z M 346 361 Q 346 365 348 362 L 346 361 Z M 384 361 L 382 363 L 385 363 L 384 361 Z M 459 361 Q 458 364 461 363 Q 462 360 459 361 Z M 546 361 L 544 363 L 547 363 Q 548 360 546 361 Z M 344 363 Q 344 367 346 364 L 344 363 Z M 382 363 L 380 365 L 383 365 L 382 363 Z M 544 363 L 542 365 L 545 365 L 544 363 Z M 460 364 L 459 368 L 461 367 L 460 364 Z M 342 365 Q 342 369 344 366 L 342 365 Z M 380 365 L 378 367 L 381 367 L 380 365 Z M 542 365 L 540 367 L 543 367 L 542 365 Z M 340 367 Q 340 371 342 368 L 340 367 Z M 378 367 L 376 369 L 379 369 L 378 367 Z M 540 367 L 538 369 L 541 369 L 540 367 Z M 336 369 L 337 371 L 340 370 L 336 369 Z M 376 369 L 374 371 L 377 371 L 376 369 Z M 459 369 Q 458 372 461 371 Q 462 368 459 369 Z M 538 369 L 536 371 L 539 371 L 538 369 Z M 333 371 L 333 373 L 331 374 Q 333 377 335 373 Q 336 370 333 371 Z M 374 371 L 372 373 L 375 373 L 374 371 Z M 536 371 L 534 373 L 537 373 L 536 371 Z M 458 372 L 457 378 L 459 377 Q 460 373 458 372 Z M 372 373 L 370 375 L 373 375 L 372 373 Z M 534 373 L 532 375 L 535 375 L 534 373 Z M 330 375 Q 330 379 332 376 L 330 375 Z M 370 375 L 368 377 L 371 377 L 370 375 Z M 532 375 L 530 377 L 533 377 L 532 375 Z M 328 377 Q 328 381 330 378 L 328 377 Z M 368 377 L 366 379 L 369 379 L 368 377 Z M 530 377 L 527 381 L 529 381 Q 528 378 531 379 L 530 377 Z M 326 379 Q 326 383 328 380 L 326 379 Z M 366 379 L 364 381 L 367 381 L 366 379 Z M 457 379 Q 456 382 459 381 Q 460 378 457 379 Z M 324 381 Q 324 385 326 382 L 324 381 Z M 364 381 L 362 383 L 365 383 L 364 381 Z M 524 381 L 523 383 L 527 383 L 524 381 Z M 322 383 Q 322 387 324 384 L 322 383 Z M 362 383 L 360 385 L 363 385 L 362 383 Z M 522 383 L 519 387 L 521 387 Q 520 384 523 385 L 522 383 Z M 320 385 Q 320 389 322 386 L 320 385 Z M 360 385 L 358 387 L 361 387 L 360 385 Z M 455 385 Q 454 388 457 387 Q 458 384 455 385 Z M 318 387 Q 318 391 320 388 L 318 387 Z M 358 387 L 356 389 L 359 389 L 358 387 Z M 515 387 L 515 389 L 519 389 L 515 387 Z M 316 389 Q 316 393 318 390 L 316 389 Z M 356 389 L 354 391 L 357 391 L 356 389 Z M 512 389 L 509 393 Q 512 394 511 391 L 515 391 L 512 389 Z M 314 391 Q 314 395 316 392 L 314 391 Z M 354 391 L 352 393 L 355 393 L 354 391 Z M 453 391 L 451 395 L 455 393 Q 456 390 453 391 Z M 312 393 Q 312 397 314 394 L 312 393 Z M 352 393 L 350 395 L 353 395 L 352 393 Z M 505 393 L 505 395 L 509 395 L 505 393 Z M 310 395 Q 310 399 312 396 L 310 395 Z M 350 395 L 348 397 L 351 397 L 350 395 Z M 501 395 L 501 397 L 505 397 L 501 395 Z M 308 397 Q 308 401 310 398 L 308 397 Z M 348 397 L 346 399 L 349 399 L 348 397 Z M 449 397 L 449 399 L 447 400 Q 449 403 451 399 Q 452 396 449 397 Z M 498 397 L 496 399 Q 490 397 491 401 L 497 401 L 497 399 L 501 399 L 498 397 Z M 306 399 Q 306 403 308 400 L 306 399 Z M 346 399 L 344 401 L 347 401 L 346 399 Z M 304 401 Q 304 405 306 402 L 304 401 Z M 344 401 L 342 403 L 345 403 L 344 401 Z M 446 401 Q 446 405 448 402 L 446 401 Z M 302 403 Q 302 407 304 404 L 302 403 Z M 342 403 L 340 405 L 343 405 L 342 403 Z M 444 403 Q 444 407 446 404 L 444 403 Z M 300 405 Q 300 409 302 406 L 300 405 Z M 340 405 L 338 407 L 341 407 L 340 405 Z M 441 405 L 441 407 L 444 406 L 441 405 Z M 298 407 Q 298 411 300 408 L 298 407 Z M 338 407 L 336 409 L 339 409 L 338 407 Z M 296 409 Q 296 413 298 410 L 296 409 Z M 336 409 L 334 411 L 337 411 L 336 409 Z M 294 411 Q 294 415 296 412 L 294 411 Z M 334 411 L 332 413 L 335 413 L 334 411 Z M 292 413 Q 292 417 294 414 L 292 413 Z M 332 413 L 330 415 L 333 415 L 332 413 Z M 290 415 Q 290 419 292 416 L 290 415 Z M 330 415 L 328 417 L 331 417 L 330 415 Z M 288 417 Q 288 421 290 418 L 288 417 Z M 328 417 L 326 419 L 329 419 L 328 417 Z M 286 419 Q 286 423 288 420 L 286 419 Z M 326 419 L 324 421 L 327 421 L 326 419 Z M 284 421 Q 284 425 286 422 L 284 421 Z M 324 421 L 322 423 L 325 423 L 324 421 Z M 282 423 Q 282 427 284 424 L 282 423 Z M 322 423 L 319 427 L 321 427 Q 320 424 323 425 L 322 423 Z M 280 425 Q 280 429 282 426 L 280 425 Z M 278 427 Q 278 431 280 428 L 278 427 Z M 316 427 L 315 429 L 319 429 L 316 427 Z M 274 429 L 275 431 L 278 430 L 274 429 Z M 314 429 L 312 431 L 315 431 L 314 429 Z M 271 431 L 271 433 L 269 434 Q 271 437 273 433 Q 274 430 271 431 Z M 312 431 L 310 433 L 313 433 L 312 431 Z M 310 433 L 308 435 L 311 435 L 310 433 Z M 268 435 Q 268 439 270 436 L 268 435 Z M 308 435 L 306 437 L 309 437 L 308 435 Z M 266 437 Q 266 441 268 438 L 266 437 Z M 306 437 L 304 439 L 307 439 L 306 437 Z M 264 439 Q 264 443 266 440 L 264 439 Z M 304 439 L 302 441 L 305 441 L 304 439 Z M 262 441 Q 262 445 264 442 L 262 441 Z M 302 441 L 300 443 L 303 443 L 302 441 Z M 260 443 Q 260 447 262 444 L 260 443 Z M 300 443 L 298 445 L 301 445 L 300 443 Z M 258 445 Q 258 449 260 446 L 258 445 Z M 298 445 L 296 447 L 299 447 L 298 445 Z M 256 447 Q 256 451 258 448 L 256 447 Z M 296 447 L 294 449 L 297 449 L 296 447 Z M 254 449 Q 254 453 256 450 L 254 449 Z M 294 449 L 292 451 L 295 451 L 294 449 Z M 252 451 Q 252 455 254 452 L 252 451 Z M 292 451 L 290 453 L 293 453 L 292 451 Z M 250 453 Q 250 457 252 454 L 250 453 Z M 290 453 L 288 455 L 291 455 L 290 453 Z M 248 455 Q 248 459 250 456 L 248 455 Z M 288 455 L 286 457 L 289 457 L 288 455 Z M 246 457 Q 246 461 248 458 L 246 457 Z M 286 457 L 284 459 L 287 459 L 286 457 Z M 244 459 Q 244 463 246 460 L 244 459 Z M 284 459 L 282 461 L 285 461 L 284 459 Z M 242 461 Q 242 465 244 462 L 242 461 Z M 282 461 L 280 463 L 283 463 L 282 461 Z M 240 463 Q 240 467 242 464 L 240 463 Z M 280 463 L 277 467 L 279 467 Q 278 464 281 465 L 280 463 Z M 238 465 Q 238 469 240 466 L 238 465 Z M 236 467 Q 236 471 238 468 L 236 467 Z M 274 467 L 273 469 L 277 469 L 274 467 Z M 234 469 Q 234 473 236 470 L 234 469 Z M 272 469 L 270 471 L 273 471 L 272 469 Z M 232 471 Q 232 475 234 472 L 232 471 Z M 270 471 L 268 473 L 271 473 L 270 471 Z M 230 473 Q 230 477 232 474 L 230 473 Z M 268 473 L 266 475 L 269 475 L 268 473 Z M 228 475 Q 228 479 230 476 L 228 475 Z M 266 475 L 264 477 L 267 477 L 266 475 Z M 224 477 L 225 479 L 228 478 L 224 477 Z M 264 477 L 262 479 L 265 479 L 264 477 Z M 221 479 L 221 481 L 219 482 Q 221 485 223 481 Q 224 478 221 479 Z M 262 479 L 260 481 L 263 481 L 262 479 Z M 260 481 L 258 483 L 261 483 L 260 481 Z M 218 483 Q 218 487 220 484 L 218 483 Z M 258 483 L 256 485 L 259 485 L 258 483 Z M 216 485 Q 216 489 218 486 L 216 485 Z M 256 485 L 254 487 L 257 487 L 256 485 Z M 214 487 Q 214 491 216 488 L 214 487 Z M 254 487 L 252 489 L 255 489 L 254 487 Z M 212 489 Q 212 493 214 490 L 212 489 Z M 252 489 L 250 491 L 253 491 L 252 489 Z M 210 491 Q 210 495 212 492 L 210 491 Z M 250 491 L 248 493 L 251 493 L 250 491 Z M 208 493 Q 208 497 210 494 L 208 493 Z M 248 493 L 246 495 L 249 495 L 248 493 Z M 206 495 Q 206 499 208 496 L 206 495 Z M 246 495 L 243 499 L 245 499 Q 244 496 247 497 L 246 495 Z M 204 497 Q 204 501 206 498 L 204 497 Z M 202 499 Q 202 503 204 500 L 202 499 Z M 240 499 L 239 501 L 243 501 L 240 499 Z M 200 501 Q 200 505 202 502 L 200 501 Z M 238 501 L 236 503 L 239 503 L 238 501 Z M 198 503 Q 198 507 200 504 L 198 503 Z M 236 503 L 234 505 L 237 505 L 236 503 Z M 196 505 Q 196 509 198 506 L 196 505 Z M 234 505 L 232 507 L 235 507 L 234 505 Z M 194 507 Q 194 511 196 508 L 194 507 Z M 232 507 L 230 509 L 233 509 L 232 507 Z M 192 509 Q 192 513 194 510 L 192 509 Z M 230 509 L 228 511 L 231 511 L 230 509 Z M 190 511 Q 190 515 192 512 L 190 511 Z M 228 511 L 226 513 L 229 513 L 228 511 Z M 188 513 Q 188 517 190 514 L 188 513 Z M 226 513 L 224 515 L 227 515 L 226 513 Z M 186 515 Q 186 519 188 516 L 186 515 Z M 224 515 L 222 517 L 225 517 L 224 515 Z M 184 517 Q 184 521 186 518 L 184 517 Z M 222 517 L 220 519 L 223 519 L 222 517 Z M 182 519 Q 182 523 184 520 L 182 519 Z M 220 519 L 218 521 L 221 521 L 220 519 Z M 180 521 Q 180 525 182 522 L 180 521 Z M 218 521 L 216 523 L 219 523 L 218 521 Z M 176 523 L 177 525 L 180 524 L 176 523 Z M 216 523 L 214 525 L 217 525 L 216 523 Z M 173 525 L 173 527 L 171 528 Q 173 531 175 527 Q 176 524 173 525 Z M 214 525 L 211 529 L 213 529 Q 212 526 215 527 L 214 525 Z M 170 529 Q 170 533 172 530 L 170 529 Z M 208 529 L 207 531 L 211 531 L 208 529 Z M 168 531 Q 168 535 170 532 L 168 531 Z M 206 531 L 204 533 L 207 533 L 206 531 Z M 166 533 Q 166 537 168 534 L 166 533 Z M 204 533 L 202 535 L 205 535 L 204 533 Z M 164 535 Q 164 539 166 536 L 164 535 Z M 202 535 L 200 537 L 203 537 L 202 535 Z M 162 537 Q 162 541 164 538 L 162 537 Z M 200 537 L 198 539 L 201 539 L 200 537 Z M 160 539 Q 160 543 162 540 L 160 539 Z M 198 539 L 196 541 L 199 541 L 198 539 Z M 158 541 Q 158 545 160 542 L 158 541 Z M 196 541 L 194 543 L 197 543 L 196 541 Z M 156 543 Q 156 547 158 544 L 156 543 Z M 194 543 L 192 545 L 195 545 L 194 543 Z M 154 545 Q 154 549 156 546 L 154 545 Z M 192 545 L 190 547 L 193 547 L 192 545 Z M 152 547 Q 152 551 154 548 L 152 547 Z M 190 547 L 188 549 L 191 549 L 190 547 Z M 150 549 Q 150 553 152 550 L 150 549 Z M 188 549 L 186 551 L 189 551 L 188 549 Z M 148 551 Q 148 555 150 552 L 148 551 Z M 186 551 L 184 553 L 187 553 L 186 551 Z M 146 553 Q 146 557 148 554 L 146 553 Z M 184 553 L 181 557 L 183 557 Q 182 554 185 555 L 184 553 Z M 144 555 Q 144 559 146 556 L 144 555 Z M 142 557 Q 142 561 144 558 L 142 557 Z M 178 557 L 177 559 L 181 559 L 178 557 Z M 140 559 Q 140 563 142 560 L 140 559 Z M 176 559 L 174 561 L 177 561 L 176 559 Z M 138 561 Q 138 565 140 562 L 138 561 Z M 174 561 L 172 563 L 175 563 L 174 561 Z M 136 563 Q 136 567 138 564 L 136 563 Z M 172 563 L 170 565 L 173 565 L 172 563 Z M 132 565 L 133 567 L 136 566 L 132 565 Z M 170 565 L 168 567 L 171 567 L 170 565 Z M 129 567 L 129 569 L 127 570 Q 129 573 131 569 Q 132 566 129 567 Z M 168 567 L 166 569 L 169 569 L 168 567 Z M 166 569 L 164 571 L 167 571 L 166 569 Z M 126 571 Q 126 575 128 572 L 126 571 Z M 164 571 L 162 573 L 165 573 L 164 571 Z M 124 573 Q 124 577 126 574 L 124 573 Z M 162 573 L 160 575 L 163 575 L 162 573 Z M 122 575 Q 122 579 124 576 L 122 575 Z M 160 575 L 158 577 L 161 577 L 160 575 Z M 120 577 Q 120 581 122 578 L 120 577 Z M 158 577 L 156 579 L 159 579 L 158 577 Z M 118 579 Q 118 583 120 580 L 118 579 Z M 156 579 L 154 581 L 157 581 L 156 579 Z M 115 581 L 115 583 L 118 582 L 115 581 Z M 154 581 L 152 583 L 155 583 L 154 581 Z M 152 583 L 150 585 L 153 585 L 152 583 Z M 113 585 L 113 588 L 115 587 Q 116 584 113 585 Z M 150 585 L 148 587 L 151 587 L 150 585 Z M 148 587 L 146 589 L 149 589 L 148 587 Z M 115 589 L 117 593 L 120 593 L 115 589 Z M 146 589 L 143 593 L 145 593 Q 144 590 147 591 L 146 589 Z M 121 593 Q 119 596 122 595 L 121 593 Z M 140 593 L 139 595 L 143 595 L 140 593 Z M 123 595 Q 121 598 124 597 L 123 595 Z M 138 595 L 136 597 L 139 597 L 138 595 Z M 125 597 Q 123 600 126 599 L 125 597 Z M 136 597 L 134 599 L 137 599 L 136 597 Z M 134 599 L 132 601 L 135 601 L 134 599 Z M 132 601 Q 130 604 133 603 L 132 601 Z "/>
  <path fill="rgb(255,255,255)" stroke="rgb(255,255,255)" stroke-width="1" opacity="0.796078431372549" d="M 60.5 149 Q 64.3 148 63 151 L 60.5 149 Z "/>
  <path fill="rgb(255,255,255)" stroke="rgb(255,255,255)" stroke-width="1" opacity="0.796078431372549" d="M 617 149 L 620 149.5 L 617 151 L 617 149 Z "/>
  <path fill="rgb(255,255,255)" stroke="rgb(255,255,255)" stroke-width="1" opacity="0.796078431372549" d="M 0 313 L 3 313.5 L 0 315 L 0 313 Z "/>
  <path fill="rgb(255,255,255)" stroke="rgb(255,255,255)" stroke-width="1" opacity="0.796078431372549" d="M 677.5 313 Q 681.3 312 680 315 L 677.5 313 Z "/>
  <path fill="rgb(255,255,255)" stroke="rgb(255,255,255)" stroke-width="1" opacity="0.796078431372549" d="M 0 365 L 3 366.5 L 0 367 L 0 365 Z "/>
  <path fill="rgb(255,255,255)" stroke="rgb(255,255,255)" stroke-width="1" opacity="0.796078431372549" d="M 678.5 365 Q 681.1 364.3 680 367 L 677 366.5 L 678.5 365 Z "/>
  <path fill="rgb(255,255,255)" stroke="rgb(255,255,255)" stroke-width="1" opacity="0.796078431372549" d="M 433 409 Q 436.7 407.8 435 413 Q 431.3 414.2 433 409 Z "/>
  <path fill="rgb(255,255,255)" stroke="rgb(255,255,255)" stroke-width="1" opacity="0.796078431372549" d="M 61.5 529 Q 64.1 528.3 63 531 L 60 530.5 L 61.5 529 Z "/>
  <path fill="rgb(255,255,255)" stroke="rgb(255,255,255)" stroke-width="1" opacity="0.796078431372549" d="M 617 529 L 620 530.5 L 617 531 L 617 529 Z "/>
  <path fill="rgb(255,255,255)" stroke="rgb(255,255,255)" stroke-width="1" opacity="0.796078431372549" d="M 71.5 543 Q 74.1 542.3 73 545 L 75 545 L 75 547 L 72 546.5 L 72.5 545 L 70 544.5 L 71.5 543 Z "/>
  <path fill="rgb(255,255,255)" stroke="rgb(255,255,255)" stroke-width="1" opacity="0.796078431372549" d="M 607 543 L 610 544.5 L 607 545 L 607 543 Z "/>
  <path fill="rgb(255,255,255)" stroke="rgb(255,255,255)" stroke-width="1" opacity="0.796078431372549" d="M 601 551 L 604 552.5 L 601 553.5 L 601.5 555 L 599 555.5 L 599.5 557 Q 595.8 558 597 555 L 599 555 L 601 551 Z "/>
  <path fill="rgb(255,255,255)" stroke="rgb(255,255,255)" stroke-width="1" opacity="0.796078431372549" d="M 79.5 553 Q 82.1 552.3 81 555 L 83 555 L 83 557 L 80 556.5 L 80.5 555 L 78 554.5 L 79.5 553 Z "/>
  <path fill="rgb(255,255,255)" stroke="rgb(255,255,255)" stroke-width="1" opacity="0.796078431372549" d="M 591 563 L 594 564.5 L 591 565.5 L 591.5 567 L 589 567.5 L 589.5 569 L 587 569.5 L 587.5 571 L 585 571.5 L 585.5 573 L 583 573.5 L 583.5 575 L 581 575.5 L 581.5 577 L 579 577.5 L 579.5 579 L 577 579.5 L 577.5 581 L 575 581.5 L 575.5 583 L 573 583.5 L 573.5 585 L 571 585.5 L 571.5 587 L 569 587.5 L 569.5 589 L 567 589.5 L 567.5 591 L 565 591.5 L 565.5 593 L 563 593.5 L 563.5 595 L 559 594.5 L 563 593 L 563 591 L 565 591 L 565 589 L 567 589 L 567 587 L 569 587 L 569 585 L 571 585 L 571 583 L 573 583 L 573 581 L 575 581 L 575 579 L 577 579 L 577 577 L 579 577 L 579 575 L 581 575 L 581 573 L 583 573 L 583 571 L 585 571 L 585 569 L 587 569 L 587 567 L 591 565 L 591 563 Z "/>
  <path fill="rgb(255,255,255)" stroke="rgb(255,255,255)" stroke-width="1" opacity="0.796078431372549" d="M 555 597 Q 558 596 557 599 L 555 599.5 L 555.5 601 L 553 601.5 L 553.5 603 L 551 603.5 L 551.5 605 L 547 604.5 L 551 603 L 551 601 L 553 601 L 555 597 Z "/>
  <path fill="rgb(255,255,255)" stroke="rgb(255,255,255)" stroke-width="1" opacity="0.796078431372549" d="M 135 607 Q 138 606 137 609 L 139.5 609 L 140.5 611 L 136 610.5 L 136.5 609 Q 133.9 609.7 135 607 Z "/>
  <path fill="rgb(255,255,255)" stroke="rgb(255,255,255)" stroke-width="1" opacity="0.796078431372549" d="M 543 607 Q 546 606 545 609 L 543 609.5 L 543.5 611 L 539 610.5 L 543 609 L 543 607 Z "/>
  <path fill="rgb(255,255,255)" stroke="rgb(255,255,255)" stroke-width="1" opacity="0.796078431372549" d="M 143 613 L 147 614.5 L 143 615 L 143 613 Z "/>
  <path fill="rgb(255,255,255)" stroke="rgb(255,255,255)" stroke-width="1" opacity="0.796078431372549" d="M 534.5 613 Q 538.3 612 537 615 L 533 614.5 L 534.5 613 Z "/>
  <path fill="rgb(255,255,255)" stroke="rgb(255,255,255)" stroke-width="1" opacity="0.796078431372549" d="M 149 617 Q 152 616 151 619 L 153.5 619 L 154.5 621 L 150 620.5 L 150.5 619 Q 147.9 619.7 149 617 Z "/>
  <path fill="rgb(255,255,255)" stroke="rgb(255,255,255)" stroke-width="1" opacity="0.796078431372549" d="M 529 617 Q 532 616 531 619 L 529 619.5 L 529.5 621 L 525 620.5 L 529 619 L 529 617 Z "/>
  <path fill="rgb(255,255,255)" stroke="rgb(255,255,255)" stroke-width="1" opacity="0.796078431372549" d="M 520.5 623 Q 524.3 622 523 625 L 519 624.5 L 520.5 623 Z "/>
  <path fill="rgb(255,255,255)" stroke="rgb(255,255,255)" stroke-width="1" opacity="0.796078431372549" d="M 161 625 L 165 626.5 L 161 627 L 161 625 Z "/>
  <path fill="rgb(255,255,255)" stroke="rgb(255,255,255)" stroke-width="1" opacity="0.796078431372549" d="M 167 629 L 171 630.5 L 167 631 L 167 629 Z "/>
  <path fill="rgb(255,255,255)" stroke="rgb(255,255,255)" stroke-width="1" opacity="0.796078431372549" d="M 510.5 629 Q 514.3 628 513 631 L 509 630.5 L 510.5 629 Z "/>
  <path fill="rgb(255,255,255)" stroke="rgb(255,255,255)" stroke-width="1" opacity="0.796078431372549" d="M 185 639 L 189 640.5 L 185 641 L 185 639 Z "/>
  <path fill="rgb(255,255,255)" stroke="rgb(255,255,255)" stroke-width="1" opacity="0.796078431372549" d="M 492.5 639 Q 496.3 638 495 641 L 491 640.5 L 492.5 639 Z "/>
  <path fill="rgb(255,255,255)" stroke="rgb(255,255,255)" stroke-width="1" opacity="0.796078431372549" d="M 199 645 L 203 646.5 L 199 647 L 199 645 Z "/>
  <path fill="rgb(255,255,255)" stroke="rgb(255,255,255)" stroke-width="1" opacity="0.796078431372549" d="M 478.5 645 Q 482.3 644 481 647 L 477 646.5 L 478.5 645 Z "/>
  <path fill="rgb(255,255,255)" stroke="rgb(255,255,255)" stroke-width="1" opacity="0.796078431372549" d="M 217 653 L 221.5 653 L 227 656.5 L 223 657 L 223 655 L 217 655 L 217 653 Z "/>
  <path fill="rgb(255,255,255)" stroke="rgb(255,255,255)" stroke-width="1" opacity="0.796078431372549" d="M 458.5 653 Q 464.4 651.3 463 655 L 457.5 655 Q 458.5 658 453.5 657 L 454.5 655 L 458.5 653 Z "/>
  <path fill="rgb(255,255,255)" stroke="rgb(255,255,255)" stroke-width="1" opacity="0.796078431372549" d="M 233 659 Q 238 657.8 239.5 661 L 245.5 661 L 253.5 665 L 259.5 665 L 261.5 667 L 269.5 667 L 271.5 669 Q 279.5 667 281.5 671 L 291.5 671 L 293.5 673 L 309.5 673 L 311 674.5 L 293 675 L 292.5 673 L 281.5 673 L 280.5 671 L 271.5 671 L 270.5 669 L 261.5 669 Q 262.3 665.6 253.5 667 L 253 665 L 247 665 L 246.5 663 L 239.5 663 L 239 661 L 233 661 L 233 659 Z "/>
  <path fill="rgb(255,255,255)" stroke="rgb(255,255,255)" stroke-width="1" opacity="0.796078431372549" d="M 442.5 659 Q 448.4 657.3 447 661 L 441 661 L 440.5 663 L 433.5 663 L 433 665 L 427 665 L 426.5 667 L 419.5 667 L 418.5 669 L 409.5 669 L 408.5 671 L 399.5 671 L 398.5 673 L 387.5 673 L 386.5 675 L 369.5 675 L 370.5 673 L 386.5 673 L 388.5 671 L 398.5 671 L 400.5 669 L 408.5 669 L 410.5 667 L 418.5 667 Q 420 663.5 426.5 665 L 428.5 663 Q 433.5 664 434.5 661 L 440.5 661 L 442.5 659 Z "/>
  <path fill="rgb(255,255,255)" stroke="rgb(255,255,255)" stroke-width="1" opacity="0.796078431372549" d="M 313 677 Q 316.3 675.9 315 680 Q 311.7 681.1 313 677 Z "/>
  <path fill="rgb(255,255,255)" stroke="rgb(255,255,255)" stroke-width="1" opacity="0.796078431372549" d="M 365 677 Q 368.3 675.9 367 680 Q 363.7 681.1 365 677 Z "/>
</svg>
