<?xml version='1.0' encoding='UTF-8'?>
<svg xmlns="http://www.w3.org/2000/svg" width="512" height="512" version="1.1" desc="Created with imagetracer.js version 1.2.6" shape-rendering="geometricPrecision" text-rendering="geometricPrecision" image-rendering="optimizeQuality" viewBox="0 0 680.0 680.0">
  <path fill="rgb(0,0,0)" stroke="rgb(0,0,0)" stroke-width="1" opacity="0" d="M 0 0 L 318.5 0 L 319 3 L 321 3 L 321.5 0 L 359 0 Q 357.7 4.1 361 3 L 361.5 0 L 680 0 L 680 318.5 L 677.5 319 L 678.5 321 L 680 321.5 L 680 361 L 677 362.5 L 680 363 L 680 680 L 373 680 Q 374.3 675.9 371 677 L 370.5 680 L 309 680 Q 310.3 675.9 307 677 L 306.5 680 L 0 680 L 0 371.5 L 2.5 371 L 1.5 369 L 0 368.5 L 0 311 L 3 309.5 L 0 309 L 0 0 Z M 297 5 L 297 7 L 316 7 L 317 6 L 297 5 Z M 364 5 L 365 7 L 383 7 L 383 5 L 364 5 Z M 283 7 L 283 9 L 296 9 L 297 8 L 283 7 Z M 384 7 L 385 9 L 395 9 L 395 7 L 384 7 Z M 273 9 L 273 11 L 282 11 L 283 10 L 273 9 Z M 396 9 L 397 11 L 407 11 L 407 9 L 396 9 Z M 263 11 L 263 13 L 272 13 L 273 12 L 263 11 Z M 408 11 L 409 13 L 415 13 L 415 11 L 408 11 Z M 255 13 L 255 15 L 262 15 L 263 14 L 255 13 Z M 416 13 L 417 15 L 423 15 L 423 13 L 416 13 Z M 247 15 L 247 17 L 254 17 L 255 16 L 247 15 Z M 424 15 L 425 17 L 431 17 L 431 15 L 424 15 Z M 241 17 L 241 19 Q 246 20 247 18 L 241 17 Z M 432 17 Q 431 20 437 19 Q 438 15 432 17 Z M 235 19 L 235 21 Q 240 22 241 20 L 235 19 Z M 438 19 L 439 21 L 445 21 L 445 19 L 438 19 Z M 229 21 L 229 23 Q 234 24 235 22 L 229 21 Z M 446 21 Q 445 24 451 23 Q 452 19 446 21 Z M 223 23 L 223 25 Q 228 26 229 24 L 223 23 Z M 458 25 Q 457 28 461 27 Q 462 24 458 25 Z M 209 29 L 209 31 L 213 30 L 209 29 Z M 472 31 Q 471 34 475 33 Q 476 30 472 31 Z M 498 43 Q 497 46 501 45 Q 502 42 498 43 Z M 171 47 L 171 49 L 175 48 L 171 47 Z M 512 51 Q 511 54 515 53 Q 516 50 512 51 Z M 161 53 L 161 55 L 165 54 L 161 53 Z M 518 55 Q 517 58 521 57 Q 522 54 518 55 Z M 155 57 L 155 59 L 159 58 L 155 57 Z M 524 59 Q 523 62 527 61 Q 528 58 524 59 Z M 149 61 L 149 63 L 153 62 L 149 61 Z M 530 63 Q 529 66 533 65 Q 534 62 530 63 Z M 143 65 L 144 67 L 147 66 L 143 65 Z M 141 67 Q 140 70 143 69 Q 144 66 141 67 Z M 536 67 L 537 69 L 540 68 L 536 67 Z M 539 69 Q 538 72 541 71 Q 542 68 539 69 Z M 135 71 L 136 73 L 139 72 L 135 71 Z M 133 73 Q 132 76 135 75 Q 136 72 133 73 Z M 544 73 L 545 75 L 548 74 L 544 73 Z M 547 75 L 547 77 L 550 76 L 547 75 Z M 127 77 L 128 79 L 131 78 L 127 77 Z M 549 77 Q 548 80 551 79 Q 552 76 549 77 Z M 125 79 L 127 81 Q 128 78 125 79 Z M 123 81 L 125 83 Q 126 80 123 81 Z M 554 81 L 555 83 L 558 82 L 554 81 Z M 121 83 Q 120 86 123 85 Q 124 82 121 83 Z M 557 83 L 557 85 L 560 84 L 557 83 Z M 559 85 L 559 87 L 562 86 L 559 85 Z M 115 87 L 116 89 L 119 88 L 115 87 Z M 561 87 L 561 89 L 564 88 L 561 87 Z M 113 89 L 115 91 Q 116 88 113 89 Z M 563 89 L 563 91 L 566 90 L 563 89 Z M 111 91 L 113 93 Q 114 90 111 91 Z M 565 91 Q 564 94 567 93 Q 568 90 565 91 Z M 109 93 L 111 95 Q 112 92 109 93 Z M 107 95 L 109 97 Q 110 94 107 95 Z M 570 95 L 571 97 L 574 96 L 570 95 Z M 105 97 L 107 99 Q 108 96 105 97 Z M 573 97 L 573 99 L 576 98 L 573 97 Z M 103 99 L 105 101 Q 106 98 103 99 Z M 575 99 L 575 101 L 578 100 L 575 99 Z M 101 101 L 103 103 Q 104 100 101 101 Z M 577 101 L 577 103 L 580 102 L 577 101 Z M 99 103 L 101 105 Q 102 102 99 103 Z M 579 103 L 579 105 L 582 104 L 579 103 Z M 97 105 L 99 107 Q 100 104 97 105 Z M 581 105 L 581 107 L 584 106 L 581 105 Z M 95 107 L 97 109 Q 98 106 95 107 Z M 93 109 L 95 111 Q 96 108 93 109 Z M 91 111 L 93 113 Q 94 110 91 111 Z M 89 113 L 91 115 Q 92 112 89 113 Z M 587 113 L 587 115 L 590 114 L 587 113 Z M 87 115 L 89 117 Q 90 114 87 115 Z M 589 115 L 589 117 L 592 116 L 589 115 Z M 591 117 L 591 119 L 594 118 L 591 117 Z M 593 119 L 593 121 L 596 120 L 593 119 Z M 595 121 L 595 123 L 598 122 L 595 121 Z M 81 123 L 83 125 Q 84 122 81 123 Z M 79 125 L 81 127 Q 82 124 79 125 Z M 601 129 L 601 131 L 604 130 L 601 129 Z M 603 131 L 603 133 L 606 132 L 603 131 Z M 73 133 L 75 135 Q 76 132 73 133 Z M 71 135 L 73 137 Q 74 134 71 135 Z M 609 139 L 609 141 L 612 140 L 609 139 Z M 61 149 L 63 151 Q 64 148 61 149 Z M 451 221 Q 450 225 455 223 Q 456 219 451 221 Z M 449 223 L 447 225 L 451 225 Q 452 222 449 223 Z M 447 225 L 445 227 L 448 227 L 447 225 Z M 451 225 L 451 227 Q 446 226 445 231 L 441 229 L 437 231 L 441 231 Q 442 234 439 233 Q 437 229 435 233 L 437 233 L 435 237 L 431 235 L 427 237 L 431 237 Q 432 240 429 239 Q 427 235 425 239 L 427 239 L 425 243 L 421 241 L 417 243 L 421 243 Q 422 246 419 245 Q 417 241 415 245 L 417 245 L 415 249 L 411 247 L 407 249 L 411 249 Q 412 252 409 251 Q 407 247 405 251 L 407 251 L 405 255 L 401 253 L 397 255 L 401 255 Q 402 258 399 257 Q 397 253 395 257 L 397 257 L 395 261 L 389 259 L 388 261 Q 392 260 391 263 Q 388 264 387 261 L 383 263 L 387 263 Q 388 266 385 265 Q 383 261 381 265 L 383 265 L 381 269 L 377 267 L 373 269 L 377 269 Q 378 272 375 271 Q 373 267 371 271 L 373 271 L 371 275 L 367 273 L 363 275 L 367 275 Q 368 278 365 277 Q 363 273 361 277 L 363 277 L 361 281 L 355 279 L 354 281 Q 358 280 357 283 Q 354 284 353 281 L 349 283 L 353 283 Q 354 286 351 285 Q 349 281 347 285 L 349 285 L 347 289 L 343 287 L 339 289 L 343 289 Q 344 292 341 291 Q 339 287 337 291 L 339 291 L 337 295 L 331 293 L 330 295 Q 334 294 333 297 Q 330 298 329 295 L 325 297 L 329 297 Q 330 300 327 299 Q 325 295 323 299 L 325 299 L 321 305 Q 318 306 319 303 L 317 303 L 315 307 L 315 316 L 317 318 L 317 337 Q 314 338 315 341 Q 318 342 317 339 Q 320 338 319 341 L 309 351 L 307 351 Q 305 347 303 351 L 305 351 L 305 353 L 267 391 Q 264 392 265 389 L 263 389 L 261 395 L 265 393 L 259 401 L 255 399 L 241 399 L 240 401 L 255 401 L 255 403 L 241 403 L 237 405 Q 235 401 233 405 L 235 405 L 229 413 Q 226 414 227 411 L 225 411 L 221 419 L 221 425 L 219 427 Q 218 431 221 432 L 221 440 L 225 447 L 227 447 Q 226 444 229 445 L 235 453 L 233 454 Q 235 457 237 453 L 241 455 L 245 455 L 247 457 L 256 457 L 258 455 L 262 455 L 266 453 Q 267 457 269 454 L 267 453 L 272 447 Q 274 446 273 449 L 275 449 L 281 438 L 281 425 L 277 427 L 277 426 L 330 373 Q 332 372 331 375 L 333 375 L 335 369 L 331 371 L 331 370 L 340 361 L 344 363 L 363 363 L 363 361 L 344 361 L 343 359 L 363 359 L 365 361 Q 375 363 378 357 Q 380 356 379 359 L 381 359 L 383 353 L 379 355 L 382 351 Q 384 350 383 353 L 385 353 L 389 343 L 385 345 L 388 341 Q 390 340 389 343 L 391 343 L 395 333 L 391 335 L 394 331 Q 396 330 395 333 L 397 333 L 401 323 L 397 325 L 400 321 Q 402 320 401 323 L 403 323 L 407 313 L 403 315 L 406 311 Q 408 310 407 313 L 409 313 L 413 303 L 409 305 L 412 301 Q 414 300 413 303 L 415 303 L 421 289 L 417 291 L 420 287 Q 422 286 421 289 L 423 289 L 427 279 L 423 281 L 426 277 Q 428 276 427 279 L 429 279 L 433 269 L 429 271 L 432 267 Q 434 266 433 269 L 435 269 L 439 259 L 435 261 L 438 257 Q 440 256 439 259 L 441 259 L 445 249 L 441 251 L 444 247 Q 446 246 445 249 L 447 249 L 451 239 L 447 241 L 450 237 Q 452 236 451 239 L 453 239 L 457 232 Q 456 228 459 229 L 459 225 Q 456 224 457 228 L 455 227 L 455 225 L 451 225 Z M 443 227 L 441 229 L 445 229 Q 446 226 443 227 Z M 433 233 L 431 235 L 435 235 Q 436 232 433 233 Z M 423 239 L 421 241 L 425 241 Q 426 238 423 239 Z M 413 245 L 411 247 L 415 247 Q 416 244 413 245 Z M 403 251 L 401 253 L 405 253 Q 406 250 403 251 Z M 393 257 L 391 259 L 395 259 Q 396 256 393 257 Z M 379 265 L 377 267 L 381 267 Q 382 264 379 265 Z M 369 271 L 367 273 L 371 273 Q 372 270 369 271 Z M 359 277 L 357 279 L 361 279 Q 362 276 359 277 Z M 345 285 L 343 287 L 347 287 Q 348 284 345 285 Z M 335 291 L 333 293 L 337 293 Q 338 290 335 291 Z M 321 299 Q 320 302 323 301 Q 324 298 321 299 Z M 319 301 L 319 303 L 322 303 L 319 301 Z M 313 341 L 313 343 L 316 343 L 313 341 Z M 311 343 L 311 345 L 314 345 L 311 343 Z M 309 345 L 309 347 L 312 347 L 309 345 Z M 307 347 L 306 349 L 310 349 L 307 347 Z M 301 351 Q 300 354 303 353 Q 304 350 301 351 Z M 299 353 L 299 355 L 302 355 L 299 353 Z M 297 355 L 297 357 L 300 357 L 297 355 Z M 295 357 L 295 359 L 298 359 L 295 357 Z M 293 359 L 293 361 L 296 361 L 293 359 Z M 377 359 Q 376 362 379 361 Q 380 358 377 359 Z M 291 361 L 291 363 L 294 363 L 291 361 Z M 375 361 L 375 363 L 377 362 L 375 361 Z M 289 363 L 289 365 L 292 365 L 289 363 Z M 339 363 L 340 365 L 343 364 L 339 363 Z M 364 363 L 365 365 L 374 365 L 375 364 L 364 363 Z M 287 365 L 287 367 L 290 367 L 287 365 Z M 337 365 L 339 367 Q 340 364 337 365 Z M 285 367 L 285 369 L 288 369 L 285 367 Z M 335 367 L 337 369 Q 338 366 335 367 Z M 283 369 L 283 371 L 286 371 L 283 369 Z M 281 371 L 281 373 L 284 373 L 281 371 Z M 279 373 L 279 375 L 282 375 L 279 373 Z M 277 375 L 277 377 L 280 377 L 277 375 Z M 329 375 L 331 377 Q 332 374 329 375 Z M 275 377 L 275 379 L 278 379 L 275 377 Z M 327 377 L 329 379 Q 330 376 327 377 Z M 273 379 L 273 381 L 276 381 L 273 379 Z M 325 379 L 327 381 Q 328 378 325 379 Z M 271 381 L 271 383 L 274 383 L 271 381 Z M 323 381 L 325 383 Q 326 380 323 381 Z M 269 383 L 269 385 L 272 385 L 269 383 Z M 321 383 L 323 385 Q 324 382 321 383 Z M 267 385 L 267 387 L 270 387 L 267 385 Z M 319 385 L 321 387 Q 322 384 319 385 Z M 265 387 L 265 389 L 268 389 L 265 387 Z M 317 387 L 319 389 Q 320 386 317 387 Z M 315 389 L 317 391 Q 318 388 315 389 Z M 313 391 L 315 393 Q 316 390 313 391 Z M 311 393 L 313 395 Q 314 392 311 393 Z M 259 395 L 259 397 L 262 397 L 259 395 Z M 309 395 L 311 397 Q 312 394 309 395 Z M 257 397 L 256 399 L 260 399 L 257 397 Z M 307 397 L 309 399 Q 310 396 307 397 Z M 305 399 L 307 401 Q 308 398 305 399 Z M 237 401 L 235 403 L 239 403 Q 240 400 237 401 Z M 303 401 L 305 403 Q 306 400 303 401 Z M 301 403 L 303 405 Q 304 402 301 403 Z M 231 405 Q 230 408 233 407 Q 234 404 231 405 Z M 299 405 L 301 407 Q 302 404 299 405 Z M 229 407 L 229 409 L 232 409 L 229 407 Z M 297 407 L 299 409 Q 300 406 297 407 Z M 227 409 L 227 411 L 230 411 L 227 409 Z M 295 409 L 297 411 Q 298 408 295 409 Z M 293 411 L 295 413 Q 296 410 293 411 Z M 291 413 L 293 415 Q 294 412 291 413 Z M 289 415 L 291 417 Q 292 414 289 415 Z M 287 417 L 289 419 Q 290 416 287 417 Z M 285 419 L 287 421 Q 288 418 285 419 Z M 283 421 L 285 423 Q 286 420 283 421 Z M 281 423 L 283 425 Q 284 422 281 423 Z M 227 447 L 227 449 L 230 448 L 227 447 Z M 229 449 L 229 451 L 232 450 L 229 449 Z M 271 449 L 273 451 Q 274 448 271 449 Z M 231 451 Q 230 454 233 453 Q 234 450 231 451 Z M 269 451 Q 268 454 271 453 Q 272 450 269 451 Z M 236 455 Q 235 458 239 457 Q 240 454 236 455 Z M 263 455 L 263 457 L 267 456 L 263 455 Z M 240 457 Q 239 460 245 459 Q 246 455 240 457 Z M 257 457 L 257 459 Q 262 460 263 458 L 257 457 Z M 246 459 L 247 461 L 256 461 L 257 460 L 246 459 Z M 617 529 L 617 531 L 620 531 L 617 529 Z M 64 533 L 62 535 L 65 535 Q 66 532 64 533 Z M 70 541 L 68 543 L 71 543 Q 72 540 70 541 Z M 607 543 L 607 545 L 610 545 L 607 543 Z M 76 549 L 74 551 L 77 551 Q 78 548 76 549 Z M 601 551 L 601 553 L 604 553 L 601 551 Z M 599 553 L 599 555 L 602 555 L 599 553 Z M 597 555 L 597 557 L 600 557 L 597 555 Z M 82 557 L 80 559 L 83 559 Q 84 556 82 557 Z M 84 559 L 82 561 L 85 561 Q 86 558 84 559 Z M 86 561 L 84 563 L 87 563 Q 88 560 86 561 Z M 88 563 L 86 565 L 89 565 Q 90 562 88 563 Z M 591 563 L 591 565 L 594 565 L 591 563 Z M 90 565 L 88 567 L 91 567 Q 92 564 90 565 Z M 589 565 L 589 567 L 592 567 L 589 565 Z M 587 567 L 587 569 L 590 569 L 587 567 Z M 585 569 L 585 571 L 588 571 L 585 569 Z M 583 571 L 583 573 L 586 573 L 583 571 Z M 96 573 L 94 575 L 97 575 Q 98 572 96 573 Z M 581 573 L 581 575 L 584 575 L 581 573 Z M 98 575 L 96 577 L 99 577 Q 100 574 98 575 Z M 579 575 L 579 577 L 582 577 L 579 575 Z M 100 577 L 98 579 L 101 579 Q 102 576 100 577 Z M 577 577 L 577 579 L 580 579 L 577 577 Z M 102 579 L 100 581 L 103 581 Q 104 578 102 579 Z M 575 579 L 575 581 L 578 581 L 575 579 Z M 104 581 L 102 583 L 105 583 Q 106 580 104 581 Z M 573 581 L 573 583 L 576 583 L 573 581 Z M 106 583 L 105 585 L 109 585 L 106 583 Z M 571 583 L 571 585 L 574 585 L 571 583 Z M 569 585 L 569 587 L 572 587 L 569 585 Z M 111 587 Q 110 590 113 589 Q 114 586 111 587 Z M 567 587 L 567 589 L 570 589 L 567 587 Z M 114 589 L 112 591 L 115 591 Q 116 588 114 589 Z M 565 589 L 565 591 L 568 591 L 565 589 Z M 116 591 L 114 593 L 117 593 Q 118 590 116 591 Z M 563 591 L 563 593 L 566 593 L 563 591 Z M 118 593 L 116 595 L 119 595 Q 120 592 118 593 Z M 561 593 L 560 595 L 564 595 L 561 593 Z M 120 595 L 118 597 L 121 597 Q 122 594 120 595 Z M 122 597 L 120 599 L 123 599 Q 124 596 122 597 Z M 555 597 Q 554 600 557 599 Q 558 596 555 597 Z M 124 599 L 123 601 L 127 601 L 124 599 Z M 553 599 L 553 601 L 556 601 L 553 599 Z M 551 601 L 551 603 L 554 603 L 551 601 Z M 129 603 Q 128 606 131 605 Q 132 602 129 603 Z M 549 603 L 548 605 L 552 605 L 549 603 Z M 132 605 L 130 607 L 133 607 Q 134 604 132 605 Z M 134 607 L 133 609 L 137 609 L 134 607 Z M 543 607 Q 542 610 545 609 Q 546 606 543 607 Z M 541 609 L 540 611 L 544 611 L 541 609 Z M 139 611 L 139 613 L 143 613 L 139 611 Z M 535 613 Q 534 616 537 615 Q 538 612 535 613 Z M 145 615 Q 144 618 147 617 Q 148 614 145 615 Z M 533 615 L 532 617 L 536 617 L 533 615 Z M 148 617 L 147 619 L 151 619 L 148 617 Z M 527 619 L 525 621 L 529 621 Q 530 618 527 619 Z M 153 621 L 153 623 L 157 623 L 153 621 Z M 521 623 L 519 625 L 523 625 Q 524 622 521 623 Z M 159 625 L 159 627 L 163 627 L 159 625 Z M 515 627 L 513 629 L 517 629 Q 518 626 515 627 Z M 169 631 L 169 633 L 173 633 L 169 631 Z M 501 635 L 499 637 L 503 637 Q 504 634 501 635 Z M 471 649 L 469 651 L 473 651 Q 474 648 471 649 Z M 211 651 L 211 653 L 215 653 L 211 651 Z M 221 655 L 221 657 L 225 657 L 221 655 Z M 455 655 L 453 657 L 459 657 Q 460 653 455 655 Z M 449 657 L 447 659 L 453 659 Q 454 655 449 657 Z M 231 659 L 231 661 L 237 661 Q 236 658 231 659 Z M 443 659 L 441 661 L 447 661 Q 448 657 443 659 Z M 237 661 L 237 663 L 243 663 Q 242 660 237 661 Z M 437 661 L 435 663 L 441 663 Q 442 659 437 661 Z M 243 663 L 243 665 L 251 665 L 250 663 L 243 663 Z M 431 663 L 429 665 L 435 665 Q 436 661 431 663 Z M 251 665 L 251 667 L 259 667 Q 257 663 251 665 Z M 423 665 L 421 667 L 429 667 Q 430 664 423 665 Z M 259 667 L 259 669 L 267 669 L 266 667 L 259 667 Z M 415 667 L 413 669 L 421 669 Q 422 665 415 667 Z M 267 669 L 267 671 L 277 671 L 276 669 L 267 669 Z M 405 669 L 403 671 L 413 671 L 413 669 L 405 669 Z M 277 671 L 277 673 L 289 673 L 288 671 L 277 671 Z M 393 671 L 391 673 L 403 673 L 403 671 L 393 671 Z M 289 673 L 289 675 L 305 675 L 304 673 L 289 673 Z M 377 673 L 375 675 L 391 675 L 391 673 L 377 673 Z "/>
  <path fill="rgb(0,0,0)" stroke="rgb(0,0,0)" stroke-width="1" opacity="0" d="M 453 229 Q 456 228 455 231 Q 452 232 453 229 Z "/>
  <path fill="rgb(0,0,0)" stroke="rgb(0,0,0)" stroke-width="1" opacity="0" d="M 451 233 Q 454 232 453 235 Q 450 236 451 233 Z "/>
  <path fill="rgb(0,0,0)" stroke="rgb(0,0,0)" stroke-width="1" opacity="0" d="M 445 243 Q 448 242 447 245 Q 444 246 445 243 Z "/>
  <path fill="rgb(0,0,0)" stroke="rgb(0,0,0)" stroke-width="1" opacity="0" d="M 439 253 Q 442 252 441 255 Q 438 256 439 253 Z "/>
  <path fill="rgb(0,0,0)" stroke="rgb(0,0,0)" stroke-width="1" opacity="0" d="M 433 263 Q 436 262 435 265 Q 432 266 433 263 Z "/>
  <path fill="rgb(0,0,0)" stroke="rgb(0,0,0)" stroke-width="1" opacity="0" d="M 427 273 Q 430 272 429 275 Q 426 276 427 273 Z "/>
  <path fill="rgb(0,0,0)" stroke="rgb(0,0,0)" stroke-width="1" opacity="0" d="M 421 283 Q 424 282 423 285 Q 420 286 421 283 Z "/>
  <path fill="rgb(0,0,0)" stroke="rgb(0,0,0)" stroke-width="1" opacity="0" d="M 415 293 Q 418 292 417 295 Q 414 296 415 293 Z "/>
  <path fill="rgb(0,0,0)" stroke="rgb(0,0,0)" stroke-width="1" opacity="0" d="M 413 297 Q 416 296 415 299 Q 412 300 413 297 Z "/>
  <path fill="rgb(0,0,0)" stroke="rgb(0,0,0)" stroke-width="1" opacity="0" d="M 317 307 L 319 307.5 L 319 314.5 L 317 315.5 L 317 307 Z "/>
  <path fill="rgb(0,0,0)" stroke="rgb(0,0,0)" stroke-width="1" opacity="0" d="M 407 307 Q 410 306 409 309 Q 406 310 407 307 Z "/>
  <path fill="rgb(0,0,0)" stroke="rgb(0,0,0)" stroke-width="1" opacity="0" d="M 319 317 Q 322 316 321 319 Q 318 320 319 317 Z "/>
  <path fill="rgb(0,0,0)" stroke="rgb(0,0,0)" stroke-width="1" opacity="0" d="M 401 317 Q 404 316 403 319 Q 400 320 401 317 Z "/>
  <path fill="rgb(0,0,0)" stroke="rgb(0,0,0)" stroke-width="1" opacity="0" d="M 319.5 320 L 321 321.5 L 321 332.5 L 319 333.5 L 319.5 320 Z "/>
  <path fill="rgb(0,0,0)" stroke="rgb(0,0,0)" stroke-width="1" opacity="0" d="M 395 327 Q 398 326 397 329 Q 394 330 395 327 Z "/>
  <path fill="rgb(0,0,0)" stroke="rgb(0,0,0)" stroke-width="1" opacity="0" d="M 319 335 Q 322 334 321 337 Q 318 338 319 335 Z "/>
  <path fill="rgb(0,0,0)" stroke="rgb(0,0,0)" stroke-width="1" opacity="0" d="M 389 337 Q 392 336 391 339 Q 388 340 389 337 Z "/>
  <path fill="rgb(0,0,0)" stroke="rgb(0,0,0)" stroke-width="1" opacity="0" d="M 383 347 Q 386 346 385 349 Q 382 350 383 347 Z "/>
  <path fill="rgb(0,0,0)" stroke="rgb(0,0,0)" stroke-width="1" opacity="0" d="M 225 415 Q 228 414 227 417 Q 224 418 225 415 Z "/>
  <path fill="rgb(0,0,0)" stroke="rgb(0,0,0)" stroke-width="1" opacity="0" d="M 247 417 L 254.5 417 L 255 419 L 247.5 419 L 247 417 Z "/>
  <path fill="rgb(0,0,0)" stroke="rgb(0,0,0)" stroke-width="1" opacity="0" d="M 223.5 418 L 225 420.5 L 223 421.5 L 223.5 418 Z "/>
  <path fill="rgb(0,0,0)" stroke="rgb(0,0,0)" stroke-width="1" opacity="0" d="M 243.5 419 L 247.5 421 L 254.5 421 L 258.5 419 L 261 423 Q 258 424 259 421 L 255.5 421 L 259 425.5 Q 260.8 434.8 255 436.5 L 259 437 Q 258 434 261 435 L 258.5 439 L 254.5 437 L 247.5 437 L 243.5 439 L 239 433 L 243 435 L 243 423.5 L 241 423 Q 242 426 239 425 L 243.5 419 Z M 243 421 L 244 423 L 247 422 L 243 421 Z M 244 435 L 243 437 L 247 437 L 244 435 Z "/>
  <path fill="rgb(0,0,0)" stroke="rgb(0,0,0)" stroke-width="1" opacity="0" d="M 223 423 Q 226 422 225 425 Q 222 426 223 423 Z "/>
  <path fill="rgb(0,0,0)" stroke="rgb(0,0,0)" stroke-width="1" opacity="0" d="M 261 425 Q 264 424 263 427 Q 260 428 261 425 Z "/>
  <path fill="rgb(0,0,0)" stroke="rgb(0,0,0)" stroke-width="1" opacity="0" d="M 221.5 426 L 223 428.5 L 221 429.5 L 221.5 426 Z "/>
  <path fill="rgb(0,0,0)" stroke="rgb(0,0,0)" stroke-width="1" opacity="0" d="M 240.5 426 L 241 431.5 L 239 430.5 Q 238.3 426.8 240.5 426 Z "/>
  <path fill="rgb(0,0,0)" stroke="rgb(0,0,0)" stroke-width="1" opacity="0" d="M 278.5 428 L 279 437.5 L 277 436.5 Q 275.3 429.7 278.5 428 Z "/>
  <path fill="rgb(0,0,0)" stroke="rgb(0,0,0)" stroke-width="1" opacity="0" d="M 223 431 Q 226 430 225 433 Q 222 434 223 431 Z "/>
  <path fill="rgb(0,0,0)" stroke="rgb(0,0,0)" stroke-width="1" opacity="0" d="M 261 431 Q 264 430 263 433 Q 260 434 261 431 Z "/>
  <path fill="rgb(0,0,0)" stroke="rgb(0,0,0)" stroke-width="1" opacity="0" d="M 223.5 434 Q 225.8 434.8 225 438.5 L 223 439.5 L 223.5 434 Z "/>
  <path fill="rgb(0,0,0)" stroke="rgb(0,0,0)" stroke-width="1" opacity="0" d="M 247 439 L 254.5 439 L 255 441 L 247.5 441 L 247 439 Z "/>
  <path fill="rgb(0,0,0)" stroke="rgb(0,0,0)" stroke-width="1" opacity="0" d="M 275 439 Q 278 438 277 441 Q 274 442 275 439 Z "/>
  <path fill="rgb(0,0,0)" stroke="rgb(0,0,0)" stroke-width="1" opacity="0" d="M 225 441 Q 228 440 227 443 Q 224 444 225 441 Z "/>
  <path fill="rgb(0,0,0)" stroke="rgb(0,0,0)" stroke-width="1" opacity="0" d="M 273 443 Q 276 442 275 445 Q 272 446 273 443 Z "/>
  <path fill="rgb(255,255,255)" stroke="rgb(255,255,255)" stroke-width="1" opacity="0.16862745098039217" d="M 319 0 Q 322.3 -1.1 321 3 Q 317.7 4.1 319 0 Z "/>
  <path fill="rgb(255,255,255)" stroke="rgb(255,255,255)" stroke-width="1" opacity="0.16862745098039217" d="M 359 0 Q 362.3 -1.1 361 3 Q 357.7 4.1 359 0 Z "/>
  <path fill="rgb(255,255,255)" stroke="rgb(255,255,255)" stroke-width="1" opacity="0.16862745098039217" d="M 297 5 L 317 5.5 L 315.5 7 L 297.5 7 L 295.5 9 L 283.5 9 L 281.5 11 L 273.5 11 Q 271.5 15 263.5 13 L 261.5 15 L 255.5 15 Q 254 18.5 247.5 17 L 245.5 19 L 241.5 19 L 239.5 21 L 235.5 21 L 227.5 25 L 223 25 L 223 23 L 229 23 L 229 21 L 235 21 L 235 19 L 241 19 L 241 17 L 247 17 L 247.5 15 L 254.5 15 L 255 13 L 262.5 13 L 263.5 11 L 272.5 11 L 273.5 9 L 282.5 9 L 283.5 7 L 296.5 7 L 297 5 Z "/>
  <path fill="rgb(255,255,255)" stroke="rgb(255,255,255)" stroke-width="1" opacity="0.16862745098039217" d="M 363.5 5 L 382.5 5 L 383.5 7 L 394.5 7 L 395.5 9 L 406.5 9 L 407.5 11 L 414.5 11 L 415.5 13 L 422.5 13 L 423.5 15 L 431 15 L 431 17 L 437 17 L 437.5 19 L 445 19 L 445 21 L 451 21 L 451 23 Q 446 24.2 444.5 21 L 438.5 21 L 430.5 17 L 424.5 17 L 422.5 15 L 416.5 15 L 414.5 13 L 408.5 13 L 406.5 11 L 396.5 11 L 394.5 9 L 384.5 9 L 382.5 7 L 364.5 7 L 363.5 5 Z "/>
  <path fill="rgb(255,255,255)" stroke="rgb(255,255,255)" stroke-width="1" opacity="0.16862745098039217" d="M 457.5 25 Q 462.3 23.7 461 27 Q 457.2 27.8 457.5 25 Z "/>
  <path fill="rgb(255,255,255)" stroke="rgb(255,255,255)" stroke-width="1" opacity="0.16862745098039217" d="M 209 29 L 213 29.5 L 209 31 L 209 29 Z "/>
  <path fill="rgb(255,255,255)" stroke="rgb(255,255,255)" stroke-width="1" opacity="0.16862745098039217" d="M 471.5 31 Q 476.3 29.7 475 33 Q 471.2 33.8 471.5 31 Z "/>
  <path fill="rgb(255,255,255)" stroke="rgb(255,255,255)" stroke-width="1" opacity="0.16862745098039217" d="M 497.5 43 Q 502.3 41.7 501 45 Q 497.2 45.8 497.5 43 Z "/>
  <path fill="rgb(255,255,255)" stroke="rgb(255,255,255)" stroke-width="1" opacity="0.16862745098039217" d="M 171 47 L 175 47.5 L 171 49 L 171 47 Z "/>
  <path fill="rgb(255,255,255)" stroke="rgb(255,255,255)" stroke-width="1" opacity="0.16862745098039217" d="M 511.5 51 Q 516.3 49.7 515 53 Q 511.2 53.8 511.5 51 Z "/>
  <path fill="rgb(255,255,255)" stroke="rgb(255,255,255)" stroke-width="1" opacity="0.16862745098039217" d="M 161 53 L 165 53.5 L 161 55 L 161 53 Z "/>
  <path fill="rgb(255,255,255)" stroke="rgb(255,255,255)" stroke-width="1" opacity="0.16862745098039217" d="M 517.5 55 Q 522.3 53.7 521 57 Q 517.2 57.8 517.5 55 Z "/>
  <path fill="rgb(255,255,255)" stroke="rgb(255,255,255)" stroke-width="1" opacity="0.16862745098039217" d="M 155 57 L 159 57.5 L 155 59 L 155 57 Z "/>
  <path fill="rgb(255,255,255)" stroke="rgb(255,255,255)" stroke-width="1" opacity="0.16862745098039217" d="M 523.5 59 Q 528.3 57.7 527 61 Q 523.2 61.8 523.5 59 Z "/>
  <path fill="rgb(255,255,255)" stroke="rgb(255,255,255)" stroke-width="1" opacity="0.16862745098039217" d="M 149 61 L 153 61.5 L 149 63 L 149 61 Z "/>
  <path fill="rgb(255,255,255)" stroke="rgb(255,255,255)" stroke-width="1" opacity="0.16862745098039217" d="M 529.5 63 Q 534.3 61.7 533 65 Q 529.2 65.8 529.5 63 Z "/>
  <path fill="rgb(255,255,255)" stroke="rgb(255,255,255)" stroke-width="1" opacity="0.16862745098039217" d="M 142.5 65 L 147 65.5 L 143 67 Q 144 70 141 69 Q 139.9 66.3 142.5 67 L 142.5 65 Z "/>
  <path fill="rgb(255,255,255)" stroke="rgb(255,255,255)" stroke-width="1" opacity="0.16862745098039217" d="M 535.5 67 L 540 67.5 L 539.5 69 Q 542.1 68.3 541 71 Q 538 72 539 69 L 536.5 69 L 535.5 67 Z "/>
  <path fill="rgb(255,255,255)" stroke="rgb(255,255,255)" stroke-width="1" opacity="0.16862745098039217" d="M 134.5 71 L 139 71.5 L 135 73 Q 136 76 133 75 Q 131.9 72.3 134.5 73 L 134.5 71 Z "/>
  <path fill="rgb(255,255,255)" stroke="rgb(255,255,255)" stroke-width="1" opacity="0.16862745098039217" d="M 543.5 73 L 548 73.5 L 547.5 75 L 550 75.5 L 549.5 77 Q 552.1 76.3 551 79 L 549 79 L 547 75 L 544.5 75 L 543.5 73 Z "/>
  <path fill="rgb(255,255,255)" stroke="rgb(255,255,255)" stroke-width="1" opacity="0.16862745098039217" d="M 126.5 77 L 131 77.5 L 127 79 L 127 81 L 125 81 L 125 83 L 121 85 Q 119.9 82.3 122.5 83 L 122.5 81 L 125 80.5 L 124.5 79 L 127 78.5 L 126.5 77 Z "/>
  <path fill="rgb(255,255,255)" stroke="rgb(255,255,255)" stroke-width="1" opacity="0.16862745098039217" d="M 553.5 81 L 558 81.5 L 557.5 83 L 560 83.5 L 559.5 85 L 562 85.5 L 561.5 87 L 564 87.5 L 563.5 89 L 566 89.5 L 565.5 91 Q 568.1 90.3 567 93 L 565 93 L 565 91 L 563 91 L 563 89 L 561 89 L 561 87 L 559 87 L 557 83 L 554.5 83 L 553.5 81 Z "/>
  <path fill="rgb(255,255,255)" stroke="rgb(255,255,255)" stroke-width="1" opacity="0.16862745098039217" d="M 114.5 87 L 119 87.5 L 115 89 L 115 91 L 113 91 L 113 93 L 111 93 L 111 95 L 109 95 L 109 97 L 107 97 L 107 99 L 105 99 L 105 101 L 103 101 L 103 103 L 101 103 L 101 105 L 99 105 L 99 107 L 97 107 L 97 109 L 95 109 L 95 111 L 93 111 L 93 113 L 91 113 L 91 115 L 89 115 Q 90.1 117.7 87.5 117 L 86.5 115 L 89 114.5 L 88.5 113 L 91 112.5 L 90.5 111 L 93 110.5 L 92.5 109 L 95 108.5 L 94.5 107 L 97 106.5 L 96.5 105 L 99 104.5 L 98.5 103 L 101 102.5 L 100.5 101 L 103 100.5 L 102.5 99 L 105 98.5 L 104.5 97 L 107 96.5 L 106.5 95 L 109 94.5 L 108.5 93 L 111 92.5 L 110.5 91 L 113 90.5 L 112.5 89 L 115 88.5 L 114.5 87 Z "/>
  <path fill="rgb(255,255,255)" stroke="rgb(255,255,255)" stroke-width="1" opacity="0.16862745098039217" d="M 569.5 95 L 574 95.5 L 573.5 97 L 576 97.5 L 575.5 99 L 578 99.5 L 577.5 101 L 580 101.5 L 579.5 103 L 582 103.5 L 581.5 105 L 584 105.5 L 581 107 L 581 105 L 579 105 L 579 103 L 577 103 L 577 101 L 575 101 L 573 97 L 570.5 97 L 569.5 95 Z "/>
  <path fill="rgb(255,255,255)" stroke="rgb(255,255,255)" stroke-width="1" opacity="0.16862745098039217" d="M 587 113 L 590 113.5 L 589.5 115 L 592 115.5 L 591.5 117 L 594 117.5 L 593.5 119 L 596 119.5 L 595.5 121 L 598 121.5 L 595 123 L 595 121 L 593 121 L 593 119 L 591 119 L 591 117 L 589 117 L 587 113 Z "/>
  <path fill="rgb(255,255,255)" stroke="rgb(255,255,255)" stroke-width="1" opacity="0.16862745098039217" d="M 80.5 123 Q 84.3 122 83 125 L 81 125 Q 82.1 127.7 79.5 127 L 78.5 125 L 81 124.5 L 80.5 123 Z "/>
  <path fill="rgb(255,255,255)" stroke="rgb(255,255,255)" stroke-width="1" opacity="0.16862745098039217" d="M 601 129 L 604 129.5 L 603.5 131 L 606 131.5 L 603 133 L 601 129 Z "/>
  <path fill="rgb(255,255,255)" stroke="rgb(255,255,255)" stroke-width="1" opacity="0.16862745098039217" d="M 72.5 133 Q 76.3 132 75 135 L 73 135 Q 74.1 137.7 71.5 137 L 70.5 135 L 73 134.5 L 72.5 133 Z "/>
  <path fill="rgb(255,255,255)" stroke="rgb(255,255,255)" stroke-width="1" opacity="0.16862745098039217" d="M 609 139 L 612 139.5 L 609 141 L 609 139 Z "/>
  <path fill="rgb(255,255,255)" stroke="rgb(255,255,255)" stroke-width="1" opacity="0.16862745098039217" d="M 60.5 149 Q 64.3 148 63 151 L 60.5 149 Z "/>
  <path fill="rgb(255,255,255)" stroke="rgb(255,255,255)" stroke-width="1" opacity="0.16862745098039217" d="M 451 221 Q 456.2 219.3 455 223 Q 449.8 221.3 451 225 L 455 225 L 455 226.5 L 457 227.5 Q 456 223.8 459 225 L 459 229 Q 456 227.8 457 231.5 L 453 239 Q 450 237.8 451 241.5 L 447 249 Q 444 247.8 445 251.5 L 441 259 Q 438 257.8 439 261.5 L 435 269 Q 432 267.8 433 271.5 L 429 279 Q 426 277.8 427 281.5 L 423 289 Q 420 287.8 421 291.5 L 415 303 Q 412 301.8 413 305.5 L 409 313 Q 406 311.8 407 315.5 L 403 323 Q 400 321.8 401 325.5 L 397 333 Q 394 331.8 395 335.5 L 391 343 Q 388 341.8 389 345.5 L 385 353 Q 382 351.8 383 355.5 L 381 359 L 379 359 Q 380.1 361.7 377.5 361 Q 375.2 367.3 364.5 365 L 362.5 363 L 343.5 363 Q 342.4 365.8 339 365 L 339 367 L 335 369 L 335 371.5 L 333 375 L 331 375 L 331 377 L 329 377 L 329 379 L 327 379 L 327 381 L 325 381 L 325 383 L 323 383 L 323 385 L 321 385 L 321 387 L 319 387 L 319 389 L 317 389 L 317 391 L 315 391 L 315 393 L 313 393 L 313 395 L 311 395 L 311 397 L 309 397 L 309 399 L 307 399 L 307 401 L 305 401 L 305 403 L 303 403 L 303 405 L 301 405 L 301 407 L 299 407 L 299 409 L 297 409 L 297 411 L 295 411 L 295 413 L 293 413 L 293 415 L 291 415 L 291 417 L 289 417 L 289 419 L 287 419 L 287 421 L 283 423 L 283 425 L 281 425 L 281 437.5 L 275 449 L 273 449 L 273 451 L 271 451 Q 272.1 453.7 269.5 453 L 261.5 459 Q 256.5 458 255.5 461 L 246.5 461 L 244.5 459 L 240.5 459 L 236.5 457 L 231 453 L 231 451 L 229 451 L 229 449 L 227 449 L 227 447 Q 224.3 448.1 225 445.5 L 221 439.5 L 221 431.5 Q 218.3 430.8 219 426.5 L 221 424.5 L 221 418.5 L 225 411 L 227 411 L 227 409 L 229 409 L 229 407 L 231 407 Q 229.9 404.3 232.5 405 L 240.5 399 L 254.5 399 Q 255.6 396.2 259 397 Q 258 394 261 395 L 261 392.5 L 263 389 L 265 389 L 265 387 L 267 387 L 267 385 L 269 385 L 269 383 L 271 383 L 271 381 L 273 381 L 273 379 L 275 379 L 275 377 L 277 377 L 277 375 L 279 375 L 279 373 L 281 373 L 281 371 L 283 371 L 283 369 L 285 369 L 285 367 L 287 367 L 287 365 L 289 365 L 289 363 L 291 363 L 291 361 L 293 361 L 293 359 L 295 359 L 295 357 L 297 357 L 297 355 L 299 355 L 299 353 L 301 353 Q 299.9 350.3 302.5 351 Q 303.9 346.3 309 347 L 309 345 L 311 345 L 311 343 L 315 341 L 315 338.5 L 317 336.5 L 317 317.5 L 315 315.5 L 315 306.5 L 317 303 L 319 303 L 319 301 L 321 301 Q 319.9 298.3 322.5 299 L 326.5 295 L 336.5 291 L 350.5 281 L 360.5 277 L 364.5 273 L 370.5 271 L 384.5 261 L 394.5 257 L 398.5 253 L 404.5 251 L 408.5 247 L 414.5 245 L 418.5 241 L 424.5 239 L 428.5 235 L 434.5 233 L 448.5 223 L 451 223 L 451 221 Z M 448 225 Q 447 228 451 227 Q 452 224 448 225 Z M 452 226 Q 451 229 454 228 Q 455 225 452 226 Z M 445 227 Q 446 230 442 229 L 443 231 Q 448 232 448 228 L 445 227 Z M 448 228 L 446 232 Q 441 231 442 234 L 438 234 L 436 238 Q 431 237 432 240 L 428 240 L 426 244 Q 421 242 422 246 L 418 246 L 416 250 Q 411 249 412 252 L 408 252 L 406 256 Q 401 255 402 258 L 398 258 L 396 262 Q 391 261 392 264 L 388 264 L 388 266 L 384 266 L 382 270 Q 377 269 378 272 L 374 272 L 372 276 Q 367 275 368 278 L 364 278 L 362 282 Q 357 281 358 284 L 354 284 L 354 286 L 350 286 L 348 290 Q 343 289 344 292 L 340 292 L 338 296 Q 333 295 334 298 L 330 298 L 330 300 L 326 300 L 324 304 L 322 304 L 322 306 L 320 306 L 320 316 L 322 316 L 322 338 Q 319 337 320 342 L 316 344 L 316 346 L 314 346 L 314 348 L 312 348 L 312 350 L 310 350 L 310 352 L 306 352 L 306 354 L 304 354 L 302 358 L 300 358 L 300 360 L 298 360 L 298 362 L 296 362 L 296 364 L 294 364 L 294 366 L 292 366 L 292 368 L 290 368 L 290 370 L 288 370 L 288 372 L 286 372 L 286 374 L 284 374 L 284 376 L 282 376 L 282 378 L 280 378 L 280 380 L 278 380 L 278 382 L 276 382 L 276 384 L 274 384 L 274 386 L 272 386 L 272 388 L 270 388 L 270 390 L 268 390 L 268 392 L 266 392 L 266 396 L 262 398 L 262 400 L 260 400 L 260 402 Q 255 401 256 404 L 241 404 Q 241 407 236 406 L 234 410 L 232 410 L 232 412 L 230 412 L 230 414 L 228 414 Q 229 419 226 419 L 226 426 L 224 426 Q 223 431 226 431 L 226 440 Q 229 439 228 444 L 232 446 L 232 448 L 234 448 L 234 450 L 236 450 L 236 452 Q 241 451 241 454 L 246 454 L 246 456 L 256 456 L 256 454 L 262 454 Q 261 451 266 452 L 268 448 L 270 448 L 270 446 L 272 446 Q 271 441 274 442 L 274 438 L 276 438 L 276 424 L 278 424 L 278 422 L 282 420 L 282 418 L 284 418 L 284 416 L 286 416 L 286 414 L 288 414 L 288 412 L 290 412 L 290 410 L 292 410 L 292 408 L 294 408 L 294 406 L 296 406 L 296 404 L 298 404 L 298 402 L 300 402 L 300 400 L 302 400 L 302 398 L 304 398 L 304 396 L 306 396 L 306 394 L 308 394 L 308 392 L 310 392 L 310 390 L 312 390 L 312 388 L 314 388 L 314 386 L 316 386 L 316 384 L 318 384 L 318 382 L 320 382 L 320 380 L 322 380 L 322 378 L 324 378 L 324 376 L 326 376 L 326 374 L 328 374 L 328 372 L 330 372 L 330 368 L 334 366 L 334 364 L 336 364 L 336 362 L 338 362 L 338 360 L 342 360 L 342 358 L 364 358 L 364 360 L 374 360 Q 373 357 376 358 L 376 356 L 378 356 L 378 352 L 382 350 Q 380 345 384 346 L 384 342 L 388 340 Q 387 335 390 336 L 390 332 L 394 330 Q 393 325 396 326 L 396 322 L 400 320 Q 399 315 402 316 L 402 312 L 406 310 Q 405 305 408 306 L 408 302 L 412 300 Q 411 295 414 296 L 414 292 L 416 292 L 416 288 L 420 286 Q 419 281 422 282 L 422 278 L 426 276 Q 425 271 428 272 L 428 268 L 432 266 Q 431 261 434 262 L 434 258 L 438 256 Q 437 251 440 252 L 440 248 L 444 246 Q 443 241 446 242 L 446 238 L 450 236 Q 448 231 452 232 Q 454 226 448 228 Z M 453 229 Q 452 232 455 231 Q 456 228 453 229 Z M 438 231 Q 437 234 441 233 Q 442 230 438 231 Z M 435 233 Q 436 236 432 235 L 433 237 Q 437 237 437 235 Q 438 232 435 233 Z M 451 233 Q 450 236 453 235 Q 454 232 451 233 Z M 428 237 Q 427 240 431 239 Q 432 236 428 237 Z M 450 237 L 447 241 L 451 239 Q 452 236 450 237 Z M 425 239 Q 426 242 422 241 L 423 243 Q 426 244 427 241 Q 428 238 425 239 Z M 418 243 Q 417 246 421 245 Q 422 242 418 243 Z M 445 243 Q 444 246 447 245 Q 448 242 445 243 Z M 415 245 Q 416 248 412 247 L 413 249 Q 417 250 417 247 Q 418 244 415 245 Z M 444 247 L 441 251 L 445 249 Q 446 246 444 247 Z M 408 249 Q 407 252 411 251 Q 412 248 408 249 Z M 405 251 Q 406 254 402 253 L 403 255 Q 406 255 407 253 Q 408 250 405 251 Z M 439 253 Q 438 256 441 255 Q 442 252 439 253 Z M 398 255 Q 397 258 401 257 Q 402 254 398 255 Z M 395 257 Q 396 260 392 259 L 393 261 Q 397 262 397 259 Q 398 256 395 257 Z M 438 257 L 435 261 L 439 259 Q 440 256 438 257 Z M 388 261 Q 387 264 391 263 Q 392 260 388 261 Z M 384 263 Q 383 266 387 265 Q 388 262 384 263 Z M 433 263 Q 432 266 435 265 Q 436 262 433 263 Z M 381 265 Q 382 268 378 267 L 379 269 Q 383 270 383 267 Q 384 264 381 265 Z M 432 267 L 429 271 L 433 269 Q 434 266 432 267 Z M 374 269 Q 373 272 377 271 Q 378 268 374 269 Z M 371 271 Q 372 274 368 273 L 369 275 Q 372 275 373 273 Q 374 270 371 271 Z M 427 273 Q 426 276 429 275 Q 430 272 427 273 Z M 364 275 Q 363 278 367 277 Q 368 274 364 275 Z M 361 277 Q 362 280 358 279 L 359 281 Q 363 282 363 279 Q 364 276 361 277 Z M 426 277 L 423 281 L 427 279 Q 428 276 426 277 Z M 354 281 Q 353 284 357 283 Q 358 280 354 281 Z M 350 283 Q 349 286 353 285 Q 354 282 350 283 Z M 421 283 Q 420 286 423 285 Q 424 282 421 283 Z M 347 285 Q 348 288 344 287 L 345 289 Q 349 290 349 287 Q 350 284 347 285 Z M 420 287 L 417 291 L 421 289 Q 422 286 420 287 Z M 340 289 Q 339 292 343 291 Q 344 288 340 289 Z M 337 291 Q 338 294 334 293 L 335 295 Q 339 296 339 293 Q 340 290 337 291 Z M 415 293 Q 414 296 417 295 Q 418 292 415 293 Z M 330 295 Q 329 298 333 297 Q 334 294 330 295 Z M 326 297 Q 325 300 329 299 Q 330 296 326 297 Z M 413 297 Q 412 300 415 299 Q 416 296 413 297 Z M 323 299 L 323 301 L 321 302 Q 323 305 325 301 Q 326 298 323 299 Z M 412 301 L 409 305 L 413 303 Q 414 300 412 301 Z M 319 303 L 319 305 L 322 304 L 319 303 Z M 317 307 L 317 316 L 319 315 L 319 308 L 317 307 Z M 407 307 Q 406 310 409 309 Q 410 306 407 307 Z M 406 311 L 403 315 L 407 313 Q 408 310 406 311 Z M 319 317 Q 318 320 321 319 Q 322 316 319 317 Z M 401 317 Q 400 320 403 319 Q 404 316 401 317 Z M 320 320 L 319 334 L 321 333 L 321 322 L 320 320 Z M 400 321 L 397 325 L 401 323 Q 402 320 400 321 Z M 395 327 Q 394 330 397 329 Q 398 326 395 327 Z M 394 331 L 391 335 L 395 333 Q 396 330 394 331 Z M 319 335 Q 318 338 321 337 Q 322 334 319 335 Z M 389 337 Q 388 340 391 339 Q 392 336 389 337 Z M 317 339 L 317 341 L 315 342 Q 317 345 319 341 Q 320 338 317 339 Z M 388 341 L 385 345 L 389 343 Q 390 340 388 341 Z M 314 343 Q 314 347 316 344 L 314 343 Z M 312 345 Q 312 349 314 346 L 312 345 Z M 310 347 Q 310 351 312 348 L 310 347 Z M 383 347 Q 382 350 385 349 Q 386 346 383 347 Z M 306 349 L 307 351 L 310 350 L 306 349 Z M 303 351 L 303 353 L 301 354 Q 303 357 305 353 Q 306 350 303 351 Z M 382 351 L 379 355 L 383 353 Q 384 350 382 351 Z M 300 355 Q 300 359 302 356 L 300 355 Z M 298 357 Q 298 361 300 358 L 298 357 Z M 378 357 L 374 361 L 365 361 L 363 359 L 343 359 L 344 361 L 363 361 L 363 363 L 375 363 Q 374 360 377 361 L 377 359 L 379 359 Q 380 356 378 357 Z M 296 359 Q 296 363 298 360 L 296 359 Z M 294 361 Q 294 365 296 362 L 294 361 Z M 340 361 L 339 363 L 343 363 L 340 361 Z M 292 363 Q 292 367 294 364 L 292 363 Z M 338 363 L 336 365 L 339 365 L 338 363 Z M 290 365 Q 290 369 292 366 L 290 365 Z M 336 365 L 334 367 L 337 367 L 336 365 Z M 288 367 Q 288 371 290 368 L 288 367 Z M 334 367 L 331 371 L 333 371 Q 332 368 335 369 L 334 367 Z M 286 369 Q 286 373 288 370 L 286 369 Z M 284 371 Q 284 375 286 372 L 284 371 Z M 282 373 Q 282 377 284 374 L 282 373 Z M 330 373 L 328 375 L 331 375 Q 332 372 330 373 Z M 280 375 Q 280 379 282 376 L 280 375 Z M 328 375 L 326 377 L 329 377 L 328 375 Z M 278 377 Q 278 381 280 378 L 278 377 Z M 326 377 L 324 379 L 327 379 L 326 377 Z M 276 379 Q 276 383 278 380 L 276 379 Z M 324 379 L 322 381 L 325 381 L 324 379 Z M 274 381 Q 274 385 276 382 L 274 381 Z M 322 381 L 320 383 L 323 383 L 322 381 Z M 272 383 Q 272 387 274 384 L 272 383 Z M 320 383 L 318 385 L 321 385 L 320 383 Z M 270 385 Q 270 389 272 386 L 270 385 Z M 318 385 L 316 387 L 319 387 L 318 385 Z M 268 387 Q 268 391 270 388 L 268 387 Z M 316 387 L 314 389 L 317 389 L 316 387 Z M 265 389 L 265 391 L 268 390 L 265 389 Z M 314 389 L 312 391 L 315 391 L 314 389 Z M 312 391 L 310 393 L 313 393 L 312 391 Z M 263 393 L 263 395 L 261 396 Q 263 399 265 395 Q 266 392 263 393 Z M 310 393 L 308 395 L 311 395 L 310 393 Z M 308 395 L 306 397 L 309 397 L 308 395 Z M 260 397 Q 260 401 262 398 L 260 397 Z M 306 397 L 304 399 L 307 399 L 306 397 Z M 256 399 L 257 401 L 260 400 L 256 399 Z M 304 399 L 302 401 L 305 401 L 304 399 Z M 239 401 Q 240 404 236 403 L 237 405 L 241 403 L 255 403 L 255 401 L 239 401 Z M 302 401 L 300 403 L 303 403 L 302 401 Z M 300 403 L 298 405 L 301 405 L 300 403 Z M 233 405 L 233 407 L 231 408 Q 233 411 235 407 Q 236 404 233 405 Z M 298 405 L 296 407 L 299 407 L 298 405 Z M 296 407 L 294 409 L 297 409 L 296 407 Z M 230 409 Q 230 413 232 410 L 230 409 Z M 294 409 L 292 411 L 295 411 L 294 409 Z M 227 411 L 227 413 L 230 412 L 227 411 Z M 292 411 L 290 413 L 293 413 L 292 411 Z M 290 413 L 288 415 L 291 415 L 290 413 Z M 225 415 Q 224 418 227 417 Q 228 414 225 415 Z M 288 415 L 286 417 L 289 417 L 288 415 Z M 286 417 L 284 419 L 287 419 L 286 417 Z M 224 418 L 223 422 L 225 421 L 224 418 Z M 284 419 L 282 421 L 285 421 L 284 419 Z M 282 421 L 280 423 L 283 423 L 282 421 Z M 223 423 Q 222 426 225 425 Q 226 422 223 423 Z M 280 423 L 277 427 L 279 427 Q 278 424 281 425 L 280 423 Z M 222 426 L 221 430 L 223 429 L 222 426 Z M 279 428 Q 275 430 277 437 L 279 438 L 279 428 Z M 223 431 Q 222 434 225 433 Q 226 430 223 431 Z M 224 434 L 223 440 L 225 439 Q 226 435 224 434 Z M 275 439 Q 274 442 277 441 Q 278 438 275 439 Z M 225 441 Q 224 444 227 443 Q 228 440 225 441 Z M 273 443 Q 272 446 275 445 Q 276 442 273 443 Z M 227 445 L 227 447 L 230 447 L 227 445 Z M 231 447 L 229 449 L 232 449 L 231 447 Z M 272 447 L 270 449 L 273 449 Q 274 446 272 447 Z M 233 449 L 232 451 Q 234 450 233 453 L 235 453 L 233 449 Z M 270 449 L 267 453 L 269 453 Q 268 450 271 451 L 270 449 Z M 237 453 L 236 455 Q 241 454 240 457 L 245 457 L 245 459 L 257 459 L 257 457 L 263 457 Q 262 454 267 455 L 266 453 L 262 455 L 258 455 L 256 457 L 247 457 L 245 455 L 241 455 L 237 453 Z "/>
  <path fill="rgb(255,255,255)" stroke="rgb(255,255,255)" stroke-width="1" opacity="0.16862745098039217" d="M 0 309 L 3 309.5 L 0 311 L 0 309 Z "/>
  <path fill="rgb(255,255,255)" stroke="rgb(255,255,255)" stroke-width="1" opacity="0.16862745098039217" d="M 677.5 319 Q 681.3 318 680 321 L 677.5 319 Z "/>
  <path fill="rgb(255,255,255)" stroke="rgb(255,255,255)" stroke-width="1" opacity="0.16862745098039217" d="M 678.5 361 Q 681.1 360.3 680 363 L 677 362.5 L 678.5 361 Z "/>
  <path fill="rgb(255,255,255)" stroke="rgb(255,255,255)" stroke-width="1" opacity="0.16862745098039217" d="M 0 369 L 3 370.5 L 0 371 L 0 369 Z "/>
  <path fill="rgb(255,255,255)" stroke="rgb(255,255,255)" stroke-width="1" opacity="0.16862745098039217" d="M 246 416 L 255.5 416 L 256 418 L 260 418 Q 259 421 262 420 Q 260.8 425.3 264 424.5 L 264 434 L 262 434 L 262 438 Q 259 437 260 440 L 256 440 L 256 442 L 246 442 L 246 440 L 242 440 L 242 438 L 238 436 L 238 422 L 240 422 L 242 418 L 246 418 L 246 416 Z M 247 417 L 248 419 L 255 419 L 255 417 L 247 417 Z M 244 419 L 243 421 L 247 421 L 244 419 Z M 257 419 L 256 421 Q 260 420 259 423 Q 262 424 261 422 Q 261 419 257 419 Z M 242 421 L 239 425 L 241 425 Q 240 422 243 423 L 242 421 Z M 248 421 L 246 423 L 243 424 L 243 435 Q 246 434 248 437 L 255 437 Q 261 435 259 426 Q 257 419 248 421 Z M 261 425 Q 260 428 263 427 Q 264 424 261 425 Z M 241 426 Q 238 427 239 431 L 241 432 L 241 426 Z M 261 431 Q 260 434 263 433 Q 264 430 261 431 Z M 239 433 L 242 437 L 243 435 Q 240 436 241 433 L 239 433 Z M 259 435 Q 260 438 256 437 L 257 439 Q 261 440 261 437 Q 262 434 259 435 Z M 243 437 L 244 439 L 247 438 L 243 437 Z M 247 439 L 248 441 L 255 441 L 255 439 L 247 439 Z "/>
  <path fill="rgb(255,255,255)" stroke="rgb(255,255,255)" stroke-width="1" opacity="0.16862745098039217" d="M 617 529 L 620 530.5 L 617 531 L 617 529 Z "/>
  <path fill="rgb(255,255,255)" stroke="rgb(255,255,255)" stroke-width="1" opacity="0.16862745098039217" d="M 63.5 533 Q 66.1 532.3 65 535 L 62 534.5 L 63.5 533 Z "/>
  <path fill="rgb(255,255,255)" stroke="rgb(255,255,255)" stroke-width="1" opacity="0.16862745098039217" d="M 69.5 541 Q 72.1 540.3 71 543 L 68 542.5 L 69.5 541 Z "/>
  <path fill="rgb(255,255,255)" stroke="rgb(255,255,255)" stroke-width="1" opacity="0.16862745098039217" d="M 607 543 L 610 544.5 L 607 545 L 607 543 Z "/>
  <path fill="rgb(255,255,255)" stroke="rgb(255,255,255)" stroke-width="1" opacity="0.16862745098039217" d="M 75.5 549 Q 78.1 548.3 77 551 L 74 550.5 L 75.5 549 Z "/>
  <path fill="rgb(255,255,255)" stroke="rgb(255,255,255)" stroke-width="1" opacity="0.16862745098039217" d="M 601 551 L 604 552.5 L 601 553.5 L 601.5 555 L 599 555.5 L 599.5 557 Q 595.8 558 597 555 L 599 555 L 601 551 Z "/>
  <path fill="rgb(255,255,255)" stroke="rgb(255,255,255)" stroke-width="1" opacity="0.16862745098039217" d="M 81.5 557 Q 84.1 556.3 83 559 L 85 559 L 85 561 L 87 561 L 87 563 L 89 563 L 89 565 L 91 565 L 91 567 L 88 566.5 L 88.5 565 L 86 564.5 L 86.5 563 L 84 562.5 L 84.5 561 L 82 560.5 L 82.5 559 L 80 558.5 L 81.5 557 Z "/>
  <path fill="rgb(255,255,255)" stroke="rgb(255,255,255)" stroke-width="1" opacity="0.16862745098039217" d="M 591 563 L 594 564.5 L 591 565.5 L 591.5 567 L 589 567.5 L 589.5 569 L 587 569.5 L 587.5 571 L 585 571.5 L 585.5 573 L 583 573.5 L 583.5 575 L 581 575.5 L 581.5 577 L 579 577.5 L 579.5 579 L 577 579.5 L 577.5 581 L 575 581.5 L 575.5 583 L 573 583.5 L 573.5 585 L 571 585.5 L 571.5 587 L 569 587.5 L 569.5 589 L 567 589.5 L 567.5 591 L 565 591.5 L 565.5 593 L 563 593.5 L 563.5 595 L 559 594.5 L 563 593 L 563 591 L 565 591 L 565 589 L 567 589 L 567 587 L 569 587 L 569 585 L 571 585 L 571 583 L 573 583 L 573 581 L 575 581 L 575 579 L 577 579 L 577 577 L 579 577 L 579 575 L 581 575 L 581 573 L 583 573 L 583 571 L 585 571 L 585 569 L 587 569 L 587 567 L 591 565 L 591 563 Z "/>
  <path fill="rgb(255,255,255)" stroke="rgb(255,255,255)" stroke-width="1" opacity="0.16862745098039217" d="M 95.5 573 Q 98.1 572.3 97 575 L 99 575 L 99 577 L 101 577 L 101 579 L 103 579 L 103 581 L 105 581 L 105 583 L 107.5 583 L 108.5 585 L 104 584.5 L 104.5 583 L 102 582.5 L 102.5 581 L 100 580.5 L 100.5 579 L 98 578.5 L 98.5 577 L 96 576.5 L 96.5 575 L 94 574.5 L 95.5 573 Z "/>
  <path fill="rgb(255,255,255)" stroke="rgb(255,255,255)" stroke-width="1" opacity="0.16862745098039217" d="M 111 587 L 113 587 L 113 589 L 115 589 L 115 591 L 117 591 L 117 593 L 119 593 L 119 595 L 121 595 L 123 599 L 125.5 599 L 126.5 601 L 122 600.5 L 122.5 599 L 120 598.5 L 120.5 597 L 118 596.5 L 118.5 595 L 116 594.5 L 116.5 593 L 114 592.5 L 114.5 591 L 112 590.5 L 112.5 589 Q 109.9 589.7 111 587 Z "/>
  <path fill="rgb(255,255,255)" stroke="rgb(255,255,255)" stroke-width="1" opacity="0.16862745098039217" d="M 555 597 Q 558 596 557 599 L 555 599.5 L 555.5 601 L 553 601.5 L 553.5 603 L 551 603.5 L 551.5 605 L 547 604.5 L 551 603 L 551 601 L 553 601 L 555 597 Z "/>
  <path fill="rgb(255,255,255)" stroke="rgb(255,255,255)" stroke-width="1" opacity="0.16862745098039217" d="M 129 603 L 131 603 L 133 607 L 135.5 607 L 136.5 609 L 132 608.5 L 132.5 607 L 130 606.5 L 130.5 605 Q 127.9 605.7 129 603 Z "/>
  <path fill="rgb(255,255,255)" stroke="rgb(255,255,255)" stroke-width="1" opacity="0.16862745098039217" d="M 543 607 Q 546 606 545 609 L 543 609.5 L 543.5 611 L 539 610.5 L 543 609 L 543 607 Z "/>
  <path fill="rgb(255,255,255)" stroke="rgb(255,255,255)" stroke-width="1" opacity="0.16862745098039217" d="M 139 611 L 143 612.5 L 139 613 L 139 611 Z "/>
  <path fill="rgb(255,255,255)" stroke="rgb(255,255,255)" stroke-width="1" opacity="0.16862745098039217" d="M 535 613 Q 538 612 537 615 L 535 615.5 L 535.5 617 L 531 616.5 L 535 615 L 535 613 Z "/>
  <path fill="rgb(255,255,255)" stroke="rgb(255,255,255)" stroke-width="1" opacity="0.16862745098039217" d="M 145 615 Q 148 614 147 617 L 149.5 617 L 150.5 619 L 146 618.5 L 146.5 617 Q 143.9 617.7 145 615 Z "/>
  <path fill="rgb(255,255,255)" stroke="rgb(255,255,255)" stroke-width="1" opacity="0.16862745098039217" d="M 526.5 619 Q 530.3 618 529 621 L 525 620.5 L 526.5 619 Z "/>
  <path fill="rgb(255,255,255)" stroke="rgb(255,255,255)" stroke-width="1" opacity="0.16862745098039217" d="M 153 621 L 157 622.5 L 153 623 L 153 621 Z "/>
  <path fill="rgb(255,255,255)" stroke="rgb(255,255,255)" stroke-width="1" opacity="0.16862745098039217" d="M 520.5 623 Q 524.3 622 523 625 L 519 624.5 L 520.5 623 Z "/>
  <path fill="rgb(255,255,255)" stroke="rgb(255,255,255)" stroke-width="1" opacity="0.16862745098039217" d="M 159 625 L 163 626.5 L 159 627 L 159 625 Z "/>
  <path fill="rgb(255,255,255)" stroke="rgb(255,255,255)" stroke-width="1" opacity="0.16862745098039217" d="M 514.5 627 Q 518.3 626 517 629 L 513 628.5 L 514.5 627 Z "/>
  <path fill="rgb(255,255,255)" stroke="rgb(255,255,255)" stroke-width="1" opacity="0.16862745098039217" d="M 169 631 L 173 632.5 L 169 633 L 169 631 Z "/>
  <path fill="rgb(255,255,255)" stroke="rgb(255,255,255)" stroke-width="1" opacity="0.16862745098039217" d="M 500.5 635 Q 504.3 634 503 637 L 499 636.5 L 500.5 635 Z "/>
  <path fill="rgb(255,255,255)" stroke="rgb(255,255,255)" stroke-width="1" opacity="0.16862745098039217" d="M 470.5 649 Q 474.3 648 473 651 L 469 650.5 L 470.5 649 Z "/>
  <path fill="rgb(255,255,255)" stroke="rgb(255,255,255)" stroke-width="1" opacity="0.16862745098039217" d="M 211 651 L 215 652.5 L 211 653 L 211 651 Z "/>
  <path fill="rgb(255,255,255)" stroke="rgb(255,255,255)" stroke-width="1" opacity="0.16862745098039217" d="M 221 655 L 225 656.5 L 221 657 L 221 655 Z "/>
  <path fill="rgb(255,255,255)" stroke="rgb(255,255,255)" stroke-width="1" opacity="0.16862745098039217" d="M 454.5 655 Q 460.4 653.3 459 657 L 453 657 L 453 659 L 447 659 L 447 661 L 441 661 L 441 663 L 435 663 L 435 665 L 429 665 L 428.5 667 L 421.5 667 Q 422.3 670.4 413.5 669 L 412.5 671 L 403.5 671 L 402.5 673 L 391.5 673 L 390.5 675 L 375.5 675 L 376.5 673 L 390.5 673 L 392.5 671 L 402.5 671 Q 404.5 667 412.5 669 L 414.5 667 L 420.5 667 Q 422 663.5 428.5 665 L 430.5 663 L 434.5 663 L 436.5 661 L 440.5 661 L 442.5 659 L 446.5 659 L 454.5 655 Z "/>
  <path fill="rgb(255,255,255)" stroke="rgb(255,255,255)" stroke-width="1" opacity="0.16862745098039217" d="M 231 659 L 235.5 659 L 243.5 663 L 249.5 663 L 251.5 665 L 257.5 665 L 259.5 667 L 265.5 667 L 267.5 669 Q 275.5 667 277.5 671 L 287.5 671 L 289.5 673 L 303.5 673 L 305 674.5 L 289 675 L 288.5 673 L 277.5 673 L 276.5 671 L 267.5 671 L 267 669 L 259.5 669 L 258.5 667 L 251.5 667 L 250.5 665 L 243.5 665 L 243 663 L 237 663 L 237 661 L 231 661 L 231 659 Z "/>
  <path fill="rgb(255,255,255)" stroke="rgb(255,255,255)" stroke-width="1" opacity="0.16862745098039217" d="M 307 677 Q 310.3 675.9 309 680 Q 305.7 681.1 307 677 Z "/>
  <path fill="rgb(255,255,255)" stroke="rgb(255,255,255)" stroke-width="1" opacity="0.16862745098039217" d="M 371 677 Q 374.3 675.9 373 680 Q 369.7 681.1 371 677 Z "/>
  <path fill="rgb(255,255,255)" stroke="rgb(255,255,255)" stroke-width="1" opacity="0.996078431372549" d="M 452 226 Q 455 225 454 228 L 452 228 L 452 231.5 Q 448.8 230.7 450 236 L 446 238 L 446 241.5 Q 442.8 240.7 444 246 L 440 248 L 440 251.5 Q 436.7 250.7 438 256 L 434 258 L 434 261.5 Q 430.8 260.7 432 266 L 428 268 L 428 271.5 Q 424.7 270.7 426 276 L 422 278 L 422 281.5 Q 418.8 280.7 420 286 L 416 288 L 416 292 L 414 292 L 414 295.5 Q 410.8 294.7 412 300 L 408 302 L 408 305.5 Q 404.8 304.7 406 310 L 402 312 L 402 315.5 Q 398.8 314.7 400 320 L 396 322 L 396 325.5 Q 392.8 324.7 394 330 L 390 332 L 390 335.5 Q 386.8 334.7 388 340 L 384 342 L 384 346 Q 380.3 344.8 382 350 L 378 352 L 378 356 L 376 356 L 376 358 Q 372.9 357.3 373.5 360 L 364 360 L 363.5 358 L 342 358 L 342 360 L 338 360 L 338 362 L 336 362 L 336 364 L 334 364 L 334 366 L 330 368 L 330 372 L 328 372 L 328 374 L 326 374 L 326 376 L 324 376 L 324 378 L 322 378 L 322 380 L 320 380 L 320 382 L 318 382 L 318 384 L 316 384 L 316 386 L 314 386 L 314 388 L 312 388 L 312 390 L 310 390 L 310 392 L 308 392 L 308 394 L 306 394 L 306 396 L 304 396 L 304 398 L 302 398 L 302 400 L 300 400 L 300 402 L 298 402 L 298 404 L 296 404 L 296 406 L 294 406 L 294 408 L 292 408 L 292 410 L 290 410 L 290 412 L 288 412 L 288 414 L 286 414 L 286 416 L 284 416 L 284 418 L 282 418 L 282 420 L 278 422 L 278 424 L 276 424 L 276 438 L 274 438 L 274 441.5 Q 270.8 440.7 272 446 L 270 446 L 270 448 L 268 448 L 266 452 Q 260.7 450.8 261.5 454 L 256 454 L 255.5 456 L 246 456 L 246 454 L 240.5 454 Q 241.3 450.8 236 452 L 236 450 L 234 450 L 234 448 L 232 448 L 232 446 L 228 444 Q 229.3 438.7 226 439.5 L 226 430.5 Q 222.8 431.3 224 426 L 226 426 L 226 418.5 Q 229.3 419.3 228 414 L 230 414 L 230 412 L 232 412 L 232 410 L 234 410 L 236 406 Q 241.3 407.2 240.5 404 L 255.5 404 Q 254.7 400.8 260 402 L 260 400 L 262 400 L 262 398 L 266 396 L 266 392 L 268 392 L 268 390 L 270 390 L 270 388 L 272 388 L 272 386 L 274 386 L 274 384 L 276 384 L 276 382 L 278 382 L 278 380 L 280 380 L 280 378 L 282 378 L 282 376 L 284 376 L 284 374 L 286 374 L 286 372 L 288 372 L 288 370 L 290 370 L 290 368 L 292 368 L 292 366 L 294 366 L 294 364 L 296 364 L 296 362 L 298 362 L 298 360 L 300 360 L 300 358 L 302 358 L 304 354 L 306 354 L 306 352 L 310 352 L 310 350 L 312 350 L 312 348 L 314 348 L 314 346 L 316 346 L 316 344 L 320 342 Q 318.8 336.7 322 337.5 L 322 316 L 320 315.5 L 320 306 L 322 306 L 322 304 L 324 304 L 326 300 L 330 300 L 330 298 L 333.5 298 Q 332.7 294.8 338 296 L 340 292 L 343.5 292 Q 342.7 288.8 348 290 L 350 286 L 354 286 L 354 284 L 357.5 284 Q 356.7 280.8 362 282 L 364 278 L 367.5 278 Q 366.7 274.7 372 276 L 374 272 L 377.5 272 Q 376.7 268.8 382 270 L 384 266 L 388 266 L 388 264 L 391.5 264 Q 390.7 260.8 396 262 L 398 258 L 401.5 258 Q 400.7 254.8 406 256 L 408 252 L 411.5 252 Q 410.7 248.7 416 250 L 418 246 L 421.5 246 Q 420.7 242.8 426 244 L 428 240 L 431.5 240 Q 430.7 236.8 436 238 L 438 234 L 441.5 234 Q 440.7 230.8 446 232 L 448 228 Q 453.2 229.7 452 226 Z M 246 416 L 246 418 L 242 418 L 240 422 L 238 422 L 238 436 L 242 438 L 242 440 L 246 440 L 246 442 L 256 442 L 256 440 L 260 440 Q 259 437 262 438 L 262 434 L 264 434 L 264 425 Q 261 425 262 420 Q 259 421 260 418 L 256 418 L 256 416 L 246 416 Z "/>
</svg>
