<?xml version='1.0' encoding='UTF-8'?>
<svg xmlns="http://www.w3.org/2000/svg" width="512" height="512" version="1.1" desc="Created with imagetracer.js version 1.2.6" shape-rendering="geometricPrecision" text-rendering="geometricPrecision" image-rendering="optimizeQuality" viewBox="0 0 680.0 680.0">
  <path fill="rgb(0,0,0)" stroke="rgb(0,0,0)" stroke-width="1" opacity="0" d="M 0 0 L 316.5 0 L 317 3 L 319 3 L 319.5 0 L 361 0 Q 359.7 4.1 363 3 L 363.5 0 L 680 0 L 680 310.5 L 677.5 311 L 678.5 313 L 680 313.5 L 680 369 L 677 370.5 L 680 371 L 680 680 L 373 680 Q 374.3 675.9 371 677 L 370.5 680 L 311 680 Q 312.3 675.9 309 677 L 308.5 680 L 0 680 L 0 365.5 L 2.5 365 L 1.5 363 L 0 362.5 L 0 317 L 3 315.5 L 0 315 L 0 0 Z M 295 5 L 295 7 L 314 7 L 315 6 L 295 5 Z M 366 5 L 367 7 L 385 7 L 385 5 L 366 5 Z M 283 7 L 283 9 L 294 9 L 295 8 L 283 7 Z M 386 7 L 387 9 L 397 9 L 397 7 L 386 7 Z M 273 9 L 273 11 L 282 11 L 283 10 L 273 9 Z M 398 9 L 399 11 L 407 11 L 407 9 L 398 9 Z M 263 11 L 263 13 L 272 13 L 273 12 L 263 11 Z M 408 11 L 409 13 L 417 13 L 417 11 L 408 11 Z M 255 13 L 255 15 L 262 15 L 263 14 L 255 13 Z M 418 13 L 419 15 L 425 15 L 425 13 L 418 13 Z M 247 15 L 247 17 L 254 17 L 255 16 L 247 15 Z M 426 15 L 427 17 L 433 17 L 433 15 L 426 15 Z M 241 17 L 241 19 Q 246 20 247 18 L 241 17 Z M 434 17 Q 433 20 439 19 Q 440 15 434 17 Z M 235 19 L 235 21 Q 240 22 241 20 L 235 19 Z M 440 19 Q 439 22 445 21 Q 446 17 440 19 Z M 229 21 L 229 23 Q 234 24 235 22 L 229 21 Z M 446 21 Q 445 24 451 23 Q 452 19 446 21 Z M 223 23 L 223 25 Q 228 26 229 24 L 223 23 Z M 452 23 Q 451 26 457 25 Q 458 21 452 23 Z M 464 27 Q 463 30 467 29 Q 468 26 464 27 Z M 209 29 L 209 31 L 213 30 L 209 29 Z M 175 45 L 175 47 L 179 46 L 175 45 Z M 506 47 Q 505 50 509 49 Q 510 46 506 47 Z M 161 53 L 161 55 L 165 54 L 161 53 Z M 516 53 Q 515 56 519 55 Q 520 52 516 53 Z M 155 57 L 155 59 L 159 58 L 155 57 Z M 522 57 Q 521 60 525 59 Q 526 56 522 57 Z M 149 61 L 149 63 L 153 62 L 149 61 Z M 528 61 Q 527 64 531 63 Q 532 60 528 61 Z M 143 65 L 144 67 L 147 66 L 143 65 Z M 534 65 L 535 67 L 538 66 L 534 65 Z M 141 67 Q 140 70 143 69 Q 144 66 141 67 Z M 537 67 Q 536 70 539 69 Q 540 66 537 67 Z M 135 71 L 136 73 L 139 72 L 135 71 Z M 542 71 L 543 73 L 546 72 L 542 71 Z M 133 73 L 135 75 Q 136 72 133 73 Z M 545 73 Q 544 76 547 75 Q 548 72 545 73 Z M 131 75 Q 130 78 133 77 Q 134 74 131 75 Z M 550 77 L 551 79 L 554 78 L 550 77 Z M 125 79 L 126 81 L 129 80 L 125 79 Z M 553 79 L 553 81 L 556 80 L 553 79 Z M 123 81 L 125 83 Q 126 80 123 81 Z M 555 81 L 555 83 L 558 82 L 555 81 Z M 121 83 L 123 85 Q 124 82 121 83 Z M 557 83 Q 556 86 559 85 Q 560 82 557 83 Z M 119 85 L 121 87 Q 122 84 119 85 Z M 117 87 Q 116 90 119 89 Q 120 86 117 87 Z M 562 87 L 563 89 L 566 88 L 562 87 Z M 565 89 L 565 91 L 568 90 L 565 89 Z M 111 91 L 112 93 L 115 92 L 111 91 Z M 567 91 L 567 93 L 570 92 L 567 91 Z M 109 93 L 111 95 Q 112 92 109 93 Z M 569 93 L 569 95 L 572 94 L 569 93 Z M 107 95 L 109 97 Q 110 94 107 95 Z M 571 95 L 571 97 L 574 96 L 571 95 Z M 105 97 L 107 99 Q 108 96 105 97 Z M 573 97 L 573 99 L 576 98 L 573 97 Z M 103 99 L 105 101 Q 106 98 103 99 Z M 575 99 L 575 101 L 578 100 L 575 99 Z M 101 101 L 103 103 Q 104 100 101 101 Z M 487 101 L 486 103 L 491 103 Q 490 100 487 101 Z M 577 101 L 577 103 L 580 102 L 577 101 Z M 99 103 L 101 105 Q 102 102 99 103 Z M 485 103 L 483 105 L 486 105 L 485 103 Z M 492 103 L 490 105 L 493 105 L 492 103 Z M 579 103 L 579 105 L 582 104 L 579 103 Z M 97 105 L 99 107 Q 100 104 97 105 Z M 481 105 L 479 109 L 479 121 Q 475 122 477 131 L 473 139 L 473 143 L 469 149 L 469 153 L 473 151 L 471 155 Q 468 156 469 153 L 467 153 L 463 163 L 467 161 L 465 165 Q 462 166 463 163 L 461 163 L 459 169 L 463 167 L 463 169 L 443 189 L 439 187 L 438 189 Q 440 188 439 191 L 425 205 L 423 205 Q 421 201 419 205 L 421 205 L 421 207 L 407 221 L 403 219 L 402 221 Q 404 220 403 223 L 389 237 L 387 237 Q 385 233 383 237 L 385 237 L 385 239 L 373 251 L 369 249 L 368 251 Q 370 250 369 253 L 351 271 L 349 271 Q 347 267 345 271 L 347 271 L 347 273 L 303 317 Q 300 318 301 315 L 297 317 L 297 321 Q 300 320 299 323 L 301 323 Q 300 320 303 321 L 307 327 L 305 328 Q 307 331 309 327 L 321 333 Q 325 334 326 331 L 334 331 L 338 329 Q 339 333 341 330 L 339 329 L 342 325 L 346 327 L 347 325 Q 344 326 345 324 L 378 291 L 380 291 Q 381 295 383 292 L 381 291 L 381 290 L 394 277 L 398 279 L 399 277 Q 396 278 397 276 L 408 265 L 410 265 Q 411 269 413 266 L 411 265 L 411 264 L 424 251 L 429 253 Q 430 250 427 251 L 427 250 L 458 219 Q 460 218 459 221 L 461 221 L 463 215 L 459 217 L 459 216 L 478 197 L 482 199 L 483 197 Q 480 198 481 196 L 488 189 L 490 189 Q 491 193 493 190 L 491 189 L 494 185 L 499 187 Q 500 184 497 185 L 500 181 L 506 183 L 507 181 Q 502 182 503 179 L 510 181 L 511 179 Q 506 180 507 177 Q 510 176 512 179 L 516 179 L 517 177 Q 510 179 511 175 L 516 175 L 524 171 L 530 171 L 532 169 L 543 169 L 543 161 L 545 162 L 545 169 L 547 168 L 547 161 L 545 157 L 543 157 Q 544 160 542 159 L 539 155 L 543 157 L 541 151 Q 538 150 539 153 L 538 153 L 490 105 Q 485 104 485 107 Q 482 108 483 105 L 481 105 Z M 493 105 Q 492 108 495 107 Q 496 104 493 105 Z M 581 105 L 581 107 L 584 106 L 581 105 Z M 95 107 L 97 109 Q 98 106 95 107 Z M 496 107 L 494 109 L 497 109 Q 498 106 496 107 Z M 583 107 L 583 109 L 586 108 L 583 107 Z M 93 109 L 95 111 Q 96 108 93 109 Z M 498 109 L 496 111 L 499 111 Q 500 108 498 109 Z M 585 109 L 585 111 L 588 110 L 585 109 Z M 500 111 L 498 113 L 501 113 Q 502 110 500 111 Z M 587 111 L 587 113 L 590 112 L 587 111 Z M 502 113 L 500 115 L 503 115 Q 504 112 502 113 Z M 589 113 L 589 115 L 592 114 L 589 113 Z M 504 115 L 502 117 L 505 117 Q 506 114 504 115 Z M 87 117 L 89 119 Q 90 116 87 117 Z M 506 117 L 504 119 L 507 119 Q 508 116 506 117 Z M 85 119 L 87 121 Q 88 118 85 119 Z M 508 119 L 506 121 L 509 121 Q 510 118 508 119 Z M 83 121 L 85 123 Q 86 120 83 121 Z M 510 121 L 508 123 L 511 123 Q 512 120 510 121 Z M 595 121 L 595 123 L 598 122 L 595 121 Z M 81 123 L 83 125 Q 84 122 81 123 Z M 512 123 L 510 125 L 513 125 Q 514 122 512 123 Z M 597 123 L 597 125 L 600 124 L 597 123 Z M 514 125 L 512 127 L 515 127 Q 516 124 514 125 Z M 599 125 L 599 127 L 602 126 L 599 125 Z M 516 127 L 514 129 L 517 129 Q 518 126 516 127 Z M 518 129 L 516 131 L 519 131 Q 520 128 518 129 Z M 75 131 L 77 133 Q 78 130 75 131 Z M 520 131 L 518 133 L 521 133 Q 522 130 520 131 Z M 73 133 L 75 135 Q 76 132 73 133 Z M 522 133 L 520 135 L 523 135 Q 524 132 522 133 Z M 605 133 L 605 135 L 608 134 L 605 133 Z M 524 135 L 522 137 L 525 137 Q 526 134 524 135 Z M 607 135 L 607 137 L 610 136 L 607 135 Z M 526 137 L 524 139 L 527 139 Q 528 136 526 137 Z M 528 139 L 526 141 L 529 141 Q 530 138 528 139 Z M 530 141 L 528 143 L 531 143 Q 532 140 530 141 Z M 532 143 L 530 145 L 533 145 Q 534 142 532 143 Z M 534 145 L 532 147 L 535 147 Q 536 144 534 145 Z M 63 147 L 65 149 Q 66 146 63 147 Z M 536 147 L 534 149 L 537 149 Q 538 146 536 147 Z M 538 149 L 536 151 L 539 151 Q 540 148 538 149 Z M 617 149 L 617 151 L 620 150 L 617 149 Z M 457 169 L 457 171 L 460 171 L 457 169 Z M 455 171 L 455 173 L 458 173 L 455 171 Z M 531 171 L 531 173 L 542 173 L 543 172 L 531 171 Z M 453 173 L 453 175 L 456 175 L 453 173 Z M 523 173 L 523 175 L 530 175 L 531 174 L 523 173 Z M 451 175 L 451 177 L 454 177 L 451 175 Z M 517 175 L 517 177 Q 522 178 523 176 L 517 175 Z M 449 177 L 449 179 L 452 179 L 449 177 Z M 447 179 L 447 181 L 450 181 L 447 179 Z M 445 181 L 445 183 L 448 183 L 445 181 Z M 443 183 L 443 185 L 446 185 L 443 183 Z M 499 183 L 501 187 L 511 187 Q 509 183 503 185 L 503 184 L 499 183 Z M 441 185 L 440 187 L 444 187 L 441 185 Z M 493 187 Q 492 191 497 189 Q 498 185 493 187 Z M 499 187 Q 498 190 501 189 Q 502 186 499 187 Z M 435 189 Q 434 192 437 191 Q 438 188 435 189 Z M 497 189 Q 496 192 499 191 Q 500 188 497 189 Z M 503 189 L 483 209 Q 480 210 481 207 Q 478 206 479 209 L 476 213 L 479 213 Q 478 210 481 211 L 479 215 L 475 213 L 474 215 Q 476 214 475 217 L 467 225 L 465 225 Q 463 221 461 225 L 463 225 L 463 227 L 443 247 L 437 245 L 437 247 Q 440 246 439 249 L 415 273 L 413 273 Q 411 269 409 273 L 411 273 L 411 275 L 387 299 L 383 297 L 382 299 Q 384 298 383 301 L 361 323 L 359 323 Q 357 319 355 323 L 357 323 L 357 325 L 335 347 L 331 345 L 330 347 Q 332 346 331 349 L 329 351 Q 324 350 323 353 L 319 351 Q 313 350 312 353 L 310 353 L 301 345 Q 300 342 303 343 L 302 341 L 298 343 L 287 333 L 287 331 Q 282 329 283 333 L 279 333 L 275 335 Q 273 331 271 335 L 273 335 L 271 339 L 267 337 L 266 339 Q 268 338 267 341 L 261 347 L 259 347 Q 257 343 255 347 L 257 347 L 257 349 L 215 391 L 211 389 Q 203 387 202 391 Q 198 392 199 389 L 203 389 L 201 387 L 201 385 Q 196 386 197 383 Q 200 382 202 385 L 206 385 L 207 383 Q 200 385 201 381 Q 206 382 208 379 L 214 381 L 215 379 Q 210 380 211 377 Q 214 376 216 379 L 217 377 Q 214 378 215 375 L 219 377 L 221 374 L 221 365 L 219 361 L 216 359 L 203 359 L 201 361 L 195 361 Q 194 364 189 363 L 187 365 L 177 365 L 178 363 L 187 363 L 187 361 L 178 361 L 174 363 L 163 353 L 163 351 L 165 351 Q 163 347 162 351 L 158 349 L 153 349 Q 151 352 147 351 L 147 365 L 146 366 L 145 352 L 143 353 L 143 366 L 147 373 L 149 373 Q 148 370 151 371 L 153 375 L 151 376 Q 153 379 155 375 Q 159 374 159 378 Q 160 380 158 379 L 159 381 L 163 379 L 167 385 L 163 383 L 167 393 L 169 393 Q 168 390 171 391 L 173 395 L 169 393 L 171 399 L 173 399 Q 172 396 175 397 L 183 406 L 183 407 L 181 408 Q 183 411 185 407 L 197 413 L 210 413 Q 211 409 220 411 L 222 409 L 229 409 L 229 407 L 232 407 L 231 409 L 229 409 L 229 411 L 221 411 L 221 413 L 211 413 Q 210 417 216 415 L 216 417 Q 220 416 219 419 Q 216 420 215 417 Q 210 416 209 419 L 215 419 L 215 421 L 209 421 L 209 441 L 208 442 L 207 421 L 205 423 L 205 445 Q 201 447 203 455 L 201 457 L 201 461 L 195 471 L 195 473 L 199 471 L 197 475 Q 194 476 195 473 L 193 473 L 191 479 L 195 477 L 193 481 Q 190 482 191 479 L 189 479 L 187 485 L 191 483 L 185 491 Q 182 492 183 489 L 181 489 L 179 495 L 183 493 L 183 495 L 173 505 Q 170 506 171 503 Q 168 502 169 505 L 166 509 Q 170 510 169 507 Q 172 506 171 509 Q 171 512 167 511 Q 165 507 163 511 L 165 511 L 165 513 L 141 537 Q 138 538 139 535 L 137 535 L 133 543 Q 134 546 131 545 Q 129 550 133 549 L 133 554 L 137 561 L 139 561 Q 138 558 141 559 L 149 568 L 149 569 L 147 570 Q 149 573 151 569 Q 155 569 155 572 Q 156 574 154 573 L 155 575 Q 156 572 159 573 Q 160 576 156 575 L 157 577 L 163 575 L 165 579 L 163 580 Q 165 583 167 579 Q 171 578 171 582 Q 172 584 170 583 L 171 585 L 175 583 L 181 591 L 179 592 Q 181 595 183 591 L 185 591 L 191 598 Q 192 600 190 599 L 191 601 L 195 599 L 197 603 L 195 604 Q 197 607 199 603 L 203 605 L 207 605 L 209 607 L 213 607 L 215 609 L 218 609 L 226 601 L 228 601 Q 229 605 231 602 L 229 601 L 229 600 L 246 583 Q 248 582 247 585 L 249 585 L 251 579 L 247 581 L 252 575 Q 254 574 253 577 L 255 577 L 257 571 L 253 573 L 256 569 Q 258 568 257 571 L 259 571 L 267 556 L 269 546 L 271 544 L 271 534 Q 274 533 273 528 L 275 525 Q 270 524 271 527 Q 268 528 269 526 Q 270 523 274 523 Q 275 527 277 524 L 275 523 L 282 515 L 286 517 L 287 515 Q 284 516 285 514 L 290 509 L 292 509 Q 293 513 295 510 L 293 509 L 296 505 L 300 507 L 301 505 Q 298 506 299 504 L 304 499 L 306 499 Q 307 503 309 500 L 307 499 L 314 491 Q 316 490 315 493 L 317 493 L 323 482 L 323 476 L 327 470 L 327 453 L 325 451 L 325 439 L 323 437 L 323 427 Q 320 425 321 419 Q 318 418 319 421 Q 316 422 317 420 L 334 403 L 336 403 Q 337 407 339 404 L 337 403 L 337 402 L 358 381 L 362 383 L 363 381 Q 360 382 361 380 L 384 357 L 386 357 Q 387 361 389 358 L 387 357 L 387 356 L 412 331 L 416 333 L 417 331 Q 414 332 415 330 L 438 307 L 440 307 Q 441 311 443 308 L 441 307 L 441 306 L 464 283 L 468 285 L 469 283 Q 466 284 467 282 L 482 267 L 484 267 Q 485 271 487 268 L 485 267 L 485 266 L 508 243 Q 510 242 509 245 L 511 245 L 521 226 L 521 207 L 519 205 L 519 201 L 517 199 L 517 195 L 515 191 Q 514 188 513 190 L 512 189 L 503 189 Z M 433 191 L 433 193 L 436 193 L 433 191 Z M 487 191 L 488 193 L 491 192 L 487 191 Z M 495 191 L 495 193 L 498 193 L 495 191 Z M 431 193 L 431 195 L 434 195 L 431 193 Z M 485 193 L 487 195 Q 488 192 485 193 Z M 493 193 L 493 195 L 496 195 L 493 193 Z M 429 195 L 429 197 L 432 197 L 429 195 Z M 483 195 Q 482 198 485 197 Q 486 194 483 195 Z M 491 195 L 491 197 L 494 197 L 491 195 Z M 427 197 L 427 199 L 430 199 L 427 197 Z M 489 197 L 489 199 L 492 199 L 489 197 Z M 425 199 L 425 201 L 428 201 L 425 199 Z M 477 199 L 478 201 L 481 200 L 477 199 Z M 487 199 L 487 201 L 490 201 L 487 199 Z M 423 201 L 422 203 L 426 203 L 423 201 Z M 475 201 L 477 203 Q 478 200 475 201 Z M 485 201 L 485 203 L 488 203 L 485 201 Z M 473 203 L 475 205 Q 476 202 473 203 Z M 483 203 L 483 205 L 486 205 L 483 203 Z M 417 205 Q 416 208 419 207 Q 420 204 417 205 Z M 471 205 L 473 207 Q 474 204 471 205 Z M 481 205 L 481 207 L 484 207 L 481 205 Z M 415 207 L 415 209 L 418 209 L 415 207 Z M 469 207 L 471 209 Q 472 206 469 207 Z M 413 209 L 413 211 L 416 211 L 413 209 Z M 467 209 L 469 211 Q 470 208 467 209 Z M 411 211 L 411 213 L 414 213 L 411 211 Z M 465 211 L 467 213 Q 468 210 465 211 Z M 409 213 L 409 215 L 412 215 L 409 213 Z M 463 213 L 465 215 Q 466 212 463 213 Z M 407 215 L 407 217 L 410 217 L 407 215 Z M 471 215 Q 470 218 473 217 Q 474 214 471 215 Z M 405 217 L 404 219 L 408 219 L 405 217 Z M 469 217 L 469 219 L 472 219 L 469 217 Z M 467 219 L 467 221 L 470 221 L 467 219 Z M 399 221 Q 398 224 401 223 Q 402 220 399 221 Z M 457 221 L 459 223 Q 460 220 457 221 Z M 465 221 L 464 223 L 468 223 L 465 221 Z M 397 223 L 397 225 L 400 225 L 397 223 Z M 455 223 L 457 225 Q 458 222 455 223 Z M 395 225 L 395 227 L 398 227 L 395 225 Z M 453 225 L 455 227 Q 456 224 453 225 Z M 459 225 Q 458 228 461 227 Q 462 224 459 225 Z M 393 227 L 393 229 L 396 229 L 393 227 Z M 451 227 L 453 229 Q 454 226 451 227 Z M 457 227 L 457 229 L 460 229 L 457 227 Z M 391 229 L 391 231 L 394 231 L 391 229 Z M 449 229 L 451 231 Q 452 228 449 229 Z M 455 229 L 455 231 L 458 231 L 455 229 Z M 389 231 L 389 233 L 392 233 L 389 231 Z M 447 231 L 449 233 Q 450 230 447 231 Z M 453 231 L 453 233 L 456 233 L 453 231 Z M 387 233 L 386 235 L 390 235 L 387 233 Z M 445 233 L 447 235 Q 448 232 445 233 Z M 451 233 L 451 235 L 454 235 L 451 233 Z M 443 235 L 445 237 Q 446 234 443 235 Z M 449 235 L 449 237 L 452 237 L 449 235 Z M 381 237 Q 380 240 383 239 Q 384 236 381 237 Z M 441 237 L 443 239 Q 444 236 441 237 Z M 447 237 L 447 239 L 450 239 L 447 237 Z M 379 239 L 379 241 L 382 241 L 379 239 Z M 439 239 L 441 241 Q 442 238 439 239 Z M 445 239 L 445 241 L 448 241 L 445 239 Z M 377 241 L 377 243 L 380 243 L 377 241 Z M 437 241 L 439 243 Q 440 240 437 241 Z M 443 241 L 443 243 L 446 243 L 443 241 Z M 375 243 L 375 245 L 378 245 L 375 243 Z M 435 243 L 437 245 Q 438 242 435 243 Z M 439 243 L 439 245 L 444 245 Q 443 242 439 243 Z M 373 245 L 373 247 L 376 247 L 373 245 Z M 433 245 L 435 247 Q 436 244 433 245 Z M 507 245 L 509 247 Q 510 244 507 245 Z M 371 247 L 370 249 L 374 249 L 371 247 Z M 431 247 L 433 249 Q 434 246 431 247 Z M 435 247 Q 434 250 437 249 Q 438 246 435 247 Z M 505 247 L 507 249 Q 508 246 505 247 Z M 429 249 Q 428 252 431 251 Q 432 248 429 249 Z M 433 249 L 433 251 L 436 251 L 433 249 Z M 503 249 L 505 251 Q 506 248 503 249 Z M 365 251 Q 364 254 367 253 Q 368 250 365 251 Z M 431 251 L 431 253 L 434 253 L 431 251 Z M 501 251 L 503 253 Q 504 250 501 251 Z M 363 253 L 363 255 L 366 255 L 363 253 Z M 423 253 Q 422 256 427 255 Q 428 251 423 253 Z M 429 253 L 429 255 L 432 255 L 429 253 Z M 499 253 L 501 255 Q 502 252 499 253 Z M 361 255 L 361 257 L 364 257 L 361 255 Z M 421 255 L 423 257 Q 424 254 421 255 Z M 427 255 L 427 257 L 430 257 L 427 255 Z M 497 255 L 499 257 Q 500 254 497 255 Z M 359 257 L 359 259 L 362 259 L 359 257 Z M 419 257 L 421 259 Q 422 256 419 257 Z M 425 257 L 425 259 L 428 259 L 425 257 Z M 495 257 L 497 259 Q 498 256 495 257 Z M 357 259 L 357 261 L 360 261 L 357 259 Z M 417 259 L 419 261 Q 420 258 417 259 Z M 423 259 L 423 261 L 426 261 L 423 259 Z M 493 259 L 495 261 Q 496 258 493 259 Z M 355 261 L 355 263 L 358 263 L 355 261 Z M 415 261 L 417 263 Q 418 260 415 261 Z M 421 261 L 421 263 L 424 263 L 421 261 Z M 491 261 L 493 263 Q 494 260 491 261 Z M 353 263 L 353 265 L 356 265 L 353 263 Z M 413 263 Q 412 266 415 265 Q 416 262 413 263 Z M 419 263 L 419 265 L 422 265 L 419 263 Z M 489 263 L 491 265 Q 492 262 489 263 Z M 351 265 L 351 267 L 354 267 L 351 265 Z M 417 265 L 417 267 L 420 267 L 417 265 Z M 487 265 Q 486 268 489 267 Q 490 264 487 265 Z M 349 267 L 348 269 L 352 269 L 349 267 Z M 407 267 L 408 269 L 411 268 L 407 267 Z M 415 267 L 415 269 L 418 269 L 415 267 Z M 405 269 L 407 271 Q 408 268 405 269 Z M 413 269 L 412 271 L 416 271 L 413 269 Z M 481 269 L 482 271 L 485 270 L 481 269 Z M 343 271 Q 342 274 345 273 Q 346 270 343 271 Z M 403 271 L 405 273 Q 406 270 403 271 Z M 479 271 L 481 273 Q 482 270 479 271 Z M 341 273 L 341 275 L 344 275 L 341 273 Z M 401 273 L 403 275 Q 404 272 401 273 Z M 407 273 Q 406 276 409 275 Q 410 272 407 273 Z M 477 273 L 479 275 Q 480 272 477 273 Z M 339 275 L 339 277 L 342 277 L 339 275 Z M 399 275 Q 398 278 401 277 Q 402 274 399 275 Z M 405 275 L 405 277 L 408 277 L 405 275 Z M 475 275 L 477 277 Q 478 274 475 275 Z M 337 277 L 337 279 L 340 279 L 337 277 Z M 403 277 L 403 279 L 406 279 L 403 277 Z M 473 277 L 475 279 Q 476 276 473 277 Z M 335 279 L 335 281 L 338 281 L 335 279 Z M 393 279 L 394 281 L 397 280 L 393 279 Z M 401 279 L 401 281 L 404 281 L 401 279 Z M 471 279 L 473 281 Q 474 278 471 279 Z M 333 281 L 333 283 L 336 283 L 333 281 Z M 391 281 L 393 283 Q 394 280 391 281 Z M 399 281 L 399 283 L 402 283 L 399 281 Z M 469 281 Q 468 284 471 283 Q 472 280 469 281 Z M 331 283 L 331 285 L 334 285 L 331 283 Z M 389 283 L 391 285 Q 392 282 389 283 Z M 397 283 L 397 285 L 400 285 L 397 283 Z M 329 285 L 329 287 L 332 287 L 329 285 Z M 387 285 L 389 287 Q 390 284 387 285 Z M 395 285 L 395 287 L 398 287 L 395 285 Z M 463 285 L 464 287 L 467 286 L 463 285 Z M 327 287 L 327 289 L 330 289 L 327 287 Z M 385 287 L 387 289 Q 388 286 385 287 Z M 393 287 L 393 289 L 396 289 L 393 287 Z M 461 287 L 463 289 Q 464 286 461 287 Z M 325 289 L 325 291 L 328 291 L 325 289 Z M 383 289 Q 382 292 385 291 Q 386 288 383 289 Z M 391 289 L 391 291 L 394 291 L 391 289 Z M 459 289 L 461 291 Q 462 288 459 289 Z M 323 291 L 323 293 L 326 293 L 323 291 Z M 389 291 L 389 293 L 392 293 L 389 291 Z M 457 291 L 459 293 Q 460 290 457 291 Z M 321 293 L 321 295 L 324 295 L 321 293 Z M 377 293 L 378 295 L 381 294 L 377 293 Z M 387 293 L 387 295 L 390 295 L 387 293 Z M 455 293 L 457 295 Q 458 292 455 293 Z M 319 295 L 319 297 L 322 297 L 319 295 Z M 375 295 L 377 297 Q 378 294 375 295 Z M 385 295 L 384 297 L 388 297 L 385 295 Z M 453 295 L 455 297 Q 456 294 453 295 Z M 317 297 L 317 299 L 320 299 L 317 297 Z M 373 297 L 375 299 Q 376 296 373 297 Z M 451 297 L 453 299 Q 454 296 451 297 Z M 315 299 L 315 301 L 318 301 L 315 299 Z M 371 299 L 373 301 Q 374 298 371 299 Z M 379 299 Q 378 302 381 301 Q 382 298 379 299 Z M 449 299 L 451 301 Q 452 298 449 299 Z M 313 301 L 313 303 L 316 303 L 313 301 Z M 369 301 L 371 303 Q 372 300 369 301 Z M 377 301 L 377 303 L 380 303 L 377 301 Z M 447 301 L 449 303 Q 450 300 447 301 Z M 311 303 L 311 305 L 314 305 L 311 303 Z M 367 303 L 369 305 Q 370 302 367 303 Z M 375 303 L 375 305 L 378 305 L 375 303 Z M 445 303 L 447 305 Q 448 302 445 303 Z M 309 305 L 309 307 L 312 307 L 309 305 Z M 365 305 L 367 307 Q 368 304 365 305 Z M 373 305 L 373 307 L 376 307 L 373 305 Z M 443 305 Q 442 308 445 307 Q 446 304 443 305 Z M 307 307 L 307 309 L 310 309 L 307 307 Z M 363 307 L 365 309 Q 366 306 363 307 Z M 371 307 L 371 309 L 374 309 L 371 307 Z M 305 309 L 305 311 L 308 311 L 305 309 Z M 361 309 L 363 311 Q 364 308 361 309 Z M 369 309 L 369 311 L 372 311 L 369 309 Z M 437 309 L 438 311 L 441 310 L 437 309 Z M 303 311 L 303 313 L 306 313 L 303 311 Z M 359 311 L 361 313 Q 362 310 359 311 Z M 367 311 L 367 313 L 370 313 L 367 311 Z M 435 311 L 437 313 Q 438 310 435 311 Z M 301 313 L 301 315 L 304 315 L 301 313 Z M 357 313 L 359 315 Q 360 312 357 313 Z M 365 313 L 365 315 L 368 315 L 365 313 Z M 433 313 L 435 315 Q 436 312 433 313 Z M 355 315 L 357 317 Q 358 314 355 315 Z M 363 315 L 363 317 L 366 317 L 363 315 Z M 431 315 L 433 317 Q 434 314 431 315 Z M 353 317 L 355 319 Q 356 316 353 317 Z M 361 317 L 361 319 L 364 319 L 361 317 Z M 429 317 L 431 319 Q 432 316 429 317 Z M 351 319 L 353 321 Q 354 318 351 319 Z M 359 319 L 358 321 L 362 321 L 359 319 Z M 427 319 L 429 321 Q 430 318 427 319 Z M 349 321 L 351 323 Q 352 320 349 321 Z M 425 321 L 427 323 Q 428 320 425 321 Z M 301 323 L 301 325 L 304 324 L 301 323 Z M 347 323 Q 346 326 349 325 Q 350 322 347 323 Z M 353 323 Q 352 326 355 325 Q 356 322 353 323 Z M 423 323 L 425 325 Q 426 322 423 323 Z M 303 325 Q 302 328 305 327 Q 306 324 303 325 Z M 351 325 L 351 327 L 354 327 L 351 325 Z M 421 325 L 423 327 Q 424 324 421 325 Z M 283 327 Q 282 331 287 329 Q 288 325 283 327 Z M 341 327 L 341 329 L 345 328 L 341 327 Z M 349 327 L 349 329 L 352 329 L 349 327 Z M 419 327 L 421 329 Q 422 326 419 327 Z M 279 329 L 277 331 L 283 331 Q 284 327 279 329 Z M 288 329 Q 286 332 289 331 L 288 329 Z M 308 329 Q 307 332 311 331 Q 312 328 308 329 Z M 347 329 L 347 331 L 350 331 L 347 329 Z M 417 329 Q 416 332 419 331 Q 420 328 417 329 Z M 275 331 L 273 333 L 277 333 Q 278 330 275 331 Z M 289 331 Q 288 334 291 333 Q 292 330 289 331 Z M 312 331 L 313 333 Q 314 330 312 331 Z M 335 331 L 335 333 L 339 332 L 335 331 Z M 345 331 L 345 333 L 348 333 L 345 331 Z M 292 333 L 290 335 L 293 335 Q 294 332 292 333 Z M 314 333 L 315 335 Q 319 336 320 334 L 314 333 Z M 325 333 L 326 335 L 334 335 L 335 334 L 325 333 Z M 343 333 L 343 335 L 346 335 L 343 333 Z M 411 333 L 412 335 L 415 334 L 411 333 Z M 269 335 L 267 337 L 271 337 Q 272 334 269 335 Z M 294 335 L 292 337 L 295 337 Q 296 334 294 335 Z M 320 335 L 321 337 Q 324 338 325 336 L 320 335 Z M 341 335 L 341 337 L 344 337 L 341 335 Z M 409 335 L 411 337 Q 412 334 409 335 Z M 296 337 L 294 339 L 297 339 Q 298 336 296 337 Z M 339 337 L 339 339 L 342 339 L 339 337 Z M 407 337 L 409 339 Q 410 336 407 337 Z M 263 339 Q 262 342 265 341 Q 266 338 263 339 Z M 298 339 L 297 341 L 301 341 L 298 339 Z M 337 339 L 337 341 L 340 341 L 337 339 Z M 405 339 L 407 341 Q 408 338 405 339 Z M 261 341 L 261 343 L 264 343 L 261 341 Z M 335 341 L 335 343 L 338 343 L 335 341 Z M 403 341 L 405 343 Q 406 340 403 341 Z M 259 343 L 258 345 L 262 345 L 259 343 Z M 303 343 Q 302 346 305 345 Q 306 342 303 343 Z M 333 343 L 332 345 L 336 345 L 333 343 Z M 401 343 L 403 345 Q 404 342 401 343 Z M 153 345 L 152 347 L 159 347 Q 158 344 153 345 Z M 306 345 L 304 347 L 307 347 Q 308 344 306 345 Z M 399 345 L 401 347 Q 402 344 399 345 Z M 149 347 L 147 349 L 151 349 Q 152 346 149 347 Z M 159 347 L 159 349 L 163 349 L 159 347 Z M 253 347 Q 252 350 255 349 Q 256 346 253 347 Z M 308 347 L 306 349 L 309 349 Q 310 346 308 347 Z M 325 347 L 323 349 L 329 349 Q 330 345 325 347 Z M 397 347 L 399 349 Q 400 346 397 347 Z M 251 349 L 251 351 L 254 351 L 251 349 Z M 310 349 L 309 351 L 313 351 L 310 349 Z M 321 349 L 319 351 L 323 351 Q 324 348 321 349 Z M 395 349 L 397 351 Q 398 348 395 349 Z M 165 351 Q 164 354 167 353 Q 168 350 165 351 Z M 249 351 L 249 353 L 252 353 L 249 351 Z M 393 351 L 395 353 Q 396 350 393 351 Z M 168 353 L 166 355 L 169 355 Q 170 352 168 353 Z M 247 353 L 247 355 L 250 355 L 247 353 Z M 391 353 L 393 355 Q 394 352 391 353 Z M 170 355 L 168 357 L 171 357 Q 172 354 170 355 Z M 203 355 L 202 357 L 215 357 L 214 355 L 203 355 Z M 245 355 L 245 357 L 248 357 L 245 355 Z M 389 355 Q 388 358 391 357 Q 392 354 389 355 Z M 172 357 L 170 359 L 173 359 Q 174 356 172 357 Z M 195 357 L 193 359 L 201 359 Q 202 356 195 357 Z M 243 357 L 243 359 L 246 359 L 243 357 Z M 174 359 L 173 361 L 177 361 L 174 359 Z M 189 359 L 187 361 L 193 361 Q 194 357 189 359 Z M 241 359 L 241 361 L 244 361 L 241 359 Z M 383 359 L 384 361 L 387 360 L 383 359 Z M 239 361 L 239 363 L 242 363 L 239 361 Z M 381 361 L 383 363 Q 384 360 381 361 Z M 237 363 L 237 365 L 240 365 L 237 363 Z M 379 363 L 381 365 Q 382 362 379 363 Z M 235 365 L 235 367 L 238 367 L 235 365 Z M 377 365 L 379 367 Q 380 364 377 365 Z M 233 367 L 233 369 L 236 369 L 233 367 Z M 375 367 L 377 369 Q 378 366 375 367 Z M 231 369 L 231 371 L 234 371 L 231 369 Z M 373 369 L 375 371 Q 376 368 373 369 Z M 229 371 L 229 373 L 232 373 L 229 371 Z M 371 371 L 373 373 Q 374 370 371 371 Z M 149 373 Q 148 376 151 375 Q 152 372 149 373 Z M 227 373 L 227 375 L 230 375 L 227 373 Z M 369 373 L 371 375 Q 372 372 369 373 Z M 225 375 L 225 377 L 228 377 L 225 375 Z M 367 375 L 369 377 Q 370 374 367 375 Z M 154 377 Q 153 380 157 379 Q 158 376 154 377 Z M 223 377 L 223 379 L 226 379 L 223 377 Z M 365 377 L 367 379 Q 368 376 365 377 Z M 221 379 L 221 381 L 224 381 L 221 379 Z M 363 379 Q 362 382 365 381 Q 366 378 363 379 Z M 160 381 L 161 383 L 164 382 L 160 381 Z M 207 381 L 207 383 L 211 382 L 207 381 Z M 219 381 L 219 383 L 222 383 L 219 381 Z M 217 383 L 217 385 L 220 385 L 217 383 Z M 357 383 L 358 385 L 361 384 L 357 383 Z M 215 385 L 215 387 L 218 387 L 215 385 Z M 355 385 L 357 387 Q 358 384 355 385 Z M 213 387 L 212 389 L 216 389 L 213 387 Z M 353 387 L 355 389 Q 356 386 353 387 Z M 351 389 L 353 391 Q 354 388 351 389 Z M 349 391 L 351 393 Q 352 390 349 391 Z M 347 393 L 349 395 Q 350 392 347 393 Z M 345 395 L 347 397 Q 348 394 345 395 Z M 343 397 L 345 399 Q 346 396 343 397 Z M 173 399 L 173 401 L 176 400 L 173 399 Z M 341 399 L 343 401 Q 344 398 341 399 Z M 175 401 L 175 403 L 178 402 L 175 401 Z M 339 401 Q 338 404 341 403 Q 342 400 339 401 Z M 177 403 L 177 405 L 180 404 L 177 403 Z M 179 405 Q 178 408 181 407 Q 182 404 179 405 Z M 333 405 L 334 407 L 337 406 L 333 405 Z M 331 407 L 333 409 Q 334 406 331 407 Z M 184 409 Q 183 412 187 411 Q 188 408 184 409 Z M 329 409 L 331 411 Q 332 408 329 409 Z M 188 411 L 189 413 Q 190 410 188 411 Z M 327 411 L 329 413 Q 330 410 327 411 Z M 190 413 Q 189 416 195 415 Q 196 411 190 413 Z M 325 413 L 327 415 Q 328 412 325 413 Z M 196 415 L 197 417 L 210 417 L 211 416 L 196 415 Z M 323 415 L 325 417 Q 326 414 323 415 Z M 321 417 L 323 419 Q 324 416 321 417 Z M 185 485 L 185 487 L 188 487 L 185 485 Z M 183 487 L 183 489 L 186 489 L 183 487 Z M 313 493 L 315 495 Q 316 492 313 493 Z M 177 495 L 177 497 L 180 497 L 177 495 Z M 311 495 L 313 497 Q 314 494 311 495 Z M 175 497 L 175 499 L 178 499 L 175 497 Z M 309 497 Q 308 500 311 499 Q 312 496 309 497 Z M 173 499 L 173 501 L 176 501 L 173 499 Z M 171 501 L 171 503 L 174 503 L 171 501 Z M 303 501 L 304 503 L 307 502 L 303 501 Z M 301 503 Q 300 506 303 505 Q 304 502 301 503 Z M 295 507 L 295 509 L 299 508 L 295 507 Z M 161 511 Q 160 514 163 513 Q 164 510 161 511 Z M 289 511 L 290 513 L 293 512 L 289 511 Z M 159 513 L 159 515 L 162 515 L 159 513 Z M 287 513 Q 286 516 289 515 Q 290 512 287 513 Z M 157 515 L 157 517 L 160 517 L 157 515 Z M 155 517 L 155 519 L 158 519 L 155 517 Z M 281 517 L 282 519 L 285 518 L 281 517 Z M 153 519 L 153 521 L 156 521 L 153 519 Z M 279 519 L 281 521 Q 282 518 279 519 Z M 151 521 L 151 523 L 154 523 L 151 521 Z M 277 521 Q 276 524 279 523 Q 280 520 277 521 Z M 149 523 L 149 525 L 152 525 L 149 523 Z M 147 525 L 147 527 L 150 527 L 147 525 Z M 145 527 L 145 529 L 148 529 L 145 527 Z M 62 529 L 60 531 L 63 531 Q 64 528 62 529 Z M 143 529 L 143 531 L 146 531 L 143 529 Z M 141 531 L 141 533 L 144 533 L 141 531 Z M 139 533 L 139 535 L 142 535 L 139 533 Z M 609 541 L 609 543 L 612 543 L 609 541 Z M 72 543 L 70 545 L 73 545 Q 74 542 72 543 Z M 603 549 L 603 551 L 606 551 L 603 549 Z M 78 551 L 76 553 L 79 553 Q 80 550 78 551 Z M 601 551 L 601 553 L 604 553 L 601 551 Z M 80 553 L 78 555 L 81 555 Q 82 552 80 553 Z M 599 553 L 599 555 L 602 555 L 599 553 Z M 82 555 L 80 557 L 83 557 Q 84 554 82 555 Z M 139 561 L 139 563 L 142 562 L 139 561 Z M 593 561 L 593 563 L 596 563 L 593 561 Z M 88 563 L 86 565 L 89 565 Q 90 562 88 563 Z M 141 563 L 141 565 L 144 564 L 141 563 Z M 591 563 L 591 565 L 594 565 L 591 563 Z M 90 565 L 88 567 L 91 567 Q 92 564 90 565 Z M 143 565 L 143 567 L 146 566 L 143 565 Z M 589 565 L 589 567 L 592 567 L 589 565 Z M 92 567 L 90 569 L 93 569 Q 94 566 92 567 Z M 145 567 Q 144 570 147 569 Q 148 566 145 567 Z M 587 567 L 587 569 L 590 569 L 587 567 Z M 94 569 L 92 571 L 95 571 Q 96 568 94 569 Z M 585 569 L 585 571 L 588 571 L 585 569 Z M 96 571 L 94 573 L 97 573 Q 98 570 96 571 Z M 150 571 Q 149 574 153 573 Q 154 570 150 571 Z M 583 571 L 583 573 L 586 573 L 583 571 Z M 98 573 L 96 575 L 99 575 Q 100 572 98 573 Z M 581 573 L 581 575 L 584 575 L 581 573 Z M 100 575 L 98 577 L 101 577 Q 102 574 100 575 Z M 579 575 L 579 577 L 582 577 L 579 575 Z M 102 577 L 100 579 L 103 579 Q 104 576 102 577 Z M 160 577 Q 159 580 163 579 Q 164 576 160 577 Z M 251 577 L 253 579 Q 254 576 251 577 Z M 577 577 L 577 579 L 580 579 L 577 577 Z M 104 579 L 102 581 L 105 581 Q 106 578 104 579 Z M 575 579 L 575 581 L 578 581 L 575 579 Z M 106 581 L 104 583 L 107 583 Q 108 580 106 581 Z M 166 581 Q 165 584 169 583 Q 170 580 166 581 Z M 573 581 L 573 583 L 576 583 L 573 581 Z M 108 583 L 106 585 L 109 585 Q 110 582 108 583 Z M 571 583 L 571 585 L 574 585 L 571 583 Z M 110 585 L 108 587 L 111 587 Q 112 584 110 585 Z M 172 585 L 173 587 L 176 586 L 172 585 Z M 245 585 L 247 587 Q 248 584 245 585 Z M 569 585 L 569 587 L 572 587 L 569 585 Z M 112 587 L 110 589 L 113 589 Q 114 586 112 587 Z M 175 587 L 175 589 L 178 588 L 175 587 Z M 243 587 L 245 589 Q 246 586 243 587 Z M 567 587 L 567 589 L 570 589 L 567 587 Z M 114 589 L 112 591 L 115 591 Q 116 588 114 589 Z M 177 589 Q 176 592 179 591 Q 180 588 177 589 Z M 241 589 L 243 591 Q 244 588 241 589 Z M 565 589 L 565 591 L 568 591 L 565 589 Z M 116 591 L 114 593 L 117 593 Q 118 590 116 591 Z M 239 591 L 241 593 Q 242 590 239 591 Z M 563 591 L 563 593 L 566 593 L 563 591 Z M 118 593 L 116 595 L 119 595 Q 120 592 118 593 Z M 182 593 L 183 595 L 186 594 L 182 593 Z M 237 593 L 239 595 Q 240 592 237 593 Z M 561 593 L 561 595 L 564 595 L 561 593 Z M 120 595 L 119 597 L 123 597 L 120 595 Z M 185 595 L 185 597 L 188 596 L 185 595 Z M 235 595 L 237 597 Q 238 594 235 595 Z M 559 595 L 559 597 L 562 597 L 559 595 Z M 187 597 Q 186 600 189 599 Q 190 596 187 597 Z M 233 597 L 235 599 Q 236 596 233 597 Z M 557 597 L 556 599 L 560 599 L 557 597 Z M 125 599 Q 124 602 127 601 Q 128 598 125 599 Z M 231 599 Q 230 602 233 601 Q 234 598 231 599 Z M 128 601 L 126 603 L 129 603 Q 130 600 128 601 Z M 192 601 Q 191 604 195 603 Q 196 600 192 601 Z M 551 601 Q 550 604 553 603 Q 554 600 551 601 Z M 130 603 L 129 605 L 133 605 L 130 603 Z M 225 603 L 226 605 L 229 604 L 225 603 Z M 549 603 L 549 605 L 552 605 L 549 603 Z M 198 605 Q 197 608 201 607 Q 202 604 198 605 Z M 223 605 L 225 607 Q 226 604 223 605 Z M 547 605 L 546 607 L 550 607 L 547 605 Z M 135 607 Q 134 610 137 609 Q 138 606 135 607 Z M 202 607 Q 201 610 207 609 Q 208 605 202 607 Z M 221 607 Q 220 610 223 609 Q 224 606 221 607 Z M 138 609 L 137 611 L 141 611 L 138 609 Z M 208 609 L 209 611 Q 213 612 214 610 L 208 609 Z M 219 609 Q 219 613 221 610 L 219 609 Z M 541 609 Q 540 612 543 611 Q 544 608 541 609 Z M 214 611 L 215 613 Q 218 614 219 612 L 214 611 Z M 539 611 L 538 613 L 542 613 L 539 611 Z M 143 613 Q 142 616 145 615 Q 146 612 143 613 Z M 146 615 L 145 617 L 149 617 L 146 615 Z M 533 615 L 531 617 L 535 617 Q 536 614 533 615 Z M 151 619 L 151 621 L 155 621 L 151 619 Z M 527 619 L 525 621 L 529 621 Q 530 618 527 619 Z M 157 623 L 157 625 L 161 625 L 157 623 Z M 521 623 L 519 625 L 523 625 Q 524 622 521 623 Z M 515 627 L 513 629 L 517 629 Q 518 626 515 627 Z M 167 629 L 167 631 L 171 631 L 167 629 Z M 505 633 L 503 635 L 507 635 Q 508 632 505 633 Z M 177 635 L 177 637 L 181 637 L 177 635 Z M 207 649 L 207 651 L 211 651 L 207 649 Z M 467 651 L 465 653 L 469 653 Q 470 650 467 651 Z M 217 653 L 217 655 L 221 655 L 217 653 Z M 455 655 L 453 657 L 459 657 Q 460 653 455 655 Z M 227 657 L 227 659 L 233 659 Q 232 656 227 657 Z M 449 657 L 447 659 L 453 659 Q 454 655 449 657 Z M 233 659 L 233 661 L 239 661 Q 238 658 233 659 Z M 443 659 L 441 661 L 447 661 Q 448 657 443 659 Z M 239 661 L 239 663 L 245 663 Q 244 660 239 661 Z M 437 661 L 435 663 L 441 663 Q 442 659 437 661 Z M 245 663 L 245 665 L 253 665 L 252 663 L 245 663 Z M 431 663 L 429 665 L 435 665 Q 436 661 431 663 Z M 253 665 L 253 667 L 261 667 Q 259 663 253 665 Z M 423 665 L 421 667 L 429 667 Q 430 664 423 665 Z M 261 667 L 261 669 L 269 669 L 268 667 L 261 667 Z M 413 667 L 411 669 L 421 669 L 421 667 L 413 667 Z M 269 669 L 269 671 L 279 671 L 278 669 L 269 669 Z M 403 669 L 401 671 L 411 671 L 411 669 L 403 669 Z M 279 671 L 279 673 L 291 673 L 290 671 L 279 671 Z M 393 671 L 391 673 L 401 673 L 401 671 L 393 671 Z M 291 673 L 291 675 L 307 675 L 306 673 L 291 673 Z M 377 673 L 375 675 L 391 675 L 391 673 L 377 673 Z "/>
  <path fill="rgb(0,0,0)" stroke="rgb(0,0,0)" stroke-width="1" opacity="0" d="M 481 109 L 483 109.5 L 483 116.5 L 481 117.5 L 481 109 Z "/>
  <path fill="rgb(0,0,0)" stroke="rgb(0,0,0)" stroke-width="1" opacity="0" d="M 481 119 Q 484 118 483 121 Q 480 122 481 119 Z "/>
  <path fill="rgb(0,0,0)" stroke="rgb(0,0,0)" stroke-width="1" opacity="0" d="M 479.5 122 Q 481.8 122.8 481 126.5 L 479 127.5 L 479.5 122 Z "/>
  <path fill="rgb(0,0,0)" stroke="rgb(0,0,0)" stroke-width="1" opacity="0" d="M 479 129 Q 482 128 481 131 Q 478 132 479 129 Z "/>
  <path fill="rgb(0,0,0)" stroke="rgb(0,0,0)" stroke-width="1" opacity="0" d="M 477 135 Q 480 134 479 137 Q 476 138 477 135 Z "/>
  <path fill="rgb(0,0,0)" stroke="rgb(0,0,0)" stroke-width="1" opacity="0" d="M 475 141 Q 478 140 477 143 Q 474 144 475 141 Z "/>
  <path fill="rgb(0,0,0)" stroke="rgb(0,0,0)" stroke-width="1" opacity="0" d="M 473 145 Q 476 144 475 147 Q 472 148 473 145 Z "/>
  <path fill="rgb(0,0,0)" stroke="rgb(0,0,0)" stroke-width="1" opacity="0" d="M 467 157 Q 470 156 469 159 Q 466 160 467 157 Z "/>
  <path fill="rgb(0,0,0)" stroke="rgb(0,0,0)" stroke-width="1" opacity="0" d="M 511 191 Q 514 190 513 193 Q 510 194 511 191 Z "/>
  <path fill="rgb(0,0,0)" stroke="rgb(0,0,0)" stroke-width="1" opacity="0" d="M 513 197 Q 516 196 515 199 Q 512 200 513 197 Z "/>
  <path fill="rgb(0,0,0)" stroke="rgb(0,0,0)" stroke-width="1" opacity="0" d="M 515 203 Q 518 202 517 205 Q 514 206 515 203 Z "/>
  <path fill="rgb(0,0,0)" stroke="rgb(0,0,0)" stroke-width="1" opacity="0" d="M 518.5 206 L 519 225.5 L 517 224.5 L 517 207.5 L 518.5 206 Z "/>
  <path fill="rgb(0,0,0)" stroke="rgb(0,0,0)" stroke-width="1" opacity="0" d="M 515 227 Q 518 226 517 229 Q 514 230 515 227 Z "/>
  <path fill="rgb(0,0,0)" stroke="rgb(0,0,0)" stroke-width="1" opacity="0" d="M 513 231 Q 516 230 515 233 Q 512 234 513 231 Z "/>
  <path fill="rgb(0,0,0)" stroke="rgb(0,0,0)" stroke-width="1" opacity="0" d="M 511 235 Q 514 234 513 237 Q 510 238 511 235 Z "/>
  <path fill="rgb(0,0,0)" stroke="rgb(0,0,0)" stroke-width="1" opacity="0" d="M 509 239 Q 512 238 511 241 Q 508 242 509 239 Z "/>
  <path fill="rgb(0,0,0)" stroke="rgb(0,0,0)" stroke-width="1" opacity="0" d="M 313 353 L 319 353 L 319 355 L 313 355 L 313 353 Z "/>
  <path fill="rgb(0,0,0)" stroke="rgb(0,0,0)" stroke-width="1" opacity="0" d="M 215 361 Q 218 360 217 363 Q 214 364 215 361 Z "/>
  <path fill="rgb(0,0,0)" stroke="rgb(0,0,0)" stroke-width="1" opacity="0" d="M 218.5 364 L 219 373 L 217 372.5 L 217 365.5 L 218.5 364 Z "/>
  <path fill="rgb(0,0,0)" stroke="rgb(0,0,0)" stroke-width="1" opacity="0" d="M 147 367 Q 150 366 149 369 Q 146 370 147 367 Z "/>
  <path fill="rgb(0,0,0)" stroke="rgb(0,0,0)" stroke-width="1" opacity="0" d="M 193 385 L 196 385.5 L 195.5 387 L 199 387.5 L 195 389 L 193 385 Z "/>
  <path fill="rgb(0,0,0)" stroke="rgb(0,0,0)" stroke-width="1" opacity="0" d="M 167 387 Q 170 386 169 389 Q 166 390 167 387 Z "/>
  <path fill="rgb(0,0,0)" stroke="rgb(0,0,0)" stroke-width="1" opacity="0" d="M 203 391 L 210.5 391 L 211 393 L 203.5 393 L 203 391 Z "/>
  <path fill="rgb(0,0,0)" stroke="rgb(0,0,0)" stroke-width="1" opacity="0" d="M 226.5 412 L 222.5 417 L 219 415.5 L 224 414.5 L 223.5 413 L 226.5 412 Z "/>
  <path fill="rgb(0,0,0)" stroke="rgb(0,0,0)" stroke-width="1" opacity="0" d="M 317 423 Q 320 422 319 425 Q 316 426 317 423 Z "/>
  <path fill="rgb(0,0,0)" stroke="rgb(0,0,0)" stroke-width="1" opacity="0" d="M 320.5 426 L 321 433.5 L 319 432.5 Q 317.8 427.3 320.5 426 Z "/>
  <path fill="rgb(0,0,0)" stroke="rgb(0,0,0)" stroke-width="1" opacity="0" d="M 319 435 Q 322 434 321 437 Q 318 438 319 435 Z "/>
  <path fill="rgb(0,0,0)" stroke="rgb(0,0,0)" stroke-width="1" opacity="0" d="M 295 437 L 301 437 L 301 439 L 295 439 L 295 437 Z "/>
  <path fill="rgb(0,0,0)" stroke="rgb(0,0,0)" stroke-width="1" opacity="0" d="M 322.5 438 L 323 447.5 L 321 446.5 Q 319.3 439.8 322.5 438 Z "/>
  <path fill="rgb(0,0,0)" stroke="rgb(0,0,0)" stroke-width="1" opacity="0" d="M 293.5 441 Q 296.1 440.3 295 443 L 297 443 L 297 447.5 L 299 449.5 L 299 457.5 Q 301.8 458.3 301 462.5 L 299 464.5 L 299 470.5 Q 296.3 471.6 297 475 L 301 473 L 296.5 479 Q 293.9 479.7 295 477 L 298 476.5 L 295.5 475 Q 294.3 477.3 293 474.5 L 291.5 471 L 289.5 471 L 269.5 471 L 269 467 L 271 467.5 L 270.5 469 L 289 468.5 L 287.5 467 L 274 466.5 L 275 463 L 271 465 L 271 463.5 L 293.5 441 Z M 293 443 L 295 445 Q 296 442 293 443 Z M 291 445 L 293 447 Q 294 444 291 445 Z M 289 447 L 291 449 Q 292 446 289 447 Z M 287 449 L 289 451 Q 290 448 287 449 Z M 285 451 L 287 453 Q 288 450 285 451 Z M 283 453 L 285 455 Q 286 452 283 453 Z M 281 455 L 283 457 Q 284 454 281 455 Z M 279 457 L 281 459 Q 282 456 279 457 Z M 277 459 L 279 461 Q 280 458 277 459 Z M 275 461 L 277 463 Q 278 460 275 461 Z "/>
  <path fill="rgb(0,0,0)" stroke="rgb(0,0,0)" stroke-width="1" opacity="0" d="M 299 441 Q 303 439.6 301 446.5 L 299 447.5 L 299 441 Z "/>
  <path fill="rgb(0,0,0)" stroke="rgb(0,0,0)" stroke-width="1" opacity="0" d="M 207 443 Q 210 442 209 445 Q 206 446 207 443 Z "/>
  <path fill="rgb(0,0,0)" stroke="rgb(0,0,0)" stroke-width="1" opacity="0" d="M 205.5 446 Q 207.8 446.8 207 450.5 L 205 451.5 L 205.5 446 Z "/>
  <path fill="rgb(0,0,0)" stroke="rgb(0,0,0)" stroke-width="1" opacity="0" d="M 301 449 Q 304 448 303 451 Q 300 452 301 449 Z "/>
  <path fill="rgb(0,0,0)" stroke="rgb(0,0,0)" stroke-width="1" opacity="0" d="M 321 449 Q 324 448 323 451 Q 320 452 321 449 Z "/>
  <path fill="rgb(0,0,0)" stroke="rgb(0,0,0)" stroke-width="1" opacity="0" d="M 301.5 452 Q 303.8 452.8 303 456.5 L 301 457.5 L 301.5 452 Z "/>
  <path fill="rgb(0,0,0)" stroke="rgb(0,0,0)" stroke-width="1" opacity="0" d="M 324.5 452 L 325 469.5 L 323 468.5 L 323 453.5 L 324.5 452 Z "/>
  <path fill="rgb(0,0,0)" stroke="rgb(0,0,0)" stroke-width="1" opacity="0" d="M 205 453 Q 208 452 207 455 Q 204 456 205 453 Z "/>
  <path fill="rgb(0,0,0)" stroke="rgb(0,0,0)" stroke-width="1" opacity="0" d="M 203 459 Q 206 458 205 461 Q 202 462 203 459 Z "/>
  <path fill="rgb(0,0,0)" stroke="rgb(0,0,0)" stroke-width="1" opacity="0" d="M 303 459 Q 306.7 457.8 305 463 Q 301.3 464.2 303 459 Z "/>
  <path fill="rgb(0,0,0)" stroke="rgb(0,0,0)" stroke-width="1" opacity="0" d="M 201 463 Q 204 462 203 465 Q 200 466 201 463 Z "/>
  <path fill="rgb(0,0,0)" stroke="rgb(0,0,0)" stroke-width="1" opacity="0" d="M 301.5 464 L 303 466.5 L 301 467.5 L 301.5 464 Z "/>
  <path fill="rgb(0,0,0)" stroke="rgb(0,0,0)" stroke-width="1" opacity="0" d="M 199 467 Q 202 466 201 469 Q 198 470 199 467 Z "/>
  <path fill="rgb(0,0,0)" stroke="rgb(0,0,0)" stroke-width="1" opacity="0" d="M 301 469 Q 304 468 303 471 Q 300 472 301 469 Z "/>
  <path fill="rgb(0,0,0)" stroke="rgb(0,0,0)" stroke-width="1" opacity="0" d="M 321 471 Q 324 470 323 473 Q 320 474 321 471 Z "/>
  <path fill="rgb(0,0,0)" stroke="rgb(0,0,0)" stroke-width="1" opacity="0" d="M 289 473 Q 292 472 291 475 Q 288 476 289 473 Z "/>
  <path fill="rgb(0,0,0)" stroke="rgb(0,0,0)" stroke-width="1" opacity="0" d="M 319 475 Q 322 474 321 477 Q 318 478 319 475 Z "/>
  <path fill="rgb(0,0,0)" stroke="rgb(0,0,0)" stroke-width="1" opacity="0" d="M 320.5 478 L 321 481.5 L 319 480.5 L 320.5 478 Z "/>
  <path fill="rgb(0,0,0)" stroke="rgb(0,0,0)" stroke-width="1" opacity="0" d="M 289 479 Q 292 478 291 481 Q 288 482 289 479 Z "/>
  <path fill="rgb(0,0,0)" stroke="rgb(0,0,0)" stroke-width="1" opacity="0" d="M 293 481 Q 295.7 479.9 295 482.5 L 290.5 487 L 288 487 Q 289 484 286 485 L 287 488.5 L 282.5 493 L 280.5 493 Q 278.8 489.3 277 492.5 L 279 493 L 276.5 497 L 274.5 497 L 269 492.5 L 271 489.5 L 265 489 Q 263.6 485.3 269.5 487 L 271.5 485 L 285.5 485 L 288.5 483 L 288.5 485 L 291 485 L 293 481 Z M 271 487 L 272 489 L 280 489 L 279 491 L 284 491 L 283 490 L 286 489 L 286 487 L 271 487 Z M 275 493 L 273 495 L 277 495 Q 278 492 275 493 Z "/>
  <path fill="rgb(0,0,0)" stroke="rgb(0,0,0)" stroke-width="1" opacity="0" d="M 317 483 Q 320 482 319 485 Q 316 486 317 483 Z "/>
  <path fill="rgb(0,0,0)" stroke="rgb(0,0,0)" stroke-width="1" opacity="0" d="M 315 487 Q 318 486 317 489 Q 314 490 315 487 Z "/>
  <path fill="rgb(0,0,0)" stroke="rgb(0,0,0)" stroke-width="1" opacity="0" d="M 265 491 Q 268 490 267 493 Q 264 494 265 491 Z "/>
  <path fill="rgb(0,0,0)" stroke="rgb(0,0,0)" stroke-width="1" opacity="0" d="M 268.5 494 L 269 497 Q 266.3 498.1 267 495.5 L 268.5 494 Z "/>
  <path fill="rgb(0,0,0)" stroke="rgb(0,0,0)" stroke-width="1" opacity="0" d="M 270 497 Q 274.1 495.7 273 499 Q 268.9 500.3 270 497 Z "/>
  <path fill="rgb(0,0,0)" stroke="rgb(0,0,0)" stroke-width="1" opacity="0" d="M 267 499 Q 270 498 269 501 Q 266 502 267 499 Z "/>
  <path fill="rgb(0,0,0)" stroke="rgb(0,0,0)" stroke-width="1" opacity="0" d="M 270.5 528 L 271 531.5 L 269 530.5 L 270.5 528 Z "/>
  <path fill="rgb(0,0,0)" stroke="rgb(0,0,0)" stroke-width="1" opacity="0" d="M 267 533 Q 270 532 269 535 Q 266 536 267 533 Z "/>
  <path fill="rgb(0,0,0)" stroke="rgb(0,0,0)" stroke-width="1" opacity="0" d="M 268.5 536 L 269 543.5 L 267 542.5 Q 265.8 537.3 268.5 536 Z "/>
  <path fill="rgb(0,0,0)" stroke="rgb(0,0,0)" stroke-width="1" opacity="0" d="M 137 539 Q 140 538 139 541 Q 136 542 137 539 Z "/>
  <path fill="rgb(0,0,0)" stroke="rgb(0,0,0)" stroke-width="1" opacity="0" d="M 135 543 Q 138 542 137 545 Q 134 546 135 543 Z "/>
  <path fill="rgb(0,0,0)" stroke="rgb(0,0,0)" stroke-width="1" opacity="0" d="M 265 545 Q 268 544 267 547 Q 264 548 265 545 Z "/>
  <path fill="rgb(0,0,0)" stroke="rgb(0,0,0)" stroke-width="1" opacity="0" d="M 135 549 Q 138 548 137 551 Q 134 552 135 549 Z "/>
  <path fill="rgb(0,0,0)" stroke="rgb(0,0,0)" stroke-width="1" opacity="0" d="M 263 551 Q 266 550 265 553 Q 262 554 263 551 Z "/>
  <path fill="rgb(0,0,0)" stroke="rgb(0,0,0)" stroke-width="1" opacity="0" d="M 137 555 Q 140 554 139 557 Q 136 558 137 555 Z "/>
  <path fill="rgb(0,0,0)" stroke="rgb(0,0,0)" stroke-width="1" opacity="0" d="M 261 557 Q 264 556 263 559 Q 260 560 261 557 Z "/>
  <path fill="rgb(0,0,0)" stroke="rgb(0,0,0)" stroke-width="1" opacity="0" d="M 259 561 Q 262 560 261 563 Q 258 564 259 561 Z "/>
  <path fill="rgb(0,0,0)" stroke="rgb(0,0,0)" stroke-width="1" opacity="0" d="M 257 565 Q 260 564 259 567 Q 256 568 257 565 Z "/>
  <path fill="rgb(255,255,255)" stroke="rgb(255,255,255)" stroke-width="1" opacity="0.8470588235294118" d="M 317 0 Q 320.3 -1.1 319 3 Q 315.7 4.1 317 0 Z "/>
  <path fill="rgb(255,255,255)" stroke="rgb(255,255,255)" stroke-width="1" opacity="0.8470588235294118" d="M 361 0 Q 364.3 -1.1 363 3 Q 359.7 4.1 361 0 Z "/>
  <path fill="rgb(255,255,255)" stroke="rgb(255,255,255)" stroke-width="1" opacity="0.8470588235294118" d="M 295 5 L 315 5.5 L 313.5 7 L 295.5 7 L 293.5 9 L 283.5 9 L 281.5 11 L 273.5 11 Q 271.5 15 263.5 13 L 261.5 15 L 255.5 15 Q 254 18.5 247.5 17 L 245.5 19 L 241.5 19 L 239.5 21 L 235.5 21 L 227.5 25 L 223 25 L 223 23 L 229 23 L 229 21 L 235 21 L 235 19 L 241 19 L 241 17 L 247 17 L 247.5 15 L 254.5 15 L 255 13 L 262.5 13 L 263.5 11 L 272.5 11 L 273.5 9 L 282.5 9 L 283.5 7 L 294.5 7 L 295 5 Z "/>
  <path fill="rgb(255,255,255)" stroke="rgb(255,255,255)" stroke-width="1" opacity="0.8470588235294118" d="M 365.5 5 L 384.5 5 L 385.5 7 L 396.5 7 L 397.5 9 L 407 9 L 407.5 11 L 416.5 11 L 417.5 13 L 424.5 13 Q 423.7 16.4 432.5 15 L 433 17 L 439 17 L 439 19 L 445 19 L 445 21 L 451 21 L 451 23 L 457 23 L 457 25 L 452.5 25 L 450.5 23 L 446.5 23 L 444.5 21 L 440.5 21 L 432.5 17 L 426.5 17 Q 425 13.5 418.5 15 L 416.5 13 L 408.5 13 L 406.5 11 Q 398.5 13 396.5 9 L 386.5 9 L 384.5 7 L 366.5 7 L 365.5 5 Z "/>
  <path fill="rgb(255,255,255)" stroke="rgb(255,255,255)" stroke-width="1" opacity="0.8470588235294118" d="M 463.5 27 Q 468.3 25.7 467 29 Q 463.2 29.8 463.5 27 Z "/>
  <path fill="rgb(255,255,255)" stroke="rgb(255,255,255)" stroke-width="1" opacity="0.8470588235294118" d="M 209 29 L 213 29.5 L 209 31 L 209 29 Z "/>
  <path fill="rgb(255,255,255)" stroke="rgb(255,255,255)" stroke-width="1" opacity="0.8470588235294118" d="M 175 45 L 179 45.5 L 175 47 L 175 45 Z "/>
  <path fill="rgb(255,255,255)" stroke="rgb(255,255,255)" stroke-width="1" opacity="0.8470588235294118" d="M 505.5 47 Q 510.3 45.7 509 49 Q 505.2 49.8 505.5 47 Z "/>
  <path fill="rgb(255,255,255)" stroke="rgb(255,255,255)" stroke-width="1" opacity="0.8470588235294118" d="M 161 53 L 165 53.5 L 161 55 L 161 53 Z "/>
  <path fill="rgb(255,255,255)" stroke="rgb(255,255,255)" stroke-width="1" opacity="0.8470588235294118" d="M 515.5 53 Q 520.3 51.7 519 55 Q 515.2 55.8 515.5 53 Z "/>
  <path fill="rgb(255,255,255)" stroke="rgb(255,255,255)" stroke-width="1" opacity="0.8470588235294118" d="M 155 57 L 159 57.5 L 155 59 L 155 57 Z "/>
  <path fill="rgb(255,255,255)" stroke="rgb(255,255,255)" stroke-width="1" opacity="0.8470588235294118" d="M 521.5 57 Q 526.3 55.7 525 59 Q 521.2 59.8 521.5 57 Z "/>
  <path fill="rgb(255,255,255)" stroke="rgb(255,255,255)" stroke-width="1" opacity="0.8470588235294118" d="M 149 61 L 153 61.5 L 149 63 L 149 61 Z "/>
  <path fill="rgb(255,255,255)" stroke="rgb(255,255,255)" stroke-width="1" opacity="0.8470588235294118" d="M 527.5 61 Q 532.3 59.7 531 63 Q 527.2 63.8 527.5 61 Z "/>
  <path fill="rgb(255,255,255)" stroke="rgb(255,255,255)" stroke-width="1" opacity="0.8470588235294118" d="M 142.5 65 L 147 65.5 L 143 67 Q 144 70 141 69 Q 139.9 66.3 142.5 67 L 142.5 65 Z "/>
  <path fill="rgb(255,255,255)" stroke="rgb(255,255,255)" stroke-width="1" opacity="0.8470588235294118" d="M 533.5 65 L 538 65.5 L 537.5 67 Q 540.1 66.3 539 69 Q 536 70 537 67 L 534.5 67 L 533.5 65 Z "/>
  <path fill="rgb(255,255,255)" stroke="rgb(255,255,255)" stroke-width="1" opacity="0.8470588235294118" d="M 134.5 71 L 139 71.5 L 135 73 L 135 75 L 131 77 Q 129.9 74.3 132.5 75 L 132.5 73 L 135 72.5 L 134.5 71 Z "/>
  <path fill="rgb(255,255,255)" stroke="rgb(255,255,255)" stroke-width="1" opacity="0.8470588235294118" d="M 541.5 71 L 546 71.5 L 545.5 73 Q 548.1 72.3 547 75 Q 544 76 545 73 L 542.5 73 L 541.5 71 Z "/>
  <path fill="rgb(255,255,255)" stroke="rgb(255,255,255)" stroke-width="1" opacity="0.8470588235294118" d="M 549.5 77 L 554 77.5 L 553.5 79 L 556 79.5 L 555.5 81 L 558 81.5 L 557.5 83 Q 560.1 82.3 559 85 L 557 85 L 557 83 L 555 83 L 553 79 L 550.5 79 L 549.5 77 Z "/>
  <path fill="rgb(255,255,255)" stroke="rgb(255,255,255)" stroke-width="1" opacity="0.8470588235294118" d="M 124.5 79 L 129 79.5 L 125 81 L 125 83 L 123 83 L 123 85 L 121 85 L 121 87 L 117 89 Q 115.9 86.3 118.5 87 L 118.5 85 L 121 84.5 L 120.5 83 L 123 82.5 L 122.5 81 L 125 80.5 L 124.5 79 Z "/>
  <path fill="rgb(255,255,255)" stroke="rgb(255,255,255)" stroke-width="1" opacity="0.8470588235294118" d="M 561.5 87 L 566 87.5 L 565.5 89 L 568 89.5 L 567.5 91 L 570 91.5 L 569.5 93 L 572 93.5 L 571.5 95 L 574 95.5 L 573.5 97 L 576 97.5 L 575.5 99 L 578 99.5 L 577.5 101 L 580 101.5 L 579.5 103 L 582 103.5 L 581.5 105 L 584 105.5 L 583.5 107 L 586 107.5 L 585.5 109 L 588 109.5 L 587.5 111 L 590 111.5 L 589.5 113 L 592 113.5 L 589 115 L 589 113 L 587 113 L 587 111 L 585 111 L 585 109 L 583 109 L 583 107 L 581 107 L 581 105 L 579 105 L 579 103 L 577 103 L 577 101 L 575 101 L 575 99 L 573 99 L 573 97 L 571 97 L 571 95 L 569 95 L 569 93 L 565 91 L 565 89 L 562.5 89 L 561.5 87 Z "/>
  <path fill="rgb(255,255,255)" stroke="rgb(255,255,255)" stroke-width="1" opacity="0.8470588235294118" d="M 110.5 91 L 115 91.5 L 111 93 L 111 95 L 109 95 L 109 97 L 107 97 L 107 99 L 105 99 L 105 101 L 103 101 L 103 103 L 101 103 L 101 105 L 99 105 L 99 107 L 97 107 L 97 109 L 95 109 Q 96.1 111.7 93.5 111 L 92.5 109 L 95 108.5 L 94.5 107 L 97 106.5 L 96.5 105 L 99 104.5 L 98.5 103 L 101 102.5 L 100.5 101 L 103 100.5 L 102.5 99 L 105 98.5 L 104.5 97 L 107 96.5 L 106.5 95 L 109 94.5 L 108.5 93 L 111 92.5 L 110.5 91 Z "/>
  <path fill="rgb(255,255,255)" stroke="rgb(255,255,255)" stroke-width="1" opacity="0.8470588235294118" d="M 486.5 101 L 489.5 101 L 495 105 L 495 107 L 497 107 L 497 109 L 499 109 L 499 111 L 501 111 L 501 113 L 503 113 L 503 115 L 505 115 L 505 117 L 507 117 L 507 119 L 509 119 L 509 121 L 511 121 L 511 123 L 513 123 L 513 125 L 515 125 L 515 127 L 517 127 L 517 129 L 519 129 L 519 131 L 521 131 L 521 133 L 523 133 L 523 135 L 525 135 L 525 137 L 527 137 L 527 139 L 529 139 L 529 141 L 531 141 L 531 143 L 533 143 L 533 145 L 535 145 L 535 147 L 537 147 L 537 149 L 539 149 L 539 151 Q 541.7 149.9 541 152.5 Q 543.8 153.6 543 157 Q 545.7 155.9 545 158.5 Q 548.8 160.3 547 167.5 L 545 168.5 L 545 161.5 L 543 161 L 543 169 L 531.5 169 L 529.5 171 L 523.5 171 L 515.5 175 L 511 175 L 511 177 L 517 177 L 517 175 L 523 175 L 523.5 173 L 530.5 173 L 531.5 171 L 542.5 171 L 541.5 173 L 531.5 173 Q 530 176.5 523.5 175 L 521.5 177 L 511.5 179 L 502 184.5 L 509.5 185 L 511 186.5 L 501 187 L 501 189 L 499 189 Q 500.1 191.7 497.5 191 L 498.5 193 Q 500.8 186.8 511.5 189 L 515 190.5 L 517 194.5 L 517 198.5 L 519 200.5 L 519 204.5 L 521 206.5 L 521 225.5 L 511 245 L 509 245 L 509 247 L 507 247 L 507 249 L 505 249 L 505 251 L 503 251 L 503 253 L 501 253 L 501 255 L 499 255 L 499 257 L 497 257 L 497 259 L 495 259 L 495 261 L 493 261 L 493 263 L 491 263 L 491 265 L 489 265 Q 490.1 267.7 487.5 267 Q 486.1 271.8 481 271 L 481 273 L 479 273 L 479 275 L 477 275 L 477 277 L 475 277 L 475 279 L 473 279 L 473 281 L 471 281 Q 472.1 283.7 469.5 283 Q 468.1 287.8 463 287 L 463 289 L 461 289 L 461 291 L 459 291 L 459 293 L 457 293 L 457 295 L 455 295 L 455 297 L 453 297 L 453 299 L 451 299 L 451 301 L 449 301 L 449 303 L 447 303 L 447 305 L 445 305 Q 446.1 307.7 443.5 307 Q 442.1 311.8 437 311 L 437 313 L 435 313 L 435 315 L 433 315 L 433 317 L 431 317 L 431 319 L 429 319 L 429 321 L 427 321 L 427 323 L 425 323 L 425 325 L 423 325 L 423 327 L 421 327 L 421 329 L 419 329 Q 420.1 331.7 417.5 331 Q 416.1 335.8 411 335 L 411 337 L 409 337 L 409 339 L 407 339 L 407 341 L 405 341 L 405 343 L 403 343 L 403 345 L 401 345 L 401 347 L 399 347 L 399 349 L 397 349 L 397 351 L 395 351 L 395 353 L 393 353 L 393 355 L 391 355 Q 392.1 357.7 389.5 357 Q 388.1 361.8 383 361 L 383 363 L 381 363 L 381 365 L 379 365 L 379 367 L 377 367 L 377 369 L 375 369 L 375 371 L 373 371 L 373 373 L 371 373 L 371 375 L 369 375 L 369 377 L 367 377 L 367 379 L 365 379 Q 366.1 381.7 363.5 381 Q 362.1 385.8 357 385 L 357 387 L 355 387 L 355 389 L 353 389 L 353 391 L 351 391 L 351 393 L 349 393 L 349 395 L 347 395 L 347 397 L 345 397 L 345 399 L 343 399 L 343 401 L 341 401 Q 342.1 403.7 339.5 403 Q 338.1 407.8 333 407 L 333 409 L 331 409 L 331 411 L 329 411 L 329 413 L 327 413 L 327 415 L 325 415 L 325 417 L 321 419 L 321 424.5 L 323 426.5 L 323 436.5 L 325 438.5 L 325 450.5 L 327 452.5 L 327 469.5 L 323 475.5 L 323 481.5 L 317 493 L 315 493 L 315 495 L 313 495 L 313 497 L 311 497 Q 312.1 499.7 309.5 499 Q 308.1 503.8 303 503 Q 304.1 505.7 301.5 505 L 291.5 513 L 289 513 Q 290.1 515.7 287.5 515 Q 286.1 519.8 281 519 L 281 521 L 279 521 Q 280.1 523.7 277.5 523 L 273 527.5 Q 274 532.5 271 533.5 L 271 543.5 L 269 545.5 L 267 555.5 L 259 571 Q 256 569.8 257 573.5 L 255 577 L 251 579 L 251 581.5 L 249 585 L 247 585 L 247 587 L 245 587 L 245 589 L 243 589 L 243 591 L 241 591 L 241 593 L 239 593 L 239 595 L 237 595 L 237 597 L 235 597 L 235 599 L 233 599 Q 234.1 601.7 231.5 601 Q 230.1 605.8 225 605 L 225 607 L 223 607 Q 224.1 609.7 221.5 609 L 217.5 613 L 214.5 613 L 212.5 611 L 208.5 611 L 206.5 609 L 202.5 609 L 198.5 607 L 187 599 L 185 595 L 182.5 595 L 177 591 L 175 587 L 172.5 587 L 162.5 579 L 156.5 577 L 145 569 L 145 567 L 143 567 L 143 565 L 141 565 L 141 563 L 139 563 L 139 561 Q 136.3 562.1 137 559.5 L 133 553.5 L 133 549 Q 129.3 550.2 131 545 Q 134 546.3 133 542.5 L 137 535 L 139 535 L 139 533 L 141 533 L 141 531 L 143 531 L 143 529 L 145 529 L 145 527 L 147 527 L 147 525 L 149 525 L 149 523 L 151 523 L 151 521 L 153 521 L 153 519 L 155 519 L 155 517 L 157 517 L 157 515 L 159 515 L 159 513 L 161 513 Q 159.9 510.3 162.5 511 L 169 503 L 171 503 L 171 501 L 173 501 L 173 499 L 175 499 L 175 497 L 179 495 L 179 492.5 L 181 489 L 183 489 L 183 487 L 187 485 L 187 482.5 L 189 479 Q 192 480.3 191 476.5 L 193 473 Q 196 474.3 195 470.5 L 203 454.5 Q 201 446.5 205 444.5 L 205 422.5 L 206.5 421 L 207.5 442 L 209 440.5 L 209 421 L 215 421 L 215 419 L 209 418.5 L 209.5 417 L 196.5 417 Q 195.5 414 190.5 415 L 186.5 411 L 184.5 411 L 179 407 L 179 405 L 177 405 L 177 403 L 175 403 L 175 401 L 173 401 L 173 399 Q 170.3 400.1 171 397.5 Q 168.3 396.4 169 393 Q 166.3 394.1 167 391.5 L 163 385.5 L 163 383 L 160.5 383 L 156.5 379 L 154.5 379 L 149 375 L 149 373 Q 146.3 374.1 147 371.5 L 143 365.5 L 143 352.5 L 145 351.5 L 145.5 366 L 147 364.5 L 147 351 Q 151.3 352 152.5 349 L 157.5 349 L 161.5 351 L 162.5 349 Q 157.5 350 158.5 347 L 151 347 Q 152.3 350.3 147.5 349 L 148.5 347 L 152.5 345 L 157.5 345 L 167 351 L 167 353 L 169 353 L 169 355 L 171 355 L 173 359 L 175.5 359 L 177.5 361 L 186.5 361 L 188.5 359 Q 193.5 360 194.5 357 L 200.5 357 L 202.5 355 L 213.5 355 L 214.5 357 L 201.5 357 L 201 359 L 193.5 359 L 193 361 L 187 361 L 186.5 363 L 177 363 L 177 365 L 186.5 365 L 188.5 363 Q 193.5 364 194.5 361 L 200.5 361 L 202.5 359 L 215.5 359 L 219 360.5 L 221 364.5 L 221 373.5 L 219 377 L 213.5 381 L 200 386.5 Q 202.5 390.5 210.5 389 Q 211.6 386.3 215 387 L 215 385 L 217 385 L 217 383 L 219 383 L 219 381 L 221 381 L 221 379 L 223 379 L 223 377 L 225 377 L 225 375 L 227 375 L 227 373 L 229 373 L 229 371 L 231 371 L 231 369 L 233 369 L 233 367 L 235 367 L 235 365 L 237 365 L 237 363 L 239 363 L 239 361 L 241 361 L 241 359 L 243 359 L 243 357 L 245 357 L 245 355 L 247 355 L 247 353 L 249 353 L 249 351 L 251 351 L 251 349 L 253 349 Q 251.9 346.3 254.5 347 Q 255.9 342.3 261 343 L 261 341 L 263 341 Q 261.9 338.3 264.5 339 L 274.5 331 L 278.5 329 L 283 329 Q 281.8 325.3 287 327 L 289.5 331 Q 292.1 330.3 291 333 L 293 333 L 293 335 L 295 335 L 295 337 L 297 337 L 297 339 L 299.5 339 L 305 343 L 305 345 L 307 345 L 309 349 L 311.5 349 Q 312.8 352.3 318.5 351 L 324.5 347 L 328.5 347 L 332.5 343 L 335 343 L 335 341 L 337 341 L 337 339 L 339 339 L 339 337 L 341 337 L 341 335 L 343 335 L 343 333 L 345 333 L 345 331 L 347 331 L 347 329 L 349 329 L 349 327 L 351 327 L 351 325 L 353 325 Q 351.9 322.3 354.5 323 Q 355.9 318.3 361 319 L 361 317 L 363 317 L 363 315 L 365 315 L 365 313 L 367 313 L 367 311 L 369 311 L 369 309 L 371 309 L 371 307 L 373 307 L 373 305 L 375 305 L 375 303 L 377 303 L 377 301 L 379 301 Q 377.9 298.3 380.5 299 Q 381.9 294.3 387 295 L 387 293 L 389 293 L 389 291 L 391 291 L 391 289 L 393 289 L 393 287 L 395 287 L 395 285 L 397 285 L 397 283 L 399 283 L 399 281 L 401 281 L 401 279 L 403 279 L 403 277 L 405 277 L 405 275 L 407 275 Q 405.9 272.3 408.5 273 Q 409.9 268.3 415 269 L 415 267 L 417 267 L 417 265 L 419 265 L 419 263 L 421 263 L 421 261 L 423 261 L 423 259 L 425 259 L 427 255 L 423 255 L 423 257 L 421 257 L 421 259 L 419 259 L 419 261 L 417 261 L 417 263 L 415 263 Q 416.1 265.7 413.5 265 Q 412.1 269.8 407 269 L 407 271 L 405 271 L 405 273 L 403 273 L 403 275 L 401 275 Q 402.1 277.7 399.5 277 Q 398.1 281.8 393 281 L 393 283 L 391 283 L 391 285 L 389 285 L 389 287 L 387 287 L 387 289 L 385 289 Q 386.1 291.7 383.5 291 Q 382.1 295.8 377 295 L 377 297 L 375 297 L 375 299 L 373 299 L 373 301 L 371 301 L 371 303 L 369 303 L 369 305 L 367 305 L 367 307 L 365 307 L 365 309 L 363 309 L 363 311 L 361 311 L 361 313 L 359 313 L 359 315 L 357 315 L 357 317 L 355 317 L 355 319 L 353 319 L 353 321 L 351 321 L 351 323 L 349 323 Q 350.1 325.7 347.5 325 L 333.5 335 L 325.5 335 Q 324.8 337.8 320.5 337 Q 319.5 334 314.5 335 L 310.5 331 L 308.5 331 L 303 327 L 303 325 L 301 325 L 301 323 L 297 321 L 297 317 L 299 317 L 299 315 L 301 315 L 301 313 L 303 313 L 303 311 L 305 311 L 305 309 L 307 309 L 307 307 L 309 307 L 309 305 L 311 305 L 311 303 L 313 303 L 313 301 L 315 301 L 315 299 L 317 299 L 317 297 L 319 297 L 319 295 L 321 295 L 321 293 L 323 293 L 323 291 L 325 291 L 325 289 L 327 289 L 327 287 L 329 287 L 329 285 L 331 285 L 331 283 L 333 283 L 333 281 L 335 281 L 335 279 L 337 279 L 337 277 L 339 277 L 339 275 L 341 275 L 341 273 L 343 273 Q 341.9 270.3 344.5 271 Q 345.9 266.3 351 267 L 351 265 L 353 265 L 353 263 L 355 263 L 355 261 L 357 261 L 357 259 L 359 259 L 359 257 L 361 257 L 361 255 L 363 255 L 363 253 L 365 253 Q 363.9 250.3 366.5 251 Q 367.9 246.3 373 247 L 373 245 L 375 245 L 375 243 L 377 243 L 377 241 L 379 241 L 379 239 L 381 239 Q 379.9 236.3 382.5 237 Q 383.9 232.3 389 233 L 389 231 L 391 231 L 391 229 L 393 229 L 393 227 L 395 227 L 395 225 L 397 225 L 397 223 L 399 223 Q 397.9 220.3 400.5 221 Q 401.9 216.3 407 217 L 407 215 L 409 215 L 409 213 L 411 213 L 411 211 L 413 211 L 413 209 L 415 209 L 415 207 L 417 207 Q 415.9 204.3 418.5 205 Q 419.9 200.3 425 201 L 425 199 L 427 199 L 427 197 L 429 197 L 429 195 L 431 195 L 431 193 L 433 193 L 433 191 L 435 191 Q 433.9 188.3 436.5 189 Q 437.9 184.3 443 185 L 443 183 L 445 183 L 445 181 L 447 181 L 447 179 L 449 179 L 449 177 L 451 177 L 451 175 L 453 175 L 453 173 L 455 173 L 455 171 L 459 169 L 459 166.5 L 461 163 Q 464 164.3 463 160.5 L 467 153 Q 470.7 154.3 469 148.5 L 473 142.5 L 473 138.5 L 477 130.5 Q 475 122.5 479 120.5 L 479 108.5 L 481 105 L 486.5 101 Z M 486 103 L 487 105 Q 490 106 491 104 L 486 103 Z M 483 105 L 483 107 L 486 106 L 483 105 Z M 491 105 L 494 109 L 495 107 Q 492 108 493 105 L 491 105 Z M 481 109 L 481 118 L 483 117 L 483 110 L 481 109 Z M 495 109 Q 495 113 497 110 L 495 109 Z M 497 111 Q 497 115 499 112 L 497 111 Z M 499 113 Q 499 117 501 114 L 499 113 Z M 501 115 Q 501 119 503 116 L 501 115 Z M 503 117 Q 503 121 505 118 L 503 117 Z M 481 119 Q 480 122 483 121 Q 484 118 481 119 Z M 505 119 Q 505 123 507 120 L 505 119 Z M 507 121 Q 507 125 509 122 L 507 121 Z M 480 122 L 479 128 L 481 127 Q 482 123 480 122 Z M 509 123 Q 509 127 511 124 L 509 123 Z M 511 125 Q 511 129 513 126 L 511 125 Z M 513 127 Q 513 131 515 128 L 513 127 Z M 479 129 Q 478 132 481 131 Q 482 128 479 129 Z M 515 129 Q 515 133 517 130 L 515 129 Z M 517 131 Q 517 135 519 132 L 517 131 Z M 519 133 Q 519 137 521 134 L 519 133 Z M 477 135 Q 476 138 479 137 Q 480 134 477 135 Z M 521 135 Q 521 139 523 136 L 521 135 Z M 523 137 Q 523 141 525 138 L 523 137 Z M 525 139 Q 525 143 527 140 L 525 139 Z M 475 141 Q 474 144 477 143 Q 478 140 475 141 Z M 527 141 Q 527 145 529 142 L 527 141 Z M 529 143 Q 529 147 531 144 L 529 143 Z M 473 145 Q 472 148 475 147 Q 476 144 473 145 Z M 531 145 Q 531 149 533 146 L 531 145 Z M 533 147 Q 533 151 535 148 L 533 147 Z M 535 149 Q 535 153 537 150 L 535 149 Z M 471 151 L 469 155 L 473 153 Q 474 150 471 151 Z M 537 151 L 539 153 Q 540 150 537 151 Z M 539 155 L 539 157 L 543 159 L 541 155 L 539 155 Z M 467 157 Q 466 160 469 159 Q 470 156 467 157 Z M 465 161 L 463 165 L 467 163 Q 468 160 465 161 Z M 461 167 L 461 169 L 459 170 Q 461 173 463 169 Q 464 166 461 167 Z M 458 171 Q 458 175 460 172 L 458 171 Z M 456 173 Q 456 177 458 174 L 456 173 Z M 454 175 Q 454 179 456 176 L 454 175 Z M 452 177 Q 452 181 454 178 L 452 177 Z M 507 177 L 507 179 L 511 179 L 507 177 Z M 450 179 Q 450 183 452 180 L 450 179 Z M 503 179 L 503 181 L 507 181 L 503 179 Z M 448 181 Q 448 185 450 182 L 448 181 Z M 500 181 L 497 185 Q 500 186 499 183 L 503 183 L 500 181 Z M 446 183 Q 446 187 448 184 L 446 183 Z M 444 185 Q 444 189 446 186 L 444 185 Z M 494 185 L 491 189 Q 494 190 493 187 L 497 187 L 494 185 Z M 499 185 Q 498 188 501 187 Q 502 184 499 185 Z M 440 187 L 441 189 L 444 188 L 440 187 Z M 497 187 Q 496 190 499 189 Q 500 186 497 187 Z M 437 189 L 437 191 L 435 192 Q 437 195 439 191 Q 440 188 437 189 Z M 488 189 L 487 191 L 491 191 L 488 189 Z M 494 189 L 490 193 L 487 193 L 485 197 L 480 201 L 477 201 L 475 205 L 473 205 L 473 207 L 471 207 L 471 209 L 469 209 L 469 211 L 467 211 L 467 213 L 465 213 L 465 215 L 463 215 Q 464 218 461 220 Q 462 222 459 221 L 459 223 L 457 223 L 457 225 L 455 225 L 455 227 L 453 227 L 453 229 L 451 229 L 451 231 L 449 231 L 449 233 L 447 233 L 447 235 L 445 235 L 445 237 L 443 237 L 443 239 L 441 239 L 441 241 L 439 241 L 439 243 L 443 243 L 445 239 L 447 239 L 447 237 L 449 237 L 449 235 L 451 235 L 451 233 L 453 233 L 453 231 L 455 231 L 455 229 L 457 229 L 457 227 L 459 227 L 459 225 L 465 221 L 467 221 L 469 217 L 471 217 L 471 215 L 479 209 Q 478 206 481 207 L 481 205 L 483 205 L 483 203 L 485 203 L 485 201 L 487 201 L 487 199 L 489 199 L 489 197 L 491 197 L 491 195 L 493 195 L 493 193 L 495 193 L 495 191 L 497 191 Q 498 188 494 189 Z M 486 191 L 484 193 L 487 193 L 486 191 Z M 511 191 Q 510 194 513 193 Q 514 190 511 191 Z M 434 193 Q 434 197 436 194 L 434 193 Z M 484 193 L 481 197 L 483 197 Q 482 194 485 195 L 484 193 Z M 496 193 Q 496 197 498 194 L 496 193 Z M 432 195 Q 432 199 434 196 L 432 195 Z M 494 195 Q 494 199 496 196 L 494 195 Z M 430 197 Q 430 201 432 198 L 430 197 Z M 478 197 L 477 199 L 481 199 L 478 197 Z M 492 197 Q 492 201 494 198 L 492 197 Z M 513 197 Q 512 200 515 199 Q 516 196 513 197 Z M 428 199 Q 428 203 430 200 L 428 199 Z M 476 199 L 474 201 L 477 201 L 476 199 Z M 490 199 Q 490 203 492 200 L 490 199 Z M 426 201 Q 426 205 428 202 L 426 201 Z M 474 201 L 472 203 L 475 203 L 474 201 Z M 488 201 Q 488 205 490 202 L 488 201 Z M 422 203 L 423 205 L 426 204 L 422 203 Z M 472 203 L 470 205 L 473 205 L 472 203 Z M 486 203 Q 486 207 488 204 L 486 203 Z M 515 203 Q 514 206 517 205 Q 518 202 515 203 Z M 419 205 L 419 207 L 417 208 Q 419 211 421 207 Q 422 204 419 205 Z M 470 205 L 468 207 L 471 207 L 470 205 Z M 484 205 Q 484 209 486 206 L 484 205 Z M 519 206 L 517 208 L 517 225 L 519 226 L 519 206 Z M 468 207 L 466 209 L 469 209 L 468 207 Z M 481 207 L 481 209 L 484 208 L 481 207 Z M 416 209 Q 416 213 418 210 L 416 209 Z M 466 209 L 464 211 L 467 211 L 466 209 Z M 414 211 Q 414 215 416 212 L 414 211 Z M 464 211 L 462 213 L 465 213 L 464 211 Z M 479 211 Q 480 214 476 213 L 477 215 Q 480 216 481 213 Q 482 210 479 211 Z M 412 213 Q 412 217 414 214 L 412 213 Z M 462 213 L 459 217 L 461 217 Q 460 214 463 215 L 462 213 Z M 410 215 Q 410 219 412 216 L 410 215 Z M 473 215 L 473 217 L 471 218 Q 473 221 475 217 Q 476 214 473 215 Z M 408 217 Q 408 221 410 218 L 408 217 Z M 404 219 L 405 221 L 408 220 L 404 219 Z M 458 219 L 456 221 L 459 221 Q 460 218 458 219 Z M 470 219 Q 470 223 472 220 L 470 219 Z M 401 221 L 401 223 L 399 224 Q 401 227 403 223 Q 404 220 401 221 Z M 456 221 L 454 223 L 457 223 L 456 221 Z M 468 221 Q 468 225 470 222 L 468 221 Z M 454 223 L 452 225 L 455 225 L 454 223 Z M 464 223 L 465 225 L 468 224 L 464 223 Z M 398 225 Q 398 229 400 226 L 398 225 Z M 452 225 L 450 227 L 453 227 L 452 225 Z M 461 225 L 461 227 L 459 228 Q 461 231 463 227 Q 464 224 461 225 Z M 396 227 Q 396 231 398 228 L 396 227 Z M 450 227 L 448 229 L 451 229 L 450 227 Z M 515 227 Q 514 230 517 229 Q 518 226 515 227 Z M 394 229 Q 394 233 396 230 L 394 229 Z M 448 229 L 446 231 L 449 231 L 448 229 Z M 458 229 Q 458 233 460 230 L 458 229 Z M 392 231 Q 392 235 394 232 L 392 231 Z M 446 231 L 444 233 L 447 233 L 446 231 Z M 456 231 Q 456 235 458 232 L 456 231 Z M 513 231 Q 512 234 515 233 Q 516 230 513 231 Z M 390 233 Q 390 237 392 234 L 390 233 Z M 444 233 L 442 235 L 445 235 L 444 233 Z M 454 233 Q 454 237 456 234 L 454 233 Z M 386 235 L 387 237 L 390 236 L 386 235 Z M 442 235 L 440 237 L 443 237 L 442 235 Z M 452 235 Q 452 239 454 236 L 452 235 Z M 511 235 Q 510 238 513 237 Q 514 234 511 235 Z M 383 237 L 383 239 L 381 240 Q 383 243 385 239 Q 386 236 383 237 Z M 440 237 L 438 239 L 441 239 L 440 237 Z M 450 237 Q 450 241 452 238 L 450 237 Z M 438 239 L 436 241 L 439 241 L 438 239 Z M 448 239 Q 448 243 450 240 L 448 239 Z M 509 239 Q 508 242 511 241 Q 512 238 509 239 Z M 380 241 Q 380 245 382 242 L 380 241 Z M 436 241 L 434 243 L 437 243 L 436 241 Z M 446 241 Q 446 245 448 242 L 446 241 Z M 378 243 Q 378 247 380 244 L 378 243 Z M 434 243 L 432 245 L 435 245 L 434 243 Z M 437 243 Q 436 246 439 245 Q 440 242 437 243 Z M 444 243 Q 444 247 446 244 L 444 243 Z M 508 243 L 506 245 L 509 245 Q 510 242 508 243 Z M 376 245 Q 376 249 378 246 L 376 245 Z M 432 245 L 430 247 L 433 247 L 432 245 Z M 435 245 Q 434 248 437 247 Q 438 244 435 245 Z M 440 245 L 441 247 L 444 246 L 440 245 Z M 506 245 L 504 247 L 507 247 L 506 245 Z M 374 247 Q 374 251 376 248 L 374 247 Z M 430 247 L 427 251 L 429 251 Q 428 248 431 249 L 430 247 Z M 433 247 Q 432 250 435 249 Q 436 246 433 247 Z M 437 247 L 437 249 L 435 250 Q 437 253 439 249 Q 440 246 437 247 Z M 504 247 L 502 249 L 505 249 L 504 247 Z M 370 249 L 371 251 L 374 250 L 370 249 Z M 431 249 Q 430 252 433 251 Q 434 248 431 249 Z M 502 249 L 500 251 L 503 251 L 502 249 Z M 367 251 L 367 253 L 365 254 Q 367 257 369 253 Q 370 250 367 251 Z M 424 251 L 423 253 L 427 253 L 424 251 Z M 429 251 Q 428 254 431 253 Q 432 250 429 251 Z M 434 251 Q 434 255 436 252 L 434 251 Z M 500 251 L 498 253 L 501 253 L 500 251 Z M 422 253 L 420 255 L 423 255 L 422 253 Z M 427 253 Q 426 256 429 255 Q 430 252 427 253 Z M 432 253 Q 432 257 434 254 L 432 253 Z M 498 253 L 496 255 L 499 255 L 498 253 Z M 364 255 Q 364 259 366 256 L 364 255 Z M 420 255 L 418 257 L 421 257 L 420 255 Z M 430 255 Q 430 259 432 256 L 430 255 Z M 496 255 L 494 257 L 497 257 L 496 255 Z M 362 257 Q 362 261 364 258 L 362 257 Z M 418 257 L 416 259 L 419 259 L 418 257 Z M 428 257 Q 428 261 430 258 L 428 257 Z M 494 257 L 492 259 L 495 259 L 494 257 Z M 360 259 Q 360 263 362 260 L 360 259 Z M 416 259 L 414 261 L 417 261 L 416 259 Z M 426 259 Q 426 263 428 260 L 426 259 Z M 492 259 L 490 261 L 493 261 L 492 259 Z M 358 261 Q 358 265 360 262 L 358 261 Z M 414 261 L 411 265 L 413 265 Q 412 262 415 263 L 414 261 Z M 424 261 Q 424 265 426 262 L 424 261 Z M 490 261 L 488 263 L 491 263 L 490 261 Z M 356 263 Q 356 267 358 264 L 356 263 Z M 422 263 Q 422 267 424 264 L 422 263 Z M 488 263 L 485 267 L 487 267 Q 486 264 489 265 L 488 263 Z M 354 265 Q 354 269 356 266 L 354 265 Z M 408 265 L 407 267 L 411 267 L 408 265 Z M 420 265 Q 420 269 422 266 L 420 265 Z M 352 267 Q 352 271 354 268 L 352 267 Z M 406 267 L 404 269 L 407 269 L 406 267 Z M 418 267 Q 418 271 420 268 L 418 267 Z M 482 267 L 481 269 L 485 269 L 482 267 Z M 348 269 L 349 271 L 352 270 L 348 269 Z M 404 269 L 402 271 L 405 271 L 404 269 Z M 416 269 Q 416 273 418 270 L 416 269 Z M 480 269 L 478 271 L 481 271 L 480 269 Z M 345 271 L 345 273 L 343 274 Q 345 277 347 273 Q 348 270 345 271 Z M 402 271 L 400 273 L 403 273 L 402 271 Z M 412 271 L 413 273 L 416 272 L 412 271 Z M 478 271 L 476 273 L 479 273 L 478 271 Z M 400 273 L 397 277 L 399 277 Q 398 274 401 275 L 400 273 Z M 409 273 L 409 275 L 407 276 Q 409 279 411 275 Q 412 272 409 273 Z M 476 273 L 474 275 L 477 275 L 476 273 Z M 342 275 Q 342 279 344 276 L 342 275 Z M 474 275 L 472 277 L 475 277 L 474 275 Z M 340 277 Q 340 281 342 278 L 340 277 Z M 394 277 L 393 279 L 397 279 L 394 277 Z M 406 277 Q 406 281 408 278 L 406 277 Z M 472 277 L 470 279 L 473 279 L 472 277 Z M 338 279 Q 338 283 340 280 L 338 279 Z M 392 279 L 390 281 L 393 281 L 392 279 Z M 404 279 Q 404 283 406 280 L 404 279 Z M 470 279 L 467 283 L 469 283 Q 468 280 471 281 L 470 279 Z M 336 281 Q 336 285 338 282 L 336 281 Z M 390 281 L 388 283 L 391 283 L 390 281 Z M 402 281 Q 402 285 404 282 L 402 281 Z M 334 283 Q 334 287 336 284 L 334 283 Z M 388 283 L 386 285 L 389 285 L 388 283 Z M 400 283 Q 400 287 402 284 L 400 283 Z M 464 283 L 463 285 L 467 285 L 464 283 Z M 332 285 Q 332 289 334 286 L 332 285 Z M 386 285 L 384 287 L 387 287 L 386 285 Z M 398 285 Q 398 289 400 286 L 398 285 Z M 462 285 L 460 287 L 463 287 L 462 285 Z M 330 287 Q 330 291 332 288 L 330 287 Z M 384 287 L 381 291 L 383 291 Q 382 288 385 289 L 384 287 Z M 396 287 Q 396 291 398 288 L 396 287 Z M 460 287 L 458 289 L 461 289 L 460 287 Z M 328 289 Q 328 293 330 290 L 328 289 Z M 394 289 Q 394 293 396 290 L 394 289 Z M 458 289 L 456 291 L 459 291 L 458 289 Z M 326 291 Q 326 295 328 292 L 326 291 Z M 378 291 L 377 293 L 381 293 L 378 291 Z M 392 291 Q 392 295 394 292 L 392 291 Z M 456 291 L 454 293 L 457 293 L 456 291 Z M 324 293 Q 324 297 326 294 L 324 293 Z M 376 293 L 374 295 L 377 295 L 376 293 Z M 390 293 Q 390 297 392 294 L 390 293 Z M 454 293 L 452 295 L 455 295 L 454 293 Z M 322 295 Q 322 299 324 296 L 322 295 Z M 374 295 L 372 297 L 375 297 L 374 295 Z M 388 295 Q 388 299 390 296 L 388 295 Z M 452 295 L 450 297 L 453 297 L 452 295 Z M 320 297 Q 320 301 322 298 L 320 297 Z M 372 297 L 370 299 L 373 299 L 372 297 Z M 384 297 L 385 299 L 388 298 L 384 297 Z M 450 297 L 448 299 L 451 299 L 450 297 Z M 318 299 Q 318 303 320 300 L 318 299 Z M 370 299 L 368 301 L 371 301 L 370 299 Z M 381 299 L 381 301 L 379 302 Q 381 305 383 301 Q 384 298 381 299 Z M 448 299 L 446 301 L 449 301 L 448 299 Z M 316 301 Q 316 305 318 302 L 316 301 Z M 368 301 L 366 303 L 369 303 L 368 301 Z M 446 301 L 444 303 L 447 303 L 446 301 Z M 314 303 Q 314 307 316 304 L 314 303 Z M 366 303 L 364 305 L 367 305 L 366 303 Z M 378 303 Q 378 307 380 304 L 378 303 Z M 444 303 L 441 307 L 443 307 Q 442 304 445 305 L 444 303 Z M 312 305 Q 312 309 314 306 L 312 305 Z M 364 305 L 362 307 L 365 307 L 364 305 Z M 376 305 Q 376 309 378 306 L 376 305 Z M 310 307 Q 310 311 312 308 L 310 307 Z M 362 307 L 360 309 L 363 309 L 362 307 Z M 374 307 Q 374 311 376 308 L 374 307 Z M 438 307 L 437 309 L 441 309 L 438 307 Z M 308 309 Q 308 313 310 310 L 308 309 Z M 360 309 L 358 311 L 361 311 L 360 309 Z M 372 309 Q 372 313 374 310 L 372 309 Z M 436 309 L 434 311 L 437 311 L 436 309 Z M 306 311 Q 306 315 308 312 L 306 311 Z M 358 311 L 356 313 L 359 313 L 358 311 Z M 370 311 Q 370 315 372 312 L 370 311 Z M 434 311 L 432 313 L 435 313 L 434 311 Z M 304 313 Q 304 317 306 314 L 304 313 Z M 356 313 L 354 315 L 357 315 L 356 313 Z M 368 313 Q 368 317 370 314 L 368 313 Z M 432 313 L 430 315 L 433 315 L 432 313 Z M 301 315 L 301 317 L 304 316 L 301 315 Z M 354 315 L 352 317 L 355 317 L 354 315 Z M 366 315 Q 366 319 368 316 L 366 315 Z M 430 315 L 428 317 L 431 317 L 430 315 Z M 352 317 L 350 319 L 353 319 L 352 317 Z M 364 317 Q 364 321 366 318 L 364 317 Z M 428 317 L 426 319 L 429 319 L 428 317 Z M 350 319 L 348 321 L 351 321 L 350 319 Z M 362 319 Q 362 323 364 320 L 362 319 Z M 426 319 L 424 321 L 427 321 L 426 319 Z M 301 321 L 301 323 L 304 323 L 301 321 Z M 348 321 L 345 325 L 347 325 Q 346 322 349 323 L 348 321 Z M 358 321 L 359 323 L 362 322 L 358 321 Z M 424 321 L 422 323 L 425 323 L 424 321 Z M 305 323 L 304 325 Q 306 324 305 327 L 307 327 L 305 323 Z M 355 323 L 355 325 L 353 326 Q 355 329 357 325 Q 358 322 355 323 Z M 422 323 L 420 325 L 423 325 L 422 323 Z M 342 325 L 339 329 Q 342 330 341 327 L 345 327 L 342 325 Z M 420 325 L 418 327 L 421 327 L 420 325 Z M 309 327 L 308 329 L 311 329 L 313 333 L 320 333 Q 319 330 315 331 L 311 327 L 309 327 Z M 352 327 Q 352 331 354 328 L 352 327 Z M 418 327 L 415 331 L 417 331 Q 416 328 419 329 L 418 327 Z M 283 329 Q 282 333 287 331 Q 288 327 283 329 Z M 336 329 Q 334 333 326 331 L 325 333 L 335 333 L 335 331 L 339 331 L 336 329 Z M 350 329 Q 350 333 352 330 L 350 329 Z M 277 331 Q 278 334 274 333 L 275 335 L 279 333 L 283 333 L 283 331 L 277 331 Z M 287 331 L 290 335 L 291 333 Q 288 334 289 331 L 287 331 Z M 348 331 Q 348 335 350 332 L 348 331 Z M 412 331 L 411 333 L 415 333 L 412 331 Z M 321 333 L 320 335 L 325 335 Q 324 332 321 333 Z M 346 333 Q 346 337 348 334 L 346 333 Z M 410 333 L 408 335 L 411 335 L 410 333 Z M 271 335 Q 272 338 268 337 L 269 339 Q 273 339 273 337 Q 274 334 271 335 Z M 291 335 Q 291 339 293 336 L 291 335 Z M 344 335 Q 344 339 346 336 L 344 335 Z M 408 335 L 406 337 L 409 337 L 408 335 Z M 293 337 Q 293 341 295 338 L 293 337 Z M 342 337 Q 342 341 344 338 L 342 337 Z M 406 337 L 404 339 L 407 339 L 406 337 Z M 265 339 L 265 341 L 263 342 Q 265 345 267 341 Q 268 338 265 339 Z M 295 339 Q 295 343 297 340 L 295 339 Z M 340 339 Q 340 343 342 340 L 340 339 Z M 404 339 L 402 341 L 405 341 L 404 339 Z M 297 341 L 298 343 L 301 342 L 297 341 Z M 338 341 Q 338 345 340 342 L 338 341 Z M 402 341 L 400 343 L 403 343 L 402 341 Z M 262 343 Q 262 347 264 344 L 262 343 Z M 301 343 L 304 347 L 305 345 Q 302 346 303 343 L 301 343 Z M 336 343 Q 336 347 338 344 L 336 343 Z M 400 343 L 398 345 L 401 345 L 400 343 Z M 258 345 L 259 347 L 262 346 L 258 345 Z M 332 345 L 333 347 L 336 346 L 332 345 Z M 398 345 L 396 347 L 399 347 L 398 345 Z M 255 347 L 255 349 L 253 350 Q 255 353 257 349 Q 258 346 255 347 Z M 305 347 Q 305 351 307 348 L 305 347 Z M 329 347 L 329 349 L 324 349 Q 325 352 320 351 L 321 353 L 325 351 L 329 351 L 331 349 Q 332 346 329 347 Z M 396 347 L 394 349 L 397 349 L 396 347 Z M 307 349 Q 307 353 309 350 L 307 349 Z M 394 349 L 392 351 L 395 351 L 394 349 Z M 163 351 L 166 355 L 167 353 Q 164 354 165 351 L 163 351 Z M 252 351 Q 252 355 254 352 L 252 351 Z M 309 351 L 310 353 L 313 352 L 309 351 Z M 392 351 L 390 353 L 393 353 L 392 351 Z M 250 353 Q 250 357 252 354 L 250 353 Z M 313 353 L 313 355 L 319 355 L 319 353 L 313 353 Z M 390 353 L 387 357 L 389 357 Q 388 354 391 355 L 390 353 Z M 167 355 Q 167 359 169 356 L 167 355 Z M 248 355 Q 248 359 250 356 L 248 355 Z M 169 357 Q 169 361 171 358 L 169 357 Z M 246 357 Q 246 361 248 358 L 246 357 Z M 384 357 L 383 359 L 387 359 L 384 357 Z M 171 359 Q 171 363 173 360 L 171 359 Z M 244 359 Q 244 363 246 360 L 244 359 Z M 382 359 L 380 361 L 383 361 L 382 359 Z M 173 361 L 174 363 L 177 362 L 173 361 Z M 215 361 Q 214 364 217 363 Q 218 360 215 361 Z M 242 361 Q 242 365 244 362 L 242 361 Z M 380 361 L 378 363 L 381 363 L 380 361 Z M 240 363 Q 240 367 242 364 L 240 363 Z M 378 363 L 376 365 L 379 365 L 378 363 Z M 219 364 L 217 366 L 217 373 L 219 373 L 219 364 Z M 238 365 Q 238 369 240 366 L 238 365 Z M 376 365 L 374 367 L 377 367 L 376 365 Z M 147 367 Q 146 370 149 369 Q 150 366 147 367 Z M 236 367 Q 236 371 238 368 L 236 367 Z M 374 367 L 372 369 L 375 369 L 374 367 Z M 234 369 Q 234 373 236 370 L 234 369 Z M 372 369 L 370 371 L 373 371 L 372 369 Z M 149 371 L 151 375 Q 154 376 153 374 L 149 371 Z M 232 371 Q 232 375 234 372 L 232 371 Z M 370 371 L 368 373 L 371 373 L 370 371 Z M 230 373 Q 230 377 232 374 L 230 373 Z M 368 373 L 366 375 L 369 375 L 368 373 Z M 155 375 L 154 377 Q 158 376 157 379 Q 160 380 159 378 Q 159 374 155 375 Z M 215 375 Q 214 378 217 377 Q 218 374 215 375 Z M 228 375 Q 228 379 230 376 L 228 375 Z M 366 375 L 364 377 L 367 377 L 366 375 Z M 211 377 L 211 379 L 215 379 L 211 377 Z M 226 377 Q 226 381 228 378 L 226 377 Z M 364 377 L 361 381 L 363 381 Q 362 378 365 379 L 364 377 Z M 161 379 L 160 381 L 164 381 L 161 379 Z M 208 379 L 206 381 Q 200 379 201 383 L 207 383 L 207 381 L 211 381 L 208 379 Z M 224 379 Q 224 383 226 380 L 224 379 Z M 165 381 L 164 383 Q 166 382 165 385 L 167 385 L 165 381 Z M 222 381 Q 222 385 224 382 L 222 381 Z M 358 381 L 357 383 L 361 383 L 358 381 Z M 197 383 L 197 385 L 201 385 L 197 383 Z M 220 383 Q 220 387 222 384 L 220 383 Z M 356 383 L 354 385 L 357 385 L 356 383 Z M 193 385 L 193 387 L 196 386 L 193 385 Z M 218 385 Q 218 389 220 386 L 218 385 Z M 354 385 L 352 387 L 355 387 L 354 385 Z M 167 387 Q 166 390 169 389 Q 170 386 167 387 Z M 195 387 L 195 389 L 199 388 L 195 387 Z M 216 387 Q 216 391 218 388 L 216 387 Z M 352 387 L 350 389 L 353 389 L 352 387 Z M 199 389 L 199 391 L 203 390 L 199 389 Z M 212 389 L 213 391 L 216 390 L 212 389 Z M 350 389 L 348 391 L 351 391 L 350 389 Z M 169 391 L 171 395 Q 174 396 173 394 L 169 391 Z M 203 391 L 204 393 L 211 393 L 211 391 L 203 391 Z M 348 391 L 346 393 L 349 393 L 348 391 Z M 346 393 L 344 395 L 347 395 L 346 393 Z M 344 395 L 342 397 L 345 397 L 344 395 Z M 173 397 L 173 399 L 176 399 L 173 397 Z M 342 397 L 340 399 L 343 399 L 342 397 Z M 177 399 L 175 401 L 178 401 L 177 399 Z M 340 399 L 337 403 L 339 403 Q 338 400 341 401 L 340 399 Z M 179 401 L 177 403 L 180 403 L 179 401 Z M 181 403 L 180 405 Q 182 404 181 407 L 183 407 L 181 403 Z M 334 403 L 333 405 L 337 405 L 334 403 Z M 332 405 L 330 407 L 333 407 L 332 405 Z M 185 407 L 184 409 L 187 409 L 189 413 L 195 413 L 195 415 L 211 415 L 212 413 L 221 413 L 220 411 Q 211 409 210 413 L 197 413 L 185 407 Z M 229 407 L 229 409 L 232 408 L 229 407 Z M 330 407 L 328 409 L 331 409 L 330 407 Z M 222 409 L 220 411 L 229 411 L 229 409 L 222 409 Z M 328 409 L 326 411 L 329 411 L 328 409 Z M 326 411 L 324 413 L 327 413 L 326 411 Z M 224 413 Q 224 417 226 414 L 224 413 Z M 324 413 L 322 415 L 325 415 L 324 413 Z M 212 415 L 211 417 Q 215 418 216 416 L 212 415 Z M 220 415 L 221 417 L 224 416 L 220 415 Z M 322 415 L 320 417 L 323 417 L 322 415 Z M 216 417 Q 215 420 219 419 Q 220 416 216 417 Z M 320 417 L 317 421 L 319 421 Q 318 418 321 419 L 320 417 Z M 317 423 Q 316 426 319 425 Q 320 422 317 423 Z M 321 426 Q 318 427 319 433 L 321 434 L 321 426 Z M 319 435 Q 318 438 321 437 Q 322 434 319 435 Z M 295 437 L 295 439 L 301 439 L 301 437 L 295 437 Z M 323 438 Q 319 440 321 447 L 323 448 L 323 438 Z M 294 441 L 292 443 L 295 443 Q 296 440 294 441 Z M 299 441 L 299 448 L 301 447 Q 303 440 299 441 Z M 207 443 Q 206 446 209 445 Q 210 442 207 443 Z M 292 443 L 290 445 L 293 445 L 292 443 Z M 295 443 L 293 447 L 291 447 L 291 449 L 289 449 L 289 451 L 287 451 L 287 453 L 285 453 L 285 455 L 283 455 L 283 457 L 281 457 L 281 459 L 279 459 L 279 461 L 277 461 L 277 463 L 275 463 L 274 467 L 288 467 L 289 469 L 271 469 L 271 468 L 269 467 L 270 471 L 290 471 L 292 471 L 295 476 L 297 475 Q 296 472 299 471 L 299 465 L 301 463 Q 302 458 299 458 L 299 450 L 297 448 Q 299 442 295 443 Z M 290 445 L 288 447 L 291 447 L 290 445 Z M 206 446 L 205 452 L 207 451 Q 208 447 206 446 Z M 288 447 L 286 449 L 289 449 L 288 447 Z M 286 449 L 284 451 L 287 451 L 286 449 Z M 301 449 Q 300 452 303 451 Q 304 448 301 449 Z M 321 449 Q 320 452 323 451 Q 324 448 321 449 Z M 284 451 L 282 453 L 285 453 L 284 451 Z M 302 452 L 301 458 L 303 457 Q 304 453 302 452 Z M 325 452 L 323 454 L 323 469 L 325 470 L 325 452 Z M 205 453 Q 204 456 207 455 Q 208 452 205 453 Z M 282 453 L 280 455 L 283 455 L 282 453 Z M 280 455 L 278 457 L 281 457 L 280 455 Z M 278 457 L 276 459 L 279 459 L 278 457 Z M 203 459 Q 202 462 205 461 Q 206 458 203 459 Z M 276 459 L 274 461 L 277 461 L 276 459 Z M 303 459 Q 301 464 305 463 Q 307 458 303 459 Z M 274 461 L 271 465 L 273 465 Q 272 462 275 463 L 274 461 Z M 201 463 Q 200 466 203 465 Q 204 462 201 463 Z M 302 464 L 301 468 L 303 467 L 302 464 Z M 199 467 Q 198 470 201 469 Q 202 466 199 467 Z M 301 469 Q 300 472 303 471 Q 304 468 301 469 Z M 197 471 L 195 475 L 199 473 Q 200 470 197 471 Z M 321 471 Q 320 474 323 473 Q 324 470 321 471 Z M 289 473 Q 288 476 291 475 Q 292 472 289 473 Z M 299 473 L 299 475 L 297 476 Q 299 479 301 475 Q 302 472 299 473 Z M 319 475 Q 318 478 321 477 Q 322 474 319 475 Z M 193 477 L 191 481 L 195 479 Q 196 476 193 477 Z M 295 477 L 295 479 L 298 478 L 295 477 Z M 321 478 L 319 481 L 321 482 L 321 478 Z M 289 479 Q 288 482 291 481 Q 292 478 289 479 Z M 293 481 L 291 485 L 288 485 L 288 487 L 291 487 L 295 483 Q 296 480 293 481 Z M 189 483 L 189 485 L 187 486 Q 189 489 191 485 Q 192 482 189 483 Z M 288 483 L 287 485 L 289 484 L 288 483 Z M 317 483 Q 316 486 319 485 Q 320 482 317 483 Z M 272 485 L 270 487 Q 264 485 265 489 L 271 489 L 272 487 L 286 487 L 286 485 L 272 485 Z M 186 487 Q 186 491 188 488 L 186 487 Z M 315 487 Q 314 490 317 489 Q 318 486 315 487 Z M 183 489 L 183 491 L 186 490 L 183 489 Z M 272 489 L 269 492 L 272 495 L 277 493 L 280 490 L 272 489 Z M 284 489 Q 284 493 286 490 L 284 489 Z M 265 491 Q 264 494 267 493 Q 268 490 265 491 Z M 280 491 L 281 493 L 284 492 L 280 491 Z M 314 491 L 312 493 L 315 493 Q 316 490 314 491 Z M 181 493 L 181 495 L 179 496 Q 181 499 183 495 Q 184 492 181 493 Z M 277 493 Q 278 496 274 495 L 275 497 Q 278 497 279 495 Q 280 492 277 493 Z M 312 493 L 310 495 L 313 495 L 312 493 Z M 269 494 L 267 496 Q 266 498 269 497 L 269 494 Z M 310 495 L 307 499 L 309 499 Q 308 496 311 497 L 310 495 Z M 178 497 Q 178 501 180 498 L 178 497 Z M 270 497 Q 269 500 273 499 Q 274 496 270 497 Z M 176 499 Q 176 503 178 500 L 176 499 Z M 267 499 Q 266 502 269 501 Q 270 498 267 499 Z M 304 499 L 303 501 L 307 501 L 304 499 Z M 174 501 Q 174 505 176 502 L 174 501 Z M 302 501 L 299 505 L 301 505 Q 300 502 303 503 L 302 501 Z M 171 503 L 171 505 L 174 504 L 171 503 Z M 296 505 L 293 509 Q 296 510 295 507 L 299 507 L 296 505 Z M 169 507 Q 170 510 166 509 L 167 511 Q 171 512 171 509 Q 172 506 169 507 Z M 290 509 L 289 511 L 293 511 L 290 509 Z M 163 511 L 163 513 L 161 514 Q 163 517 165 513 Q 166 510 163 511 Z M 288 511 L 285 515 L 287 515 Q 286 512 289 513 L 288 511 Z M 160 515 Q 160 519 162 516 L 160 515 Z M 282 515 L 281 517 L 285 517 L 282 515 Z M 158 517 Q 158 521 160 518 L 158 517 Z M 280 517 L 278 519 L 281 519 L 280 517 Z M 156 519 Q 156 523 158 520 L 156 519 Z M 278 519 L 275 523 L 277 523 Q 276 520 279 521 L 278 519 Z M 154 521 Q 154 525 156 522 L 154 521 Z M 152 523 Q 152 527 154 524 L 152 523 Z M 272 523 L 269 527 Q 272 528 271 525 L 275 525 L 272 523 Z M 150 525 Q 150 529 152 526 L 150 525 Z M 148 527 Q 148 531 150 528 L 148 527 Z M 271 528 L 269 531 L 271 532 L 271 528 Z M 146 529 Q 146 533 148 530 L 146 529 Z M 144 531 Q 144 535 146 532 L 144 531 Z M 142 533 Q 142 537 144 534 L 142 533 Z M 267 533 Q 266 536 269 535 Q 270 532 267 533 Z M 139 535 L 139 537 L 142 536 L 139 535 Z M 269 536 Q 266 537 267 543 L 269 544 L 269 536 Z M 137 539 Q 136 542 139 541 Q 140 538 137 539 Z M 135 543 Q 134 546 137 545 Q 138 542 135 543 Z M 265 545 Q 264 548 267 547 Q 268 544 265 545 Z M 135 549 Q 134 552 137 551 Q 138 548 135 549 Z M 263 551 Q 262 554 265 553 Q 266 550 263 551 Z M 137 555 Q 136 558 139 557 Q 140 554 137 555 Z M 261 557 Q 260 560 263 559 Q 264 556 261 557 Z M 139 559 L 139 561 L 142 561 L 139 559 Z M 143 561 L 141 563 L 144 563 L 143 561 Z M 259 561 Q 258 564 261 563 Q 262 560 259 561 Z M 145 563 L 143 565 L 146 565 L 145 563 Z M 147 565 L 146 567 Q 148 566 147 569 L 149 569 L 147 565 Z M 257 565 Q 256 568 259 567 Q 260 564 257 565 Z M 151 569 L 150 571 Q 154 570 153 573 Q 156 574 155 572 Q 155 569 151 569 Z M 256 569 L 253 573 L 257 571 Q 258 568 256 569 Z M 157 573 L 155 575 L 159 575 Q 160 572 157 573 Z M 161 575 L 160 577 Q 164 576 163 579 Q 166 580 165 578 Q 165 575 161 575 Z M 252 575 L 250 577 L 253 577 Q 254 574 252 575 Z M 250 577 L 247 581 L 249 581 Q 248 578 251 579 L 250 577 Z M 167 579 L 166 581 Q 170 580 169 583 Q 172 584 171 582 Q 171 578 167 579 Z M 173 583 L 172 585 L 176 585 L 173 583 Z M 246 583 L 244 585 L 247 585 Q 248 582 246 583 Z M 177 585 L 175 587 L 178 587 L 177 585 Z M 244 585 L 242 587 L 245 587 L 244 585 Z M 179 587 L 178 589 Q 180 588 179 591 L 181 591 L 179 587 Z M 242 587 L 240 589 L 243 589 L 242 587 Z M 240 589 L 238 591 L 241 591 L 240 589 Z M 183 591 L 182 593 L 186 593 L 183 591 Z M 238 591 L 236 593 L 239 593 L 238 591 Z M 187 593 L 185 595 L 188 595 L 187 593 Z M 236 593 L 234 595 L 237 595 L 236 593 Z M 189 595 L 188 597 Q 190 596 189 599 L 191 599 L 189 595 Z M 234 595 L 232 597 L 235 597 L 234 595 Z M 232 597 L 229 601 L 231 601 Q 230 598 233 599 L 232 597 Z M 193 599 L 192 601 Q 196 600 195 603 Q 198 604 197 602 Q 197 599 193 599 Z M 226 601 L 225 603 L 229 603 L 226 601 Z M 199 603 L 198 605 Q 203 604 202 607 L 207 607 L 207 609 L 214 609 L 213 607 L 209 607 L 207 605 L 203 605 L 199 603 Z M 224 603 L 222 605 L 225 605 L 224 603 Z M 222 605 L 219 609 L 221 609 Q 220 606 223 607 L 222 605 Z M 215 609 L 214 611 L 219 611 Q 218 608 215 609 Z "/>
  <path fill="rgb(255,255,255)" stroke="rgb(255,255,255)" stroke-width="1" opacity="0.8470588235294118" d="M 86.5 117 Q 90.3 116 89 119 L 87 119 L 87 121 L 85 121 L 85 123 L 83 123 Q 84.1 125.7 81.5 125 L 80.5 123 L 83 122.5 L 82.5 121 L 85 120.5 L 84.5 119 L 87 118.5 L 86.5 117 Z "/>
  <path fill="rgb(255,255,255)" stroke="rgb(255,255,255)" stroke-width="1" opacity="0.8470588235294118" d="M 595 121 L 598 121.5 L 597.5 123 L 600 123.5 L 599.5 125 L 602 125.5 L 599 127 L 599 125 L 597 125 L 595 121 Z "/>
  <path fill="rgb(255,255,255)" stroke="rgb(255,255,255)" stroke-width="1" opacity="0.8470588235294118" d="M 74.5 131 Q 78.3 130 77 133 L 75 133 Q 76.1 135.7 73.5 135 L 72.5 133 L 75 132.5 L 74.5 131 Z "/>
  <path fill="rgb(255,255,255)" stroke="rgb(255,255,255)" stroke-width="1" opacity="0.8470588235294118" d="M 605 133 L 608 133.5 L 607.5 135 L 610 135.5 L 607 137 L 605 133 Z "/>
  <path fill="rgb(255,255,255)" stroke="rgb(255,255,255)" stroke-width="1" opacity="0.8470588235294118" d="M 62.5 147 Q 66.3 146 65 149 L 62.5 147 Z "/>
  <path fill="rgb(255,255,255)" stroke="rgb(255,255,255)" stroke-width="1" opacity="0.8470588235294118" d="M 617 149 L 620 149.5 L 617 151 L 617 149 Z "/>
  <path fill="rgb(255,255,255)" stroke="rgb(255,255,255)" stroke-width="1" opacity="0.8470588235294118" d="M 677.5 311 Q 681.3 310 680 313 L 677.5 311 Z "/>
  <path fill="rgb(255,255,255)" stroke="rgb(255,255,255)" stroke-width="1" opacity="0.8470588235294118" d="M 0 315 L 3 315.5 L 0 317 L 0 315 Z "/>
  <path fill="rgb(255,255,255)" stroke="rgb(255,255,255)" stroke-width="1" opacity="0.8470588235294118" d="M 0 363 L 3 364.5 L 0 365 L 0 363 Z "/>
  <path fill="rgb(255,255,255)" stroke="rgb(255,255,255)" stroke-width="1" opacity="0.8470588235294118" d="M 678.5 369 Q 681.1 368.3 680 371 L 677 370.5 L 678.5 369 Z "/>
  <path fill="rgb(255,255,255)" stroke="rgb(255,255,255)" stroke-width="1" opacity="0.8470588235294118" d="M 61.5 529 Q 64.1 528.3 63 531 L 60 530.5 L 61.5 529 Z "/>
  <path fill="rgb(255,255,255)" stroke="rgb(255,255,255)" stroke-width="1" opacity="0.8470588235294118" d="M 609 541 L 612 542.5 L 609 543 L 609 541 Z "/>
  <path fill="rgb(255,255,255)" stroke="rgb(255,255,255)" stroke-width="1" opacity="0.8470588235294118" d="M 71.5 543 Q 74.1 542.3 73 545 L 70 544.5 L 71.5 543 Z "/>
  <path fill="rgb(255,255,255)" stroke="rgb(255,255,255)" stroke-width="1" opacity="0.8470588235294118" d="M 603 549 L 606 550.5 L 603 551.5 L 603.5 553 L 601 553.5 L 601.5 555 Q 597.8 556 599 553 L 601 553 L 603 549 Z "/>
  <path fill="rgb(255,255,255)" stroke="rgb(255,255,255)" stroke-width="1" opacity="0.8470588235294118" d="M 77.5 551 Q 80.1 550.3 79 553 L 81 553 L 81 555 L 83 555 L 83 557 L 80 556.5 L 80.5 555 L 78 554.5 L 78.5 553 L 76 552.5 L 77.5 551 Z "/>
  <path fill="rgb(255,255,255)" stroke="rgb(255,255,255)" stroke-width="1" opacity="0.8470588235294118" d="M 593 561 L 596 562.5 L 593 563.5 L 593.5 565 L 591 565.5 L 591.5 567 L 589 567.5 L 589.5 569 L 587 569.5 L 587.5 571 L 585 571.5 L 585.5 573 L 583 573.5 L 583.5 575 L 581 575.5 L 581.5 577 L 579 577.5 L 579.5 579 L 577 579.5 L 577.5 581 L 575 581.5 L 575.5 583 L 573 583.5 L 573.5 585 L 571 585.5 L 571.5 587 L 569 587.5 L 569.5 589 L 567 589.5 L 567.5 591 L 565 591.5 L 565.5 593 L 563 593.5 L 563.5 595 L 561 595.5 L 561.5 597 L 559 597.5 L 559.5 599 L 555 598.5 L 559 597 L 559 595 L 561 595 L 561 593 L 563 593 L 563 591 L 565 591 L 565 589 L 567 589 L 567 587 L 569 587 L 569 585 L 571 585 L 571 583 L 573 583 L 573 581 L 575 581 L 575 579 L 577 579 L 577 577 L 579 577 L 579 575 L 581 575 L 581 573 L 583 573 L 583 571 L 585 571 L 585 569 L 587 569 L 587 567 L 589 567 L 589 565 L 593 563 L 593 561 Z "/>
  <path fill="rgb(255,255,255)" stroke="rgb(255,255,255)" stroke-width="1" opacity="0.8470588235294118" d="M 87.5 563 Q 90.1 562.3 89 565 L 91 565 L 91 567 L 93 567 L 93 569 L 95 569 L 95 571 L 97 571 L 97 573 L 99 573 L 99 575 L 101 575 L 101 577 L 103 577 L 103 579 L 105 579 L 105 581 L 107 581 L 107 583 L 109 583 L 109 585 L 111 585 L 111 587 L 113 587 L 113 589 L 115 589 L 115 591 L 117 591 L 117 593 L 119 593 L 119 595 L 121.5 595 L 122.5 597 L 118 596.5 L 118.5 595 L 116 594.5 L 116.5 593 L 114 592.5 L 114.5 591 L 112 590.5 L 112.5 589 L 110 588.5 L 110.5 587 L 108 586.5 L 108.5 585 L 106 584.5 L 106.5 583 L 104 582.5 L 104.5 581 L 102 580.5 L 102.5 579 L 100 578.5 L 100.5 577 L 98 576.5 L 98.5 575 L 96 574.5 L 96.5 573 L 94 572.5 L 94.5 571 L 92 570.5 L 92.5 569 L 90 568.5 L 90.5 567 L 88 566.5 L 88.5 565 L 86 564.5 L 87.5 563 Z "/>
  <path fill="rgb(255,255,255)" stroke="rgb(255,255,255)" stroke-width="1" opacity="0.8470588235294118" d="M 125 599 L 127 599 L 129 603 L 131.5 603 L 132.5 605 L 128 604.5 L 128.5 603 L 126 602.5 L 126.5 601 Q 123.9 601.7 125 599 Z "/>
  <path fill="rgb(255,255,255)" stroke="rgb(255,255,255)" stroke-width="1" opacity="0.8470588235294118" d="M 551 601 Q 554 600 553 603 L 551 603.5 L 551.5 605 L 549 605.5 L 549.5 607 L 545 606.5 L 549 605 L 551 601 Z "/>
  <path fill="rgb(255,255,255)" stroke="rgb(255,255,255)" stroke-width="1" opacity="0.8470588235294118" d="M 135 607 Q 138 606 137 609 L 139.5 609 L 140.5 611 L 136 610.5 L 136.5 609 Q 133.9 609.7 135 607 Z "/>
  <path fill="rgb(255,255,255)" stroke="rgb(255,255,255)" stroke-width="1" opacity="0.8470588235294118" d="M 541 609 Q 544 608 543 611 L 541 611.5 L 541.5 613 L 537 612.5 L 541 611 L 541 609 Z "/>
  <path fill="rgb(255,255,255)" stroke="rgb(255,255,255)" stroke-width="1" opacity="0.8470588235294118" d="M 143 613 Q 146 612 145 615 L 147.5 615 L 148.5 617 L 144 616.5 L 144.5 615 Q 141.9 615.7 143 613 Z "/>
  <path fill="rgb(255,255,255)" stroke="rgb(255,255,255)" stroke-width="1" opacity="0.8470588235294118" d="M 532.5 615 Q 536.3 614 535 617 L 531 616.5 L 532.5 615 Z "/>
  <path fill="rgb(255,255,255)" stroke="rgb(255,255,255)" stroke-width="1" opacity="0.8470588235294118" d="M 151 619 L 155 620.5 L 151 621 L 151 619 Z "/>
  <path fill="rgb(255,255,255)" stroke="rgb(255,255,255)" stroke-width="1" opacity="0.8470588235294118" d="M 526.5 619 Q 530.3 618 529 621 L 525 620.5 L 526.5 619 Z "/>
  <path fill="rgb(255,255,255)" stroke="rgb(255,255,255)" stroke-width="1" opacity="0.8470588235294118" d="M 157 623 L 161 624.5 L 157 625 L 157 623 Z "/>
  <path fill="rgb(255,255,255)" stroke="rgb(255,255,255)" stroke-width="1" opacity="0.8470588235294118" d="M 520.5 623 Q 524.3 622 523 625 L 519 624.5 L 520.5 623 Z "/>
  <path fill="rgb(255,255,255)" stroke="rgb(255,255,255)" stroke-width="1" opacity="0.8470588235294118" d="M 514.5 627 Q 518.3 626 517 629 L 513 628.5 L 514.5 627 Z "/>
  <path fill="rgb(255,255,255)" stroke="rgb(255,255,255)" stroke-width="1" opacity="0.8470588235294118" d="M 167 629 L 171 630.5 L 167 631 L 167 629 Z "/>
  <path fill="rgb(255,255,255)" stroke="rgb(255,255,255)" stroke-width="1" opacity="0.8470588235294118" d="M 504.5 633 Q 508.3 632 507 635 L 503 634.5 L 504.5 633 Z "/>
  <path fill="rgb(255,255,255)" stroke="rgb(255,255,255)" stroke-width="1" opacity="0.8470588235294118" d="M 177 635 L 181 636.5 L 177 637 L 177 635 Z "/>
  <path fill="rgb(255,255,255)" stroke="rgb(255,255,255)" stroke-width="1" opacity="0.8470588235294118" d="M 207 649 L 211 650.5 L 207 651 L 207 649 Z "/>
  <path fill="rgb(255,255,255)" stroke="rgb(255,255,255)" stroke-width="1" opacity="0.8470588235294118" d="M 466.5 651 Q 470.3 650 469 653 L 465 652.5 L 466.5 651 Z "/>
  <path fill="rgb(255,255,255)" stroke="rgb(255,255,255)" stroke-width="1" opacity="0.8470588235294118" d="M 217 653 L 221 654.5 L 217 655 L 217 653 Z "/>
  <path fill="rgb(255,255,255)" stroke="rgb(255,255,255)" stroke-width="1" opacity="0.8470588235294118" d="M 454.5 655 Q 460.4 653.3 459 657 L 453 657 L 453 659 L 447 659 L 447 661 L 441 661 L 441 663 L 435 663 L 435 665 L 429 665 L 428.5 667 L 421.5 667 L 420.5 669 L 411.5 669 L 410.5 671 L 401.5 671 L 401 673 L 391.5 673 L 390.5 675 L 375.5 675 L 376.5 673 L 390.5 673 L 392.5 671 L 400.5 671 L 402.5 669 L 410.5 669 Q 412.5 665 420.5 667 L 422.5 665 L 428.5 665 L 430.5 663 L 434.5 663 L 436.5 661 L 440.5 661 L 442.5 659 L 446.5 659 L 454.5 655 Z "/>
  <path fill="rgb(255,255,255)" stroke="rgb(255,255,255)" stroke-width="1" opacity="0.8470588235294118" d="M 227 657 L 231.5 657 L 233.5 659 L 237.5 659 L 245.5 663 L 251.5 663 L 253.5 665 L 259.5 665 Q 261 668.5 267.5 667 L 269.5 669 Q 277.5 667 279.5 671 L 289.5 671 L 291.5 673 L 305.5 673 L 307 674.5 L 291 675 L 290.5 673 L 279.5 673 L 278.5 671 L 269.5 671 L 269 669 L 261.5 669 L 260.5 667 L 253.5 667 L 252.5 665 L 245.5 665 L 245 663 L 239 663 L 239 661 L 233 661 L 233 659 L 227 659 L 227 657 Z "/>
  <path fill="rgb(255,255,255)" stroke="rgb(255,255,255)" stroke-width="1" opacity="0.8470588235294118" d="M 309 677 Q 312.3 675.9 311 680 Q 307.7 681.1 309 677 Z "/>
  <path fill="rgb(255,255,255)" stroke="rgb(255,255,255)" stroke-width="1" opacity="0.8470588235294118" d="M 371 677 Q 374.3 675.9 373 680 Q 369.7 681.1 371 677 Z "/>
</svg>
