<?xml version='1.0' encoding='UTF-8'?>
<svg xmlns="http://www.w3.org/2000/svg" width="512" height="512" version="1.1" desc="Created with imagetracer.js version 1.2.6" shape-rendering="geometricPrecision" text-rendering="geometricPrecision" image-rendering="optimizeQuality" viewBox="0 0 680.0 680.0">
  <path fill="rgb(0,0,0)" stroke="rgb(0,0,0)" stroke-width="1" opacity="0" d="M 0 0 L 314.5 0 L 315 3 L 317 3 L 317.5 0 L 363 0 Q 361.7 4.1 365 3 L 365.5 0 L 680 0 L 680 314.5 L 677.5 315 L 678.5 317 L 680 317.5 L 680 363 L 677 364.5 L 680 365 L 680 680 L 371 680 Q 372.3 675.9 369 677 L 368.5 680 L 311 680 Q 312.3 675.9 309 677 L 308.5 680 L 0 680 L 0 369.5 L 2.5 369 L 1.5 367 L 0 366.5 L 0 313 L 3 311.5 L 0 311 L 0 0 Z M 295 5 L 295 7 L 312 7 L 313 6 L 295 5 Z M 368 5 L 369 7 L 385 7 L 385 5 L 368 5 Z M 281 7 L 281 9 L 294 9 L 295 8 L 281 7 Z M 386 7 L 387 9 L 397 9 L 397 7 L 386 7 Z M 271 9 L 271 11 L 280 11 L 281 10 L 271 9 Z M 398 9 L 399 11 L 409 11 L 409 9 L 398 9 Z M 263 11 L 263 13 L 270 13 L 271 12 L 263 11 Z M 410 11 L 411 13 L 417 13 L 417 11 L 410 11 Z M 255 13 L 255 15 L 262 15 L 263 14 L 255 13 Z M 418 13 L 419 15 L 425 15 L 425 13 L 418 13 Z M 247 15 L 247 17 L 254 17 L 255 16 L 247 15 Z M 426 15 L 427 17 L 433 17 L 433 15 L 426 15 Z M 241 17 L 241 19 Q 246 20 247 18 L 241 17 Z M 434 17 Q 433 20 439 19 Q 440 15 434 17 Z M 235 19 L 235 21 Q 240 22 241 20 L 235 19 Z M 440 19 Q 439 22 445 21 Q 446 17 440 19 Z M 229 21 L 229 23 Q 234 24 235 22 L 229 21 Z M 446 21 Q 445 24 451 23 Q 452 19 446 21 Z M 223 23 L 223 25 Q 228 26 229 24 L 223 23 Z M 452 23 Q 451 26 457 25 Q 458 21 452 23 Z M 213 27 L 213 29 L 217 28 L 213 27 Z M 464 27 Q 463 30 467 29 Q 468 26 464 27 Z M 171 47 L 171 49 L 175 48 L 171 47 Z M 506 47 Q 505 50 509 49 Q 510 46 506 47 Z M 161 53 L 161 55 L 165 54 L 161 53 Z M 516 53 Q 515 56 519 55 Q 520 52 516 53 Z M 155 57 L 155 59 L 159 58 L 155 57 Z M 522 57 Q 521 60 525 59 Q 526 56 522 57 Z M 149 61 L 149 63 L 153 62 L 149 61 Z M 528 61 Q 527 64 531 63 Q 532 60 528 61 Z M 143 65 L 144 67 L 147 66 L 143 65 Z M 534 65 L 535 67 L 538 66 L 534 65 Z M 141 67 Q 140 70 143 69 Q 144 66 141 67 Z M 537 67 Q 536 70 539 69 Q 540 66 537 67 Z M 135 71 L 136 73 L 139 72 L 135 71 Z M 542 71 L 543 73 L 546 72 L 542 71 Z M 133 73 Q 132 76 135 75 Q 136 72 133 73 Z M 545 73 Q 544 76 547 75 Q 548 72 545 73 Z M 127 77 L 128 79 L 131 78 L 127 77 Z M 550 77 L 551 79 L 554 78 L 550 77 Z M 125 79 L 127 81 Q 128 78 125 79 Z M 553 79 L 553 81 L 556 80 L 553 79 Z M 123 81 L 125 83 Q 126 80 123 81 Z M 555 81 L 555 83 L 558 82 L 555 81 Z M 121 83 Q 120 86 123 85 Q 124 82 121 83 Z M 557 83 L 557 85 L 560 84 L 557 83 Z M 559 85 Q 558 88 561 87 Q 562 84 559 85 Z M 115 87 L 116 89 L 119 88 L 115 87 Z M 113 89 L 115 91 Q 116 88 113 89 Z M 564 89 L 565 91 L 568 90 L 564 89 Z M 111 91 L 113 93 Q 114 90 111 91 Z M 567 91 L 567 93 L 570 92 L 567 91 Z M 109 93 L 111 95 Q 112 92 109 93 Z M 569 93 L 569 95 L 572 94 L 569 93 Z M 107 95 L 109 97 Q 110 94 107 95 Z M 571 95 L 571 97 L 574 96 L 571 95 Z M 105 97 L 107 99 Q 108 96 105 97 Z M 573 97 L 573 99 L 576 98 L 573 97 Z M 103 99 L 105 101 Q 106 98 103 99 Z M 575 99 L 575 101 L 578 100 L 575 99 Z M 101 101 L 103 103 Q 104 100 101 101 Z M 577 101 L 577 103 L 580 102 L 577 101 Z M 99 103 L 101 105 Q 102 102 99 103 Z M 579 103 L 579 105 L 582 104 L 579 103 Z M 97 105 L 99 107 Q 100 104 97 105 Z M 581 105 L 581 107 L 584 106 L 581 105 Z M 95 107 L 97 109 Q 98 106 95 107 Z M 583 107 L 583 109 L 586 108 L 583 107 Z M 93 109 L 95 111 Q 96 108 93 109 Z M 585 109 L 585 111 L 588 110 L 585 109 Z M 91 111 L 93 113 Q 94 110 91 111 Z M 587 111 L 587 113 L 590 112 L 587 111 Z M 89 113 L 91 115 Q 92 112 89 113 Z M 87 115 L 89 117 Q 90 114 87 115 Z M 593 119 L 593 121 L 596 120 L 593 119 Z M 595 121 L 595 123 L 598 122 L 595 121 Z M 81 123 L 83 125 Q 84 122 81 123 Z M 597 123 L 597 125 L 600 124 L 597 123 Z M 79 125 L 81 127 Q 82 124 79 125 Z M 561 127 Q 560 131 565 129 Q 566 125 561 127 Z M 561 129 L 559 131 L 561 131 L 561 129 Z M 557 131 L 555 137 L 559 135 L 557 139 Q 554 140 555 137 L 553 137 L 551 143 L 555 141 L 551 147 Q 548 148 549 145 L 547 145 L 545 151 L 549 149 L 545 155 Q 542 156 543 153 L 541 153 L 539 159 L 543 157 L 541 161 Q 538 162 539 159 L 537 159 L 535 165 L 539 163 L 535 169 Q 532 170 533 167 L 531 167 L 529 173 L 533 171 L 527 179 Q 524 180 525 177 L 523 177 L 521 183 L 525 181 L 519 189 Q 516 190 517 187 L 515 187 L 513 193 L 517 191 L 517 193 L 509 201 Q 506 202 507 199 L 505 199 L 503 205 L 507 203 L 507 205 L 499 213 Q 496 214 497 211 L 495 211 L 493 217 L 497 215 L 497 217 L 481 233 Q 478 234 479 231 L 477 231 L 475 237 Q 478 238 477 235 Q 480 234 479 237 L 413 303 L 411 303 Q 409 299 407 303 L 409 303 L 409 305 L 395 319 L 391 317 L 390 319 Q 392 318 391 321 L 381 331 L 379 331 Q 377 327 375 331 L 377 331 L 377 333 L 369 341 L 365 339 L 364 341 Q 366 340 365 343 L 359 349 L 357 349 Q 355 345 353 349 L 355 349 L 349 357 L 345 355 L 344 357 Q 346 356 345 359 L 339 365 L 337 365 Q 335 361 333 365 L 335 365 L 331 371 L 327 369 L 326 371 Q 328 370 327 373 L 323 377 L 321 377 Q 319 373 317 377 L 319 377 L 315 383 L 311 381 L 310 383 Q 312 382 311 385 Q 311 387 307 387 Q 305 383 303 387 L 305 387 L 301 393 L 297 391 L 296 393 Q 298 392 297 395 Q 297 398 293 397 Q 291 393 289 397 L 291 397 L 289 401 L 285 399 L 284 401 Q 286 400 285 403 Q 285 406 281 405 Q 279 401 277 405 L 279 405 L 275 411 L 271 409 L 267 411 L 271 411 Q 272 414 269 413 Q 267 409 265 413 L 267 413 L 265 417 L 261 415 L 260 417 Q 262 416 261 419 L 257 417 L 255 421 L 255 425 L 253 425 Q 254 428 252 427 L 249 423 L 253 425 L 249 415 L 247 415 Q 248 418 246 417 L 243 413 L 247 415 L 243 405 L 241 405 Q 242 408 240 407 L 237 403 Q 240 402 239 405 Q 242 406 241 403 L 238 401 Q 232 399 233 403 Q 232 406 229 405 Q 227 401 225 405 L 227 405 L 225 409 Q 222 410 223 407 L 219 409 Q 217 414 221 413 L 221 418 L 225 424 L 227 434 L 229 436 L 228 436 L 228 437 L 231 437 Q 230 434 233 435 L 231 439 Q 228 440 227 437 L 223 439 L 227 439 Q 228 442 225 441 Q 223 437 221 441 L 223 441 L 221 445 L 217 443 L 213 445 L 217 445 Q 218 448 215 447 Q 213 443 211 447 L 213 447 L 211 451 L 207 449 L 203 451 L 207 451 Q 208 454 205 453 Q 203 449 201 453 L 203 453 L 201 457 L 195 455 L 194 457 Q 198 456 197 459 Q 194 460 193 457 L 189 459 L 193 459 Q 194 462 191 461 Q 189 457 187 461 L 189 461 L 187 465 L 181 463 L 180 465 Q 184 464 183 467 L 177 465 L 176 467 Q 180 466 179 469 L 173 467 L 172 469 Q 176 468 175 471 Q 172 472 171 469 L 167 471 L 171 471 Q 172 474 169 473 Q 167 469 165 473 L 167 473 L 165 477 L 159 475 L 158 477 Q 162 476 161 479 L 155 477 L 154 479 Q 158 478 157 481 L 151 479 L 150 481 Q 154 480 153 483 L 147 481 L 146 483 Q 150 482 149 485 L 143 483 L 142 485 Q 146 484 145 487 L 139 485 L 138 487 Q 142 486 141 489 L 135 487 L 134 489 Q 138 488 137 491 L 131 489 L 130 491 Q 134 490 133 493 L 127 491 L 126 493 Q 130 492 129 495 L 123 493 L 122 495 Q 126 494 125 497 L 119 495 L 118 497 Q 122 496 121 499 L 115 497 L 114 499 Q 118 498 117 501 Q 114 502 113 499 L 109 499 L 108 501 Q 114 499 113 503 L 109 503 Q 107 506 103 505 Q 104 509 102 510 L 101 506 L 99 507 L 99 510 L 103 516 L 103 520 L 109 531 Q 112 532 111 529 L 115 531 Q 119 532 120 529 L 126 531 L 127 529 Q 122 530 123 527 L 130 529 L 131 527 Q 126 528 127 525 L 134 527 L 135 525 Q 130 526 131 523 L 138 525 L 139 523 Q 134 524 135 521 L 142 523 L 143 521 Q 138 522 139 519 L 146 521 L 147 519 Q 142 520 143 517 L 150 519 L 151 517 Q 146 518 147 515 L 154 517 L 155 515 Q 150 516 151 513 L 158 515 L 159 513 Q 154 514 155 511 L 162 513 L 163 511 Q 158 512 159 509 L 166 511 L 167 509 Q 162 510 163 507 L 170 509 L 171 507 Q 166 508 167 505 L 174 507 L 175 505 Q 170 506 171 503 Q 174 502 176 505 L 179 504 L 175 503 Q 174 500 178 501 Q 179 505 181 502 L 179 501 L 182 497 L 188 499 L 189 497 Q 184 498 185 495 L 192 497 L 193 495 Q 188 496 189 493 Q 192 492 194 495 L 197 494 L 193 493 Q 192 490 196 491 Q 197 495 199 492 L 197 491 L 200 487 L 206 489 L 207 487 Q 202 488 203 485 Q 206 484 208 487 L 211 486 L 207 485 Q 206 482 210 483 Q 211 487 213 484 L 211 483 L 214 479 L 218 481 L 221 480 L 217 479 Q 216 476 220 477 Q 221 481 223 478 L 221 477 L 224 473 L 228 475 L 231 474 L 227 473 Q 226 470 230 471 Q 231 475 233 472 L 231 471 L 234 467 L 240 469 L 241 467 Q 236 468 237 465 Q 240 464 242 467 L 243 465 Q 240 466 241 464 Q 242 460 246 461 L 247 465 L 250 464 L 248 463 L 247 461 L 248 459 L 267 480 L 267 481 Q 264 482 265 479 Q 262 478 263 482 L 267 483 Q 272 484 274 481 L 278 483 L 281 482 L 277 481 L 277 479 L 281 479 L 281 478 L 283 477 Q 282 480 285 479 Q 287 474 283 475 L 279 465 L 277 465 Q 278 468 276 467 L 273 463 L 277 465 L 273 455 L 271 455 Q 272 458 270 457 L 267 453 L 271 455 L 267 445 L 265 445 Q 266 448 264 447 L 261 443 Q 264 442 263 445 L 267 443 L 267 441 L 271 443 Q 275 444 276 441 L 280 443 L 283 442 L 279 441 Q 278 438 282 439 Q 283 443 285 440 L 283 439 L 286 435 L 290 437 L 291 435 Q 288 436 289 434 Q 290 431 294 431 Q 295 435 297 432 L 295 431 L 298 427 L 302 429 L 303 427 Q 300 428 301 426 Q 301 422 306 423 Q 307 427 309 424 L 307 423 L 312 417 L 316 419 L 317 417 Q 314 418 315 416 Q 316 413 320 413 Q 321 417 323 414 L 321 413 L 324 409 L 328 411 L 329 409 Q 326 410 327 408 L 332 403 L 334 403 Q 335 407 337 404 L 335 403 L 338 399 L 342 401 L 343 399 Q 340 400 341 398 L 346 393 L 348 393 Q 349 397 351 394 L 349 393 L 354 387 L 358 389 L 359 387 Q 356 388 357 386 L 362 381 L 364 381 Q 365 385 367 382 L 365 381 L 372 373 L 376 375 L 377 373 Q 374 374 375 372 L 382 365 L 384 365 Q 385 369 387 366 L 385 365 L 392 357 L 396 359 L 397 357 Q 394 358 395 356 L 406 345 L 408 345 Q 409 349 411 346 L 409 345 L 409 344 L 420 333 L 424 335 L 425 333 Q 422 334 423 332 L 446 309 L 448 309 Q 449 313 451 310 L 449 309 L 449 308 L 476 281 Q 478 280 477 283 L 479 283 L 481 277 L 477 279 L 477 278 L 498 257 Q 500 256 499 259 L 501 259 L 503 253 L 499 255 L 499 254 L 510 243 Q 512 242 511 245 L 513 245 L 515 239 L 511 241 L 511 240 L 520 231 Q 522 230 521 233 L 523 233 L 525 227 L 521 229 L 528 221 Q 530 220 529 223 L 531 223 L 533 217 L 529 219 L 534 213 Q 536 212 535 215 L 537 215 L 539 209 L 535 211 L 540 205 Q 542 204 541 207 L 543 207 L 545 201 L 541 203 L 544 199 Q 546 198 545 201 L 547 201 L 549 195 L 545 197 L 550 191 Q 552 190 551 193 L 553 193 L 555 187 L 551 189 L 554 185 Q 556 184 555 187 L 557 187 L 559 181 L 555 183 L 558 179 Q 560 178 559 181 L 561 181 L 563 178 L 563 172 L 565 170 L 565 158 L 567 156 L 567 144 L 569 142 L 569 133 L 568 131 L 567 142 L 565 141 L 565 131 Q 560 129 561 133 L 557 131 Z M 603 131 L 603 133 L 606 132 L 603 131 Z M 73 133 L 75 135 Q 76 132 73 133 Z M 605 133 L 605 135 L 608 134 L 605 133 Z M 71 135 L 73 137 Q 74 134 71 135 Z M 611 141 L 611 143 L 614 142 L 611 141 Z M 549 143 L 549 145 L 552 145 L 549 143 Z M 61 149 L 63 151 Q 64 148 61 149 Z M 543 151 L 543 153 L 546 153 L 543 151 Z M 533 165 L 533 167 L 536 167 L 533 165 Z M 527 173 L 527 175 L 530 175 L 527 173 Z M 525 175 L 525 177 L 528 177 L 525 175 Z M 519 183 L 519 185 L 522 185 L 519 183 Z M 517 185 L 517 187 L 520 187 L 517 185 Z M 511 193 L 511 195 L 514 195 L 511 193 Z M 549 193 L 551 195 Q 552 192 549 193 Z M 509 195 L 509 197 L 512 197 L 509 195 Z M 507 197 L 507 199 L 510 199 L 507 197 Z M 501 205 L 501 207 L 504 207 L 501 205 Z M 499 207 L 499 209 L 502 209 L 499 207 Z M 539 207 L 541 209 Q 542 206 539 207 Z M 497 209 L 497 211 L 500 211 L 497 209 Z M 533 215 L 535 217 Q 536 214 533 215 Z M 491 217 L 491 219 L 494 219 L 491 217 Z M 489 219 L 489 221 L 492 221 L 489 219 Z M 487 221 L 487 223 L 490 223 L 487 221 Z M 485 223 L 485 225 L 488 225 L 485 223 Z M 527 223 L 529 225 Q 530 222 527 223 Z M 483 225 L 483 227 L 486 227 L 483 225 Z M 525 225 L 527 227 Q 528 224 525 225 Z M 481 227 L 481 229 L 484 229 L 481 227 Z M 479 229 L 479 231 L 482 231 L 479 229 Z M 519 233 L 521 235 Q 522 232 519 233 Z M 517 235 L 519 237 Q 520 234 517 235 Z M 473 237 L 473 239 L 476 239 L 473 237 Z M 515 237 L 517 239 Q 518 236 515 237 Z M 471 239 L 471 241 L 474 241 L 471 239 Z M 469 241 L 469 243 L 472 243 L 469 241 Z M 467 243 L 467 245 L 470 245 L 467 243 Z M 465 245 L 465 247 L 468 247 L 465 245 Z M 509 245 L 511 247 Q 512 244 509 245 Z M 463 247 L 463 249 L 466 249 L 463 247 Z M 507 247 L 509 249 Q 510 246 507 247 Z M 461 249 L 461 251 L 464 251 L 461 249 Z M 505 249 L 507 251 Q 508 248 505 249 Z M 459 251 L 459 253 L 462 253 L 459 251 Z M 503 251 L 505 253 Q 506 250 503 251 Z M 457 253 L 457 255 L 460 255 L 457 253 Z M 455 255 L 455 257 L 458 257 L 455 255 Z M 453 257 L 453 259 L 456 259 L 453 257 Z M 451 259 L 451 261 L 454 261 L 451 259 Z M 497 259 L 499 261 Q 500 258 497 259 Z M 449 261 L 449 263 L 452 263 L 449 261 Z M 495 261 L 497 263 Q 498 260 495 261 Z M 447 263 L 447 265 L 450 265 L 447 263 Z M 493 263 L 495 265 Q 496 262 493 263 Z M 445 265 L 445 267 L 448 267 L 445 265 Z M 491 265 L 493 267 Q 494 264 491 265 Z M 443 267 L 443 269 L 446 269 L 443 267 Z M 489 267 L 491 269 Q 492 266 489 267 Z M 441 269 L 441 271 L 444 271 L 441 269 Z M 487 269 L 489 271 Q 490 268 487 269 Z M 439 271 L 439 273 L 442 273 L 439 271 Z M 485 271 L 487 273 Q 488 270 485 271 Z M 437 273 L 437 275 L 440 275 L 437 273 Z M 483 273 L 485 275 Q 486 272 483 273 Z M 435 275 L 435 277 L 438 277 L 435 275 Z M 481 275 L 483 277 Q 484 274 481 275 Z M 433 277 L 433 279 L 436 279 L 433 277 Z M 431 279 L 431 281 L 434 281 L 431 279 Z M 429 281 L 429 283 L 432 283 L 429 281 Z M 427 283 L 427 285 L 430 285 L 427 283 Z M 475 283 L 477 285 Q 478 282 475 283 Z M 425 285 L 425 287 L 428 287 L 425 285 Z M 473 285 L 475 287 Q 476 284 473 285 Z M 423 287 L 423 289 L 426 289 L 423 287 Z M 471 287 L 473 289 Q 474 286 471 287 Z M 421 289 L 421 291 L 424 291 L 421 289 Z M 469 289 L 471 291 Q 472 288 469 289 Z M 419 291 L 419 293 L 422 293 L 419 291 Z M 467 291 L 469 293 Q 470 290 467 291 Z M 417 293 L 417 295 L 420 295 L 417 293 Z M 465 293 L 467 295 Q 468 292 465 293 Z M 415 295 L 415 297 L 418 297 L 415 295 Z M 463 295 L 465 297 Q 466 294 463 295 Z M 413 297 L 413 299 L 416 299 L 413 297 Z M 461 297 L 463 299 Q 464 296 461 297 Z M 411 299 L 410 301 L 414 301 L 411 299 Z M 459 299 L 461 301 Q 462 298 459 299 Z M 457 301 L 459 303 Q 460 300 457 301 Z M 405 303 Q 404 306 407 305 Q 408 302 405 303 Z M 455 303 L 457 305 Q 458 302 455 303 Z M 403 305 L 403 307 L 406 307 L 403 305 Z M 453 305 L 455 307 Q 456 304 453 305 Z M 401 307 L 401 309 L 404 309 L 401 307 Z M 451 307 Q 450 310 453 309 Q 454 306 451 307 Z M 399 309 L 399 311 L 402 311 L 399 309 Z M 397 311 L 397 313 L 400 313 L 397 311 Z M 445 311 L 446 313 L 449 312 L 445 311 Z M 395 313 L 395 315 L 398 315 L 395 313 Z M 443 313 L 445 315 Q 446 312 443 313 Z M 393 315 L 392 317 L 396 317 L 393 315 Z M 441 315 L 443 317 Q 444 314 441 315 Z M 439 317 L 441 319 Q 442 316 439 317 Z M 387 319 Q 386 322 389 321 Q 390 318 387 319 Z M 437 319 L 439 321 Q 440 318 437 319 Z M 385 321 L 385 323 L 388 323 L 385 321 Z M 435 321 L 437 323 Q 438 320 435 321 Z M 383 323 L 383 325 L 386 325 L 383 323 Z M 433 323 L 435 325 Q 436 322 433 323 Z M 381 325 L 381 327 L 384 327 L 381 325 Z M 431 325 L 433 327 Q 434 324 431 325 Z M 379 327 L 378 329 L 382 329 L 379 327 Z M 429 327 L 431 329 Q 432 326 429 327 Z M 427 329 L 429 331 Q 430 328 427 329 Z M 373 331 Q 372 334 375 333 Q 376 330 373 331 Z M 425 331 Q 424 334 427 333 Q 428 330 425 331 Z M 371 333 L 371 335 L 374 335 L 371 333 Z M 369 335 L 369 337 L 372 337 L 369 335 Z M 419 335 L 420 337 L 423 336 L 419 335 Z M 367 337 L 366 339 L 370 339 L 367 337 Z M 417 337 L 419 339 Q 420 336 417 337 Z M 415 339 L 417 341 Q 418 338 415 339 Z M 361 341 Q 360 344 363 343 Q 364 340 361 341 Z M 413 341 L 415 343 Q 416 340 413 341 Z M 359 343 L 359 345 L 362 345 L 359 343 Z M 411 343 Q 410 346 413 345 Q 414 342 411 343 Z M 357 345 L 356 347 L 360 347 L 357 345 Z M 405 347 L 406 349 L 409 348 L 405 347 Z M 351 349 Q 350 352 353 351 Q 354 348 351 349 Z M 403 349 L 405 351 Q 406 348 403 349 Z M 349 351 L 349 353 L 352 353 L 349 351 Z M 401 351 L 403 353 Q 404 350 401 351 Z M 347 353 L 346 355 L 350 355 L 347 353 Z M 399 353 L 401 355 Q 402 352 399 353 Z M 397 355 Q 396 358 399 357 Q 400 354 397 355 Z M 341 357 Q 340 360 343 359 Q 344 356 341 357 Z M 339 359 L 339 361 L 342 361 L 339 359 Z M 391 359 L 392 361 L 395 360 L 391 359 Z M 337 361 L 336 363 L 340 363 L 337 361 Z M 389 361 L 391 363 Q 392 360 389 361 Z M 387 363 Q 386 366 389 365 Q 390 362 387 363 Z M 331 365 Q 330 368 333 367 Q 334 364 331 365 Z M 329 367 L 328 369 L 332 369 L 329 367 Z M 381 367 L 382 369 L 385 368 L 381 367 Z M 379 369 L 381 371 Q 382 368 379 369 Z M 323 371 Q 322 374 325 373 Q 326 370 323 371 Z M 377 371 Q 376 374 379 373 Q 380 370 377 371 Z M 321 373 L 320 375 L 324 375 L 321 373 Z M 371 375 L 372 377 L 375 376 L 371 375 Z M 315 377 Q 314 380 317 379 Q 318 376 315 377 Z M 369 377 L 371 379 Q 372 376 369 377 Z M 313 379 L 312 381 L 316 381 L 313 379 Z M 367 379 Q 366 382 369 381 Q 370 378 367 379 Z M 307 383 L 305 385 L 309 385 Q 310 382 307 383 Z M 361 383 L 362 385 L 365 384 L 361 383 Z M 359 385 Q 358 388 361 387 Q 362 384 359 385 Z M 301 387 Q 300 390 303 389 Q 304 386 301 387 Z M 299 389 L 298 391 L 302 391 L 299 389 Z M 353 389 L 354 391 L 357 390 L 353 389 Z M 351 391 Q 350 394 353 393 Q 354 390 351 391 Z M 293 393 L 291 395 L 295 395 Q 296 392 293 393 Z M 345 395 L 346 397 L 349 396 L 345 395 Z M 233 397 Q 232 401 237 399 Q 238 395 233 397 Z M 287 397 L 285 399 L 289 399 Q 290 396 287 397 Z M 343 397 Q 342 400 345 399 Q 346 396 343 397 Z M 233 399 L 231 401 L 233 401 L 233 399 Z M 229 401 L 228 403 L 232 403 L 229 401 Z M 281 401 L 279 403 L 283 403 Q 284 400 281 401 Z M 337 401 L 337 403 L 341 402 L 337 401 Z M 223 405 Q 222 408 225 407 Q 226 404 223 405 Z M 275 405 Q 274 408 277 407 Q 278 404 275 405 Z M 331 405 L 332 407 L 335 406 L 331 405 Z M 273 407 L 272 409 L 276 409 L 273 407 Z M 329 407 Q 328 410 331 409 Q 332 406 329 407 Z M 323 411 L 323 413 L 327 412 L 323 411 Z M 263 413 L 261 415 L 265 415 Q 266 412 263 413 Z M 317 415 L 317 417 L 321 416 L 317 415 Z M 311 419 L 312 421 L 315 420 L 311 419 Z M 309 421 Q 308 424 311 423 Q 312 420 309 421 Z M 303 425 L 303 427 L 307 426 L 303 425 Z M 297 429 L 297 431 L 301 430 L 297 429 Z M 291 433 L 291 435 L 295 434 L 291 433 Z M 285 437 L 285 439 L 289 438 L 285 437 Z M 219 441 L 217 443 L 221 443 Q 222 440 219 441 Z M 267 443 L 267 445 L 270 444 L 267 443 Z M 275 443 L 276 445 L 279 444 L 275 443 Z M 270 445 L 271 447 Q 274 448 275 446 L 270 445 Z M 209 447 L 207 449 L 211 449 Q 212 446 209 447 Z M 199 453 L 197 455 L 201 455 Q 202 452 199 453 Z M 185 461 L 183 463 L 187 463 Q 188 460 185 461 Z M 243 463 Q 242 466 246 465 Q 247 462 243 463 Z M 249 465 L 249 467 L 252 466 L 249 465 Z M 251 467 L 251 469 L 254 468 L 251 467 Z M 233 469 L 233 471 L 237 470 L 233 469 Z M 253 469 L 253 471 L 256 470 L 253 469 Z M 255 471 L 255 473 L 258 472 L 255 471 Z M 163 473 L 161 475 L 165 475 Q 166 472 163 473 Z M 257 473 L 257 475 L 260 474 L 257 473 Z M 223 475 L 223 477 L 227 476 L 223 475 Z M 259 475 L 259 477 L 262 476 L 259 475 Z M 261 477 L 261 479 L 264 478 L 261 477 Z M 213 481 L 213 483 L 217 482 L 213 481 Z M 273 483 L 273 485 L 277 484 L 273 483 Z M 268 485 L 269 487 Q 272 488 273 486 L 268 485 Z M 199 489 L 199 491 L 203 490 L 199 489 Z M 181 499 L 181 501 L 185 500 L 181 499 Z M 105 501 L 103 503 L 107 503 Q 108 500 105 501 Z M 617 529 L 617 531 L 620 531 L 617 529 Z M 112 531 Q 112 535 114 532 L 112 531 Z M 119 531 L 120 533 L 123 532 L 119 531 Z M 114 533 L 115 535 Q 118 536 119 534 L 114 533 Z M 70 541 L 68 543 L 71 543 Q 72 540 70 541 Z M 72 543 L 70 545 L 73 545 Q 74 542 72 543 Z M 607 543 L 607 545 L 610 545 L 607 543 Z M 78 551 L 76 553 L 79 553 Q 80 550 78 551 Z M 601 551 L 601 553 L 604 553 L 601 551 Z M 80 553 L 78 555 L 81 555 Q 82 552 80 553 Z M 599 553 L 599 555 L 602 555 L 599 553 Z M 597 555 L 597 557 L 600 557 L 597 555 Z M 86 561 L 84 563 L 87 563 Q 88 560 86 561 Z M 88 563 L 86 565 L 89 565 Q 90 562 88 563 Z M 591 563 L 591 565 L 594 565 L 591 563 Z M 90 565 L 88 567 L 91 567 Q 92 564 90 565 Z M 589 565 L 589 567 L 592 567 L 589 565 Z M 92 567 L 90 569 L 93 569 Q 94 566 92 567 Z M 587 567 L 587 569 L 590 569 L 587 567 Z M 94 569 L 92 571 L 95 571 Q 96 568 94 569 Z M 585 569 L 585 571 L 588 571 L 585 569 Z M 96 571 L 94 573 L 97 573 Q 98 570 96 571 Z M 583 571 L 583 573 L 586 573 L 583 571 Z M 98 573 L 96 575 L 99 575 Q 100 572 98 573 Z M 581 573 L 581 575 L 584 575 L 581 573 Z M 100 575 L 98 577 L 101 577 Q 102 574 100 575 Z M 579 575 L 579 577 L 582 577 L 579 575 Z M 102 577 L 100 579 L 103 579 Q 104 576 102 577 Z M 577 577 L 577 579 L 580 579 L 577 577 Z M 104 579 L 102 581 L 105 581 Q 106 578 104 579 Z M 575 579 L 575 581 L 578 581 L 575 579 Z M 106 581 L 104 583 L 107 583 Q 108 580 106 581 Z M 573 581 L 573 583 L 576 583 L 573 581 Z M 108 583 L 106 585 L 109 585 Q 110 582 108 583 Z M 571 583 L 571 585 L 574 585 L 571 583 Z M 110 585 L 108 587 L 111 587 Q 112 584 110 585 Z M 569 585 L 569 587 L 572 587 L 569 585 Z M 112 587 L 110 589 L 113 589 Q 114 586 112 587 Z M 567 587 L 567 589 L 570 589 L 567 587 Z M 114 589 L 112 591 L 115 591 Q 116 588 114 589 Z M 565 589 L 565 591 L 568 591 L 565 589 Z M 116 591 L 114 593 L 117 593 Q 118 590 116 591 Z M 563 591 L 563 593 L 566 593 L 563 591 Z M 118 593 L 116 595 L 119 595 Q 120 592 118 593 Z M 561 593 L 561 595 L 564 595 L 561 593 Z M 120 595 L 119 597 L 123 597 L 120 595 Z M 559 595 L 558 597 L 562 597 L 559 595 Z M 125 599 Q 124 602 127 601 Q 128 598 125 599 Z M 553 599 Q 552 602 555 601 Q 556 598 553 599 Z M 128 601 L 126 603 L 129 603 Q 130 600 128 601 Z M 551 601 L 551 603 L 554 603 L 551 601 Z M 130 603 L 129 605 L 133 605 L 130 603 Z M 549 603 L 548 605 L 552 605 L 549 603 Z M 135 607 Q 134 610 137 609 Q 138 606 135 607 Z M 543 607 Q 542 610 545 609 Q 546 606 543 607 Z M 138 609 L 136 611 L 139 611 Q 140 608 138 609 Z M 541 609 L 540 611 L 544 611 L 541 609 Z M 140 611 L 139 613 L 143 613 L 140 611 Z M 535 613 Q 534 616 537 615 Q 538 612 535 613 Z M 145 615 L 145 617 L 149 617 L 145 615 Z M 533 615 L 532 617 L 536 617 L 533 615 Z M 151 619 L 151 621 L 155 621 L 151 619 Z M 527 619 L 525 621 L 529 621 Q 530 618 527 619 Z M 157 623 L 157 625 L 161 625 L 157 623 Z M 521 623 L 519 625 L 523 625 Q 524 622 521 623 Z M 163 627 L 163 629 L 167 629 L 163 627 Z M 511 629 L 509 631 L 513 631 Q 514 628 511 629 Z M 173 633 L 173 635 L 177 635 L 173 633 Z M 501 635 L 499 637 L 503 637 Q 504 634 501 635 Z M 207 649 L 207 651 L 211 651 L 207 649 Z M 471 649 L 469 651 L 473 651 Q 474 648 471 649 Z M 461 653 L 459 655 L 463 655 Q 464 652 461 653 Z M 221 655 L 221 657 L 227 657 Q 226 654 221 655 Z M 227 657 L 227 659 L 233 659 Q 232 656 227 657 Z M 449 657 L 447 659 L 453 659 Q 454 655 449 657 Z M 233 659 L 233 661 L 239 661 Q 238 658 233 659 Z M 443 659 L 441 661 L 447 661 Q 448 657 443 659 Z M 239 661 L 239 663 L 245 663 Q 244 660 239 661 Z M 437 661 L 435 663 L 441 663 Q 442 659 437 661 Z M 245 663 L 245 665 L 253 665 L 252 663 L 245 663 Z M 429 663 L 427 665 L 435 665 Q 436 662 429 663 Z M 253 665 L 253 667 L 261 667 Q 259 663 253 665 Z M 421 665 L 419 667 L 427 667 Q 428 664 421 665 Z M 261 667 L 261 669 L 269 669 L 268 667 L 261 667 Z M 413 667 L 411 669 L 419 669 Q 420 665 413 667 Z M 269 669 L 269 671 L 279 671 L 278 669 L 269 669 Z M 403 669 L 401 671 L 411 671 L 411 669 L 403 669 Z M 279 671 L 279 673 L 291 673 L 290 671 L 279 671 Z M 391 671 L 389 673 L 401 673 L 401 671 L 391 671 Z M 291 673 L 291 675 L 307 675 L 306 673 L 291 673 Z M 375 673 L 373 675 L 389 675 L 389 673 L 375 673 Z "/>
  <path fill="rgb(0,0,0)" stroke="rgb(0,0,0)" stroke-width="1" opacity="0" d="M 563 143 Q 566 142 565 145 Q 562 146 563 143 Z "/>
  <path fill="rgb(0,0,0)" stroke="rgb(0,0,0)" stroke-width="1" opacity="0" d="M 564.5 146 L 565 155.5 L 563 154.5 Q 561.3 147.8 564.5 146 Z "/>
  <path fill="rgb(0,0,0)" stroke="rgb(0,0,0)" stroke-width="1" opacity="0" d="M 561 157 Q 564 156 563 159 Q 560 160 561 157 Z "/>
  <path fill="rgb(0,0,0)" stroke="rgb(0,0,0)" stroke-width="1" opacity="0" d="M 562.5 160 L 563 169.5 L 561 168.5 Q 559.3 161.8 562.5 160 Z "/>
  <path fill="rgb(0,0,0)" stroke="rgb(0,0,0)" stroke-width="1" opacity="0" d="M 559 171 Q 562 170 561 173 Q 558 174 559 171 Z "/>
  <path fill="rgb(0,0,0)" stroke="rgb(0,0,0)" stroke-width="1" opacity="0" d="M 560.5 174 L 561 177 Q 558.3 178.1 559 175.5 L 560.5 174 Z "/>
  <path fill="rgb(0,0,0)" stroke="rgb(0,0,0)" stroke-width="1" opacity="0" d="M 241 409 Q 244 408 243 411 Q 240 412 241 409 Z "/>
  <path fill="rgb(0,0,0)" stroke="rgb(0,0,0)" stroke-width="1" opacity="0" d="M 223 413 Q 226 412 225 415 Q 222 416 223 413 Z "/>
  <path fill="rgb(0,0,0)" stroke="rgb(0,0,0)" stroke-width="1" opacity="0" d="M 225 419 Q 228 418 227 421 Q 224 422 225 419 Z "/>
  <path fill="rgb(0,0,0)" stroke="rgb(0,0,0)" stroke-width="1" opacity="0" d="M 247 419 Q 250 418 249 421 Q 246 422 247 419 Z "/>
  <path fill="rgb(0,0,0)" stroke="rgb(0,0,0)" stroke-width="1" opacity="0" d="M 257 421 Q 260.7 419.8 259 425 Q 255.3 426.2 257 421 Z "/>
  <path fill="rgb(0,0,0)" stroke="rgb(0,0,0)" stroke-width="1" opacity="0" d="M 227 423 Q 230 422 229 425 Q 226 426 227 423 Z "/>
  <path fill="rgb(0,0,0)" stroke="rgb(0,0,0)" stroke-width="1" opacity="0" d="M 255.5 426 L 256.5 428 L 255.5 426 Z "/>
  <path fill="rgb(0,0,0)" stroke="rgb(0,0,0)" stroke-width="1" opacity="0" d="M 259 427 L 263 429.5 Q 263.7 432.1 261 431 Q 262 428 259 429 Q 260 432 257 431 L 259 427 Z "/>
  <path fill="rgb(0,0,0)" stroke="rgb(0,0,0)" stroke-width="1" opacity="0" d="M 229 429 Q 232 428 231 431 Q 228 432 229 429 Z "/>
  <path fill="rgb(0,0,0)" stroke="rgb(0,0,0)" stroke-width="1" opacity="0" d="M 253 429 Q 256 428 255 431 Q 252 432 253 429 Z "/>
  <path fill="rgb(0,0,0)" stroke="rgb(0,0,0)" stroke-width="1" opacity="0" d="M 255 433 L 259 435 Q 258 432 261 433 L 261 435 L 259 435 Q 260.1 437.7 257.5 437 L 255 433 Z "/>
  <path fill="rgb(0,0,0)" stroke="rgb(0,0,0)" stroke-width="1" opacity="0" d="M 263 433 Q 266 432 265 435 Q 262 436 263 433 Z "/>
  <path fill="rgb(0,0,0)" stroke="rgb(0,0,0)" stroke-width="1" opacity="0" d="M 261.5 436 L 262.5 438 L 261.5 436 Z "/>
  <path fill="rgb(0,0,0)" stroke="rgb(0,0,0)" stroke-width="1" opacity="0" d="M 265 437 Q 268 436 267 439 Q 264 440 265 437 Z "/>
  <path fill="rgb(0,0,0)" stroke="rgb(0,0,0)" stroke-width="1" opacity="0" d="M 259 439 Q 262 438 261 441 Q 258 442 259 439 Z "/>
  <path fill="rgb(0,0,0)" stroke="rgb(0,0,0)" stroke-width="1" opacity="0" d="M 263.5 440 L 264.5 442 L 263.5 440 Z "/>
  <path fill="rgb(0,0,0)" stroke="rgb(0,0,0)" stroke-width="1" opacity="0" d="M 265 449 Q 268 448 267 451 Q 264 452 265 449 Z "/>
  <path fill="rgb(0,0,0)" stroke="rgb(0,0,0)" stroke-width="1" opacity="0" d="M 271 459 Q 274 458 273 461 Q 270 462 271 459 Z "/>
  <path fill="rgb(0,0,0)" stroke="rgb(0,0,0)" stroke-width="1" opacity="0" d="M 277 469 Q 280 468 279 471 Q 276 472 277 469 Z "/>
  <path fill="rgb(0,0,0)" stroke="rgb(0,0,0)" stroke-width="1" opacity="0" d="M 279 473 Q 282 472 281 475 Q 278 476 279 473 Z "/>
  <path fill="rgb(0,0,0)" stroke="rgb(0,0,0)" stroke-width="1" opacity="0" d="M 103 511 Q 106 510 105 513 Q 102 514 103 511 Z "/>
  <path fill="rgb(0,0,0)" stroke="rgb(0,0,0)" stroke-width="1" opacity="0" d="M 105 515 Q 108 514 107 517 Q 104 518 105 515 Z "/>
  <path fill="rgb(0,0,0)" stroke="rgb(0,0,0)" stroke-width="1" opacity="0" d="M 107 521 Q 110 520 109 523 Q 106 524 107 521 Z "/>
  <path fill="rgb(0,0,0)" stroke="rgb(0,0,0)" stroke-width="1" opacity="0" d="M 109 525 Q 112 524 111 527 Q 108 528 109 525 Z "/>
  <path fill="rgb(255,255,255)" stroke="rgb(255,255,255)" stroke-width="1" opacity="0.7294117647058823" d="M 315 0 Q 318.3 -1.1 317 3 Q 313.7 4.1 315 0 Z "/>
  <path fill="rgb(255,255,255)" stroke="rgb(255,255,255)" stroke-width="1" opacity="0.7294117647058823" d="M 363 0 Q 366.3 -1.1 365 3 Q 361.7 4.1 363 0 Z "/>
  <path fill="rgb(255,255,255)" stroke="rgb(255,255,255)" stroke-width="1" opacity="0.7294117647058823" d="M 295 5 L 313 5.5 L 311.5 7 L 295.5 7 L 293.5 9 L 281.5 9 Q 279.5 13 271.5 11 L 269.5 13 L 263.5 13 L 261.5 15 Q 255 13.5 253.5 17 L 247.5 17 L 245.5 19 L 241.5 19 L 239.5 21 L 235.5 21 L 227.5 25 L 223 25 L 223 23 L 229 23 L 229 21 L 235 21 L 235 19 L 241 19 L 241 17 L 247 17 L 247.5 15 L 254.5 15 L 255 13 L 262.5 13 L 263.5 11 L 270.5 11 L 271.5 9 L 280.5 9 L 281.5 7 L 294.5 7 L 295 5 Z "/>
  <path fill="rgb(255,255,255)" stroke="rgb(255,255,255)" stroke-width="1" opacity="0.7294117647058823" d="M 367.5 5 L 384.5 5 L 385.5 7 L 396.5 7 L 397.5 9 L 408.5 9 L 409.5 11 L 416.5 11 L 417.5 13 L 424.5 13 L 425.5 15 L 433 15 L 433 17 L 438.5 17 L 439 19 L 445 19 L 445 21 L 451 21 L 451 23 L 457 23 L 457 25 L 452.5 25 L 450.5 23 L 446.5 23 L 444.5 21 L 440.5 21 L 432.5 17 L 426.5 17 L 424.5 15 L 418.5 15 Q 417 11.5 410.5 13 L 408.5 11 L 398.5 11 L 396.5 9 L 386.5 9 L 384.5 7 L 368.5 7 L 367.5 5 Z "/>
  <path fill="rgb(255,255,255)" stroke="rgb(255,255,255)" stroke-width="1" opacity="0.7294117647058823" d="M 213 27 L 217 27.5 L 213 29 L 213 27 Z "/>
  <path fill="rgb(255,255,255)" stroke="rgb(255,255,255)" stroke-width="1" opacity="0.7294117647058823" d="M 463.5 27 Q 468.3 25.7 467 29 Q 463.2 29.8 463.5 27 Z "/>
  <path fill="rgb(255,255,255)" stroke="rgb(255,255,255)" stroke-width="1" opacity="0.7294117647058823" d="M 171 47 L 175 47.5 L 171 49 L 171 47 Z "/>
  <path fill="rgb(255,255,255)" stroke="rgb(255,255,255)" stroke-width="1" opacity="0.7294117647058823" d="M 505.5 47 Q 510.3 45.7 509 49 Q 505.2 49.8 505.5 47 Z "/>
  <path fill="rgb(255,255,255)" stroke="rgb(255,255,255)" stroke-width="1" opacity="0.7294117647058823" d="M 161 53 L 165 53.5 L 161 55 L 161 53 Z "/>
  <path fill="rgb(255,255,255)" stroke="rgb(255,255,255)" stroke-width="1" opacity="0.7294117647058823" d="M 515.5 53 Q 520.3 51.7 519 55 Q 515.2 55.8 515.5 53 Z "/>
  <path fill="rgb(255,255,255)" stroke="rgb(255,255,255)" stroke-width="1" opacity="0.7294117647058823" d="M 155 57 L 159 57.5 L 155 59 L 155 57 Z "/>
  <path fill="rgb(255,255,255)" stroke="rgb(255,255,255)" stroke-width="1" opacity="0.7294117647058823" d="M 521.5 57 Q 526.3 55.7 525 59 Q 521.2 59.8 521.5 57 Z "/>
  <path fill="rgb(255,255,255)" stroke="rgb(255,255,255)" stroke-width="1" opacity="0.7294117647058823" d="M 149 61 L 153 61.5 L 149 63 L 149 61 Z "/>
  <path fill="rgb(255,255,255)" stroke="rgb(255,255,255)" stroke-width="1" opacity="0.7294117647058823" d="M 527.5 61 Q 532.3 59.7 531 63 Q 527.2 63.8 527.5 61 Z "/>
  <path fill="rgb(255,255,255)" stroke="rgb(255,255,255)" stroke-width="1" opacity="0.7294117647058823" d="M 142.5 65 L 147 65.5 L 143 67 Q 144 70 141 69 Q 139.9 66.3 142.5 67 L 142.5 65 Z "/>
  <path fill="rgb(255,255,255)" stroke="rgb(255,255,255)" stroke-width="1" opacity="0.7294117647058823" d="M 533.5 65 L 538 65.5 L 537.5 67 Q 540.1 66.3 539 69 Q 536 70 537 67 L 534.5 67 L 533.5 65 Z "/>
  <path fill="rgb(255,255,255)" stroke="rgb(255,255,255)" stroke-width="1" opacity="0.7294117647058823" d="M 134.5 71 L 139 71.5 L 135 73 Q 136 76 133 75 Q 131.9 72.3 134.5 73 L 134.5 71 Z "/>
  <path fill="rgb(255,255,255)" stroke="rgb(255,255,255)" stroke-width="1" opacity="0.7294117647058823" d="M 541.5 71 L 546 71.5 L 545.5 73 Q 548.1 72.3 547 75 Q 544 76 545 73 L 542.5 73 L 541.5 71 Z "/>
  <path fill="rgb(255,255,255)" stroke="rgb(255,255,255)" stroke-width="1" opacity="0.7294117647058823" d="M 126.5 77 L 131 77.5 L 127 79 L 127 81 L 125 81 L 125 83 L 121 85 Q 119.9 82.3 122.5 83 L 122.5 81 L 125 80.5 L 124.5 79 L 127 78.5 L 126.5 77 Z "/>
  <path fill="rgb(255,255,255)" stroke="rgb(255,255,255)" stroke-width="1" opacity="0.7294117647058823" d="M 549.5 77 L 554 77.5 L 553.5 79 L 556 79.5 L 555.5 81 L 558 81.5 L 557.5 83 L 560 83.5 L 559.5 85 Q 562.1 84.3 561 87 L 559 87 L 559 85 L 557 85 L 557 83 L 555 83 L 553 79 L 550.5 79 L 549.5 77 Z "/>
  <path fill="rgb(255,255,255)" stroke="rgb(255,255,255)" stroke-width="1" opacity="0.7294117647058823" d="M 114.5 87 L 119 87.5 L 115 89 L 115 91 L 113 91 L 113 93 L 111 93 L 111 95 L 109 95 L 109 97 L 107 97 L 107 99 L 105 99 L 105 101 L 103 101 L 103 103 L 101 103 L 101 105 L 99 105 L 99 107 L 97 107 L 97 109 L 95 109 L 95 111 L 93 111 L 93 113 L 91 113 L 91 115 L 89 115 Q 90.1 117.7 87.5 117 L 86.5 115 L 89 114.5 L 88.5 113 L 91 112.5 L 90.5 111 L 93 110.5 L 92.5 109 L 95 108.5 L 94.5 107 L 97 106.5 L 96.5 105 L 99 104.5 L 98.5 103 L 101 102.5 L 100.5 101 L 103 100.5 L 102.5 99 L 105 98.5 L 104.5 97 L 107 96.5 L 106.5 95 L 109 94.5 L 108.5 93 L 111 92.5 L 110.5 91 L 113 90.5 L 112.5 89 L 115 88.5 L 114.5 87 Z "/>
  <path fill="rgb(255,255,255)" stroke="rgb(255,255,255)" stroke-width="1" opacity="0.7294117647058823" d="M 563.5 89 L 568 89.5 L 567.5 91 L 570 91.5 L 569.5 93 L 572 93.5 L 571.5 95 L 574 95.5 L 573.5 97 L 576 97.5 L 575.5 99 L 578 99.5 L 577.5 101 L 580 101.5 L 579.5 103 L 582 103.5 L 581.5 105 L 584 105.5 L 583.5 107 L 586 107.5 L 585.5 109 L 588 109.5 L 587.5 111 L 590 111.5 L 587 113 L 587 111 L 585 111 L 585 109 L 583 109 L 583 107 L 581 107 L 581 105 L 579 105 L 579 103 L 577 103 L 577 101 L 575 101 L 575 99 L 573 99 L 573 97 L 571 97 L 571 95 L 569 95 L 567 91 L 564.5 91 L 563.5 89 Z "/>
  <path fill="rgb(255,255,255)" stroke="rgb(255,255,255)" stroke-width="1" opacity="0.7294117647058823" d="M 593 119 L 596 119.5 L 595.5 121 L 598 121.5 L 597.5 123 L 600 123.5 L 597 125 L 597 123 L 595 123 L 593 119 Z "/>
  <path fill="rgb(255,255,255)" stroke="rgb(255,255,255)" stroke-width="1" opacity="0.7294117647058823" d="M 80.5 123 Q 84.3 122 83 125 L 81 125 Q 82.1 127.7 79.5 127 L 78.5 125 L 81 124.5 L 80.5 123 Z "/>
  <path fill="rgb(255,255,255)" stroke="rgb(255,255,255)" stroke-width="1" opacity="0.7294117647058823" d="M 561 127 Q 566.2 125.3 565 129 Q 559.8 127.3 561 131 L 565 131 L 565 140.5 L 567 141.5 L 567.5 131 L 569 132.5 L 569 141.5 L 567 143.5 L 567 155.5 L 565 157.5 L 565 169.5 L 563 171.5 L 563 177.5 L 561 181 Q 558 179.8 559 183.5 L 557 187 Q 554 185.8 555 189.5 L 553 193 L 549 195 L 549 197.5 L 547 201 Q 544 199.8 545 203.5 L 543 207 L 539 209 L 539 211.5 L 537 215 L 533 217 L 533 219.5 L 531 223 L 529 223 L 529 225 L 525 227 L 525 229.5 L 523 233 L 521 233 L 521 235 L 519 235 L 519 237 L 515 239 L 515 241.5 L 513 245 L 511 245 L 511 247 L 509 247 L 509 249 L 507 249 L 507 251 L 503 253 L 503 255.5 L 501 259 L 499 259 L 499 261 L 497 261 L 497 263 L 495 263 L 495 265 L 493 265 L 493 267 L 491 267 L 491 269 L 489 269 L 489 271 L 487 271 L 487 273 L 485 273 L 485 275 L 481 277 L 481 279.5 L 479 283 L 477 283 L 477 285 L 475 285 L 475 287 L 473 287 L 473 289 L 471 289 L 471 291 L 469 291 L 469 293 L 467 293 L 467 295 L 465 295 L 465 297 L 463 297 L 463 299 L 461 299 L 461 301 L 459 301 L 459 303 L 457 303 L 457 305 L 455 305 L 455 307 L 453 307 Q 454.1 309.7 451.5 309 Q 450.1 313.8 445 313 L 445 315 L 443 315 L 443 317 L 441 317 L 441 319 L 439 319 L 439 321 L 437 321 L 437 323 L 435 323 L 435 325 L 433 325 L 433 327 L 431 327 L 431 329 L 429 329 L 429 331 L 427 331 Q 428.1 333.7 425.5 333 Q 424.1 337.8 419 337 L 419 339 L 417 339 L 417 341 L 415 341 L 415 343 L 413 343 Q 414.1 345.7 411.5 345 Q 410.1 349.8 405 349 L 405 351 L 403 351 L 403 353 L 401 353 L 401 355 L 399 355 Q 400.1 357.7 397.5 357 Q 396.1 361.8 391 361 L 391 363 L 389 363 Q 390.1 365.7 387.5 365 Q 386.1 369.8 381 369 L 381 371 L 379 371 Q 380.1 373.7 377.5 373 Q 376.1 377.8 371 377 L 371 379 L 369 379 Q 370.1 381.7 367.5 381 Q 366.1 385.8 361 385 Q 362.1 387.7 359.5 387 Q 358.1 391.8 353 391 Q 354.1 393.7 351.5 393 Q 350.1 397.8 345 397 Q 346.1 399.7 343.5 399 L 333.5 407 L 331 407 Q 332.1 409.7 329.5 409 L 313.5 421 L 311 421 Q 312.1 423.7 309.5 423 L 281.5 443 L 273.5 447 L 270.5 447 L 267 445 L 271 455 Q 273.7 453.9 273 456.5 L 277 462.5 L 277 465 Q 279.7 463.9 279 466.5 L 283 472.5 L 283 475 Q 286.7 473.8 285 479 Q 282 480.3 283 476.5 L 281 477.5 L 281 479 L 277 479 L 277 481 L 281 481.5 L 271.5 487 L 268.5 487 L 267.5 485 L 272.5 485 Q 271.5 482 276.5 483 L 275.5 481 L 271.5 483 L 266.5 483 L 263 481.5 L 263 479 L 261 479 L 261 477 L 259 477 L 259 475 L 257 475 L 257 473 L 255 473 L 255 471 L 253 471 L 253 469 L 251 469 L 251 467 L 249 467 L 249 465 Q 246.3 466.1 247 463.5 L 246 463.5 Q 246.8 466.1 243.5 465 L 239.5 469 L 233.5 471 L 229.5 475 L 223.5 477 L 209.5 487 L 199.5 491 L 195.5 495 L 181.5 501 L 177.5 505 L 117.5 535 L 114.5 535 L 109 531 L 103 519.5 L 103 515.5 L 99 509.5 L 99 506.5 L 101 505.5 L 101.5 510 Q 104 508.8 103 505 Q 107.3 506 108.5 503 L 113 503 L 113 501 L 107 501 Q 108.3 504.3 103.5 503 L 104.5 501 L 108.5 499 L 112.5 499 L 164.5 473 L 168.5 469 L 186.5 461 L 190.5 457 L 200.5 453 L 204.5 449 L 210.5 447 L 214.5 443 L 220.5 441 Q 223 436.5 229 435.5 L 227 433.5 L 225 423.5 L 221 417.5 L 221 413 Q 217.3 414.2 219 409 L 221 409 L 221 407 L 223 407 Q 221.9 404.3 224.5 405 L 233 398.5 L 233 397 L 237 397 L 237 399 Q 231.8 397.3 233 401 L 238.5 402 Q 239.7 399.8 241 402.5 L 241 405 Q 243.7 403.9 243 406.5 L 247 412.5 L 247 415 Q 249.7 413.9 249 416.5 L 253 422.5 L 253 425 Q 256.7 426.4 255 420.5 L 257 417 L 262.5 413 L 264.5 413 L 268.5 409 L 275 407 Q 273.9 404.3 276.5 405 L 298.5 389 L 301 389 Q 299.9 386.3 302.5 387 L 312.5 379 L 315 379 Q 313.9 376.3 316.5 377 Q 317.9 372.3 323 373 Q 321.9 370.3 324.5 371 Q 325.9 366.3 331 367 Q 329.9 364.3 332.5 365 Q 333.9 360.3 339 361 L 339 359 L 341 359 Q 339.9 356.3 342.5 357 Q 343.9 352.3 349 353 L 349 351 L 351 351 Q 349.9 348.3 352.5 349 Q 353.9 344.3 359 345 L 359 343 L 361 343 Q 359.9 340.3 362.5 341 Q 363.9 336.2 369 337 L 369 335 L 371 335 L 371 333 L 373 333 Q 371.9 330.3 374.5 331 Q 375.9 326.3 381 327 L 381 325 L 383 325 L 383 323 L 385 323 L 385 321 L 387 321 Q 385.9 318.3 388.5 319 Q 389.9 314.3 395 315 L 395 313 L 397 313 L 397 311 L 399 311 L 399 309 L 401 309 L 401 307 L 403 307 L 403 305 L 405 305 Q 403.9 302.3 406.5 303 Q 407.9 298.3 413 299 L 413 297 L 415 297 L 415 295 L 417 295 L 417 293 L 419 293 L 419 291 L 421 291 L 421 289 L 423 289 L 423 287 L 425 287 L 425 285 L 427 285 L 427 283 L 429 283 L 429 281 L 431 281 L 431 279 L 433 279 L 433 277 L 435 277 L 435 275 L 437 275 L 437 273 L 439 273 L 439 271 L 441 271 L 441 269 L 443 269 L 443 267 L 445 267 L 445 265 L 447 265 L 447 263 L 449 263 L 449 261 L 451 261 L 451 259 L 453 259 L 453 257 L 455 257 L 455 255 L 457 255 L 457 253 L 459 253 L 459 251 L 461 251 L 461 249 L 463 249 L 463 247 L 465 247 L 465 245 L 467 245 L 467 243 L 471 241 L 471 239 L 473 239 L 473 237 L 475 237 L 475 234.5 L 477 231 L 479 231 L 479 229 L 481 229 L 481 227 L 483 227 L 483 225 L 485 225 L 485 223 L 487 223 L 487 221 L 489 221 L 489 219 L 493 217 L 493 214.5 L 495 211 L 497 211 L 497 209 L 499 209 L 499 207 L 503 205 L 503 202.5 L 505 199 L 507 199 L 507 197 L 509 197 L 509 195 L 513 193 L 513 190.5 L 515 187 L 517 187 L 517 185 L 521 183 L 521 180.5 L 523 177 L 525 177 L 525 175 L 529 173 L 529 170.5 L 531 167 L 535 165 L 535 162.5 L 537 159 Q 540 160.3 539 156.5 L 541 153 L 545 151 L 545 148.5 L 547 145 L 551 143 L 551 140.5 L 553 137 Q 556 138.3 555 134.5 L 557 131 L 561 128.5 L 561 127 Z M 559 131 Q 558 134 561 133 Q 562 130 559 131 Z M 557 135 L 555 139 L 559 137 Q 560 134 557 135 Z M 553 141 L 553 143 L 551 144 Q 553 147 555 143 Q 556 140 553 141 Z M 563 143 Q 562 146 565 145 Q 566 142 563 143 Z M 549 145 L 549 147 L 552 146 L 549 145 Z M 565 146 Q 561 148 563 155 L 565 156 L 565 146 Z M 547 149 L 547 151 L 545 152 Q 547 155 549 151 Q 550 148 547 149 Z M 543 153 L 543 155 L 546 154 L 543 153 Z M 541 157 L 539 161 L 543 159 Q 544 156 541 157 Z M 561 157 Q 560 160 563 159 Q 564 156 561 157 Z M 563 160 Q 559 162 561 169 L 563 170 L 563 160 Z M 537 163 L 537 165 L 535 166 Q 537 169 539 165 Q 540 162 537 163 Z M 533 167 L 533 169 L 536 168 L 533 167 Z M 531 171 L 531 173 L 529 174 Q 531 177 533 173 Q 534 170 531 171 Z M 559 171 Q 558 174 561 173 Q 562 170 559 171 Z M 561 174 L 559 176 Q 558 178 561 177 L 561 174 Z M 528 175 Q 528 179 530 176 L 528 175 Z M 525 177 L 525 179 L 528 178 L 525 177 Z M 558 179 L 555 183 L 559 181 Q 560 178 558 179 Z M 523 181 L 523 183 L 521 184 Q 523 187 525 183 Q 526 180 523 181 Z M 520 185 Q 520 189 522 186 L 520 185 Z M 554 185 L 551 189 L 555 187 Q 556 184 554 185 Z M 517 187 L 517 189 L 520 188 L 517 187 Z M 515 191 L 515 193 L 513 194 Q 515 197 517 193 Q 518 190 515 191 Z M 550 191 L 548 193 L 551 193 Q 552 190 550 191 Z M 548 193 L 545 197 L 547 197 Q 546 194 549 195 L 548 193 Z M 512 195 Q 512 199 514 196 L 512 195 Z M 510 197 Q 510 201 512 198 L 510 197 Z M 507 199 L 507 201 L 510 200 L 507 199 Z M 544 199 L 541 203 L 545 201 Q 546 198 544 199 Z M 505 203 L 505 205 L 503 206 Q 505 209 507 205 Q 508 202 505 203 Z M 540 205 L 538 207 L 541 207 Q 542 204 540 205 Z M 502 207 Q 502 211 504 208 L 502 207 Z M 538 207 L 535 211 L 537 211 Q 536 208 539 209 L 538 207 Z M 500 209 Q 500 213 502 210 L 500 209 Z M 497 211 L 497 213 L 500 212 L 497 211 Z M 534 213 L 532 215 L 535 215 Q 536 212 534 213 Z M 495 215 L 495 217 L 493 218 Q 495 221 497 217 Q 498 214 495 215 Z M 532 215 L 529 219 L 531 219 Q 530 216 533 217 L 532 215 Z M 492 219 Q 492 223 494 220 L 492 219 Z M 490 221 Q 490 225 492 222 L 490 221 Z M 528 221 L 526 223 L 529 223 Q 530 220 528 221 Z M 488 223 Q 488 227 490 224 L 488 223 Z M 526 223 L 524 225 L 527 225 L 526 223 Z M 486 225 Q 486 229 488 226 L 486 225 Z M 524 225 L 521 229 L 523 229 Q 522 226 525 227 L 524 225 Z M 484 227 Q 484 231 486 228 L 484 227 Z M 482 229 Q 482 233 484 230 L 482 229 Z M 479 231 L 479 233 L 482 232 L 479 231 Z M 520 231 L 518 233 L 521 233 Q 522 230 520 231 Z M 518 233 L 516 235 L 519 235 L 518 233 Z M 477 235 L 477 237 L 475 238 Q 477 241 479 237 Q 480 234 477 235 Z M 516 235 L 514 237 L 517 237 L 516 235 Z M 514 237 L 511 241 L 513 241 Q 512 238 515 239 L 514 237 Z M 474 239 Q 474 243 476 240 L 474 239 Z M 472 241 Q 472 245 474 242 L 472 241 Z M 470 243 Q 470 247 472 244 L 470 243 Z M 510 243 L 508 245 L 511 245 Q 512 242 510 243 Z M 468 245 Q 468 249 470 246 L 468 245 Z M 508 245 L 506 247 L 509 247 L 508 245 Z M 466 247 Q 466 251 468 248 L 466 247 Z M 506 247 L 504 249 L 507 249 L 506 247 Z M 464 249 Q 464 253 466 250 L 464 249 Z M 504 249 L 502 251 L 505 251 L 504 249 Z M 462 251 Q 462 255 464 252 L 462 251 Z M 502 251 L 499 255 L 501 255 Q 500 252 503 253 L 502 251 Z M 460 253 Q 460 257 462 254 L 460 253 Z M 458 255 Q 458 259 460 256 L 458 255 Z M 456 257 Q 456 261 458 258 L 456 257 Z M 498 257 L 496 259 L 499 259 Q 500 256 498 257 Z M 454 259 Q 454 263 456 260 L 454 259 Z M 496 259 L 494 261 L 497 261 L 496 259 Z M 452 261 Q 452 265 454 262 L 452 261 Z M 494 261 L 492 263 L 495 263 L 494 261 Z M 450 263 Q 450 267 452 264 L 450 263 Z M 492 263 L 490 265 L 493 265 L 492 263 Z M 448 265 Q 448 269 450 266 L 448 265 Z M 490 265 L 488 267 L 491 267 L 490 265 Z M 446 267 Q 446 271 448 268 L 446 267 Z M 488 267 L 486 269 L 489 269 L 488 267 Z M 444 269 Q 444 273 446 270 L 444 269 Z M 486 269 L 484 271 L 487 271 L 486 269 Z M 442 271 Q 442 275 444 272 L 442 271 Z M 484 271 L 482 273 L 485 273 L 484 271 Z M 440 273 Q 440 277 442 274 L 440 273 Z M 482 273 L 480 275 L 483 275 L 482 273 Z M 438 275 Q 438 279 440 276 L 438 275 Z M 480 275 L 477 279 L 479 279 Q 478 276 481 277 L 480 275 Z M 436 277 Q 436 281 438 278 L 436 277 Z M 434 279 Q 434 283 436 280 L 434 279 Z M 432 281 Q 432 285 434 282 L 432 281 Z M 476 281 L 474 283 L 477 283 Q 478 280 476 281 Z M 430 283 Q 430 287 432 284 L 430 283 Z M 474 283 L 472 285 L 475 285 L 474 283 Z M 428 285 Q 428 289 430 286 L 428 285 Z M 472 285 L 470 287 L 473 287 L 472 285 Z M 426 287 Q 426 291 428 288 L 426 287 Z M 470 287 L 468 289 L 471 289 L 470 287 Z M 424 289 Q 424 293 426 290 L 424 289 Z M 468 289 L 466 291 L 469 291 L 468 289 Z M 422 291 Q 422 295 424 292 L 422 291 Z M 466 291 L 464 293 L 467 293 L 466 291 Z M 420 293 Q 420 297 422 294 L 420 293 Z M 464 293 L 462 295 L 465 295 L 464 293 Z M 418 295 Q 418 299 420 296 L 418 295 Z M 462 295 L 460 297 L 463 297 L 462 295 Z M 416 297 Q 416 301 418 298 L 416 297 Z M 460 297 L 458 299 L 461 299 L 460 297 Z M 414 299 Q 414 303 416 300 L 414 299 Z M 458 299 L 456 301 L 459 301 L 458 299 Z M 410 301 L 411 303 L 414 302 L 410 301 Z M 456 301 L 454 303 L 457 303 L 456 301 Z M 407 303 L 407 305 L 405 306 Q 407 309 409 305 Q 410 302 407 303 Z M 454 303 L 452 305 L 455 305 L 454 303 Z M 452 305 L 449 309 L 451 309 Q 450 306 453 307 L 452 305 Z M 404 307 Q 404 311 406 308 L 404 307 Z M 402 309 Q 402 313 404 310 L 402 309 Z M 446 309 L 445 311 L 449 311 L 446 309 Z M 400 311 Q 400 315 402 312 L 400 311 Z M 444 311 L 442 313 L 445 313 L 444 311 Z M 398 313 Q 398 317 400 314 L 398 313 Z M 442 313 L 440 315 L 443 315 L 442 313 Z M 396 315 Q 396 319 398 316 L 396 315 Z M 440 315 L 438 317 L 441 317 L 440 315 Z M 392 317 L 393 319 L 396 318 L 392 317 Z M 438 317 L 436 319 L 439 319 L 438 317 Z M 389 319 L 389 321 L 387 322 Q 389 325 391 321 Q 392 318 389 319 Z M 436 319 L 434 321 L 437 321 L 436 319 Z M 434 321 L 432 323 L 435 323 L 434 321 Z M 386 323 Q 386 327 388 324 L 386 323 Z M 432 323 L 430 325 L 433 325 L 432 323 Z M 384 325 Q 384 329 386 326 L 384 325 Z M 430 325 L 428 327 L 431 327 L 430 325 Z M 382 327 Q 382 331 384 328 L 382 327 Z M 428 327 L 426 329 L 429 329 L 428 327 Z M 378 329 L 379 331 L 382 330 L 378 329 Z M 426 329 L 423 333 L 425 333 Q 424 330 427 331 L 426 329 Z M 375 331 L 375 333 L 373 334 Q 375 337 377 333 Q 378 330 375 331 Z M 420 333 L 419 335 L 423 335 L 420 333 Z M 372 335 Q 372 339 374 336 L 372 335 Z M 418 335 L 416 337 L 419 337 L 418 335 Z M 370 337 Q 370 341 372 338 L 370 337 Z M 416 337 L 414 339 L 417 339 L 416 337 Z M 366 339 L 367 341 L 370 340 L 366 339 Z M 414 339 L 412 341 L 415 341 L 414 339 Z M 363 341 L 363 343 L 361 344 Q 363 347 365 343 Q 366 340 363 341 Z M 412 341 L 409 345 L 411 345 Q 410 342 413 343 L 412 341 Z M 360 345 Q 360 349 362 346 L 360 345 Z M 406 345 L 405 347 L 409 347 L 406 345 Z M 356 347 L 357 349 L 360 348 L 356 347 Z M 404 347 L 402 349 L 405 349 L 404 347 Z M 353 349 L 353 351 L 351 352 Q 353 355 355 351 Q 356 348 353 349 Z M 402 349 L 400 351 L 403 351 L 402 349 Z M 400 351 L 398 353 L 401 353 L 400 351 Z M 350 353 Q 350 357 352 354 L 350 353 Z M 398 353 L 395 357 L 397 357 Q 396 354 399 355 L 398 353 Z M 346 355 L 347 357 L 350 356 L 346 355 Z M 343 357 L 343 359 L 341 360 Q 343 363 345 359 Q 346 356 343 357 Z M 392 357 L 391 359 L 395 359 L 392 357 Z M 390 359 L 388 361 L 391 361 L 390 359 Z M 340 361 Q 340 365 342 362 L 340 361 Z M 388 361 L 385 365 L 387 365 Q 386 362 389 363 L 388 361 Z M 336 363 L 337 365 L 340 364 L 336 363 Z M 333 365 L 333 367 L 331 368 Q 333 371 335 367 Q 336 364 333 365 Z M 382 365 L 381 367 L 385 367 L 382 365 Z M 380 367 L 378 369 L 381 369 L 380 367 Z M 328 369 L 329 371 L 332 370 L 328 369 Z M 378 369 L 375 373 L 377 373 Q 376 370 379 371 L 378 369 Z M 325 371 L 325 373 L 323 374 Q 325 377 327 373 Q 328 370 325 371 Z M 372 373 L 371 375 L 375 375 L 372 373 Z M 320 375 L 321 377 L 324 376 L 320 375 Z M 370 375 L 368 377 L 371 377 L 370 375 Z M 317 377 L 317 379 L 315 380 Q 317 383 319 379 Q 320 376 317 377 Z M 368 377 L 365 381 L 367 381 Q 366 378 369 379 L 368 377 Z M 312 381 L 313 383 L 316 382 L 312 381 Z M 362 381 L 361 383 L 365 383 L 362 381 Z M 309 383 Q 310 386 306 385 L 307 387 Q 311 387 311 385 Q 312 382 309 383 Z M 360 383 L 357 387 L 359 387 Q 358 384 361 385 L 360 383 Z M 303 387 L 303 389 L 301 390 Q 303 393 305 389 Q 306 386 303 387 Z M 354 387 L 353 389 L 357 389 L 354 387 Z M 352 389 L 349 393 L 351 393 Q 350 390 353 391 L 352 389 Z M 298 391 L 299 393 L 302 392 L 298 391 Z M 295 393 Q 296 396 292 395 L 293 397 Q 297 398 297 395 Q 298 392 295 393 Z M 346 393 L 345 395 L 349 395 L 346 393 Z M 344 395 L 341 399 L 343 399 Q 342 396 345 397 L 344 395 Z M 289 397 Q 290 400 286 399 L 287 401 Q 290 402 291 399 Q 292 396 289 397 Z M 338 399 L 335 403 Q 338 404 337 401 L 341 401 L 338 399 Z M 232 401 L 233 403 Q 234 400 232 401 Z M 283 401 Q 284 404 280 403 L 281 405 Q 285 406 285 403 Q 286 400 283 401 Z M 228 403 L 229 405 L 232 404 L 228 403 Z M 237 403 L 237 405 L 241 407 L 239 403 L 237 403 Z M 332 403 L 331 405 L 335 405 L 332 403 Z M 225 405 L 223 409 L 227 407 Q 228 404 225 405 Z M 277 405 L 277 407 L 275 408 Q 277 411 279 407 Q 280 404 277 405 Z M 330 405 L 327 409 L 329 409 Q 328 406 331 407 L 330 405 Z M 241 409 Q 240 412 243 411 Q 244 408 241 409 Z M 272 409 L 273 411 L 276 410 L 272 409 Z M 324 409 L 321 413 Q 324 414 323 411 L 327 411 L 324 409 Z M 268 411 Q 267 414 271 413 Q 272 410 268 411 Z M 223 413 Q 222 416 225 415 Q 226 412 223 413 Z M 243 413 L 243 415 L 247 417 L 245 413 L 243 413 Z M 265 413 Q 266 416 262 415 L 263 417 Q 267 418 267 415 Q 268 412 265 413 Z M 318 413 L 315 417 Q 318 418 317 415 L 321 415 L 318 413 Z M 259 417 Q 258 420 261 419 Q 262 416 259 417 Z M 312 417 L 311 419 L 315 419 L 312 417 Z M 225 419 Q 224 422 227 421 Q 228 418 225 419 Z M 247 419 Q 246 422 249 421 Q 250 418 247 419 Z M 310 419 L 307 423 L 309 423 Q 308 420 311 421 L 310 419 Z M 257 421 Q 255 426 259 425 Q 261 420 257 421 Z M 227 423 Q 226 426 229 425 Q 230 422 227 423 Z M 249 423 L 249 425 L 253 427 L 251 423 L 249 423 Z M 304 423 L 301 427 Q 304 428 303 425 L 307 425 L 304 423 Z M 259 427 L 261 431 Q 264 432 263 430 L 259 427 Z M 298 427 L 295 431 Q 298 432 297 429 L 301 429 L 298 427 Z M 229 429 Q 228 432 231 431 Q 232 428 229 429 Z M 253 429 Q 252 432 255 431 Q 256 428 253 429 Z M 257 429 Q 256 432 259 431 Q 260 428 257 429 Z M 292 431 L 289 435 Q 292 436 291 433 L 295 433 L 292 431 Z M 255 433 L 255 435 L 259 437 L 257 433 L 255 433 Z M 259 433 Q 258 436 261 435 Q 262 432 259 433 Z M 263 433 Q 262 436 265 435 Q 266 432 263 433 Z M 231 435 Q 230 438 233 437 Q 234 434 231 435 Z M 286 435 L 283 439 Q 286 440 285 437 L 289 437 L 286 435 Z M 228 437 Q 227 440 231 439 Q 232 436 228 437 Z M 265 437 Q 264 440 267 439 Q 268 436 265 437 Z M 224 439 Q 223 442 227 441 Q 228 438 224 439 Z M 259 439 Q 258 442 261 441 Q 262 438 259 439 Z M 279 439 L 279 441 L 283 441 L 279 439 Z M 221 441 Q 222 444 218 443 L 219 445 Q 222 445 223 443 Q 224 440 221 441 Z M 267 441 L 267 443 L 270 443 L 267 441 Z M 276 441 L 275 443 L 279 443 L 276 441 Z M 261 443 L 261 445 L 265 447 L 263 443 L 261 443 Z M 265 443 Q 264 446 267 445 Q 268 442 265 443 Z M 271 443 L 270 445 L 275 445 Q 274 442 271 443 Z M 214 445 Q 213 448 217 447 Q 218 444 214 445 Z M 211 447 Q 212 450 208 449 L 209 451 Q 213 451 213 449 Q 214 446 211 447 Z M 265 449 Q 264 452 267 451 Q 268 448 265 449 Z M 204 451 Q 203 454 207 453 Q 208 450 204 451 Z M 201 453 Q 202 456 198 455 L 199 457 Q 202 458 203 455 Q 204 452 201 453 Z M 267 453 L 267 455 L 271 457 L 269 453 L 267 453 Z M 194 457 Q 193 460 197 459 Q 198 456 194 457 Z M 190 459 Q 189 462 193 461 Q 194 458 190 459 Z M 271 459 Q 270 462 273 461 Q 274 458 271 459 Z M 187 461 Q 188 464 184 463 L 185 465 Q 189 466 189 463 Q 190 460 187 461 Z M 244 461 L 241 465 Q 244 466 243 463 L 246 463 Q 247 460 244 461 Z M 249 461 Q 247 464 250 463 L 249 461 Z M 251 463 L 249 465 L 252 465 L 251 463 Z M 273 463 L 273 465 L 277 467 L 275 463 L 273 463 Z M 180 465 Q 179 468 183 467 Q 184 464 180 465 Z M 237 465 L 237 467 L 241 467 L 237 465 Z M 253 465 L 251 467 L 254 467 L 253 465 Z M 176 467 Q 175 470 179 469 Q 180 466 176 467 Z M 234 467 L 231 471 Q 234 472 233 469 L 237 469 L 234 467 Z M 255 467 L 253 469 L 256 469 L 255 467 Z M 172 469 Q 171 472 175 471 Q 176 468 172 469 Z M 257 469 L 255 471 L 258 471 L 257 469 Z M 277 469 Q 276 472 279 471 Q 280 468 277 469 Z M 168 471 Q 167 474 171 473 Q 172 470 168 471 Z M 227 471 L 227 473 L 231 473 L 227 471 Z M 259 471 L 257 473 L 260 473 L 259 471 Z M 165 473 Q 166 476 162 475 L 163 477 Q 166 478 167 475 Q 168 472 165 473 Z M 224 473 L 221 477 Q 224 478 223 475 L 227 475 L 224 473 Z M 261 473 L 259 475 L 262 475 L 261 473 Z M 279 473 Q 278 476 281 475 Q 282 472 279 473 Z M 263 475 L 261 477 L 264 477 L 263 475 Z M 158 477 Q 157 480 161 479 Q 162 476 158 477 Z M 217 477 L 217 479 L 221 479 L 217 477 Z M 265 477 L 264 479 Q 266 478 265 481 L 267 481 L 265 477 Z M 154 479 Q 153 482 157 481 Q 158 478 154 479 Z M 214 479 L 211 483 Q 214 484 213 481 L 217 481 L 214 479 Z M 150 481 Q 149 484 153 483 Q 154 480 150 481 Z M 146 483 Q 145 486 149 485 Q 150 482 146 483 Z M 207 483 L 207 485 L 211 485 L 207 483 Z M 142 485 Q 141 488 145 487 Q 146 484 142 485 Z M 203 485 L 203 487 L 207 487 L 203 485 Z M 138 487 Q 137 490 141 489 Q 142 486 138 487 Z M 200 487 L 197 491 Q 200 492 199 489 L 203 489 L 200 487 Z M 134 489 Q 133 492 137 491 Q 138 488 134 489 Z M 130 491 Q 129 494 133 493 Q 134 490 130 491 Z M 193 491 L 193 493 L 197 493 L 193 491 Z M 126 493 Q 125 496 129 495 Q 130 492 126 493 Z M 189 493 L 189 495 L 193 495 L 189 493 Z M 122 495 Q 121 498 125 497 Q 126 494 122 495 Z M 185 495 L 185 497 L 189 497 L 185 495 Z M 118 497 Q 117 500 121 499 Q 122 496 118 497 Z M 182 497 L 179 501 Q 182 502 181 499 L 185 499 L 182 497 Z M 114 499 Q 113 502 117 501 Q 118 498 114 499 Z M 175 501 L 175 503 L 179 503 L 175 501 Z M 171 503 L 171 505 L 175 505 L 171 503 Z M 167 505 L 167 507 L 171 507 L 167 505 Z M 163 507 L 163 509 L 167 509 L 163 507 Z M 159 509 L 159 511 L 163 511 L 159 509 Z M 103 511 Q 102 514 105 513 Q 106 510 103 511 Z M 155 511 L 155 513 L 159 513 L 155 511 Z M 151 513 L 151 515 L 155 515 L 151 513 Z M 105 515 Q 104 518 107 517 Q 108 514 105 515 Z M 147 515 L 147 517 L 151 517 L 147 515 Z M 143 517 L 143 519 L 147 519 L 143 517 Z M 139 519 L 139 521 L 143 521 L 139 519 Z M 107 521 Q 106 524 109 523 Q 110 520 107 521 Z M 135 521 L 135 523 L 139 523 L 135 521 Z M 131 523 L 131 525 L 135 525 L 131 523 Z M 109 525 Q 108 528 111 527 Q 112 524 109 525 Z M 127 525 L 127 527 L 131 527 L 127 525 Z M 123 527 L 123 529 L 127 529 L 123 527 Z M 111 529 L 111 531 L 114 531 L 111 529 Z M 120 529 L 119 531 L 123 531 L 120 529 Z M 115 531 L 114 533 L 119 533 Q 118 530 115 531 Z "/>
  <path fill="rgb(255,255,255)" stroke="rgb(255,255,255)" stroke-width="1" opacity="0.7294117647058823" d="M 603 131 L 606 131.5 L 605.5 133 L 608 133.5 L 605 135 L 603 131 Z "/>
  <path fill="rgb(255,255,255)" stroke="rgb(255,255,255)" stroke-width="1" opacity="0.7294117647058823" d="M 72.5 133 Q 76.3 132 75 135 L 73 135 Q 74.1 137.7 71.5 137 L 70.5 135 L 73 134.5 L 72.5 133 Z "/>
  <path fill="rgb(255,255,255)" stroke="rgb(255,255,255)" stroke-width="1" opacity="0.7294117647058823" d="M 611 141 L 614 141.5 L 611 143 L 611 141 Z "/>
  <path fill="rgb(255,255,255)" stroke="rgb(255,255,255)" stroke-width="1" opacity="0.7294117647058823" d="M 60.5 149 Q 64.3 148 63 151 L 60.5 149 Z "/>
  <path fill="rgb(255,255,255)" stroke="rgb(255,255,255)" stroke-width="1" opacity="0.7294117647058823" d="M 0 311 L 3 311.5 L 0 313 L 0 311 Z "/>
  <path fill="rgb(255,255,255)" stroke="rgb(255,255,255)" stroke-width="1" opacity="0.7294117647058823" d="M 677.5 315 Q 681.3 314 680 317 L 677.5 315 Z "/>
  <path fill="rgb(255,255,255)" stroke="rgb(255,255,255)" stroke-width="1" opacity="0.7294117647058823" d="M 678.5 363 Q 681.1 362.3 680 365 L 677 364.5 L 678.5 363 Z "/>
  <path fill="rgb(255,255,255)" stroke="rgb(255,255,255)" stroke-width="1" opacity="0.7294117647058823" d="M 0 367 L 3 368.5 L 0 369 L 0 367 Z "/>
  <path fill="rgb(255,255,255)" stroke="rgb(255,255,255)" stroke-width="1" opacity="0.7294117647058823" d="M 617 529 L 620 530.5 L 617 531 L 617 529 Z "/>
  <path fill="rgb(255,255,255)" stroke="rgb(255,255,255)" stroke-width="1" opacity="0.7294117647058823" d="M 69.5 541 Q 72.1 540.3 71 543 L 73 543 L 73 545 L 70 544.5 L 70.5 543 L 68 542.5 L 69.5 541 Z "/>
  <path fill="rgb(255,255,255)" stroke="rgb(255,255,255)" stroke-width="1" opacity="0.7294117647058823" d="M 607 543 L 610 544.5 L 607 545 L 607 543 Z "/>
  <path fill="rgb(255,255,255)" stroke="rgb(255,255,255)" stroke-width="1" opacity="0.7294117647058823" d="M 77.5 551 Q 80.1 550.3 79 553 L 81 553 L 81 555 L 78 554.5 L 78.5 553 L 76 552.5 L 77.5 551 Z "/>
  <path fill="rgb(255,255,255)" stroke="rgb(255,255,255)" stroke-width="1" opacity="0.7294117647058823" d="M 601 551 L 604 552.5 L 601 553.5 L 601.5 555 L 599 555.5 L 599.5 557 Q 595.8 558 597 555 L 599 555 L 601 551 Z "/>
  <path fill="rgb(255,255,255)" stroke="rgb(255,255,255)" stroke-width="1" opacity="0.7294117647058823" d="M 85.5 561 Q 88.1 560.3 87 563 L 89 563 L 89 565 L 91 565 L 91 567 L 93 567 L 93 569 L 95 569 L 95 571 L 97 571 L 97 573 L 99 573 L 99 575 L 101 575 L 101 577 L 103 577 L 103 579 L 105 579 L 105 581 L 107 581 L 107 583 L 109 583 L 109 585 L 111 585 L 111 587 L 113 587 L 113 589 L 115 589 L 115 591 L 117 591 L 117 593 L 119 593 L 119 595 L 121.5 595 L 122.5 597 L 118 596.5 L 118.5 595 L 116 594.5 L 116.5 593 L 114 592.5 L 114.5 591 L 112 590.5 L 112.5 589 L 110 588.5 L 110.5 587 L 108 586.5 L 108.5 585 L 106 584.5 L 106.5 583 L 104 582.5 L 104.5 581 L 102 580.5 L 102.5 579 L 100 578.5 L 100.5 577 L 98 576.5 L 98.5 575 L 96 574.5 L 96.5 573 L 94 572.5 L 94.5 571 L 92 570.5 L 92.5 569 L 90 568.5 L 90.5 567 L 88 566.5 L 88.5 565 L 86 564.5 L 86.5 563 L 84 562.5 L 85.5 561 Z "/>
  <path fill="rgb(255,255,255)" stroke="rgb(255,255,255)" stroke-width="1" opacity="0.7294117647058823" d="M 591 563 L 594 564.5 L 591 565.5 L 591.5 567 L 589 567.5 L 589.5 569 L 587 569.5 L 587.5 571 L 585 571.5 L 585.5 573 L 583 573.5 L 583.5 575 L 581 575.5 L 581.5 577 L 579 577.5 L 579.5 579 L 577 579.5 L 577.5 581 L 575 581.5 L 575.5 583 L 573 583.5 L 573.5 585 L 571 585.5 L 571.5 587 L 569 587.5 L 569.5 589 L 567 589.5 L 567.5 591 L 565 591.5 L 565.5 593 L 563 593.5 L 563.5 595 L 561 595.5 L 561.5 597 L 557 596.5 L 561 595 L 561 593 L 563 593 L 563 591 L 565 591 L 565 589 L 567 589 L 567 587 L 569 587 L 569 585 L 571 585 L 571 583 L 573 583 L 573 581 L 575 581 L 575 579 L 577 579 L 577 577 L 579 577 L 579 575 L 581 575 L 581 573 L 583 573 L 583 571 L 585 571 L 585 569 L 587 569 L 587 567 L 591 565 L 591 563 Z "/>
  <path fill="rgb(255,255,255)" stroke="rgb(255,255,255)" stroke-width="1" opacity="0.7294117647058823" d="M 125 599 L 127 599 L 129 603 L 131.5 603 L 132.5 605 L 128 604.5 L 128.5 603 L 126 602.5 L 126.5 601 Q 123.9 601.7 125 599 Z "/>
  <path fill="rgb(255,255,255)" stroke="rgb(255,255,255)" stroke-width="1" opacity="0.7294117647058823" d="M 553 599 Q 556 598 555 601 L 553 601.5 L 553.5 603 L 551 603.5 L 551.5 605 L 547 604.5 L 551 603 L 553 599 Z "/>
  <path fill="rgb(255,255,255)" stroke="rgb(255,255,255)" stroke-width="1" opacity="0.7294117647058823" d="M 135 607 L 137 607 L 139 611 L 141.5 611 L 142.5 613 L 138 612.5 L 138.5 611 L 136 610.5 L 136.5 609 Q 133.9 609.7 135 607 Z "/>
  <path fill="rgb(255,255,255)" stroke="rgb(255,255,255)" stroke-width="1" opacity="0.7294117647058823" d="M 543 607 Q 546 606 545 609 L 543 609.5 L 543.5 611 L 539 610.5 L 543 609 L 543 607 Z "/>
  <path fill="rgb(255,255,255)" stroke="rgb(255,255,255)" stroke-width="1" opacity="0.7294117647058823" d="M 535 613 Q 538 612 537 615 L 535 615.5 L 535.5 617 L 531 616.5 L 535 615 L 535 613 Z "/>
  <path fill="rgb(255,255,255)" stroke="rgb(255,255,255)" stroke-width="1" opacity="0.7294117647058823" d="M 145 615 L 149 616.5 L 145 617 L 145 615 Z "/>
  <path fill="rgb(255,255,255)" stroke="rgb(255,255,255)" stroke-width="1" opacity="0.7294117647058823" d="M 151 619 L 155 620.5 L 151 621 L 151 619 Z "/>
  <path fill="rgb(255,255,255)" stroke="rgb(255,255,255)" stroke-width="1" opacity="0.7294117647058823" d="M 526.5 619 Q 530.3 618 529 621 L 525 620.5 L 526.5 619 Z "/>
  <path fill="rgb(255,255,255)" stroke="rgb(255,255,255)" stroke-width="1" opacity="0.7294117647058823" d="M 157 623 L 161 624.5 L 157 625 L 157 623 Z "/>
  <path fill="rgb(255,255,255)" stroke="rgb(255,255,255)" stroke-width="1" opacity="0.7294117647058823" d="M 520.5 623 Q 524.3 622 523 625 L 519 624.5 L 520.5 623 Z "/>
  <path fill="rgb(255,255,255)" stroke="rgb(255,255,255)" stroke-width="1" opacity="0.7294117647058823" d="M 163 627 L 167 628.5 L 163 629 L 163 627 Z "/>
  <path fill="rgb(255,255,255)" stroke="rgb(255,255,255)" stroke-width="1" opacity="0.7294117647058823" d="M 510.5 629 Q 514.3 628 513 631 L 509 630.5 L 510.5 629 Z "/>
  <path fill="rgb(255,255,255)" stroke="rgb(255,255,255)" stroke-width="1" opacity="0.7294117647058823" d="M 173 633 L 177 634.5 L 173 635 L 173 633 Z "/>
  <path fill="rgb(255,255,255)" stroke="rgb(255,255,255)" stroke-width="1" opacity="0.7294117647058823" d="M 500.5 635 Q 504.3 634 503 637 L 499 636.5 L 500.5 635 Z "/>
  <path fill="rgb(255,255,255)" stroke="rgb(255,255,255)" stroke-width="1" opacity="0.7294117647058823" d="M 207 649 L 211 650.5 L 207 651 L 207 649 Z "/>
  <path fill="rgb(255,255,255)" stroke="rgb(255,255,255)" stroke-width="1" opacity="0.7294117647058823" d="M 470.5 649 Q 474.3 648 473 651 L 469 650.5 L 470.5 649 Z "/>
  <path fill="rgb(255,255,255)" stroke="rgb(255,255,255)" stroke-width="1" opacity="0.7294117647058823" d="M 460.5 653 Q 464.3 652 463 655 L 459 654.5 L 460.5 653 Z "/>
  <path fill="rgb(255,255,255)" stroke="rgb(255,255,255)" stroke-width="1" opacity="0.7294117647058823" d="M 221 655 L 225.5 655 L 227.5 657 L 231.5 657 L 233.5 659 L 237.5 659 L 245.5 663 L 251.5 663 L 253.5 665 L 259.5 665 Q 261 668.5 267.5 667 L 269.5 669 Q 277.5 667 279.5 671 L 289.5 671 L 291.5 673 L 305.5 673 L 307 674.5 L 291 675 L 290.5 673 L 279.5 673 L 278.5 671 L 269.5 671 L 269 669 L 261.5 669 L 260.5 667 L 253.5 667 L 252.5 665 L 245.5 665 L 245 663 L 239 663 L 239 661 L 233 661 L 233 659 L 227 659 L 227 657 L 221 657 L 221 655 Z "/>
  <path fill="rgb(255,255,255)" stroke="rgb(255,255,255)" stroke-width="1" opacity="0.7294117647058823" d="M 448.5 657 Q 454.4 655.3 453 659 L 447 659 L 447 661 L 441 661 L 441 663 L 435 663 L 434.5 665 L 427.5 665 L 426.5 667 L 419.5 667 L 418.5 669 L 411.5 669 L 410.5 671 L 401.5 671 L 400.5 673 L 389.5 673 L 388.5 675 L 373.5 675 L 374.5 673 L 388.5 673 L 390.5 671 L 400.5 671 Q 402.5 667 410.5 669 L 412.5 667 L 418.5 667 L 420.5 665 L 426.5 665 Q 428 661.5 434.5 663 L 436.5 661 L 440.5 661 L 448.5 657 Z "/>
  <path fill="rgb(255,255,255)" stroke="rgb(255,255,255)" stroke-width="1" opacity="0.7294117647058823" d="M 309 677 Q 312.3 675.9 311 680 Q 307.7 681.1 309 677 Z "/>
  <path fill="rgb(255,255,255)" stroke="rgb(255,255,255)" stroke-width="1" opacity="0.7294117647058823" d="M 369 677 Q 372.3 675.9 371 680 Q 367.7 681.1 369 677 Z "/>
</svg>
