<?xml version='1.0' encoding='UTF-8'?>
<svg xmlns="http://www.w3.org/2000/svg" width="512" height="512" version="1.1" desc="Created with imagetracer.js version 1.2.6" shape-rendering="geometricPrecision" text-rendering="geometricPrecision" image-rendering="optimizeQuality" viewBox="0 0 680.0 680.0">
  <path fill="rgb(0,0,0)" stroke="rgb(0,0,0)" stroke-width="1" opacity="0" d="M 0 0 L 306.5 0 L 307 3 L 309 3 L 309.5 0 L 371 0 Q 369.7 4.1 373 3 L 373.5 0 L 680 0 L 680 314.5 L 677.5 315 L 678.5 317 L 680 317.5 L 680 361 L 677 362.5 L 680 363 L 680 680 L 359 680 Q 360.3 675.9 357 677 L 356.5 680 L 321 680 Q 322.3 675.9 319 677 L 318.5 680 L 0 680 L 0 369.5 L 2.5 369 L 1.5 367 L 0 366.5 L 0 311 L 3 309.5 L 0 309 L 0 0 Z M 289 5 L 289 7 L 304 7 L 305 6 L 289 5 Z M 376 5 L 377 7 L 391 7 L 391 5 L 376 5 Z M 277 7 L 277 9 L 288 9 L 289 8 L 277 7 Z M 392 7 L 393 9 L 403 9 L 403 7 L 392 7 Z M 267 9 L 267 11 L 276 11 L 277 10 L 267 9 Z M 404 9 L 405 11 L 413 11 L 413 9 L 404 9 Z M 259 11 L 259 13 L 266 13 L 267 12 L 259 11 Z M 414 11 L 415 13 L 421 13 L 421 11 L 414 11 Z M 251 13 L 251 15 L 258 15 L 259 14 L 251 13 Z M 422 13 L 423 15 L 429 15 L 429 13 L 422 13 Z M 243 15 L 243 17 L 250 17 L 251 16 L 243 15 Z M 430 15 Q 429 18 435 17 Q 436 13 430 15 Z M 237 17 L 237 19 Q 242 20 243 18 L 237 17 Z M 436 17 Q 435 20 441 19 Q 442 15 436 17 Z M 231 19 L 231 21 Q 236 22 237 20 L 231 19 Z M 442 19 Q 441 22 447 21 Q 448 17 442 19 Z M 448 21 Q 447 24 453 23 Q 454 19 448 21 Z M 221 23 L 221 25 L 225 24 L 221 23 Z M 454 23 Q 453 26 459 25 Q 460 21 454 23 Z M 211 27 L 211 29 L 215 28 L 211 27 Z M 470 29 Q 469 32 473 31 Q 474 28 470 29 Z M 504 45 Q 503 48 507 47 Q 508 44 504 45 Z M 169 47 L 169 49 L 173 48 L 169 47 Z M 514 51 Q 513 54 517 53 Q 518 50 514 51 Z M 159 53 L 159 55 L 163 54 L 159 53 Z M 520 55 Q 519 58 523 57 Q 524 54 520 55 Z M 153 57 L 153 59 L 157 58 L 153 57 Z M 526 59 Q 525 62 529 61 Q 530 58 526 59 Z M 147 61 L 148 63 L 151 62 L 147 61 Z M 145 63 Q 144 66 147 65 Q 148 62 145 63 Z M 532 63 Q 531 66 535 65 Q 536 62 532 63 Z M 139 67 L 140 69 L 143 68 L 139 67 Z M 538 67 L 539 69 L 542 68 L 538 67 Z M 137 69 Q 136 72 139 71 Q 140 68 137 69 Z M 541 69 L 541 71 L 544 70 L 541 69 Z M 543 71 Q 542 74 545 73 Q 546 70 543 71 Z M 131 73 L 132 75 L 135 74 L 131 73 Z M 129 75 L 131 77 Q 132 74 129 75 Z M 548 75 L 549 77 L 552 76 L 548 75 Z M 127 77 Q 126 80 129 79 Q 130 76 127 77 Z M 551 77 L 551 79 L 554 78 L 551 77 Z M 553 79 Q 552 82 555 81 Q 556 78 553 79 Z M 121 81 L 122 83 L 125 82 L 121 81 Z M 119 83 L 121 85 Q 122 82 119 83 Z M 558 83 L 559 85 L 562 84 L 558 83 Z M 117 85 L 119 87 Q 120 84 117 85 Z M 561 85 L 561 87 L 564 86 L 561 85 Z M 115 87 L 117 89 Q 118 86 115 87 Z M 563 87 L 563 89 L 566 88 L 563 87 Z M 113 89 L 115 91 Q 116 88 113 89 Z M 565 89 L 565 91 L 568 90 L 565 89 Z M 111 91 L 113 93 Q 114 90 111 91 Z M 567 91 L 567 93 L 570 92 L 567 91 Z M 109 93 Q 108 96 111 95 Q 112 92 109 93 Z M 569 93 L 569 95 L 572 94 L 569 93 Z M 571 95 L 571 97 L 574 96 L 571 95 Z M 103 97 L 104 99 L 107 98 L 103 97 Z M 573 97 L 573 99 L 576 98 L 573 97 Z M 101 99 L 103 101 Q 104 98 101 99 Z M 575 99 L 575 101 L 578 100 L 575 99 Z M 99 101 L 101 103 Q 102 100 99 101 Z M 577 101 L 577 103 L 580 102 L 577 101 Z M 97 103 L 99 105 Q 100 102 97 103 Z M 579 103 L 579 105 L 582 104 L 579 103 Z M 581 105 L 581 107 L 584 106 L 581 105 Z M 583 107 L 583 109 L 586 108 L 583 107 Z M 585 109 L 585 111 L 588 110 L 585 109 Z M 91 111 L 93 113 Q 94 110 91 111 Z M 587 111 L 587 113 L 590 112 L 587 111 Z M 89 113 L 91 115 Q 92 112 89 113 Z M 589 113 L 589 115 L 592 114 L 589 113 Z M 87 115 L 89 117 Q 90 114 87 115 Z M 591 115 L 591 117 L 594 116 L 591 115 Z M 85 117 L 87 119 Q 88 116 85 117 Z M 593 117 L 593 119 L 596 118 L 593 117 Z M 83 119 L 85 121 Q 86 118 83 119 Z M 599 125 L 599 127 L 602 126 L 599 125 Z M 77 127 L 79 129 Q 80 126 77 127 Z M 601 127 L 601 129 L 604 128 L 601 127 Z M 75 129 L 77 131 Q 78 128 75 129 Z M 607 135 L 607 137 L 610 136 L 607 135 Z M 69 137 L 71 139 Q 72 136 69 137 Z M 537 143 Q 536 147 541 145 Q 542 141 537 143 Z M 613 143 L 613 145 L 616 144 L 613 143 Z M 63 145 L 65 147 Q 66 144 63 145 Z M 535 145 Q 534 148 537 147 Q 538 144 535 145 Z M 533 147 Q 532 150 535 149 Q 536 146 533 147 Z M 537 147 L 535 151 L 533 151 L 533 153 L 531 153 L 531 155 L 529 155 L 529 157 L 527 157 L 527 159 L 525 159 L 525 161 L 523 161 L 523 163 L 521 163 L 521 165 L 519 165 L 519 167 L 517 167 L 487 197 L 485 197 Q 483 193 481 197 L 483 197 L 483 199 L 453 229 L 449 227 L 448 229 Q 450 228 449 231 L 417 263 L 415 263 Q 413 259 411 263 L 413 263 L 413 265 L 375 303 L 371 301 L 370 303 Q 372 302 371 305 L 327 349 L 325 349 Q 323 345 321 349 L 323 349 L 323 351 L 263 411 L 256 411 L 255 413 L 254 415 Q 257 416 256 413 Q 260 412 259 415 Q 256 414 255 417 Q 252 418 253 415 L 249 417 L 249 421 Q 252 420 251 423 Q 254 424 253 421 L 255 421 L 269 435 L 272 435 L 292 415 Q 294 414 293 417 L 295 417 L 297 411 L 293 413 L 293 412 L 326 379 Q 328 378 327 381 L 329 381 L 331 375 L 327 377 L 327 376 L 360 343 Q 362 342 361 345 L 363 345 L 365 339 L 361 341 L 361 340 L 394 307 Q 396 306 395 309 L 397 309 L 399 303 L 395 305 L 395 304 L 424 275 Q 426 274 425 277 L 427 277 L 429 271 L 425 273 L 425 272 L 456 241 Q 458 240 457 243 L 459 243 L 461 237 L 457 239 L 457 238 L 488 207 Q 490 206 489 209 L 491 209 L 493 203 L 489 205 L 489 204 L 518 175 Q 520 174 519 177 L 521 177 L 523 171 L 519 173 L 522 169 Q 524 170 523 167 L 525 167 L 525 165 L 527 165 L 527 163 L 529 163 L 529 161 L 531 161 L 531 159 L 533 159 L 533 157 L 535 157 L 535 155 L 537 155 L 537 153 L 539 153 L 539 151 Q 542 150 541 153 L 545 151 L 545 147 Q 542 146 543 149 Q 540 150 541 147 L 537 147 Z M 531 149 Q 530 152 533 151 Q 534 148 531 149 Z M 529 151 Q 528 154 531 153 Q 532 150 529 151 Z M 527 153 Q 526 156 529 155 Q 530 152 527 153 Z M 539 153 Q 538 156 541 155 Q 542 152 539 153 Z M 525 155 Q 524 158 527 157 Q 528 154 525 155 Z M 537 155 Q 536 158 539 157 Q 540 154 537 155 Z M 523 157 Q 522 160 525 159 Q 526 156 523 157 Z M 535 157 Q 534 160 537 159 Q 538 156 535 157 Z M 521 159 Q 520 162 523 161 Q 524 158 521 159 Z M 533 159 Q 532 162 535 161 Q 536 158 533 159 Z M 519 161 Q 518 164 521 163 Q 522 160 519 161 Z M 531 161 Q 530 164 533 163 Q 534 160 531 161 Z M 517 163 L 515 165 L 519 165 Q 520 162 517 163 Z M 529 163 Q 528 166 531 165 Q 532 162 529 163 Z M 515 165 L 513 167 L 516 167 L 515 165 Z M 527 165 Q 526 168 529 167 Q 530 164 527 165 Z M 511 167 L 511 169 L 514 169 L 511 167 Z M 525 167 Q 524 170 527 169 Q 528 166 525 167 Z M 509 169 L 509 171 L 512 171 L 509 169 Z M 523 169 Q 522 172 525 171 Q 526 168 523 169 Z M 507 171 L 507 173 L 510 173 L 507 171 Z M 505 173 L 505 175 L 508 175 L 505 173 Z M 503 175 L 503 177 L 506 177 L 503 175 Z M 501 177 L 501 179 L 504 179 L 501 177 Z M 517 177 L 519 179 Q 520 176 517 177 Z M 499 179 L 499 181 L 502 181 L 499 179 Z M 515 179 L 517 181 Q 518 178 515 179 Z M 497 181 L 497 183 L 500 183 L 497 181 Z M 513 181 L 515 183 Q 516 180 513 181 Z M 495 183 L 495 185 L 498 185 L 495 183 Z M 511 183 L 513 185 Q 514 182 511 183 Z M 493 185 L 493 187 L 496 187 L 493 185 Z M 509 185 L 511 187 Q 512 184 509 185 Z M 491 187 L 491 189 L 494 189 L 491 187 Z M 507 187 L 509 189 Q 510 186 507 187 Z M 489 189 L 489 191 L 492 191 L 489 189 Z M 505 189 L 507 191 Q 508 188 505 189 Z M 487 191 L 487 193 L 490 193 L 487 191 Z M 503 191 L 505 193 Q 506 190 503 191 Z M 485 193 L 484 195 L 488 195 L 485 193 Z M 501 193 L 503 195 Q 504 192 501 193 Z M 499 195 L 501 197 Q 502 194 499 195 Z M 479 197 Q 478 200 481 199 Q 482 196 479 197 Z M 497 197 L 499 199 Q 500 196 497 197 Z M 477 199 L 477 201 L 480 201 L 477 199 Z M 495 199 L 497 201 Q 498 198 495 199 Z M 475 201 L 475 203 L 478 203 L 475 201 Z M 493 201 L 495 203 Q 496 200 493 201 Z M 473 203 L 473 205 L 476 205 L 473 203 Z M 471 205 L 471 207 L 474 207 L 471 205 Z M 469 207 L 469 209 L 472 209 L 469 207 Z M 467 209 L 467 211 L 470 211 L 467 209 Z M 487 209 L 489 211 Q 490 208 487 209 Z M 465 211 L 465 213 L 468 213 L 465 211 Z M 485 211 L 487 213 Q 488 210 485 211 Z M 463 213 L 463 215 L 466 215 L 463 213 Z M 483 213 L 485 215 Q 486 212 483 213 Z M 461 215 L 461 217 L 464 217 L 461 215 Z M 481 215 L 483 217 Q 484 214 481 215 Z M 459 217 L 459 219 L 462 219 L 459 217 Z M 479 217 L 481 219 Q 482 216 479 217 Z M 457 219 L 457 221 L 460 221 L 457 219 Z M 477 219 L 479 221 Q 480 218 477 219 Z M 455 221 L 455 223 L 458 223 L 455 221 Z M 475 221 L 477 223 Q 478 220 475 221 Z M 453 223 L 453 225 L 456 225 L 453 223 Z M 473 223 L 475 225 Q 476 222 473 223 Z M 451 225 L 450 227 L 454 227 L 451 225 Z M 471 225 L 473 227 Q 474 224 471 225 Z M 469 227 L 471 229 Q 472 226 469 227 Z M 445 229 Q 444 232 447 231 Q 448 228 445 229 Z M 467 229 L 469 231 Q 470 228 467 229 Z M 443 231 L 443 233 L 446 233 L 443 231 Z M 465 231 L 467 233 Q 468 230 465 231 Z M 441 233 L 441 235 L 444 235 L 441 233 Z M 463 233 L 465 235 Q 466 232 463 233 Z M 439 235 L 439 237 L 442 237 L 439 235 Z M 461 235 L 463 237 Q 464 234 461 235 Z M 437 237 L 437 239 L 440 239 L 437 237 Z M 435 239 L 435 241 L 438 241 L 435 239 Z M 433 241 L 433 243 L 436 243 L 433 241 Z M 431 243 L 431 245 L 434 245 L 431 243 Z M 455 243 L 457 245 Q 458 242 455 243 Z M 429 245 L 429 247 L 432 247 L 429 245 Z M 453 245 L 455 247 Q 456 244 453 245 Z M 427 247 L 427 249 L 430 249 L 427 247 Z M 451 247 L 453 249 Q 454 246 451 247 Z M 425 249 L 425 251 L 428 251 L 425 249 Z M 449 249 L 451 251 Q 452 248 449 249 Z M 423 251 L 423 253 L 426 253 L 423 251 Z M 447 251 L 449 253 Q 450 250 447 251 Z M 421 253 L 421 255 L 424 255 L 421 253 Z M 445 253 L 447 255 Q 448 252 445 253 Z M 419 255 L 419 257 L 422 257 L 419 255 Z M 443 255 L 445 257 Q 446 254 443 255 Z M 417 257 L 417 259 L 420 259 L 417 257 Z M 441 257 L 443 259 Q 444 256 441 257 Z M 415 259 L 414 261 L 418 261 L 415 259 Z M 439 259 L 441 261 Q 442 258 439 259 Z M 437 261 L 439 263 Q 440 260 437 261 Z M 409 263 Q 408 266 411 265 Q 412 262 409 263 Z M 435 263 L 437 265 Q 438 262 435 263 Z M 407 265 L 407 267 L 410 267 L 407 265 Z M 433 265 L 435 267 Q 436 264 433 265 Z M 405 267 L 405 269 L 408 269 L 405 267 Z M 431 267 L 433 269 Q 434 266 431 267 Z M 403 269 L 403 271 L 406 271 L 403 269 Z M 429 269 L 431 271 Q 432 268 429 269 Z M 401 271 L 401 273 L 404 273 L 401 271 Z M 399 273 L 399 275 L 402 275 L 399 273 Z M 397 275 L 397 277 L 400 277 L 397 275 Z M 395 277 L 395 279 L 398 279 L 395 277 Z M 423 277 L 425 279 Q 426 276 423 277 Z M 393 279 L 393 281 L 396 281 L 393 279 Z M 421 279 L 423 281 Q 424 278 421 279 Z M 391 281 L 391 283 L 394 283 L 391 281 Z M 419 281 L 421 283 Q 422 280 419 281 Z M 389 283 L 389 285 L 392 285 L 389 283 Z M 417 283 L 419 285 Q 420 282 417 283 Z M 387 285 L 387 287 L 390 287 L 387 285 Z M 415 285 L 417 287 Q 418 284 415 285 Z M 385 287 L 385 289 L 388 289 L 385 287 Z M 413 287 L 415 289 Q 416 286 413 287 Z M 383 289 L 383 291 L 386 291 L 383 289 Z M 411 289 L 413 291 Q 414 288 411 289 Z M 381 291 L 381 293 L 384 293 L 381 291 Z M 409 291 L 411 293 Q 412 290 409 291 Z M 379 293 L 379 295 L 382 295 L 379 293 Z M 407 293 L 409 295 Q 410 292 407 293 Z M 377 295 L 377 297 L 380 297 L 377 295 Z M 405 295 L 407 297 Q 408 294 405 295 Z M 375 297 L 375 299 L 378 299 L 375 297 Z M 403 297 L 405 299 Q 406 296 403 297 Z M 373 299 L 372 301 L 376 301 L 373 299 Z M 401 299 L 403 301 Q 404 298 401 299 Z M 399 301 L 401 303 Q 402 300 399 301 Z M 367 303 Q 366 306 369 305 Q 370 302 367 303 Z M 365 305 L 365 307 L 368 307 L 365 305 Z M 363 307 L 363 309 L 366 309 L 363 307 Z M 361 309 L 361 311 L 364 311 L 361 309 Z M 393 309 L 395 311 Q 396 308 393 309 Z M 359 311 L 359 313 L 362 313 L 359 311 Z M 391 311 L 393 313 Q 394 310 391 311 Z M 357 313 L 357 315 L 360 315 L 357 313 Z M 389 313 L 391 315 Q 392 312 389 313 Z M 355 315 L 355 317 L 358 317 L 355 315 Z M 387 315 L 389 317 Q 390 314 387 315 Z M 353 317 L 353 319 L 356 319 L 353 317 Z M 385 317 L 387 319 Q 388 316 385 317 Z M 351 319 L 351 321 L 354 321 L 351 319 Z M 383 319 L 385 321 Q 386 318 383 319 Z M 349 321 L 349 323 L 352 323 L 349 321 Z M 381 321 L 383 323 Q 384 320 381 321 Z M 347 323 L 347 325 L 350 325 L 347 323 Z M 379 323 L 381 325 Q 382 322 379 323 Z M 345 325 L 345 327 L 348 327 L 345 325 Z M 377 325 L 379 327 Q 380 324 377 325 Z M 343 327 L 343 329 L 346 329 L 343 327 Z M 375 327 L 377 329 Q 378 326 375 327 Z M 341 329 L 341 331 L 344 331 L 341 329 Z M 373 329 L 375 331 Q 376 328 373 329 Z M 339 331 L 339 333 L 342 333 L 339 331 Z M 371 331 L 373 333 Q 374 330 371 331 Z M 337 333 L 337 335 L 340 335 L 337 333 Z M 369 333 L 371 335 Q 372 332 369 333 Z M 335 335 L 335 337 L 338 337 L 335 335 Z M 367 335 L 369 337 Q 370 334 367 335 Z M 333 337 L 333 339 L 336 339 L 333 337 Z M 365 337 L 367 339 Q 368 336 365 337 Z M 331 339 L 331 341 L 334 341 L 331 339 Z M 329 341 L 329 343 L 332 343 L 329 341 Z M 327 343 L 327 345 L 330 345 L 327 343 Z M 325 345 L 324 347 L 328 347 L 325 345 Z M 359 345 L 361 347 Q 362 344 359 345 Z M 357 347 L 359 349 Q 360 346 357 347 Z M 319 349 Q 318 352 321 351 Q 322 348 319 349 Z M 355 349 L 357 351 Q 358 348 355 349 Z M 317 351 L 317 353 L 320 353 L 317 351 Z M 353 351 L 355 353 Q 356 350 353 351 Z M 315 353 L 315 355 L 318 355 L 315 353 Z M 351 353 L 353 355 Q 354 352 351 353 Z M 313 355 L 313 357 L 316 357 L 313 355 Z M 349 355 L 351 357 Q 352 354 349 355 Z M 311 357 L 311 359 L 314 359 L 311 357 Z M 347 357 L 349 359 Q 350 356 347 357 Z M 309 359 L 309 361 L 312 361 L 309 359 Z M 345 359 L 347 361 Q 348 358 345 359 Z M 307 361 L 307 363 L 310 363 L 307 361 Z M 343 361 L 345 363 Q 346 360 343 361 Z M 305 363 L 305 365 L 308 365 L 305 363 Z M 341 363 L 343 365 Q 344 362 341 363 Z M 303 365 L 303 367 L 306 367 L 303 365 Z M 339 365 L 341 367 Q 342 364 339 365 Z M 301 367 L 301 369 L 304 369 L 301 367 Z M 337 367 L 339 369 Q 340 366 337 367 Z M 299 369 L 299 371 L 302 371 L 299 369 Z M 335 369 L 337 371 Q 338 368 335 369 Z M 297 371 L 297 373 L 300 373 L 297 371 Z M 333 371 L 335 373 Q 336 370 333 371 Z M 295 373 L 295 375 L 298 375 L 295 373 Z M 331 373 L 333 375 Q 334 372 331 373 Z M 293 375 L 293 377 L 296 377 L 293 375 Z M 291 377 L 291 379 L 294 379 L 291 377 Z M 289 379 L 289 381 L 292 381 L 289 379 Z M 287 381 L 287 383 L 290 383 L 287 381 Z M 325 381 L 327 383 Q 328 380 325 381 Z M 285 383 L 285 385 L 288 385 L 285 383 Z M 323 383 L 325 385 Q 326 382 323 383 Z M 283 385 L 283 387 L 286 387 L 283 385 Z M 321 385 L 323 387 Q 324 384 321 385 Z M 281 387 L 281 389 L 284 389 L 281 387 Z M 319 387 L 321 389 Q 322 386 319 387 Z M 279 389 L 279 391 L 282 391 L 279 389 Z M 317 389 L 319 391 Q 320 388 317 389 Z M 277 391 L 277 393 L 280 393 L 277 391 Z M 315 391 L 317 393 Q 318 390 315 391 Z M 275 393 L 275 395 L 278 395 L 275 393 Z M 313 393 L 315 395 Q 316 392 313 393 Z M 273 395 L 273 397 L 276 397 L 273 395 Z M 311 395 L 313 397 Q 314 394 311 395 Z M 271 397 L 271 399 L 274 399 L 271 397 Z M 309 397 L 311 399 Q 312 396 309 397 Z M 269 399 L 269 401 L 272 401 L 269 399 Z M 307 399 L 309 401 Q 310 398 307 399 Z M 267 401 L 267 403 L 270 403 L 267 401 Z M 305 401 L 307 403 Q 308 400 305 401 Z M 265 403 L 265 405 L 268 405 L 265 403 Z M 303 403 L 305 405 Q 306 402 303 403 Z M 263 405 L 263 407 L 266 407 L 263 405 Z M 301 405 L 303 407 Q 304 404 301 405 Z M 261 407 L 260 409 L 264 409 L 261 407 Z M 299 407 L 301 409 Q 302 406 299 407 Z M 297 409 L 299 411 Q 300 408 297 409 Z M 211 415 L 210 417 L 233 417 L 232 415 L 211 415 Z M 203 417 L 201 419 L 209 419 Q 210 416 203 417 Z M 233 417 L 233 419 L 239 419 Q 238 416 233 417 Z M 291 417 L 293 419 Q 294 416 291 417 Z M 199 419 L 197 421 L 201 421 Q 202 418 199 419 Z M 211 419 Q 209 423 203 421 L 201 423 L 197 421 L 193 423 L 197 423 Q 198 426 195 425 Q 193 421 191 425 L 193 425 L 191 429 L 187 427 L 186 429 Q 188 428 187 431 L 183 429 L 181 433 L 181 436 L 183 439 L 185 439 Q 184 436 187 437 L 212 463 Q 208 462 209 465 L 199 475 L 197 475 Q 195 471 193 475 L 195 475 L 195 477 L 175 497 Q 172 498 173 495 L 171 495 L 169 501 L 173 499 L 173 501 L 165 509 Q 162 510 163 507 L 161 507 L 159 513 L 163 511 L 157 519 L 153 517 L 149 519 L 153 519 Q 154 522 151 521 Q 149 517 147 521 L 149 521 L 147 525 Q 144 526 145 523 L 143 523 L 137 535 L 137 546 L 139 547 L 140 534 L 141 536 L 141 547 Q 146 548 148 545 L 154 545 L 158 543 Q 159 547 161 544 L 159 543 L 166 535 Q 168 534 167 537 L 169 537 L 171 532 L 175 527 L 171 527 Q 172 530 169 529 L 172 525 L 176 527 L 177 525 Q 174 526 175 524 L 180 519 L 182 519 Q 183 523 185 520 L 183 519 L 183 518 L 220 481 Q 222 480 221 483 L 223 483 L 225 477 L 221 479 L 223 475 Q 226 474 225 477 L 227 477 L 253 504 L 253 505 L 257 505 L 260 501 Q 262 500 261 503 L 263 503 L 265 497 L 261 499 L 264 495 Q 266 494 265 497 L 267 497 L 271 490 Q 270 485 273 484 L 273 478 L 275 476 L 275 463 L 273 461 L 273 455 Q 270 454 271 449 L 267 441 L 265 441 Q 266 444 264 443 L 261 439 L 265 441 L 265 437 Q 262 438 263 435 Q 260 434 261 437 L 253 431 Q 252 428 255 429 L 255 427 L 252 429 Q 247 429 247 427 Q 246 424 249 425 L 248 423 Q 246 426 243 425 Q 242 422 247 423 L 246 421 L 242 423 L 238 421 L 234 421 L 232 419 L 211 419 Z M 239 419 L 239 421 L 243 421 L 239 419 Z M 289 419 L 291 421 Q 292 418 289 419 Z M 287 421 L 289 423 Q 290 420 287 421 Z M 253 423 L 253 425 L 256 424 L 253 423 Z M 285 423 L 287 425 Q 288 422 285 423 Z M 189 425 L 187 427 L 191 427 Q 192 424 189 425 Z M 249 425 Q 248 429 253 427 Q 254 423 249 425 Z M 255 425 L 255 427 L 258 426 L 255 425 Z M 283 425 L 285 427 Q 286 424 283 425 Z M 257 427 L 257 429 L 260 428 L 257 427 Z M 281 427 L 283 429 Q 284 426 281 427 Z M 255 429 Q 254 432 257 431 Q 258 428 255 429 Z M 259 429 L 259 431 L 262 430 L 259 429 Z M 279 429 L 281 431 Q 282 428 279 429 Z M 258 431 L 256 433 L 259 433 Q 260 430 258 431 Z M 261 431 L 261 433 L 264 432 L 261 431 Z M 277 431 L 279 433 Q 280 430 277 431 Z M 260 433 L 258 435 L 261 435 Q 262 432 260 433 Z M 263 433 Q 262 436 265 435 Q 266 432 263 433 Z M 275 433 Q 274 436 277 435 Q 278 432 275 433 Z M 266 435 Q 266 439 268 436 L 266 435 Z M 273 435 Q 273 439 275 436 L 273 435 Z M 268 437 L 269 439 Q 272 440 273 438 L 268 437 Z M 185 439 L 185 441 L 188 440 L 185 439 Z M 187 441 L 187 443 L 190 442 L 187 441 Z M 189 443 L 189 445 L 192 444 L 189 443 Z M 191 445 L 191 447 L 194 446 L 191 445 Z M 193 447 L 193 449 L 196 448 L 193 447 Z M 195 449 L 195 451 L 198 450 L 195 449 Z M 197 451 L 197 453 L 200 452 L 197 451 Z M 199 453 L 199 455 L 202 454 L 199 453 Z M 201 455 L 201 457 L 204 456 L 201 455 Z M 203 457 L 203 459 L 206 458 L 203 457 Z M 205 459 L 205 461 L 208 460 L 205 459 Z M 207 461 Q 206 464 209 463 Q 210 460 207 461 Z M 205 463 Q 204 466 207 465 Q 208 462 205 463 Z M 203 465 L 203 467 L 206 467 L 203 465 Z M 201 467 L 201 469 L 204 469 L 201 467 Z M 199 469 L 199 471 L 202 471 L 199 469 Z M 197 471 L 196 473 L 200 473 L 197 471 Z M 191 475 Q 190 478 193 477 Q 194 474 191 475 Z M 189 477 L 189 479 L 192 479 L 189 477 Z M 187 479 L 187 481 L 190 481 L 187 479 Z M 225 479 L 225 481 L 228 480 L 225 479 Z M 185 481 L 185 483 L 188 483 L 185 481 Z M 227 481 L 227 483 L 230 482 L 227 481 Z M 183 483 L 183 485 L 186 485 L 183 483 Z M 219 483 L 221 485 Q 222 482 219 483 Z M 229 483 L 229 485 L 232 484 L 229 483 Z M 181 485 L 181 487 L 184 487 L 181 485 Z M 217 485 L 219 487 Q 220 484 217 485 Z M 231 485 L 231 487 L 234 486 L 231 485 Z M 179 487 L 179 489 L 182 489 L 179 487 Z M 215 487 L 217 489 Q 218 486 215 487 Z M 233 487 L 233 489 L 236 488 L 233 487 Z M 177 489 L 177 491 L 180 491 L 177 489 Z M 213 489 L 215 491 Q 216 488 213 489 Z M 235 489 L 235 491 L 238 490 L 235 489 Z M 175 491 L 175 493 L 178 493 L 175 491 Z M 211 491 L 213 493 Q 214 490 211 491 Z M 237 491 L 237 493 L 240 492 L 237 491 Z M 173 493 L 173 495 L 176 495 L 173 493 Z M 209 493 L 211 495 Q 212 492 209 493 Z M 239 493 L 239 495 L 242 494 L 239 493 Z M 207 495 L 209 497 Q 210 494 207 495 Z M 241 495 L 241 497 L 244 496 L 241 495 Z M 205 497 L 207 499 Q 208 496 205 497 Z M 243 497 L 243 499 L 246 498 L 243 497 Z M 203 499 L 205 501 Q 206 498 203 499 Z M 245 499 L 245 501 L 248 500 L 245 499 Z M 167 501 L 167 503 L 170 503 L 167 501 Z M 201 501 L 203 503 Q 204 500 201 501 Z M 247 501 L 247 503 L 250 502 L 247 501 Z M 165 503 L 165 505 L 168 505 L 165 503 Z M 199 503 L 201 505 Q 202 502 199 503 Z M 249 503 Q 248 506 251 505 Q 252 502 249 503 Z M 259 503 Q 258 506 261 505 Q 262 502 259 503 Z M 163 505 L 163 507 L 166 507 L 163 505 Z M 197 505 L 199 507 Q 200 504 197 505 Z M 252 505 L 253 507 Q 254 504 252 505 Z M 257 505 L 257 507 L 259 506 L 257 505 Z M 195 507 L 197 509 Q 198 506 195 507 Z M 253 507 Q 252 511 257 509 Q 258 505 253 507 Z M 193 509 L 195 511 Q 196 508 193 509 Z M 191 511 L 193 513 Q 194 510 191 511 Z M 157 513 L 157 515 L 160 515 L 157 513 Z M 189 513 L 191 515 Q 192 512 189 513 Z M 155 515 L 154 517 L 158 517 L 155 515 Z M 187 515 L 189 517 Q 190 514 187 515 Z M 185 517 Q 184 520 187 519 Q 188 516 185 517 Z M 145 521 Q 144 524 147 523 Q 148 520 145 521 Z M 179 521 L 180 523 L 183 522 L 179 521 Z M 177 523 Q 176 526 179 525 Q 180 522 177 523 Z M 615 531 L 615 533 L 618 533 L 615 531 Z M 68 537 L 66 539 L 69 539 Q 70 536 68 537 Z M 165 537 L 167 539 Q 168 536 165 537 Z M 163 539 L 165 541 Q 166 538 163 539 Z M 609 539 L 609 541 L 612 541 L 609 539 Z M 161 541 Q 160 544 163 543 Q 164 540 161 541 Z M 74 545 L 72 547 L 75 547 Q 76 544 74 545 Z M 155 545 L 155 547 L 159 546 L 155 545 Z M 147 547 L 148 549 Q 153 550 155 548 L 147 547 Z M 603 547 L 603 549 L 606 549 L 603 547 Z M 142 549 L 143 551 Q 146 552 147 550 L 142 549 Z M 80 553 L 78 555 L 81 555 Q 82 552 80 553 Z M 82 555 L 80 557 L 83 557 Q 84 554 82 555 Z M 597 555 L 597 557 L 600 557 L 597 555 Z M 84 557 L 82 559 L 85 559 Q 86 556 84 557 Z M 595 557 L 595 559 L 598 559 L 595 557 Z M 593 559 L 593 561 L 596 561 L 593 559 Z M 591 561 L 591 563 L 594 563 L 591 561 Z M 589 563 L 589 565 L 592 565 L 589 563 Z M 90 565 L 88 567 L 91 567 Q 92 564 90 565 Z M 92 567 L 90 569 L 93 569 Q 94 566 92 567 Z M 94 569 L 92 571 L 95 571 Q 96 568 94 569 Z M 96 571 L 94 573 L 97 573 Q 98 570 96 571 Z M 583 571 L 583 573 L 586 573 L 583 571 Z M 98 573 L 96 575 L 99 575 Q 100 572 98 573 Z M 581 573 L 581 575 L 584 575 L 581 573 Z M 100 575 L 98 577 L 101 577 Q 102 574 100 575 Z M 579 575 L 579 577 L 582 577 L 579 575 Z M 102 577 L 100 579 L 103 579 Q 104 576 102 577 Z M 577 577 L 577 579 L 580 579 L 577 577 Z M 104 579 L 102 581 L 105 581 Q 106 578 104 579 Z M 575 579 L 575 581 L 578 581 L 575 579 Z M 106 581 L 104 583 L 107 583 Q 108 580 106 581 Z M 573 581 L 573 583 L 576 583 L 573 581 Z M 108 583 L 106 585 L 109 585 Q 110 582 108 583 Z M 571 583 L 571 585 L 574 585 L 571 583 Z M 110 585 L 108 587 L 111 587 Q 112 584 110 585 Z M 569 585 L 568 587 L 572 587 L 569 585 Z M 112 587 L 110 589 L 113 589 Q 114 586 112 587 Z M 114 589 L 113 591 L 117 591 L 114 589 Z M 563 589 Q 562 592 565 591 Q 566 588 563 589 Z M 561 591 L 561 593 L 564 593 L 561 591 Z M 119 593 Q 118 596 121 595 Q 122 592 119 593 Z M 559 593 L 559 595 L 562 595 L 559 593 Z M 122 595 L 120 597 L 123 597 Q 124 594 122 595 Z M 557 595 L 557 597 L 560 597 L 557 595 Z M 124 597 L 122 599 L 125 599 Q 126 596 124 597 Z M 555 597 L 554 599 L 558 599 L 555 597 Z M 126 599 L 124 601 L 127 601 Q 128 598 126 599 Z M 128 601 L 127 603 L 131 603 L 128 601 Z M 549 601 Q 548 604 551 603 Q 552 600 549 601 Z M 547 603 L 547 605 L 550 605 L 547 603 Z M 133 605 Q 132 608 135 607 Q 136 604 133 605 Z M 545 605 L 544 607 L 548 607 L 545 605 Z M 136 607 L 135 609 L 139 609 L 136 607 Z M 539 609 Q 538 612 541 611 Q 542 608 539 609 Z M 141 611 Q 140 614 143 613 Q 144 610 141 611 Z M 537 611 L 536 613 L 540 613 L 537 611 Z M 144 613 L 143 615 L 147 615 L 144 613 Z M 531 615 L 529 617 L 533 617 Q 534 614 531 615 Z M 149 617 L 149 619 L 153 619 L 149 617 Z M 525 619 L 523 621 L 527 621 Q 528 618 525 619 Z M 155 621 L 155 623 L 159 623 L 155 621 Z M 519 623 L 517 625 L 521 625 Q 522 622 519 623 Z M 161 625 L 161 627 L 165 627 L 161 625 Z M 513 627 L 511 629 L 515 629 Q 516 626 513 627 Z M 171 631 L 171 633 L 175 633 L 171 631 Z M 499 635 L 497 637 L 501 637 Q 502 634 499 635 Z M 473 647 L 471 649 L 475 649 Q 476 646 473 647 Z M 209 649 L 209 651 L 213 651 L 209 649 Z M 219 653 L 219 655 L 223 655 L 219 653 Z M 457 653 L 455 655 L 461 655 Q 462 651 457 653 Z M 453 655 L 451 657 L 455 657 Q 456 654 453 655 Z M 229 657 L 229 659 L 235 659 Q 234 656 229 657 Z M 235 659 L 235 661 L 241 661 Q 240 658 235 659 Z M 441 659 L 439 661 L 445 661 Q 446 657 441 659 Z M 241 661 L 241 663 L 247 663 Q 246 660 241 661 Z M 433 661 L 431 663 L 439 663 Q 440 660 433 661 Z M 247 663 L 247 665 L 255 665 L 254 663 L 247 663 Z M 427 663 L 425 665 L 431 665 Q 432 661 427 663 Z M 255 665 L 255 667 L 263 667 Q 261 663 255 665 Z M 417 665 L 415 667 L 425 667 L 425 665 L 417 665 Z M 263 667 L 263 669 L 273 669 L 272 667 L 263 667 Z M 409 667 L 407 669 L 415 669 Q 416 665 409 667 Z M 273 669 L 273 671 L 283 671 L 282 669 L 273 669 Z M 397 669 L 395 671 L 407 671 L 407 669 L 397 669 Z M 283 671 L 283 673 L 297 673 L 296 671 L 283 671 Z M 385 671 L 383 673 L 395 673 L 395 671 L 385 671 Z M 297 673 L 297 675 L 317 675 L 316 673 L 297 673 Z M 363 673 L 361 675 L 383 675 L 383 673 L 363 673 Z "/>
  <path fill="rgb(0,0,0)" stroke="rgb(0,0,0)" stroke-width="1" opacity="0" d="M 183 433 Q 186 432 185 435 Q 182 436 183 433 Z "/>
  <path fill="rgb(0,0,0)" stroke="rgb(0,0,0)" stroke-width="1" opacity="0" d="M 265 445 Q 268 444 267 447 Q 264 448 265 445 Z "/>
  <path fill="rgb(0,0,0)" stroke="rgb(0,0,0)" stroke-width="1" opacity="0" d="M 267 451 Q 270 450 269 453 Q 266 454 267 451 Z "/>
  <path fill="rgb(0,0,0)" stroke="rgb(0,0,0)" stroke-width="1" opacity="0" d="M 270.5 454 L 271 457.5 L 269 456.5 L 270.5 454 Z "/>
  <path fill="rgb(0,0,0)" stroke="rgb(0,0,0)" stroke-width="1" opacity="0" d="M 269 459 Q 272 458 271 461 Q 268 462 269 459 Z "/>
  <path fill="rgb(0,0,0)" stroke="rgb(0,0,0)" stroke-width="1" opacity="0" d="M 272.5 462 L 273 475.5 L 271 474.5 L 271 463.5 L 272.5 462 Z "/>
  <path fill="rgb(0,0,0)" stroke="rgb(0,0,0)" stroke-width="1" opacity="0" d="M 269 477 Q 272 476 271 479 Q 268 480 269 477 Z "/>
  <path fill="rgb(0,0,0)" stroke="rgb(0,0,0)" stroke-width="1" opacity="0" d="M 270.5 480 L 271 483.5 L 269 482.5 L 270.5 480 Z "/>
  <path fill="rgb(0,0,0)" stroke="rgb(0,0,0)" stroke-width="1" opacity="0" d="M 267 485 Q 270 484 269 487 Q 266 488 267 485 Z "/>
  <path fill="rgb(0,0,0)" stroke="rgb(0,0,0)" stroke-width="1" opacity="0" d="M 265 491 Q 268 490 267 493 Q 264 494 265 491 Z "/>
  <path fill="rgb(0,0,0)" stroke="rgb(0,0,0)" stroke-width="1" opacity="0" d="M 143 527 Q 146 526 145 529 Q 142 530 143 527 Z "/>
  <path fill="rgb(0,0,0)" stroke="rgb(0,0,0)" stroke-width="1" opacity="0" d="M 141 531 Q 144 530 143 533 Q 140 534 141 531 Z "/>
  <path fill="rgb(0,0,0)" stroke="rgb(0,0,0)" stroke-width="1" opacity="0" d="M 167 531 Q 170 530 169 533 Q 166 534 167 531 Z "/>
  <path fill="rgb(255,255,255)" stroke="rgb(255,255,255)" stroke-width="1" opacity="0.9803921568627451" d="M 538 148 Q 541 147 540 150 L 538 150 L 538 152 L 536 152 L 536 154 L 534 154 L 534 156 L 532 156 L 532 158 L 530 158 L 530 160 L 528 160 L 528 162 L 526 162 L 526 164 L 524 164 L 524 166 L 522 166 L 522 168 L 518 170 L 518 174 L 516 174 L 516 176 L 514 176 L 514 178 L 512 178 L 512 180 L 510 180 L 510 182 L 508 182 L 508 184 L 506 184 L 506 186 L 504 186 L 504 188 L 502 188 L 502 190 L 500 190 L 500 192 L 498 192 L 498 194 L 496 194 L 496 196 L 494 196 L 494 198 L 492 198 L 492 200 L 488 202 L 488 206 L 486 206 L 486 208 L 484 208 L 484 210 L 482 210 L 482 212 L 480 212 L 480 214 L 478 214 L 478 216 L 476 216 L 476 218 L 474 218 L 474 220 L 472 220 L 472 222 L 470 222 L 470 224 L 468 224 L 468 226 L 466 226 L 466 228 L 464 228 L 464 230 L 462 230 L 462 232 L 460 232 L 458 236 L 456 236 L 456 240 L 454 240 L 454 242 L 452 242 L 452 244 L 450 244 L 450 246 L 448 246 L 448 248 L 446 248 L 446 250 L 444 250 L 444 252 L 442 252 L 442 254 L 440 254 L 440 256 L 438 256 L 438 258 L 436 258 L 436 260 L 434 260 L 434 262 L 432 262 L 432 264 L 430 264 L 430 266 L 428 266 L 426 270 L 424 270 L 424 274 L 422 274 L 422 276 L 420 276 L 420 278 L 418 278 L 418 280 L 416 280 L 416 282 L 414 282 L 414 284 L 412 284 L 412 286 L 410 286 L 410 288 L 408 288 L 408 290 L 406 290 L 406 292 L 404 292 L 404 294 L 402 294 L 402 296 L 400 296 L 400 298 L 398 298 L 398 300 L 394 302 L 394 306 L 392 306 L 392 308 L 390 308 L 390 310 L 388 310 L 388 312 L 386 312 L 386 314 L 384 314 L 384 316 L 382 316 L 382 318 L 380 318 L 380 320 L 378 320 L 378 322 L 376 322 L 376 324 L 374 324 L 374 326 L 372 326 L 372 328 L 370 328 L 370 330 L 368 330 L 368 332 L 366 332 L 366 334 L 364 334 L 362 338 L 360 338 L 360 342 L 358 342 L 358 344 L 356 344 L 356 346 L 354 346 L 354 348 L 352 348 L 352 350 L 350 350 L 350 352 L 348 352 L 348 354 L 346 354 L 346 356 L 344 356 L 344 358 L 342 358 L 342 360 L 340 360 L 340 362 L 338 362 L 338 364 L 336 364 L 336 366 L 334 366 L 334 368 L 332 368 L 332 370 L 330 370 L 328 374 L 326 374 L 326 378 L 324 378 L 324 380 L 322 380 L 322 382 L 320 382 L 320 384 L 318 384 L 318 386 L 316 386 L 316 388 L 314 388 L 314 390 L 312 390 L 312 392 L 310 392 L 310 394 L 308 394 L 308 396 L 306 396 L 306 398 L 304 398 L 304 400 L 302 400 L 302 402 L 300 402 L 300 404 L 298 404 L 298 406 L 296 406 L 294 410 L 292 410 L 292 414 L 290 414 L 290 416 L 288 416 L 288 418 L 286 418 L 286 420 L 284 420 L 284 422 L 282 422 L 282 424 L 280 424 L 280 426 L 278 426 L 278 428 L 276 428 L 276 430 L 274 430 L 272 434 L 268 434 L 268 432 L 266 432 L 266 430 L 264 430 L 264 428 L 262 428 L 262 426 L 260 426 L 260 424 L 258 424 L 256 420 L 254 420 L 254 418 Q 257 419 256 416 L 260 416 L 260 412 L 264 412 L 264 410 L 266 410 L 266 408 L 268 408 L 268 406 L 270 406 L 270 404 L 272 404 L 272 402 L 274 402 L 274 400 L 276 400 L 276 398 L 278 398 L 278 396 L 280 396 L 280 394 L 282 394 L 282 392 L 284 392 L 284 390 L 286 390 L 286 388 L 288 388 L 288 386 L 290 386 L 290 384 L 292 384 L 292 382 L 294 382 L 294 380 L 296 380 L 296 378 L 298 378 L 298 376 L 300 376 L 300 374 L 302 374 L 302 372 L 304 372 L 304 370 L 306 370 L 306 368 L 308 368 L 308 366 L 310 366 L 310 364 L 312 364 L 312 362 L 314 362 L 314 360 L 316 360 L 316 358 L 318 358 L 318 356 L 322 354 L 322 352 L 324 352 L 324 350 L 328 350 L 328 348 L 330 348 L 330 346 L 332 346 L 332 344 L 334 344 L 334 342 L 336 342 L 336 340 L 338 340 L 338 338 L 340 338 L 340 336 L 342 336 L 342 334 L 344 334 L 344 332 L 346 332 L 346 330 L 348 330 L 348 328 L 350 328 L 350 326 L 352 326 L 352 324 L 354 324 L 354 322 L 356 322 L 356 320 L 358 320 L 358 318 L 360 318 L 360 316 L 362 316 L 362 314 L 364 314 L 364 312 L 366 312 L 366 310 L 368 310 L 370 306 L 372 306 L 372 304 L 376 304 L 376 302 L 378 302 L 378 300 L 380 300 L 380 298 L 382 298 L 382 296 L 384 296 L 384 294 L 386 294 L 386 292 L 388 292 L 388 290 L 390 290 L 390 288 L 392 288 L 392 286 L 394 286 L 394 284 L 396 284 L 396 282 L 398 282 L 398 280 L 400 280 L 400 278 L 402 278 L 402 276 L 404 276 L 404 274 L 406 274 L 406 272 L 408 272 L 408 270 L 410 270 L 412 266 L 414 266 L 414 264 L 418 264 L 418 262 L 420 262 L 420 260 L 422 260 L 422 258 L 424 258 L 424 256 L 426 256 L 426 254 L 428 254 L 428 252 L 430 252 L 430 250 L 432 250 L 432 248 L 434 248 L 434 246 L 436 246 L 436 244 L 438 244 L 438 242 L 440 242 L 440 240 L 442 240 L 442 238 L 444 238 L 444 236 L 446 236 L 446 234 L 450 232 L 450 230 L 454 230 L 454 228 L 456 228 L 456 226 L 458 226 L 458 224 L 460 224 L 460 222 L 462 222 L 462 220 L 464 220 L 464 218 L 466 218 L 466 216 L 468 216 L 468 214 L 470 214 L 470 212 L 472 212 L 472 210 L 474 210 L 474 208 L 476 208 L 476 206 L 478 206 L 478 204 L 480 204 L 480 202 L 484 200 L 484 198 L 488 198 L 488 196 L 490 196 L 490 194 L 492 194 L 492 192 L 494 192 L 494 190 L 496 190 L 496 188 L 498 188 L 498 186 L 500 186 L 500 184 L 502 184 L 502 182 L 504 182 L 504 180 L 506 180 L 506 178 L 508 178 L 508 176 L 510 176 L 510 174 L 514 172 L 514 170 L 516 170 L 516 168 L 520 168 L 520 166 L 522 166 L 522 164 L 524 164 L 524 162 L 526 162 L 526 160 L 528 160 L 528 158 L 530 158 L 530 156 L 532 156 L 532 154 L 534 154 L 534 152 L 536 152 L 538 148 Z "/>
  <path fill="rgb(255,255,255)" stroke="rgb(255,255,255)" stroke-width="1" opacity="0.9803921568627451" d="M 210 420 L 231.5 420 L 232 422 L 238 422 L 238 424 L 241.5 424 Q 240.7 427.3 246 426 L 248 430 L 252 430 L 252 432 L 254 432 L 254 434 L 256 434 L 256 436 L 260 438 L 260 442 L 264 444 L 264 448 L 266 448 L 266 454 L 268 454.5 L 268 461.5 L 270 462.5 L 270 476 L 268 476 L 268 483.5 L 266 484 L 266 489.5 Q 262.8 488.7 264 494 L 260 496 L 260 500 L 258 500 L 258 502 L 254 504 L 254 502 L 252 502 L 252 500 L 250 500 L 250 498 L 248 498 L 248 496 L 246 496 L 246 494 L 244 494 L 244 492 L 242 492 L 242 490 L 240 490 L 240 488 L 238 488 L 238 486 L 236 486 L 236 484 L 234 484 L 234 482 L 232 482 L 232 480 L 230 480 L 230 478 L 228 478 L 226 474 L 222 474 Q 223 477 220 476 L 220 480 L 218 480 L 218 482 L 216 482 L 216 484 L 214 484 L 214 486 L 212 486 L 212 488 L 210 488 L 210 490 L 208 490 L 208 492 L 206 492 L 206 494 L 204 494 L 204 496 L 202 496 L 202 498 L 200 498 L 200 500 L 198 500 L 198 502 L 196 502 L 196 504 L 194 504 L 194 506 L 192 506 L 192 508 L 190 508 L 190 510 L 186 512 L 186 514 L 184 514 L 184 516 L 182 516 L 182 518 L 178 518 L 178 520 L 176 520 L 174 524 L 170 524 Q 171 527 168 526 L 168 529.5 Q 164.8 528.7 166 534 L 164 534 L 164 536 L 162 536 L 162 538 L 160 538 L 158 542 Q 152.7 540.8 153.5 544 L 146.5 544 Q 147.3 547.3 142 546 L 142 534.5 Q 145.3 535.3 144 530 L 146 530 L 146 526 L 148 526 L 150 522 L 153.5 522 Q 152.7 518.8 158 520 L 158 518 L 160 518 L 160 516 L 164 514 L 164 510 L 166 510 L 166 508 L 168 508 L 168 506 L 170 506 L 170 504 L 174 502 L 174 498 L 176 498 L 176 496 L 178 496 L 178 494 L 180 494 L 180 492 L 182 492 L 182 490 L 184 490 L 184 488 L 186 488 L 186 486 L 188 486 L 188 484 L 190 484 L 190 482 L 192 482 L 192 480 L 194 480 L 196 476 L 200 476 L 200 474 L 202 474 L 202 472 L 204 472 L 204 470 L 206 470 L 206 468 L 208 468 L 210 464 Q 215.2 465.7 214 462 L 212 462 L 212 460 L 210 460 L 210 458 L 208 458 L 208 456 L 206 456 L 206 454 L 204 454 L 204 452 L 202 452 L 202 450 L 200 450 L 200 448 L 198 448 L 198 446 L 196 446 L 196 444 L 194 444 L 194 442 L 192 442 L 192 440 L 190 440 L 190 438 L 186 436 L 186 432 Q 189 433 188 430 L 192 430 L 194 426 L 198 426 L 198 424 Q 203.3 425.2 202.5 422 L 210 422 L 210 420 Z "/>
  <path fill="rgb(255,255,255)" stroke="rgb(255,255,255)" stroke-width="1" opacity="0.10196078431372549" d="M 307 0 Q 310.3 -1.1 309 3 Q 305.7 4.1 307 0 Z "/>
  <path fill="rgb(255,255,255)" stroke="rgb(255,255,255)" stroke-width="1" opacity="0.10196078431372549" d="M 371 0 Q 374.3 -1.1 373 3 Q 369.7 4.1 371 0 Z "/>
  <path fill="rgb(255,255,255)" stroke="rgb(255,255,255)" stroke-width="1" opacity="0.10196078431372549" d="M 289 5 L 305 5.5 L 303.5 7 L 289.5 7 L 287.5 9 L 277.5 9 Q 275.5 13 267.5 11 L 265.5 13 L 259.5 13 L 257.5 15 L 251.5 15 L 249.5 17 L 243.5 17 L 235.5 21 L 231 21 L 231 19 L 237 19 L 237 17 L 243 17 L 243.5 15 L 250.5 15 L 251.5 13 L 258.5 13 L 259.5 11 L 267 11 L 267.5 9 L 276.5 9 L 277.5 7 L 288.5 7 L 289 5 Z "/>
  <path fill="rgb(255,255,255)" stroke="rgb(255,255,255)" stroke-width="1" opacity="0.10196078431372549" d="M 375.5 5 L 390.5 5 L 391.5 7 L 402.5 7 L 403.5 9 L 412.5 9 L 413.5 11 L 420.5 11 Q 419.7 14.4 428.5 13 L 429 15 L 435 15 L 435 17 L 441 17 L 441 19 L 447 19 L 447 21 L 453 21 L 453 23 L 459 23 L 459 25 L 454.5 25 L 452.5 23 L 448.5 23 L 446.5 21 L 442.5 21 L 440.5 19 L 436.5 19 L 428.5 15 L 422.5 15 Q 421 11.5 414.5 13 L 412.5 11 Q 404.5 13 402.5 9 L 392.5 9 L 390.5 7 L 376.5 7 L 375.5 5 Z "/>
  <path fill="rgb(255,255,255)" stroke="rgb(255,255,255)" stroke-width="1" opacity="0.10196078431372549" d="M 221 23 L 225 23.5 L 221 25 L 221 23 Z "/>
  <path fill="rgb(255,255,255)" stroke="rgb(255,255,255)" stroke-width="1" opacity="0.10196078431372549" d="M 211 27 L 215 27.5 L 211 29 L 211 27 Z "/>
  <path fill="rgb(255,255,255)" stroke="rgb(255,255,255)" stroke-width="1" opacity="0.10196078431372549" d="M 469.5 29 Q 474.3 27.7 473 31 Q 469.2 31.8 469.5 29 Z "/>
  <path fill="rgb(255,255,255)" stroke="rgb(255,255,255)" stroke-width="1" opacity="0.10196078431372549" d="M 503.5 45 Q 508.3 43.7 507 47 Q 503.2 47.8 503.5 45 Z "/>
  <path fill="rgb(255,255,255)" stroke="rgb(255,255,255)" stroke-width="1" opacity="0.10196078431372549" d="M 169 47 L 173 47.5 L 169 49 L 169 47 Z "/>
  <path fill="rgb(255,255,255)" stroke="rgb(255,255,255)" stroke-width="1" opacity="0.10196078431372549" d="M 513.5 51 Q 518.3 49.7 517 53 Q 513.2 53.8 513.5 51 Z "/>
  <path fill="rgb(255,255,255)" stroke="rgb(255,255,255)" stroke-width="1" opacity="0.10196078431372549" d="M 159 53 L 163 53.5 L 159 55 L 159 53 Z "/>
  <path fill="rgb(255,255,255)" stroke="rgb(255,255,255)" stroke-width="1" opacity="0.10196078431372549" d="M 519.5 55 Q 524.3 53.7 523 57 Q 519.2 57.8 519.5 55 Z "/>
  <path fill="rgb(255,255,255)" stroke="rgb(255,255,255)" stroke-width="1" opacity="0.10196078431372549" d="M 153 57 L 157 57.5 L 153 59 L 153 57 Z "/>
  <path fill="rgb(255,255,255)" stroke="rgb(255,255,255)" stroke-width="1" opacity="0.10196078431372549" d="M 525.5 59 Q 530.3 57.7 529 61 Q 525.2 61.8 525.5 59 Z "/>
  <path fill="rgb(255,255,255)" stroke="rgb(255,255,255)" stroke-width="1" opacity="0.10196078431372549" d="M 146.5 61 L 151 61.5 L 147 63 Q 148 66 145 65 Q 143.9 62.3 146.5 63 L 146.5 61 Z "/>
  <path fill="rgb(255,255,255)" stroke="rgb(255,255,255)" stroke-width="1" opacity="0.10196078431372549" d="M 531.5 63 Q 536.3 61.7 535 65 Q 531.2 65.8 531.5 63 Z "/>
  <path fill="rgb(255,255,255)" stroke="rgb(255,255,255)" stroke-width="1" opacity="0.10196078431372549" d="M 138.5 67 L 143 67.5 L 139 69 Q 140 72 137 71 Q 135.9 68.3 138.5 69 L 138.5 67 Z "/>
  <path fill="rgb(255,255,255)" stroke="rgb(255,255,255)" stroke-width="1" opacity="0.10196078431372549" d="M 537.5 67 L 542 67.5 L 541.5 69 L 544 69.5 L 543.5 71 Q 546.1 70.3 545 73 L 543 73 L 541 69 L 538.5 69 L 537.5 67 Z "/>
  <path fill="rgb(255,255,255)" stroke="rgb(255,255,255)" stroke-width="1" opacity="0.10196078431372549" d="M 130.5 73 L 135 73.5 L 131 75 L 131 77 L 127 79 Q 125.9 76.3 128.5 77 L 128.5 75 L 131 74.5 L 130.5 73 Z "/>
  <path fill="rgb(255,255,255)" stroke="rgb(255,255,255)" stroke-width="1" opacity="0.10196078431372549" d="M 547.5 75 L 552 75.5 L 551.5 77 L 554 77.5 L 553.5 79 Q 556.1 78.3 555 81 L 553 81 L 551 77 L 548.5 77 L 547.5 75 Z "/>
  <path fill="rgb(255,255,255)" stroke="rgb(255,255,255)" stroke-width="1" opacity="0.10196078431372549" d="M 120.5 81 L 125 81.5 L 121 83 L 121 85 L 119 85 L 119 87 L 117 87 L 117 89 L 115 89 L 115 91 L 113 91 L 113 93 L 109 95 Q 107.9 92.3 110.5 93 L 110.5 91 L 113 90.5 L 112.5 89 L 115 88.5 L 114.5 87 L 117 86.5 L 116.5 85 L 119 84.5 L 118.5 83 L 121 82.5 L 120.5 81 Z "/>
  <path fill="rgb(255,255,255)" stroke="rgb(255,255,255)" stroke-width="1" opacity="0.10196078431372549" d="M 557.5 83 L 562 83.5 L 561.5 85 L 564 85.5 L 563.5 87 L 566 87.5 L 565.5 89 L 568 89.5 L 567.5 91 L 570 91.5 L 569.5 93 L 572 93.5 L 571.5 95 L 574 95.5 L 573.5 97 L 576 97.5 L 575.5 99 L 578 99.5 L 577.5 101 L 580 101.5 L 579.5 103 L 582 103.5 L 581.5 105 L 584 105.5 L 583.5 107 L 586 107.5 L 585.5 109 L 588 109.5 L 587.5 111 L 590 111.5 L 589.5 113 L 592 113.5 L 591.5 115 L 594 115.5 L 593.5 117 L 596 117.5 L 593 119 L 593 117 L 591 117 L 591 115 L 589 115 L 589 113 L 587 113 L 587 111 L 585 111 L 585 109 L 583 109 L 583 107 L 581 107 L 581 105 L 579 105 L 579 103 L 577 103 L 577 101 L 575 101 L 575 99 L 573 99 L 573 97 L 571 97 L 571 95 L 569 95 L 569 93 L 567 93 L 567 91 L 565 91 L 565 89 L 561 87 L 561 85 L 558.5 85 L 557.5 83 Z "/>
  <path fill="rgb(255,255,255)" stroke="rgb(255,255,255)" stroke-width="1" opacity="0.10196078431372549" d="M 102.5 97 L 107 97.5 L 103 99 L 103 101 L 101 101 L 101 103 L 99 103 Q 100.1 105.7 97.5 105 L 96.5 103 L 99 102.5 L 98.5 101 L 101 100.5 L 100.5 99 L 103 98.5 L 102.5 97 Z "/>
  <path fill="rgb(255,255,255)" stroke="rgb(255,255,255)" stroke-width="1" opacity="0.10196078431372549" d="M 90.5 111 Q 94.3 110 93 113 L 91 113 L 91 115 L 89 115 L 89 117 L 87 117 L 87 119 L 85 119 Q 86.1 121.7 83.5 121 L 82.5 119 L 85 118.5 L 84.5 117 L 87 116.5 L 86.5 115 L 89 114.5 L 88.5 113 L 91 112.5 L 90.5 111 Z "/>
  <path fill="rgb(255,255,255)" stroke="rgb(255,255,255)" stroke-width="1" opacity="0.10196078431372549" d="M 599 125 L 602 125.5 L 601.5 127 L 604 127.5 L 601 129 L 599 125 Z "/>
  <path fill="rgb(255,255,255)" stroke="rgb(255,255,255)" stroke-width="1" opacity="0.10196078431372549" d="M 76.5 127 Q 80.3 126 79 129 L 77 129 Q 78.1 131.7 75.5 131 L 74.5 129 L 77 128.5 L 76.5 127 Z "/>
  <path fill="rgb(255,255,255)" stroke="rgb(255,255,255)" stroke-width="1" opacity="0.10196078431372549" d="M 607 135 L 610 135.5 L 607 137 L 607 135 Z "/>
  <path fill="rgb(255,255,255)" stroke="rgb(255,255,255)" stroke-width="1" opacity="0.10196078431372549" d="M 68.5 137 Q 72.3 136 71 139 L 68.5 137 Z "/>
  <path fill="rgb(255,255,255)" stroke="rgb(255,255,255)" stroke-width="1" opacity="0.10196078431372549" d="M 537 143 Q 542.2 141.3 541 145 Q 535.8 143.3 537 147 L 541 147 Q 540 150 543 149 Q 542 146 545 147 L 545 151 L 543 151 L 543 153 L 541 153 L 541 155 L 539 155 L 539 157 L 537 157 L 537 159 L 535 159 L 535 161 L 533 161 L 533 163 L 531 163 L 531 165 L 529 165 L 529 167 L 527 167 L 527 169 L 523 171 L 523 173.5 L 521 177 L 519 177 L 519 179 L 517 179 L 517 181 L 515 181 L 515 183 L 513 183 L 513 185 L 511 185 L 511 187 L 509 187 L 509 189 L 507 189 L 507 191 L 505 191 L 505 193 L 503 193 L 503 195 L 501 195 L 501 197 L 499 197 L 499 199 L 495 201 L 495 203 L 493 203 L 493 205.5 L 491 209 L 489 209 L 489 211 L 487 211 L 487 213 L 485 213 L 485 215 L 483 215 L 483 217 L 481 217 L 481 219 L 479 219 L 479 221 L 477 221 L 477 223 L 475 223 L 475 225 L 473 225 L 473 227 L 471 227 L 471 229 L 469 229 L 469 231 L 467 231 L 467 233 L 465 233 L 465 235 L 461 237 L 461 239.5 L 459 243 L 457 243 L 457 245 L 455 245 L 455 247 L 453 247 L 453 249 L 451 249 L 451 251 L 449 251 L 449 253 L 447 253 L 447 255 L 445 255 L 445 257 L 443 257 L 443 259 L 441 259 L 441 261 L 439 261 L 439 263 L 437 263 L 437 265 L 435 265 L 435 267 L 433 267 L 433 269 L 429 271 L 429 273.5 L 427 277 L 425 277 L 425 279 L 423 279 L 423 281 L 421 281 L 421 283 L 419 283 L 419 285 L 417 285 L 417 287 L 415 287 L 415 289 L 413 289 L 413 291 L 411 291 L 411 293 L 409 293 L 409 295 L 407 295 L 407 297 L 405 297 L 405 299 L 403 299 L 403 301 L 399 303 L 399 305.5 L 397 309 L 395 309 L 395 311 L 393 311 L 393 313 L 391 313 L 391 315 L 389 315 L 389 317 L 387 317 L 387 319 L 385 319 L 385 321 L 383 321 L 383 323 L 381 323 L 381 325 L 379 325 L 379 327 L 377 327 L 377 329 L 375 329 L 375 331 L 373 331 L 373 333 L 371 333 L 371 335 L 369 335 L 367 339 L 365 339 L 365 341.5 L 363 345 L 361 345 L 361 347 L 359 347 L 359 349 L 357 349 L 357 351 L 355 351 L 355 353 L 353 353 L 353 355 L 351 355 L 351 357 L 349 357 L 349 359 L 347 359 L 347 361 L 345 361 L 345 363 L 343 363 L 343 365 L 341 365 L 341 367 L 339 367 L 339 369 L 337 369 L 337 371 L 335 371 L 333 375 L 331 375 L 331 377.5 L 329 381 L 327 381 L 327 383 L 325 383 L 325 385 L 323 385 L 323 387 L 321 387 L 321 389 L 319 389 L 319 391 L 317 391 L 317 393 L 315 393 L 315 395 L 313 395 L 313 397 L 311 397 L 311 399 L 309 399 L 309 401 L 307 401 L 307 403 L 305 403 L 305 405 L 303 405 L 303 407 L 301 407 L 299 411 L 297 411 L 297 413.5 L 295 417 L 293 417 L 293 419 L 291 419 L 291 421 L 289 421 L 289 423 L 287 423 L 287 425 L 285 425 L 285 427 L 283 427 L 283 429 L 281 429 L 281 431 L 279 431 L 279 433 L 277 433 Q 278.1 435.7 275.5 435 L 271.5 439 L 268.5 439 L 263 435 Q 262 438 265 437 L 265 441 Q 267.7 439.9 267 442.5 L 271 448.5 Q 270 453.5 273 454.5 L 273 460.5 L 275 462.5 L 275 475.5 L 273 477.5 L 273 483.5 Q 270 484.5 271 489.5 L 267 497 Q 264 495.8 265 499.5 L 263 503 L 261 503 Q 262.1 505.7 259.5 505 L 257 509 L 253 509 L 253 507.5 L 249 505 L 249 503 L 247 503 L 247 501 L 245 501 L 245 499 L 243 499 L 243 497 L 241 497 L 241 495 L 239 495 L 239 493 L 237 493 L 237 491 L 235 491 L 235 489 L 233 489 L 233 487 L 231 487 L 231 485 L 229 485 L 229 483 L 227 483 L 227 481 Q 224.3 482.1 225 479.5 L 224 479.5 L 223 483 L 221 483 L 221 485 L 219 485 L 219 487 L 217 487 L 217 489 L 215 489 L 215 491 L 213 491 L 213 493 L 211 493 L 211 495 L 209 495 L 209 497 L 207 497 L 207 499 L 205 499 L 205 501 L 203 501 L 203 503 L 201 503 L 201 505 L 199 505 L 199 507 L 197 507 L 197 509 L 195 509 L 195 511 L 193 511 L 193 513 L 191 513 L 191 515 L 189 515 L 189 517 L 187 517 Q 188.1 519.7 185.5 519 Q 184.1 523.8 179 523 Q 180.1 525.7 177.5 525 Q 170.6 529 169 537 L 167 537 L 167 539 L 165 539 L 165 541 L 163 541 Q 164.1 543.7 161.5 543 L 153.5 549 L 147.5 549 Q 146.8 551.8 142.5 551 L 141.5 549 L 147 548.5 Q 145.6 545.8 141 547 L 141 535.5 L 139.5 534 L 138.5 547 L 137 545.5 L 137 534.5 L 143 523 L 145 523 Q 143.9 520.3 146.5 521 Q 149.9 515.6 157 515 Q 156 512 159 513 L 159 510.5 L 161 507 L 163 507 L 163 505 L 165 505 L 165 503 L 169 501 L 169 498.5 L 171 495 L 173 495 L 173 493 L 175 493 L 175 491 L 177 491 L 177 489 L 179 489 L 179 487 L 181 487 L 181 485 L 183 485 L 183 483 L 185 483 L 185 481 L 187 481 L 187 479 L 189 479 L 189 477 L 191 477 Q 189.9 474.3 192.5 475 Q 193.9 470.3 199 471 L 199 469 L 201 469 L 201 467 L 203 467 L 203 465 L 205 465 L 207 461 L 205 461 L 205 459 L 203 459 L 203 457 L 201 457 L 201 455 L 199 455 L 199 453 L 197 453 L 197 451 L 195 451 L 195 449 L 193 449 L 193 447 L 191 447 L 191 445 L 189 445 L 189 443 L 187 443 L 187 441 L 185 441 L 185 439 Q 182.3 440.1 183 437.5 Q 180.3 436.8 181 432.5 L 183 429 L 202.5 417 Q 209 418.5 210.5 415 L 231.5 415 L 233.5 417 L 237.5 417 L 245.5 421 L 249.5 425 L 253 425 L 253 423 L 249 421 L 249 417 L 251 417 Q 249.9 414.3 252.5 415 L 255 411 L 262.5 411 L 264 409.5 L 259 408.5 L 263 407 L 263 405 L 265 405 L 265 403 L 267 403 L 267 401 L 269 401 L 269 399 L 271 399 L 271 397 L 273 397 L 273 395 L 275 395 L 275 393 L 277 393 L 277 391 L 279 391 L 279 389 L 281 389 L 281 387 L 283 387 L 283 385 L 285 385 L 285 383 L 287 383 L 287 381 L 289 381 L 289 379 L 291 379 L 291 377 L 293 377 L 293 375 L 295 375 L 295 373 L 297 373 L 297 371 L 299 371 L 299 369 L 301 369 L 301 367 L 303 367 L 303 365 L 305 365 L 305 363 L 307 363 L 307 361 L 309 361 L 309 359 L 311 359 L 311 357 L 313 357 L 313 355 L 315 355 L 315 353 L 317 353 L 317 351 L 319 351 Q 317.9 348.3 320.5 349 Q 321.9 344.3 327 345 L 327 343 L 329 343 L 329 341 L 331 341 L 331 339 L 333 339 L 333 337 L 335 337 L 335 335 L 337 335 L 337 333 L 339 333 L 339 331 L 341 331 L 341 329 L 343 329 L 343 327 L 345 327 L 345 325 L 347 325 L 347 323 L 349 323 L 349 321 L 351 321 L 351 319 L 353 319 L 353 317 L 355 317 L 355 315 L 357 315 L 357 313 L 359 313 L 359 311 L 361 311 L 361 309 L 363 309 L 363 307 L 365 307 L 365 305 L 367 305 Q 365.9 302.3 368.5 303 Q 369.9 298.3 375 299 L 375 297 L 377 297 L 377 295 L 379 295 L 379 293 L 381 293 L 381 291 L 383 291 L 383 289 L 385 289 L 385 287 L 387 287 L 387 285 L 389 285 L 389 283 L 391 283 L 391 281 L 393 281 L 393 279 L 395 279 L 395 277 L 397 277 L 397 275 L 399 275 L 399 273 L 401 273 L 401 271 L 403 271 L 403 269 L 405 269 L 405 267 L 407 267 L 407 265 L 409 265 Q 407.9 262.3 410.5 263 Q 411.9 258.3 417 259 L 417 257 L 419 257 L 419 255 L 421 255 L 421 253 L 423 253 L 423 251 L 425 251 L 425 249 L 427 249 L 427 247 L 429 247 L 429 245 L 431 245 L 431 243 L 433 243 L 433 241 L 435 241 L 435 239 L 437 239 L 437 237 L 439 237 L 439 235 L 441 235 L 441 233 L 443 233 L 443 231 L 445 231 Q 443.9 228.3 446.5 229 Q 447.9 224.3 453 225 L 453 223 L 455 223 L 455 221 L 457 221 L 457 219 L 459 219 L 459 217 L 461 217 L 461 215 L 463 215 L 463 213 L 465 213 L 465 211 L 467 211 L 467 209 L 469 209 L 469 207 L 471 207 L 471 205 L 473 205 L 473 203 L 475 203 L 475 201 L 477 201 L 477 199 L 479 199 Q 477.9 196.3 480.5 197 Q 481.9 192.3 487 193 L 487 191 L 489 191 L 489 189 L 491 189 L 491 187 L 493 187 L 493 185 L 495 185 L 495 183 L 497 183 L 497 181 L 499 181 L 499 179 L 501 179 L 501 177 L 503 177 L 503 175 L 505 175 L 505 173 L 507 173 L 507 171 L 509 171 L 509 169 L 511 169 Q 509.9 166.3 512.5 167 Q 513.9 162.3 519 163 L 519 161 L 521 161 L 521 159 L 523 159 L 523 157 L 525 157 L 525 155 L 527 155 L 527 153 L 529 153 L 529 151 L 531 151 L 531 149 L 533 149 L 533 147 L 535 147 L 537 143 Z M 535 147 Q 534 150 537 149 Q 538 146 535 147 Z M 538 148 Q 537 151 540 150 Q 541 147 538 148 Z M 533 149 Q 532 152 535 151 Q 536 148 533 149 Z M 536 150 Q 535 153 538 152 Q 539 149 536 150 Z M 531 151 Q 530 154 533 153 Q 534 150 531 151 Z M 539 151 Q 538 154 541 153 Q 542 150 539 151 Z M 534 152 Q 533 155 536 154 Q 537 151 534 152 Z M 529 153 Q 528 156 531 155 Q 532 152 529 153 Z M 537 153 Q 536 156 539 155 Q 540 152 537 153 Z M 532 154 Q 531 157 534 156 Q 535 153 532 154 Z M 527 155 Q 526 158 529 157 Q 530 154 527 155 Z M 535 155 Q 534 158 537 157 Q 538 154 535 155 Z M 530 156 Q 529 159 532 158 Q 533 155 530 156 Z M 525 157 Q 524 160 527 159 Q 528 156 525 157 Z M 533 157 Q 532 160 535 159 Q 536 156 533 157 Z M 528 158 Q 527 161 530 160 Q 531 157 528 158 Z M 523 159 Q 522 162 525 161 Q 526 158 523 159 Z M 531 159 Q 530 162 533 161 Q 534 158 531 159 Z M 526 160 Q 525 163 528 162 Q 529 159 526 160 Z M 521 161 Q 520 164 523 163 Q 524 160 521 161 Z M 529 161 Q 528 164 531 163 Q 532 160 529 161 Z M 524 162 Q 523 165 526 164 Q 527 161 524 162 Z M 519 163 Q 518 166 521 165 Q 522 162 519 163 Z M 527 163 Q 526 166 529 165 Q 530 162 527 163 Z M 522 164 Q 521 167 524 166 Q 525 163 522 164 Z M 516 165 Q 515 168 519 167 Q 520 164 516 165 Z M 525 165 Q 524 168 527 167 Q 528 164 525 165 Z M 520 166 Q 519 169 522 168 Q 523 165 520 166 Z M 514 167 Q 514 171 516 168 L 514 167 Z M 523 167 Q 522 170 525 169 Q 526 166 523 167 Z M 516 168 L 516 170 L 514 170 L 514 172 L 510 174 L 510 176 L 508 176 L 508 178 L 506 178 L 506 180 L 504 180 L 504 182 L 502 182 L 502 184 L 500 184 L 500 186 L 498 186 L 498 188 L 496 188 L 496 190 L 494 190 L 494 192 L 492 192 L 492 194 L 490 194 L 490 196 L 488 196 L 488 198 L 484 198 L 484 200 L 480 202 L 480 204 L 478 204 L 478 206 L 476 206 L 476 208 L 474 208 L 474 210 L 472 210 L 472 212 L 470 212 L 470 214 L 468 214 L 468 216 L 466 216 L 466 218 L 464 218 L 464 220 L 462 220 L 462 222 L 460 222 L 460 224 L 458 224 L 458 226 L 456 226 L 456 228 L 454 228 L 454 230 L 450 230 L 450 232 L 446 234 L 446 236 L 444 236 L 444 238 L 442 238 L 442 240 L 440 240 L 440 242 L 438 242 L 438 244 L 436 244 L 436 246 L 434 246 L 434 248 L 432 248 L 432 250 L 430 250 L 430 252 L 428 252 L 428 254 L 426 254 L 426 256 L 424 256 L 424 258 L 422 258 L 422 260 L 420 260 L 420 262 L 418 262 L 418 264 L 414 264 L 414 266 L 412 266 L 410 270 L 408 270 L 408 272 L 406 272 L 406 274 L 404 274 L 404 276 L 402 276 L 402 278 L 400 278 L 400 280 L 398 280 L 398 282 L 396 282 L 396 284 L 394 284 L 394 286 L 392 286 L 392 288 L 390 288 L 390 290 L 388 290 L 388 292 L 386 292 L 386 294 L 384 294 L 384 296 L 382 296 L 382 298 L 380 298 L 380 300 L 378 300 L 378 302 L 376 302 L 376 304 L 372 304 L 372 306 L 370 306 L 368 310 L 366 310 L 366 312 L 364 312 L 364 314 L 362 314 L 362 316 L 360 316 L 360 318 L 358 318 L 358 320 L 356 320 L 356 322 L 354 322 L 354 324 L 352 324 L 352 326 L 350 326 L 350 328 L 348 328 L 348 330 L 346 330 L 346 332 L 344 332 L 344 334 L 342 334 L 342 336 L 340 336 L 340 338 L 338 338 L 338 340 L 336 340 L 336 342 L 334 342 L 334 344 L 332 344 L 332 346 L 330 346 L 330 348 L 328 348 L 328 350 L 324 350 L 324 352 L 322 352 L 322 354 L 318 356 L 318 358 L 316 358 L 316 360 L 314 360 L 314 362 L 312 362 L 312 364 L 310 364 L 310 366 L 308 366 L 308 368 L 306 368 L 306 370 L 304 370 L 304 372 L 302 372 L 302 374 L 300 374 L 300 376 L 298 376 L 298 378 L 296 378 L 296 380 L 294 380 L 294 382 L 292 382 L 292 384 L 290 384 L 290 386 L 288 386 L 288 388 L 286 388 L 286 390 L 284 390 L 284 392 L 282 392 L 282 394 L 280 394 L 280 396 L 278 396 L 278 398 L 276 398 L 276 400 L 274 400 L 274 402 L 272 402 L 272 404 L 270 404 L 270 406 L 268 406 L 268 408 L 266 408 L 266 410 L 264 410 L 264 412 L 260 412 L 260 416 L 256 416 Q 257 419 254 418 L 254 420 L 256 420 L 258 424 L 260 424 L 260 426 L 262 426 L 262 428 L 264 428 L 264 430 L 266 430 L 266 432 L 268 432 L 268 434 L 272 434 L 274 430 L 276 430 L 276 428 L 278 428 L 278 426 L 280 426 L 280 424 L 282 424 L 282 422 L 284 422 L 284 420 L 286 420 L 286 418 L 288 418 L 288 416 L 290 416 L 290 414 L 292 414 L 292 410 L 294 410 L 296 406 L 298 406 L 298 404 L 300 404 L 300 402 L 302 402 L 302 400 L 304 400 L 304 398 L 306 398 L 306 396 L 308 396 L 308 394 L 310 394 L 310 392 L 312 392 L 312 390 L 314 390 L 314 388 L 316 388 L 316 386 L 318 386 L 318 384 L 320 384 L 320 382 L 322 382 L 322 380 L 324 380 L 324 378 L 326 378 L 326 374 L 328 374 L 330 370 L 332 370 L 332 368 L 334 368 L 334 366 L 336 366 L 336 364 L 338 364 L 338 362 L 340 362 L 340 360 L 342 360 L 342 358 L 344 358 L 344 356 L 346 356 L 346 354 L 348 354 L 348 352 L 350 352 L 350 350 L 352 350 L 352 348 L 354 348 L 354 346 L 356 346 L 356 344 L 358 344 L 358 342 L 360 342 L 360 338 L 362 338 L 364 334 L 366 334 L 366 332 L 368 332 L 368 330 L 370 330 L 370 328 L 372 328 L 372 326 L 374 326 L 374 324 L 376 324 L 376 322 L 378 322 L 378 320 L 380 320 L 380 318 L 382 318 L 382 316 L 384 316 L 384 314 L 386 314 L 386 312 L 388 312 L 388 310 L 390 310 L 390 308 L 392 308 L 392 306 L 394 306 L 394 302 L 398 300 L 398 298 L 400 298 L 400 296 L 402 296 L 402 294 L 404 294 L 404 292 L 406 292 L 406 290 L 408 290 L 408 288 L 410 288 L 410 286 L 412 286 L 412 284 L 414 284 L 414 282 L 416 282 L 416 280 L 418 280 L 418 278 L 420 278 L 420 276 L 422 276 L 422 274 L 424 274 L 424 270 L 426 270 L 428 266 L 430 266 L 430 264 L 432 264 L 432 262 L 434 262 L 434 260 L 436 260 L 436 258 L 438 258 L 438 256 L 440 256 L 440 254 L 442 254 L 442 252 L 444 252 L 444 250 L 446 250 L 446 248 L 448 248 L 448 246 L 450 246 L 450 244 L 452 244 L 452 242 L 454 242 L 454 240 L 456 240 L 456 236 L 458 236 L 460 232 L 462 232 L 462 230 L 464 230 L 464 228 L 466 228 L 466 226 L 468 226 L 468 224 L 470 224 L 470 222 L 472 222 L 472 220 L 474 220 L 474 218 L 476 218 L 476 216 L 478 216 L 478 214 L 480 214 L 480 212 L 482 212 L 482 210 L 484 210 L 484 208 L 486 208 L 486 206 L 488 206 L 488 202 L 492 200 L 492 198 L 494 198 L 494 196 L 496 196 L 496 194 L 498 194 L 498 192 L 500 192 L 500 190 L 502 190 L 502 188 L 504 188 L 504 186 L 506 186 L 506 184 L 508 184 L 508 182 L 510 182 L 510 180 L 512 180 L 512 178 L 514 178 L 514 176 L 516 176 L 516 174 L 518 174 Q 516 169 520 170 Q 521 166 516 168 Z M 512 169 Q 512 173 514 170 L 512 169 Z M 522 169 L 519 173 L 523 171 Q 524 168 522 169 Z M 510 171 Q 510 175 512 172 L 510 171 Z M 508 173 Q 508 177 510 174 L 508 173 Z M 506 175 Q 506 179 508 176 L 506 175 Z M 518 175 L 516 177 L 519 177 Q 520 174 518 175 Z M 504 177 Q 504 181 506 178 L 504 177 Z M 516 177 L 514 179 L 517 179 L 516 177 Z M 502 179 Q 502 183 504 180 L 502 179 Z M 514 179 L 512 181 L 515 181 L 514 179 Z M 500 181 Q 500 185 502 182 L 500 181 Z M 512 181 L 510 183 L 513 183 L 512 181 Z M 498 183 Q 498 187 500 184 L 498 183 Z M 510 183 L 508 185 L 511 185 L 510 183 Z M 496 185 Q 496 189 498 186 L 496 185 Z M 508 185 L 506 187 L 509 187 L 508 185 Z M 494 187 Q 494 191 496 188 L 494 187 Z M 506 187 L 504 189 L 507 189 L 506 187 Z M 492 189 Q 492 193 494 190 L 492 189 Z M 504 189 L 502 191 L 505 191 L 504 189 Z M 490 191 Q 490 195 492 192 L 490 191 Z M 502 191 L 500 193 L 503 193 L 502 191 Z M 488 193 Q 488 197 490 194 L 488 193 Z M 500 193 L 498 195 L 501 195 L 500 193 Z M 484 195 L 485 197 L 488 196 L 484 195 Z M 498 195 L 496 197 L 499 197 L 498 195 Z M 481 197 L 481 199 L 479 200 Q 481 203 483 199 Q 484 196 481 197 Z M 496 197 L 494 199 L 497 199 L 496 197 Z M 494 199 L 492 201 L 495 201 L 494 199 Z M 478 201 Q 478 205 480 202 L 478 201 Z M 492 201 L 489 205 L 491 205 Q 490 202 493 203 L 492 201 Z M 476 203 Q 476 207 478 204 L 476 203 Z M 474 205 Q 474 209 476 206 L 474 205 Z M 472 207 Q 472 211 474 208 L 472 207 Z M 488 207 L 486 209 L 489 209 Q 490 206 488 207 Z M 470 209 Q 470 213 472 210 L 470 209 Z M 486 209 L 484 211 L 487 211 L 486 209 Z M 468 211 Q 468 215 470 212 L 468 211 Z M 484 211 L 482 213 L 485 213 L 484 211 Z M 466 213 Q 466 217 468 214 L 466 213 Z M 482 213 L 480 215 L 483 215 L 482 213 Z M 464 215 Q 464 219 466 216 L 464 215 Z M 480 215 L 478 217 L 481 217 L 480 215 Z M 462 217 Q 462 221 464 218 L 462 217 Z M 478 217 L 476 219 L 479 219 L 478 217 Z M 460 219 Q 460 223 462 220 L 460 219 Z M 476 219 L 474 221 L 477 221 L 476 219 Z M 458 221 Q 458 225 460 222 L 458 221 Z M 474 221 L 472 223 L 475 223 L 474 221 Z M 456 223 Q 456 227 458 224 L 456 223 Z M 472 223 L 470 225 L 473 225 L 472 223 Z M 454 225 Q 454 229 456 226 L 454 225 Z M 470 225 L 468 227 L 471 227 L 470 225 Z M 450 227 L 451 229 L 454 228 L 450 227 Z M 468 227 L 466 229 L 469 229 L 468 227 Z M 447 229 L 447 231 L 445 232 Q 447 235 449 231 Q 450 228 447 229 Z M 466 229 L 464 231 L 467 231 L 466 229 Z M 464 231 L 462 233 L 465 233 L 464 231 Z M 444 233 Q 444 237 446 234 L 444 233 Z M 462 233 L 460 235 L 463 235 L 462 233 Z M 442 235 Q 442 239 444 236 L 442 235 Z M 460 235 L 457 239 L 459 239 Q 458 236 461 237 L 460 235 Z M 440 237 Q 440 241 442 238 L 440 237 Z M 438 239 Q 438 243 440 240 L 438 239 Z M 436 241 Q 436 245 438 242 L 436 241 Z M 456 241 L 454 243 L 457 243 Q 458 240 456 241 Z M 434 243 Q 434 247 436 244 L 434 243 Z M 454 243 L 452 245 L 455 245 L 454 243 Z M 432 245 Q 432 249 434 246 L 432 245 Z M 452 245 L 450 247 L 453 247 L 452 245 Z M 430 247 Q 430 251 432 248 L 430 247 Z M 450 247 L 448 249 L 451 249 L 450 247 Z M 428 249 Q 428 253 430 250 L 428 249 Z M 448 249 L 446 251 L 449 251 L 448 249 Z M 426 251 Q 426 255 428 252 L 426 251 Z M 446 251 L 444 253 L 447 253 L 446 251 Z M 424 253 Q 424 257 426 254 L 424 253 Z M 444 253 L 442 255 L 445 255 L 444 253 Z M 422 255 Q 422 259 424 256 L 422 255 Z M 442 255 L 440 257 L 443 257 L 442 255 Z M 420 257 Q 420 261 422 258 L 420 257 Z M 440 257 L 438 259 L 441 259 L 440 257 Z M 418 259 Q 418 263 420 260 L 418 259 Z M 438 259 L 436 261 L 439 261 L 438 259 Z M 414 261 L 415 263 L 418 262 L 414 261 Z M 436 261 L 434 263 L 437 263 L 436 261 Z M 411 263 L 411 265 L 409 266 Q 411 269 413 265 Q 414 262 411 263 Z M 434 263 L 432 265 L 435 265 L 434 263 Z M 432 265 L 430 267 L 433 267 L 432 265 Z M 408 267 Q 408 271 410 268 L 408 267 Z M 430 267 L 428 269 L 431 269 L 430 267 Z M 406 269 Q 406 273 408 270 L 406 269 Z M 428 269 L 425 273 L 427 273 Q 426 270 429 271 L 428 269 Z M 404 271 Q 404 275 406 272 L 404 271 Z M 402 273 Q 402 277 404 274 L 402 273 Z M 400 275 Q 400 279 402 276 L 400 275 Z M 424 275 L 422 277 L 425 277 Q 426 274 424 275 Z M 398 277 Q 398 281 400 278 L 398 277 Z M 422 277 L 420 279 L 423 279 L 422 277 Z M 396 279 Q 396 283 398 280 L 396 279 Z M 420 279 L 418 281 L 421 281 L 420 279 Z M 394 281 Q 394 285 396 282 L 394 281 Z M 418 281 L 416 283 L 419 283 L 418 281 Z M 392 283 Q 392 287 394 284 L 392 283 Z M 416 283 L 414 285 L 417 285 L 416 283 Z M 390 285 Q 390 289 392 286 L 390 285 Z M 414 285 L 412 287 L 415 287 L 414 285 Z M 388 287 Q 388 291 390 288 L 388 287 Z M 412 287 L 410 289 L 413 289 L 412 287 Z M 386 289 Q 386 293 388 290 L 386 289 Z M 410 289 L 408 291 L 411 291 L 410 289 Z M 384 291 Q 384 295 386 292 L 384 291 Z M 408 291 L 406 293 L 409 293 L 408 291 Z M 382 293 Q 382 297 384 294 L 382 293 Z M 406 293 L 404 295 L 407 295 L 406 293 Z M 380 295 Q 380 299 382 296 L 380 295 Z M 404 295 L 402 297 L 405 297 L 404 295 Z M 378 297 Q 378 301 380 298 L 378 297 Z M 402 297 L 400 299 L 403 299 L 402 297 Z M 376 299 Q 376 303 378 300 L 376 299 Z M 400 299 L 398 301 L 401 301 L 400 299 Z M 372 301 L 373 303 L 376 302 L 372 301 Z M 398 301 L 395 305 L 397 305 Q 396 302 399 303 L 398 301 Z M 369 303 L 369 305 L 367 306 Q 369 309 371 305 Q 372 302 369 303 Z M 366 307 Q 366 311 368 308 L 366 307 Z M 394 307 L 392 309 L 395 309 Q 396 306 394 307 Z M 364 309 Q 364 313 366 310 L 364 309 Z M 392 309 L 390 311 L 393 311 L 392 309 Z M 362 311 Q 362 315 364 312 L 362 311 Z M 390 311 L 388 313 L 391 313 L 390 311 Z M 360 313 Q 360 317 362 314 L 360 313 Z M 388 313 L 386 315 L 389 315 L 388 313 Z M 358 315 Q 358 319 360 316 L 358 315 Z M 386 315 L 384 317 L 387 317 L 386 315 Z M 356 317 Q 356 321 358 318 L 356 317 Z M 384 317 L 382 319 L 385 319 L 384 317 Z M 354 319 Q 354 323 356 320 L 354 319 Z M 382 319 L 380 321 L 383 321 L 382 319 Z M 352 321 Q 352 325 354 322 L 352 321 Z M 380 321 L 378 323 L 381 323 L 380 321 Z M 350 323 Q 350 327 352 324 L 350 323 Z M 378 323 L 376 325 L 379 325 L 378 323 Z M 348 325 Q 348 329 350 326 L 348 325 Z M 376 325 L 374 327 L 377 327 L 376 325 Z M 346 327 Q 346 331 348 328 L 346 327 Z M 374 327 L 372 329 L 375 329 L 374 327 Z M 344 329 Q 344 333 346 330 L 344 329 Z M 372 329 L 370 331 L 373 331 L 372 329 Z M 342 331 Q 342 335 344 332 L 342 331 Z M 370 331 L 368 333 L 371 333 L 370 331 Z M 340 333 Q 340 337 342 334 L 340 333 Z M 368 333 L 366 335 L 369 335 L 368 333 Z M 338 335 Q 338 339 340 336 L 338 335 Z M 366 335 L 364 337 L 367 337 L 366 335 Z M 336 337 Q 336 341 338 338 L 336 337 Z M 364 337 L 361 341 L 363 341 Q 362 338 365 339 L 364 337 Z M 334 339 Q 334 343 336 340 L 334 339 Z M 332 341 Q 332 345 334 342 L 332 341 Z M 330 343 Q 330 347 332 344 L 330 343 Z M 360 343 L 358 345 L 361 345 Q 362 342 360 343 Z M 328 345 Q 328 349 330 346 L 328 345 Z M 358 345 L 356 347 L 359 347 L 358 345 Z M 324 347 L 325 349 L 328 348 L 324 347 Z M 356 347 L 354 349 L 357 349 L 356 347 Z M 321 349 L 321 351 L 319 352 Q 321 355 323 351 Q 324 348 321 349 Z M 354 349 L 352 351 L 355 351 L 354 349 Z M 352 351 L 350 353 L 353 353 L 352 351 Z M 318 353 Q 318 357 320 354 L 318 353 Z M 350 353 L 348 355 L 351 355 L 350 353 Z M 316 355 Q 316 359 318 356 L 316 355 Z M 348 355 L 346 357 L 349 357 L 348 355 Z M 314 357 Q 314 361 316 358 L 314 357 Z M 346 357 L 344 359 L 347 359 L 346 357 Z M 312 359 Q 312 363 314 360 L 312 359 Z M 344 359 L 342 361 L 345 361 L 344 359 Z M 310 361 Q 310 365 312 362 L 310 361 Z M 342 361 L 340 363 L 343 363 L 342 361 Z M 308 363 Q 308 367 310 364 L 308 363 Z M 340 363 L 338 365 L 341 365 L 340 363 Z M 306 365 Q 306 369 308 366 L 306 365 Z M 338 365 L 336 367 L 339 367 L 338 365 Z M 304 367 Q 304 371 306 368 L 304 367 Z M 336 367 L 334 369 L 337 369 L 336 367 Z M 302 369 Q 302 373 304 370 L 302 369 Z M 334 369 L 332 371 L 335 371 L 334 369 Z M 300 371 Q 300 375 302 372 L 300 371 Z M 332 371 L 330 373 L 333 373 L 332 371 Z M 298 373 Q 298 377 300 374 L 298 373 Z M 330 373 L 327 377 L 329 377 Q 328 374 331 375 L 330 373 Z M 296 375 Q 296 379 298 376 L 296 375 Z M 294 377 Q 294 381 296 378 L 294 377 Z M 292 379 Q 292 383 294 380 L 292 379 Z M 326 379 L 324 381 L 327 381 Q 328 378 326 379 Z M 290 381 Q 290 385 292 382 L 290 381 Z M 324 381 L 322 383 L 325 383 L 324 381 Z M 288 383 Q 288 387 290 384 L 288 383 Z M 322 383 L 320 385 L 323 385 L 322 383 Z M 286 385 Q 286 389 288 386 L 286 385 Z M 320 385 L 318 387 L 321 387 L 320 385 Z M 284 387 Q 284 391 286 388 L 284 387 Z M 318 387 L 316 389 L 319 389 L 318 387 Z M 282 389 Q 282 393 284 390 L 282 389 Z M 316 389 L 314 391 L 317 391 L 316 389 Z M 280 391 Q 280 395 282 392 L 280 391 Z M 314 391 L 312 393 L 315 393 L 314 391 Z M 278 393 Q 278 397 280 394 L 278 393 Z M 312 393 L 310 395 L 313 395 L 312 393 Z M 276 395 Q 276 399 278 396 L 276 395 Z M 310 395 L 308 397 L 311 397 L 310 395 Z M 274 397 Q 274 401 276 398 L 274 397 Z M 308 397 L 306 399 L 309 399 L 308 397 Z M 272 399 Q 272 403 274 400 L 272 399 Z M 306 399 L 304 401 L 307 401 L 306 399 Z M 270 401 Q 270 405 272 402 L 270 401 Z M 304 401 L 302 403 L 305 403 L 304 401 Z M 268 403 Q 268 407 270 404 L 268 403 Z M 302 403 L 300 405 L 303 405 L 302 403 Z M 266 405 Q 266 409 268 406 L 266 405 Z M 300 405 L 298 407 L 301 407 L 300 405 Z M 264 407 Q 264 411 266 408 L 264 407 Z M 298 407 L 296 409 L 299 409 L 298 407 Z M 296 409 L 293 413 L 295 413 Q 294 410 297 411 L 296 409 Z M 256 413 Q 255 416 259 415 Q 260 412 256 413 Z M 253 415 L 253 417 L 256 416 L 253 415 Z M 292 415 L 290 417 L 293 417 Q 294 414 292 415 Z M 209 417 L 209 419 L 202 419 Q 203 422 198 421 L 199 423 L 203 421 L 209 421 L 211 419 L 232 419 L 234 421 L 238 421 L 242 423 L 243 421 Q 238 422 239 419 L 233 419 L 233 417 L 209 417 Z M 290 417 L 288 419 L 291 419 L 290 417 Z M 288 419 L 286 421 L 289 421 L 288 419 Z M 210 420 L 210 422 L 203 422 Q 203 425 198 424 L 198 426 L 194 426 L 192 430 L 188 430 Q 189 433 186 432 L 186 436 L 190 438 L 190 440 L 192 440 L 192 442 L 194 442 L 194 444 L 196 444 L 196 446 L 198 446 L 198 448 L 200 448 L 200 450 L 202 450 L 202 452 L 204 452 L 204 454 L 206 454 L 206 456 L 208 456 L 208 458 L 210 458 L 210 460 L 212 460 L 212 462 L 214 462 Q 215 466 210 464 L 208 468 L 206 468 L 206 470 L 204 470 L 204 472 L 202 472 L 202 474 L 200 474 L 200 476 L 196 476 L 194 480 L 192 480 L 192 482 L 190 482 L 190 484 L 188 484 L 188 486 L 186 486 L 186 488 L 184 488 L 184 490 L 182 490 L 182 492 L 180 492 L 180 494 L 178 494 L 178 496 L 176 496 L 176 498 L 174 498 L 174 502 L 170 504 L 170 506 L 168 506 L 168 508 L 166 508 L 166 510 L 164 510 L 164 514 L 160 516 L 160 518 L 158 518 L 158 520 Q 153 519 154 522 L 150 522 L 148 526 L 146 526 L 146 530 L 144 530 Q 145 535 142 535 L 142 546 Q 147 547 147 544 L 154 544 Q 153 541 158 542 L 160 538 L 162 538 L 162 536 L 164 536 L 164 534 L 166 534 Q 165 529 168 530 L 168 526 Q 171 527 170 524 L 174 524 L 176 520 L 178 520 L 178 518 L 182 518 L 182 516 L 184 516 L 184 514 L 186 514 L 186 512 L 190 510 L 190 508 L 192 508 L 192 506 L 194 506 L 194 504 L 196 504 L 196 502 L 198 502 L 198 500 L 200 500 L 200 498 L 202 498 L 202 496 L 204 496 L 204 494 L 206 494 L 206 492 L 208 492 L 208 490 L 210 490 L 210 488 L 212 488 L 212 486 L 214 486 L 214 484 L 216 484 L 216 482 L 218 482 L 218 480 L 220 480 L 220 476 Q 223 477 222 474 L 226 474 L 228 478 L 230 478 L 230 480 L 232 480 L 232 482 L 234 482 L 234 484 L 236 484 L 236 486 L 238 486 L 238 488 L 240 488 L 240 490 L 242 490 L 242 492 L 244 492 L 244 494 L 246 494 L 246 496 L 248 496 L 248 498 L 250 498 L 250 500 L 252 500 L 252 502 L 254 502 L 254 504 L 258 502 L 258 500 L 260 500 L 260 496 L 264 494 Q 263 489 266 490 L 266 484 L 268 484 L 268 476 L 270 476 L 270 463 L 268 462 L 268 455 L 266 454 L 266 448 L 264 448 L 264 444 L 260 442 L 260 438 L 256 436 L 256 434 L 254 434 L 254 432 L 252 432 L 252 430 L 248 430 L 246 426 Q 241 427 242 424 L 238 424 L 238 422 L 232 422 L 232 420 L 210 420 Z M 253 421 L 253 423 L 256 423 L 253 421 Z M 286 421 L 284 423 L 287 423 L 286 421 Z M 194 423 Q 193 426 197 425 Q 198 422 194 423 Z M 243 423 L 243 425 L 247 424 L 243 423 Z M 257 423 L 255 425 L 258 425 L 257 423 Z M 284 423 L 282 425 L 285 425 L 284 423 Z M 191 425 Q 192 428 188 427 L 189 429 Q 193 429 193 427 Q 194 424 191 425 Z M 247 425 L 247 427 Q 247 429 252 429 L 253 427 L 249 427 Q 250 424 247 425 Z M 253 425 Q 252 428 255 427 Q 256 424 253 425 Z M 259 425 L 257 427 L 260 427 L 259 425 Z M 282 425 L 280 427 L 283 427 L 282 425 Z M 255 427 Q 254 430 257 429 Q 258 426 255 427 Z M 261 427 L 259 429 L 262 429 L 261 427 Z M 280 427 L 278 429 L 281 429 L 280 427 Z M 185 429 Q 184 432 187 431 Q 188 428 185 429 Z M 253 429 L 256 433 L 257 431 Q 254 432 255 429 L 253 429 Z M 257 429 Q 256 432 259 431 Q 260 428 257 429 Z M 263 429 L 261 431 L 264 431 L 263 429 Z M 278 429 L 276 431 L 279 431 L 278 429 Z M 259 431 Q 258 434 261 433 Q 262 430 259 431 Z M 265 431 L 264 433 Q 266 432 265 435 L 268 435 L 265 431 Z M 276 431 L 273 435 L 275 435 Q 274 432 277 433 L 276 431 Z M 183 433 Q 182 436 185 435 Q 186 432 183 433 Z M 257 433 Q 257 437 259 434 L 257 433 Z M 261 433 Q 260 436 263 435 Q 264 432 261 433 Z M 259 435 L 261 437 Q 262 434 259 435 Z M 269 435 L 268 437 L 273 437 Q 272 434 269 435 Z M 185 437 L 185 439 L 188 439 L 185 437 Z M 189 439 L 187 441 L 190 441 L 189 439 Z M 261 439 L 261 441 L 265 443 L 263 439 L 261 439 Z M 191 441 L 189 443 L 192 443 L 191 441 Z M 193 443 L 191 445 L 194 445 L 193 443 Z M 195 445 L 193 447 L 196 447 L 195 445 Z M 265 445 Q 264 448 267 447 Q 268 444 265 445 Z M 197 447 L 195 449 L 198 449 L 197 447 Z M 199 449 L 197 451 L 200 451 L 199 449 Z M 201 451 L 199 453 L 202 453 L 201 451 Z M 267 451 Q 266 454 269 453 Q 270 450 267 451 Z M 203 453 L 201 455 L 204 455 L 203 453 Z M 271 454 L 269 457 L 271 458 L 271 454 Z M 205 455 L 203 457 L 206 457 L 205 455 Z M 207 457 L 205 459 L 208 459 L 207 457 Z M 209 459 L 208 461 Q 210 460 209 463 L 212 463 L 209 459 Z M 269 459 Q 268 462 271 461 Q 272 458 269 459 Z M 273 462 L 271 464 L 271 475 L 273 476 L 273 462 Z M 207 463 L 207 465 L 205 466 Q 207 469 209 465 Q 210 462 207 463 Z M 204 467 Q 204 471 206 468 L 204 467 Z M 202 469 Q 202 473 204 470 L 202 469 Z M 200 471 Q 200 475 202 472 L 200 471 Z M 196 473 L 197 475 L 200 474 L 196 473 Z M 193 475 L 193 477 L 191 478 Q 193 481 195 477 Q 196 474 193 475 Z M 223 475 Q 222 478 225 477 Q 226 474 223 475 Z M 221 477 Q 220 480 223 479 Q 224 476 221 477 Z M 225 477 L 225 479 L 228 479 L 225 477 Z M 269 477 Q 268 480 271 479 Q 272 476 269 477 Z M 190 479 Q 190 483 192 480 L 190 479 Z M 229 479 L 227 481 L 230 481 L 229 479 Z M 271 480 L 269 483 L 271 484 L 271 480 Z M 188 481 Q 188 485 190 482 L 188 481 Z M 220 481 L 218 483 L 221 483 Q 222 480 220 481 Z M 231 481 L 229 483 L 232 483 L 231 481 Z M 186 483 Q 186 487 188 484 L 186 483 Z M 218 483 L 216 485 L 219 485 L 218 483 Z M 233 483 L 231 485 L 234 485 L 233 483 Z M 184 485 Q 184 489 186 486 L 184 485 Z M 216 485 L 214 487 L 217 487 L 216 485 Z M 235 485 L 233 487 L 236 487 L 235 485 Z M 267 485 Q 266 488 269 487 Q 270 484 267 485 Z M 182 487 Q 182 491 184 488 L 182 487 Z M 214 487 L 212 489 L 215 489 L 214 487 Z M 237 487 L 235 489 L 238 489 L 237 487 Z M 180 489 Q 180 493 182 490 L 180 489 Z M 212 489 L 210 491 L 213 491 L 212 489 Z M 239 489 L 237 491 L 240 491 L 239 489 Z M 178 491 Q 178 495 180 492 L 178 491 Z M 210 491 L 208 493 L 211 493 L 210 491 Z M 241 491 L 239 493 L 242 493 L 241 491 Z M 265 491 Q 264 494 267 493 Q 268 490 265 491 Z M 176 493 Q 176 497 178 494 L 176 493 Z M 208 493 L 206 495 L 209 495 L 208 493 Z M 243 493 L 241 495 L 244 495 L 243 493 Z M 173 495 L 173 497 L 176 496 L 173 495 Z M 206 495 L 204 497 L 207 497 L 206 495 Z M 245 495 L 243 497 L 246 497 L 245 495 Z M 264 495 L 261 499 L 265 497 Q 266 494 264 495 Z M 204 497 L 202 499 L 205 499 L 204 497 Z M 247 497 L 245 499 L 248 499 L 247 497 Z M 171 499 L 171 501 L 169 502 Q 171 505 173 501 Q 174 498 171 499 Z M 202 499 L 200 501 L 203 501 L 202 499 Z M 249 499 L 247 501 L 250 501 L 249 499 Z M 200 501 L 198 503 L 201 503 L 200 501 Z M 251 501 L 250 503 Q 252 502 251 505 L 253 505 L 251 501 Z M 260 501 L 257 505 L 261 503 Q 262 500 260 501 Z M 168 503 Q 168 507 170 504 L 168 503 Z M 198 503 L 196 505 L 199 505 L 198 503 Z M 166 505 Q 166 509 168 506 L 166 505 Z M 196 505 L 194 507 L 197 507 L 196 505 Z M 253 505 Q 252 509 257 507 Q 258 503 253 505 Z M 163 507 L 163 509 L 166 508 L 163 507 Z M 194 507 L 192 509 L 195 509 L 194 507 Z M 192 509 L 190 511 L 193 511 L 192 509 Z M 161 511 L 161 513 L 159 514 Q 161 517 163 513 Q 164 510 161 511 Z M 190 511 L 188 513 L 191 513 L 190 511 Z M 188 513 L 186 515 L 189 515 L 188 513 Z M 158 515 Q 158 519 160 516 L 158 515 Z M 186 515 L 183 519 L 185 519 Q 184 516 187 517 L 186 515 Z M 154 517 L 155 519 L 158 518 L 154 517 Z M 150 519 Q 149 522 153 521 Q 154 518 150 519 Z M 180 519 L 179 521 L 183 521 L 180 519 Z M 147 521 L 145 525 L 149 523 Q 150 520 147 521 Z M 178 521 L 175 525 L 177 525 Q 176 522 179 523 L 178 521 Z M 172 525 L 169 529 Q 172 530 171 527 L 175 527 L 172 525 Z M 143 527 Q 142 530 145 529 Q 146 526 143 527 Z M 141 531 Q 140 534 143 533 Q 144 530 141 531 Z M 167 531 Q 166 534 169 533 Q 170 530 167 531 Z M 166 535 L 164 537 L 167 537 Q 168 534 166 535 Z M 164 537 L 162 539 L 165 539 L 164 537 Z M 162 539 L 159 543 L 161 543 Q 160 540 163 541 L 162 539 Z M 156 543 Q 154 547 148 545 L 147 547 L 155 547 L 155 545 L 159 545 L 156 543 Z "/>
  <path fill="rgb(255,255,255)" stroke="rgb(255,255,255)" stroke-width="1" opacity="0.10196078431372549" d="M 613 143 L 616 143.5 L 613 145 L 613 143 Z "/>
  <path fill="rgb(255,255,255)" stroke="rgb(255,255,255)" stroke-width="1" opacity="0.10196078431372549" d="M 62.5 145 Q 66.3 144 65 147 L 62.5 145 Z "/>
  <path fill="rgb(255,255,255)" stroke="rgb(255,255,255)" stroke-width="1" opacity="0.10196078431372549" d="M 0 309 L 3 309.5 L 0 311 L 0 309 Z "/>
  <path fill="rgb(255,255,255)" stroke="rgb(255,255,255)" stroke-width="1" opacity="0.10196078431372549" d="M 677.5 315 Q 681.3 314 680 317 L 677.5 315 Z "/>
  <path fill="rgb(255,255,255)" stroke="rgb(255,255,255)" stroke-width="1" opacity="0.10196078431372549" d="M 678.5 361 Q 681.1 360.3 680 363 L 677 362.5 L 678.5 361 Z "/>
  <path fill="rgb(255,255,255)" stroke="rgb(255,255,255)" stroke-width="1" opacity="0.10196078431372549" d="M 0 367 L 3 368.5 L 0 369 L 0 367 Z "/>
  <path fill="rgb(255,255,255)" stroke="rgb(255,255,255)" stroke-width="1" opacity="0.10196078431372549" d="M 615 531 L 618 532.5 L 615 533 L 615 531 Z "/>
  <path fill="rgb(255,255,255)" stroke="rgb(255,255,255)" stroke-width="1" opacity="0.10196078431372549" d="M 67.5 537 Q 70.1 536.3 69 539 L 66 538.5 L 67.5 537 Z "/>
  <path fill="rgb(255,255,255)" stroke="rgb(255,255,255)" stroke-width="1" opacity="0.10196078431372549" d="M 609 539 L 612 540.5 L 609 541 L 609 539 Z "/>
  <path fill="rgb(255,255,255)" stroke="rgb(255,255,255)" stroke-width="1" opacity="0.10196078431372549" d="M 73.5 545 Q 76.1 544.3 75 547 L 72 546.5 L 73.5 545 Z "/>
  <path fill="rgb(255,255,255)" stroke="rgb(255,255,255)" stroke-width="1" opacity="0.10196078431372549" d="M 603 547 L 606 548.5 L 603 549 L 603 547 Z "/>
  <path fill="rgb(255,255,255)" stroke="rgb(255,255,255)" stroke-width="1" opacity="0.10196078431372549" d="M 79.5 553 Q 82.1 552.3 81 555 L 83 555 L 83 557 L 85 557 L 85 559 L 82 558.5 L 82.5 557 L 80 556.5 L 80.5 555 L 78 554.5 L 79.5 553 Z "/>
  <path fill="rgb(255,255,255)" stroke="rgb(255,255,255)" stroke-width="1" opacity="0.10196078431372549" d="M 597 555 L 600 556.5 L 597 557.5 L 597.5 559 L 595 559.5 L 595.5 561 L 593 561.5 L 593.5 563 L 591 563.5 L 591.5 565 Q 587.8 566 589 563 L 591 563 L 591 561 L 593 561 L 593 559 L 595 559 L 597 555 Z "/>
  <path fill="rgb(255,255,255)" stroke="rgb(255,255,255)" stroke-width="1" opacity="0.10196078431372549" d="M 89.5 565 Q 92.1 564.3 91 567 L 93 567 L 93 569 L 95 569 L 95 571 L 97 571 L 97 573 L 99 573 L 99 575 L 101 575 L 101 577 L 103 577 L 103 579 L 105 579 L 105 581 L 107 581 L 107 583 L 109 583 L 109 585 L 111 585 L 111 587 L 113 587 L 113 589 L 115.5 589 L 116.5 591 L 112 590.5 L 112.5 589 L 110 588.5 L 110.5 587 L 108 586.5 L 108.5 585 L 106 584.5 L 106.5 583 L 104 582.5 L 104.5 581 L 102 580.5 L 102.5 579 L 100 578.5 L 100.5 577 L 98 576.5 L 98.5 575 L 96 574.5 L 96.5 573 L 94 572.5 L 94.5 571 L 92 570.5 L 92.5 569 L 90 568.5 L 90.5 567 L 88 566.5 L 89.5 565 Z "/>
  <path fill="rgb(255,255,255)" stroke="rgb(255,255,255)" stroke-width="1" opacity="0.10196078431372549" d="M 583 571 L 586 572.5 L 583 573.5 L 583.5 575 L 581 575.5 L 581.5 577 L 579 577.5 L 579.5 579 L 577 579.5 L 577.5 581 L 575 581.5 L 575.5 583 L 573 583.5 L 573.5 585 L 571 585.5 L 571.5 587 L 567 586.5 L 571 585 L 571 583 L 573 583 L 573 581 L 575 581 L 575 579 L 577 579 L 577 577 L 579 577 L 579 575 L 581 575 L 583 571 Z "/>
  <path fill="rgb(255,255,255)" stroke="rgb(255,255,255)" stroke-width="1" opacity="0.10196078431372549" d="M 563 589 Q 566 588 565 591 L 563 591.5 L 563.5 593 L 561 593.5 L 561.5 595 L 559 595.5 L 559.5 597 L 557 597.5 L 557.5 599 L 553 598.5 L 557 597 L 557 595 L 559 595 L 559 593 L 561 593 L 563 589 Z "/>
  <path fill="rgb(255,255,255)" stroke="rgb(255,255,255)" stroke-width="1" opacity="0.10196078431372549" d="M 119 593 L 121 593 L 121 595 L 123 595 L 123 597 L 125 597 L 127 601 L 129.5 601 L 130.5 603 L 126 602.5 L 126.5 601 L 124 600.5 L 124.5 599 L 122 598.5 L 122.5 597 L 120 596.5 L 120.5 595 Q 117.9 595.7 119 593 Z "/>
  <path fill="rgb(255,255,255)" stroke="rgb(255,255,255)" stroke-width="1" opacity="0.10196078431372549" d="M 549 601 Q 552 600 551 603 L 549 603.5 L 549.5 605 L 547 605.5 L 547.5 607 L 543 606.5 L 547 605 L 549 601 Z "/>
  <path fill="rgb(255,255,255)" stroke="rgb(255,255,255)" stroke-width="1" opacity="0.10196078431372549" d="M 133 605 Q 136 604 135 607 L 137.5 607 L 138.5 609 L 134 608.5 L 134.5 607 Q 131.9 607.7 133 605 Z "/>
  <path fill="rgb(255,255,255)" stroke="rgb(255,255,255)" stroke-width="1" opacity="0.10196078431372549" d="M 539 609 Q 542 608 541 611 L 539 611.5 L 539.5 613 L 535 612.5 L 539 611 L 539 609 Z "/>
  <path fill="rgb(255,255,255)" stroke="rgb(255,255,255)" stroke-width="1" opacity="0.10196078431372549" d="M 141 611 Q 144 610 143 613 L 145.5 613 L 146.5 615 L 142 614.5 L 142.5 613 Q 139.9 613.7 141 611 Z "/>
  <path fill="rgb(255,255,255)" stroke="rgb(255,255,255)" stroke-width="1" opacity="0.10196078431372549" d="M 530.5 615 Q 534.3 614 533 617 L 529 616.5 L 530.5 615 Z "/>
  <path fill="rgb(255,255,255)" stroke="rgb(255,255,255)" stroke-width="1" opacity="0.10196078431372549" d="M 149 617 L 153 618.5 L 149 619 L 149 617 Z "/>
  <path fill="rgb(255,255,255)" stroke="rgb(255,255,255)" stroke-width="1" opacity="0.10196078431372549" d="M 524.5 619 Q 528.3 618 527 621 L 523 620.5 L 524.5 619 Z "/>
  <path fill="rgb(255,255,255)" stroke="rgb(255,255,255)" stroke-width="1" opacity="0.10196078431372549" d="M 155 621 L 159 622.5 L 155 623 L 155 621 Z "/>
  <path fill="rgb(255,255,255)" stroke="rgb(255,255,255)" stroke-width="1" opacity="0.10196078431372549" d="M 518.5 623 Q 522.3 622 521 625 L 517 624.5 L 518.5 623 Z "/>
  <path fill="rgb(255,255,255)" stroke="rgb(255,255,255)" stroke-width="1" opacity="0.10196078431372549" d="M 161 625 L 165 626.5 L 161 627 L 161 625 Z "/>
  <path fill="rgb(255,255,255)" stroke="rgb(255,255,255)" stroke-width="1" opacity="0.10196078431372549" d="M 512.5 627 Q 516.3 626 515 629 L 511 628.5 L 512.5 627 Z "/>
  <path fill="rgb(255,255,255)" stroke="rgb(255,255,255)" stroke-width="1" opacity="0.10196078431372549" d="M 171 631 L 175 632.5 L 171 633 L 171 631 Z "/>
  <path fill="rgb(255,255,255)" stroke="rgb(255,255,255)" stroke-width="1" opacity="0.10196078431372549" d="M 498.5 635 Q 502.3 634 501 637 L 497 636.5 L 498.5 635 Z "/>
  <path fill="rgb(255,255,255)" stroke="rgb(255,255,255)" stroke-width="1" opacity="0.10196078431372549" d="M 472.5 647 Q 476.3 646 475 649 L 471 648.5 L 472.5 647 Z "/>
  <path fill="rgb(255,255,255)" stroke="rgb(255,255,255)" stroke-width="1" opacity="0.10196078431372549" d="M 209 649 L 213 650.5 L 209 651 L 209 649 Z "/>
  <path fill="rgb(255,255,255)" stroke="rgb(255,255,255)" stroke-width="1" opacity="0.10196078431372549" d="M 219 653 L 223 654.5 L 219 655 L 219 653 Z "/>
  <path fill="rgb(255,255,255)" stroke="rgb(255,255,255)" stroke-width="1" opacity="0.10196078431372549" d="M 456.5 653 Q 462.4 651.3 461 655 L 455.5 655 Q 456.5 658 451.5 657 L 452.5 655 L 456.5 653 Z "/>
  <path fill="rgb(255,255,255)" stroke="rgb(255,255,255)" stroke-width="1" opacity="0.10196078431372549" d="M 229 657 L 233.5 657 L 235.5 659 L 239.5 659 L 247.5 663 L 253.5 663 Q 255 666.5 261.5 665 L 263.5 667 L 271.5 667 L 273.5 669 Q 281.5 667 283.5 671 L 295.5 671 L 297.5 673 L 315.5 673 L 317 674.5 L 297 675 L 296.5 673 L 283.5 673 L 282.5 671 L 273.5 671 L 272.5 669 L 263.5 669 L 263 667 L 255.5 667 L 254.5 665 L 247.5 665 L 247 663 L 241 663 L 241 661 L 235 661 L 235 659 L 229 659 L 229 657 Z "/>
  <path fill="rgb(255,255,255)" stroke="rgb(255,255,255)" stroke-width="1" opacity="0.10196078431372549" d="M 440.5 659 Q 446.4 657.3 445 661 L 439 661 L 438.5 663 L 431.5 663 L 431 665 L 425 665 L 424.5 667 L 415.5 667 Q 416.3 670.4 407.5 669 L 406.5 671 L 395.5 671 L 394.5 673 L 383.5 673 L 382.5 675 L 361.5 675 L 362.5 673 L 382.5 673 L 384.5 671 L 394.5 671 L 396.5 669 L 406.5 669 L 408.5 667 L 414.5 667 L 416.5 665 L 424.5 665 L 432.5 661 L 438.5 661 L 440.5 659 Z "/>
  <path fill="rgb(255,255,255)" stroke="rgb(255,255,255)" stroke-width="1" opacity="0.10196078431372549" d="M 319 677 Q 322.3 675.9 321 680 Q 317.7 681.1 319 677 Z "/>
  <path fill="rgb(255,255,255)" stroke="rgb(255,255,255)" stroke-width="1" opacity="0.10196078431372549" d="M 357 677 Q 360.3 675.9 359 680 Q 355.7 681.1 357 677 Z "/>
</svg>
