<?xml version='1.0' encoding='UTF-8'?>
<svg xmlns="http://www.w3.org/2000/svg" width="512" height="512" version="1.1" desc="Created with imagetracer.js version 1.2.6" shape-rendering="geometricPrecision" text-rendering="geometricPrecision" image-rendering="optimizeQuality" viewBox="0 0 680.0 680.0">
  <path fill="rgb(0,0,0)" stroke="rgb(0,0,0)" stroke-width="1" opacity="0" d="M 0 0 L 308.5 0 L 309 3 L 311 3 L 311.5 0 L 369 0 Q 367.7 4.1 371 3 L 371.5 0 L 680 0 L 680 318.5 L 677.5 319 L 678.5 321 L 680 321.5 L 680 359 L 677 360.5 L 680 361 L 680 680 L 363 680 Q 364.3 675.9 361 677 L 360.5 680 L 319 680 Q 320.3 675.9 317 677 L 316.5 680 L 0 680 L 0 371.5 L 2.5 371 L 1.5 369 L 0 368.5 L 0 309 L 3 307.5 L 0 307 L 0 0 Z M 291 5 L 291 7 L 306 7 L 307 6 L 291 5 Z M 374 5 L 375 7 L 389 7 L 389 5 L 374 5 Z M 279 7 L 279 9 L 290 9 L 291 8 L 279 7 Z M 390 7 L 391 9 L 401 9 L 401 7 L 390 7 Z M 269 9 L 269 11 L 278 11 L 279 10 L 269 9 Z M 402 9 L 403 11 L 411 11 L 411 9 L 402 9 Z M 259 11 L 259 13 L 268 13 L 269 12 L 259 11 Z M 412 11 L 413 13 L 419 13 L 419 11 L 412 11 Z M 251 13 L 251 15 L 258 15 L 259 14 L 251 13 Z M 420 13 L 421 15 L 427 15 L 427 13 L 420 13 Z M 245 15 L 245 17 Q 250 18 251 16 L 245 15 Z M 428 15 L 429 17 L 435 17 L 435 15 L 428 15 Z M 239 17 L 239 19 Q 244 20 245 18 L 239 17 Z M 436 17 Q 435 20 441 19 Q 442 15 436 17 Z M 442 19 Q 441 22 447 21 Q 448 17 442 19 Z M 227 21 L 227 23 L 231 22 L 227 21 Z M 448 21 Q 447 24 453 23 Q 454 19 448 21 Z M 221 23 L 221 25 Q 226 26 227 24 L 221 23 Z M 460 25 Q 459 28 463 27 Q 464 24 460 25 Z M 207 29 L 207 31 L 211 30 L 207 29 Z M 478 33 Q 477 36 481 35 Q 482 32 478 33 Z M 492 39 Q 491 42 495 41 Q 496 38 492 39 Z M 173 45 L 173 47 L 177 46 L 173 45 Z M 510 49 Q 509 52 513 51 Q 514 48 510 49 Z M 163 51 L 163 53 L 167 52 L 163 51 Z M 516 53 Q 515 56 519 55 Q 520 52 516 53 Z M 153 57 L 154 59 L 157 58 L 153 57 Z M 151 59 Q 150 62 153 61 Q 154 58 151 59 Z M 526 59 L 527 61 L 530 60 L 526 59 Z M 529 61 Q 528 64 531 63 Q 532 60 529 61 Z M 145 63 L 145 65 L 149 64 L 145 63 Z M 534 65 Q 533 68 537 67 Q 538 64 534 65 Z M 139 67 L 140 69 L 143 68 L 139 67 Z M 137 69 Q 136 72 139 71 Q 140 68 137 69 Z M 540 69 L 541 71 L 544 70 L 540 69 Z M 543 71 L 543 73 L 546 72 L 543 71 Z M 131 73 L 132 75 L 135 74 L 131 73 Z M 545 73 Q 544 76 547 75 Q 548 72 545 73 Z M 129 75 L 131 77 Q 132 74 129 75 Z M 127 77 Q 126 80 129 79 Q 130 76 127 77 Z M 550 77 L 551 79 L 554 78 L 550 77 Z M 553 79 L 553 81 L 556 80 L 553 79 Z M 121 81 L 122 83 L 125 82 L 121 81 Z M 555 81 L 555 83 L 558 82 L 555 81 Z M 119 83 L 121 85 Q 122 82 119 83 Z M 557 83 Q 556 86 559 85 Q 560 82 557 83 Z M 117 85 L 119 87 Q 120 84 117 85 Z M 115 87 L 117 89 Q 118 86 115 87 Z M 562 87 L 563 89 L 566 88 L 562 87 Z M 113 89 L 115 91 Q 116 88 113 89 Z M 565 89 L 565 91 L 568 90 L 565 89 Z M 111 91 L 113 93 Q 114 90 111 91 Z M 567 91 L 567 93 L 570 92 L 567 91 Z M 109 93 Q 108 96 111 95 Q 112 92 109 93 Z M 569 93 L 569 95 L 572 94 L 569 93 Z M 571 95 L 571 97 L 574 96 L 571 95 Z M 103 97 L 104 99 L 107 98 L 103 97 Z M 573 97 L 573 99 L 576 98 L 573 97 Z M 101 99 L 103 101 Q 104 98 101 99 Z M 575 99 L 575 101 L 578 100 L 575 99 Z M 577 101 L 577 103 L 580 102 L 577 101 Z M 579 103 L 579 105 L 582 104 L 579 103 Z M 581 105 L 581 107 L 584 106 L 581 105 Z M 95 107 L 97 109 Q 98 106 95 107 Z M 583 107 L 583 109 L 586 108 L 583 107 Z M 93 109 L 95 111 Q 96 108 93 109 Z M 585 109 L 585 111 L 588 110 L 585 109 Z M 91 111 L 93 113 Q 94 110 91 111 Z M 587 111 L 587 113 L 590 112 L 587 111 Z M 89 113 L 91 115 Q 92 112 89 113 Z M 589 113 L 589 115 L 592 114 L 589 113 Z M 87 115 L 89 117 Q 90 114 87 115 Z M 85 117 L 87 119 Q 88 116 85 117 Z M 83 119 L 85 121 Q 86 118 83 119 Z M 595 121 L 595 123 L 598 122 L 595 121 Z M 597 123 L 597 125 L 600 124 L 597 123 Z M 599 125 L 599 127 L 602 126 L 599 125 Z M 77 127 L 79 129 Q 80 126 77 127 Z M 75 129 L 77 131 Q 78 128 75 129 Z M 605 133 L 605 135 L 608 134 L 605 133 Z M 69 137 L 71 139 Q 72 136 69 137 Z M 611 141 L 611 143 L 614 142 L 611 141 Z M 63 145 L 65 147 Q 66 144 63 145 Z M 513 159 Q 512 163 517 161 Q 518 157 513 159 Z M 509 161 L 507 163 L 513 163 Q 514 159 509 161 Z M 503 163 L 501 165 L 507 165 Q 508 161 503 163 Z M 513 163 L 513 165 L 509 165 L 501 169 L 497 167 L 493 167 L 492 169 Q 498 167 497 171 L 493 171 L 485 175 L 481 173 L 477 173 L 476 175 Q 482 173 481 177 Q 476 176 475 179 L 471 177 L 467 177 L 466 179 Q 472 177 471 181 L 467 181 L 459 185 L 455 185 L 453 187 L 449 185 L 448 187 Q 450 186 449 189 L 445 187 L 443 193 L 447 191 L 447 193 L 343 297 Q 340 298 341 295 L 339 295 L 337 301 L 341 299 L 341 301 L 309 333 Q 306 334 307 331 L 305 331 L 303 337 L 307 335 L 307 337 L 275 369 Q 272 370 273 367 L 271 367 L 269 373 L 273 371 L 273 373 L 261 385 Q 258 386 259 383 L 257 383 L 255 387 Q 254 390 257 391 L 257 387 Q 261 386 259 391 Q 265 390 267 396 Q 268 398 266 397 L 265 401 L 268 400 L 267 403 L 269 403 Q 268 400 271 401 Q 272 398 268 399 L 269 397 Q 273 396 273 400 Q 274 402 271 401 L 273 405 L 275 405 L 275 407 L 277 407 Q 276 404 279 405 L 283 411 Q 280 412 281 409 Q 278 408 279 411 L 276 413 L 279 413 L 280 412 L 283 415 Q 282 412 285 413 L 289 419 L 287 419 Q 288 416 286 417 L 285 418 L 282 415 L 281 417 L 280 417 L 261 399 Q 260 396 263 397 L 264 393 Q 257 391 256 395 L 261 395 L 260 397 L 258 397 L 253 393 Q 252 390 255 391 L 254 389 L 250 391 L 245 385 L 247 385 Q 245 381 244 385 L 242 385 L 237 381 Q 236 378 239 379 L 238 377 L 234 379 L 229 373 L 231 373 Q 229 369 228 373 Q 224 374 225 371 L 221 371 L 221 373 L 213 381 Q 210 382 211 379 L 209 379 L 207 383 L 207 386 L 209 389 L 211 389 Q 210 386 213 387 L 237 412 L 237 413 L 233 411 L 235 417 L 239 415 Q 240 418 237 417 L 237 419 L 189 467 L 185 465 L 177 465 L 176 467 L 185 467 L 185 469 L 177 469 L 173 471 Q 171 467 169 471 L 171 471 L 169 475 Q 166 476 167 473 L 165 473 L 159 485 L 159 502 L 163 509 L 165 509 Q 164 506 167 507 L 171 513 L 169 514 Q 171 517 173 513 L 177 515 L 183 515 L 185 517 L 190 517 L 192 515 L 198 515 L 202 513 Q 203 517 205 514 L 203 513 L 208 507 Q 210 506 209 509 L 211 509 L 215 502 L 215 491 Q 212 490 213 493 Q 210 494 211 492 L 260 443 L 262 443 Q 263 446 265 444 L 267 445 L 268 443 L 265 441 L 265 443 L 263 443 L 264 441 Q 263 438 266 439 L 266 441 L 293 468 L 293 469 L 297 469 L 297 468 L 306 459 Q 308 458 307 461 L 309 461 L 311 458 L 311 453 L 309 449 L 307 449 Q 308 452 306 451 L 301 445 L 305 447 L 303 441 L 301 441 Q 302 444 300 443 L 295 437 L 299 439 L 297 433 L 295 433 Q 296 436 294 435 L 287 427 L 291 429 Q 292 426 289 425 L 291 425 Q 294 426 293 423 L 288 423 L 287 425 L 286 425 L 281 419 Q 284 418 283 421 L 286 420 L 287 421 L 293 421 L 300 413 L 304 415 L 305 413 Q 302 414 303 412 L 340 375 L 342 375 Q 343 379 345 376 L 343 375 L 343 374 L 398 319 L 402 321 L 403 319 Q 400 320 401 318 L 462 257 L 464 257 Q 465 261 467 258 L 465 257 L 465 256 L 492 229 Q 494 228 493 231 L 495 231 L 499 224 L 499 220 L 503 214 L 503 210 L 507 204 L 509 194 L 517 178 L 517 174 L 521 168 Q 522 164 520 163 L 519 168 L 517 167 Q 519 161 513 163 Z M 499 165 L 497 167 L 501 167 Q 502 164 499 165 Z M 487 169 L 485 171 L 491 171 Q 492 167 487 169 Z M 483 171 L 481 173 L 485 173 Q 486 170 483 171 Z M 473 175 L 471 177 L 475 177 Q 476 174 473 175 Z M 461 179 L 459 181 L 465 181 Q 466 177 461 179 Z M 455 181 L 453 183 L 459 183 Q 460 179 455 181 Z M 451 183 L 449 185 L 453 185 Q 454 182 451 183 Z M 441 193 L 441 195 L 444 195 L 441 193 Z M 439 195 L 439 197 L 442 197 L 439 195 Z M 437 197 L 437 199 L 440 199 L 437 197 Z M 435 199 L 435 201 L 438 201 L 435 199 Z M 433 201 L 433 203 L 436 203 L 433 201 Z M 431 203 L 431 205 L 434 205 L 431 203 Z M 429 205 L 429 207 L 432 207 L 429 205 Z M 427 207 L 427 209 L 430 209 L 427 207 Z M 425 209 L 425 211 L 428 211 L 425 209 Z M 423 211 L 423 213 L 426 213 L 423 211 Z M 421 213 L 421 215 L 424 215 L 421 213 Z M 419 215 L 419 217 L 422 217 L 419 215 Z M 417 217 L 417 219 L 420 219 L 417 217 Z M 415 219 L 415 221 L 418 221 L 415 219 Z M 413 221 L 413 223 L 416 223 L 413 221 Z M 411 223 L 411 225 L 414 225 L 411 223 Z M 409 225 L 409 227 L 412 227 L 409 225 Z M 407 227 L 407 229 L 410 229 L 407 227 Z M 405 229 L 405 231 L 408 231 L 405 229 Z M 403 231 L 403 233 L 406 233 L 403 231 Z M 491 231 L 493 233 Q 494 230 491 231 Z M 401 233 L 401 235 L 404 235 L 401 233 Z M 489 233 L 491 235 Q 492 232 489 233 Z M 399 235 L 399 237 L 402 237 L 399 235 Z M 487 235 L 489 237 Q 490 234 487 235 Z M 397 237 L 397 239 L 400 239 L 397 237 Z M 485 237 L 487 239 Q 488 236 485 237 Z M 395 239 L 395 241 L 398 241 L 395 239 Z M 483 239 L 485 241 Q 486 238 483 239 Z M 393 241 L 393 243 L 396 243 L 393 241 Z M 481 241 L 483 243 Q 484 240 481 241 Z M 391 243 L 391 245 L 394 245 L 391 243 Z M 479 243 L 481 245 Q 482 242 479 243 Z M 389 245 L 389 247 L 392 247 L 389 245 Z M 477 245 L 479 247 Q 480 244 477 245 Z M 387 247 L 387 249 L 390 249 L 387 247 Z M 475 247 L 477 249 Q 478 246 475 247 Z M 385 249 L 385 251 L 388 251 L 385 249 Z M 473 249 L 475 251 Q 476 248 473 249 Z M 383 251 L 383 253 L 386 253 L 383 251 Z M 471 251 L 473 253 Q 474 250 471 251 Z M 381 253 L 381 255 L 384 255 L 381 253 Z M 469 253 L 471 255 Q 472 252 469 253 Z M 379 255 L 379 257 L 382 257 L 379 255 Z M 467 255 Q 466 258 469 257 Q 470 254 467 255 Z M 377 257 L 377 259 L 380 259 L 377 257 Z M 375 259 L 375 261 L 378 261 L 375 259 Z M 461 259 L 462 261 L 465 260 L 461 259 Z M 373 261 L 373 263 L 376 263 L 373 261 Z M 459 261 L 461 263 Q 462 260 459 261 Z M 371 263 L 371 265 L 374 265 L 371 263 Z M 457 263 L 459 265 Q 460 262 457 263 Z M 369 265 L 369 267 L 372 267 L 369 265 Z M 455 265 L 457 267 Q 458 264 455 265 Z M 367 267 L 367 269 L 370 269 L 367 267 Z M 453 267 L 455 269 Q 456 266 453 267 Z M 365 269 L 365 271 L 368 271 L 365 269 Z M 451 269 L 453 271 Q 454 268 451 269 Z M 363 271 L 363 273 L 366 273 L 363 271 Z M 449 271 L 451 273 Q 452 270 449 271 Z M 361 273 L 361 275 L 364 275 L 361 273 Z M 447 273 L 449 275 Q 450 272 447 273 Z M 359 275 L 359 277 L 362 277 L 359 275 Z M 445 275 L 447 277 Q 448 274 445 275 Z M 357 277 L 357 279 L 360 279 L 357 277 Z M 443 277 L 445 279 Q 446 276 443 277 Z M 355 279 L 355 281 L 358 281 L 355 279 Z M 441 279 L 443 281 Q 444 278 441 279 Z M 353 281 L 353 283 L 356 283 L 353 281 Z M 439 281 L 441 283 Q 442 280 439 281 Z M 351 283 L 351 285 L 354 285 L 351 283 Z M 437 283 L 439 285 Q 440 282 437 283 Z M 349 285 L 349 287 L 352 287 L 349 285 Z M 435 285 L 437 287 Q 438 284 435 285 Z M 347 287 L 347 289 L 350 289 L 347 287 Z M 433 287 L 435 289 Q 436 286 433 287 Z M 345 289 L 345 291 L 348 291 L 345 289 Z M 431 289 L 433 291 Q 434 288 431 289 Z M 343 291 L 343 293 L 346 293 L 343 291 Z M 429 291 L 431 293 Q 432 290 429 291 Z M 341 293 L 341 295 L 344 295 L 341 293 Z M 427 293 L 429 295 Q 430 292 427 293 Z M 425 295 L 427 297 Q 428 294 425 295 Z M 423 297 L 425 299 Q 426 296 423 297 Z M 421 299 L 423 301 Q 424 298 421 299 Z M 335 301 L 335 303 L 338 303 L 335 301 Z M 419 301 L 421 303 Q 422 300 419 301 Z M 333 303 L 333 305 L 336 305 L 333 303 Z M 417 303 L 419 305 Q 420 302 417 303 Z M 331 305 L 331 307 L 334 307 L 331 305 Z M 415 305 L 417 307 Q 418 304 415 305 Z M 329 307 L 329 309 L 332 309 L 329 307 Z M 413 307 L 415 309 Q 416 306 413 307 Z M 327 309 L 327 311 L 330 311 L 327 309 Z M 411 309 L 413 311 Q 414 308 411 309 Z M 325 311 L 325 313 L 328 313 L 325 311 Z M 409 311 L 411 313 Q 412 310 409 311 Z M 323 313 L 323 315 L 326 315 L 323 313 Z M 407 313 L 409 315 Q 410 312 407 313 Z M 321 315 L 321 317 L 324 317 L 321 315 Z M 405 315 L 407 317 Q 408 314 405 315 Z M 319 317 L 319 319 L 322 319 L 319 317 Z M 403 317 Q 402 320 405 319 Q 406 316 403 317 Z M 317 319 L 317 321 L 320 321 L 317 319 Z M 315 321 L 315 323 L 318 323 L 315 321 Z M 397 321 L 398 323 L 401 322 L 397 321 Z M 313 323 L 313 325 L 316 325 L 313 323 Z M 395 323 L 397 325 Q 398 322 395 323 Z M 311 325 L 311 327 L 314 327 L 311 325 Z M 393 325 L 395 327 Q 396 324 393 325 Z M 309 327 L 309 329 L 312 329 L 309 327 Z M 391 327 L 393 329 Q 394 326 391 327 Z M 307 329 L 307 331 L 310 331 L 307 329 Z M 389 329 L 391 331 Q 392 328 389 329 Z M 387 331 L 389 333 Q 390 330 387 331 Z M 385 333 L 387 335 Q 388 332 385 333 Z M 383 335 L 385 337 Q 386 334 383 335 Z M 301 337 L 301 339 L 304 339 L 301 337 Z M 381 337 L 383 339 Q 384 336 381 337 Z M 299 339 L 299 341 L 302 341 L 299 339 Z M 379 339 L 381 341 Q 382 338 379 339 Z M 297 341 L 297 343 L 300 343 L 297 341 Z M 377 341 L 379 343 Q 380 340 377 341 Z M 295 343 L 295 345 L 298 345 L 295 343 Z M 375 343 L 377 345 Q 378 342 375 343 Z M 293 345 L 293 347 L 296 347 L 293 345 Z M 373 345 L 375 347 Q 376 344 373 345 Z M 291 347 L 291 349 L 294 349 L 291 347 Z M 371 347 L 373 349 Q 374 346 371 347 Z M 289 349 L 289 351 L 292 351 L 289 349 Z M 369 349 L 371 351 Q 372 348 369 349 Z M 287 351 L 287 353 L 290 353 L 287 351 Z M 367 351 L 369 353 Q 370 350 367 351 Z M 285 353 L 285 355 L 288 355 L 285 353 Z M 365 353 L 367 355 Q 368 352 365 353 Z M 283 355 L 283 357 L 286 357 L 283 355 Z M 363 355 L 365 357 Q 366 354 363 355 Z M 281 357 L 281 359 L 284 359 L 281 357 Z M 361 357 L 363 359 Q 364 356 361 357 Z M 279 359 L 279 361 L 282 361 L 279 359 Z M 359 359 L 361 361 Q 362 358 359 359 Z M 277 361 L 277 363 L 280 363 L 277 361 Z M 357 361 L 359 363 Q 360 360 357 361 Z M 275 363 L 275 365 L 278 365 L 275 363 Z M 355 363 L 357 365 Q 358 362 355 363 Z M 273 365 L 273 367 L 276 367 L 273 365 Z M 353 365 L 355 367 Q 356 364 353 365 Z M 221 367 Q 220 371 225 369 Q 226 365 221 367 Z M 351 367 L 353 369 Q 354 366 351 367 Z M 221 369 L 219 371 L 221 371 L 221 369 Z M 225 369 L 225 371 L 229 371 L 225 369 Z M 349 369 L 351 371 Q 352 368 349 369 Z M 217 371 Q 216 374 219 373 Q 220 370 217 371 Z M 347 371 L 349 373 Q 350 370 347 371 Z M 215 373 L 215 375 L 218 375 L 215 373 Z M 231 373 Q 230 376 233 375 Q 234 372 231 373 Z M 267 373 L 267 375 L 270 375 L 267 373 Z M 345 373 Q 344 376 347 375 Q 348 372 345 373 Z M 213 375 L 213 377 L 216 377 L 213 375 Z M 234 375 L 233 377 L 237 377 L 234 375 Z M 265 375 L 265 377 L 268 377 L 265 375 Z M 211 377 L 211 379 L 214 379 L 211 377 Z M 263 377 L 263 379 L 266 379 L 263 377 Z M 339 377 L 340 379 L 343 378 L 339 377 Z M 239 379 Q 238 382 241 381 Q 242 378 239 379 Z M 261 379 L 261 381 L 264 381 L 261 379 Z M 337 379 L 339 381 Q 340 378 337 379 Z M 242 381 L 241 383 L 245 383 L 242 381 Z M 259 381 L 259 383 L 262 383 L 259 381 Z M 335 381 L 337 383 Q 338 380 335 381 Z M 333 383 L 335 385 Q 336 382 333 383 Z M 247 385 Q 246 388 249 387 Q 250 384 247 385 Z M 331 385 L 333 387 Q 334 384 331 385 Z M 250 387 L 249 389 L 253 389 L 250 387 Z M 329 387 L 331 389 Q 332 386 329 387 Z M 211 389 L 211 391 L 214 390 L 211 389 Z M 327 389 L 329 391 Q 330 388 327 389 Z M 213 391 L 213 393 L 216 392 L 213 391 Z M 256 391 Q 254 394 257 393 L 256 391 Z M 325 391 L 327 393 Q 328 390 325 391 Z M 215 393 L 215 395 L 218 394 L 215 393 Z M 323 393 L 325 395 Q 326 392 323 393 Z M 217 395 L 217 397 L 220 396 L 217 395 Z M 264 395 Q 264 399 266 396 L 264 395 Z M 321 395 L 323 397 Q 324 394 321 395 Z M 219 397 L 219 399 L 222 398 L 219 397 Z M 264 397 L 262 399 L 265 399 L 264 397 Z M 319 397 L 321 399 Q 322 396 319 397 Z M 221 399 L 221 401 L 224 400 L 221 399 Z M 317 399 L 319 401 Q 320 398 317 399 Z M 223 401 L 223 403 L 226 402 L 223 401 Z M 315 401 L 317 403 Q 318 400 315 401 Z M 225 403 L 225 405 L 228 404 L 225 403 Z M 270 403 L 268 405 L 271 405 Q 272 402 270 403 Z M 313 403 L 315 405 Q 316 402 313 403 Z M 227 405 L 227 407 L 230 406 L 227 405 Z M 272 405 L 270 407 L 273 407 Q 274 404 272 405 Z M 311 405 L 313 407 Q 314 404 311 405 Z M 229 407 L 229 409 L 232 408 L 229 407 Z M 274 407 L 272 409 L 275 409 Q 276 406 274 407 Z M 277 407 L 277 409 L 280 408 L 277 407 Z M 309 407 L 311 409 Q 312 406 309 407 Z M 231 409 L 231 411 L 234 410 L 231 409 Z M 276 409 L 274 411 L 277 411 Q 278 408 276 409 Z M 307 409 L 309 411 Q 310 408 307 409 Z M 305 411 Q 304 414 307 413 Q 308 410 305 411 Z M 280 413 L 278 415 L 281 415 L 280 413 Z M 284 415 Q 284 419 286 416 L 284 415 Z M 299 415 L 300 417 L 303 416 L 299 415 Z M 233 417 L 233 419 L 236 419 L 233 417 Z M 297 417 L 299 419 Q 300 416 297 417 Z M 231 419 L 231 421 L 234 421 L 231 419 Z M 295 419 L 297 421 Q 298 418 295 419 Z M 229 421 L 229 423 L 232 423 L 229 421 Z M 286 421 L 284 423 L 287 423 L 286 421 Z M 293 421 L 293 423 L 295 422 L 293 421 Z M 227 423 L 227 425 L 230 425 L 227 423 Z M 225 425 L 225 427 L 228 427 L 225 425 Z M 223 427 L 223 429 L 226 429 L 223 427 Z M 221 429 L 221 431 L 224 431 L 221 429 Z M 292 429 L 290 431 L 293 431 Q 294 428 292 429 Z M 219 431 L 219 433 L 222 433 L 219 431 Z M 294 431 L 292 433 L 295 433 Q 296 430 294 431 Z M 217 433 L 217 435 L 220 435 L 217 433 Z M 215 435 L 215 437 L 218 437 L 215 435 Z M 213 437 L 213 439 L 216 439 L 213 437 Z M 211 439 L 211 441 L 214 441 L 211 439 Z M 300 439 L 298 441 L 301 441 Q 302 438 300 439 Z M 209 441 L 209 443 L 212 443 L 209 441 Z M 207 443 L 207 445 L 210 445 L 207 443 Z M 205 445 L 205 447 L 208 447 L 205 445 Z M 259 445 L 260 447 L 263 446 L 259 445 Z M 267 445 L 267 447 L 270 446 L 267 445 Z M 203 447 L 203 449 L 206 449 L 203 447 Z M 257 447 L 259 449 Q 260 446 257 447 Z M 269 447 L 269 449 L 272 448 L 269 447 Z M 306 447 L 304 449 L 307 449 Q 308 446 306 447 Z M 201 449 L 201 451 L 204 451 L 201 449 Z M 255 449 L 257 451 Q 258 448 255 449 Z M 271 449 L 271 451 L 274 450 L 271 449 Z M 199 451 L 199 453 L 202 453 L 199 451 Z M 253 451 L 255 453 Q 256 450 253 451 Z M 273 451 L 273 453 L 276 452 L 273 451 Z M 197 453 L 197 455 L 200 455 L 197 453 Z M 251 453 L 253 455 Q 254 452 251 453 Z M 275 453 L 275 455 L 278 454 L 275 453 Z M 195 455 L 195 457 L 198 457 L 195 455 Z M 249 455 L 251 457 Q 252 454 249 455 Z M 277 455 L 277 457 L 280 456 L 277 455 Z M 193 457 L 193 459 L 196 459 L 193 457 Z M 247 457 L 249 459 Q 250 456 247 457 Z M 279 457 L 279 459 L 282 458 L 279 457 Z M 191 459 L 191 461 L 194 461 L 191 459 Z M 245 459 L 247 461 Q 248 458 245 459 Z M 281 459 L 281 461 L 284 460 L 281 459 Z M 189 461 L 189 463 L 192 463 L 189 461 Z M 243 461 L 245 463 Q 246 460 243 461 Z M 283 461 L 283 463 L 286 462 L 283 461 Z M 305 461 L 307 463 Q 308 460 305 461 Z M 187 463 L 186 465 L 190 465 L 187 463 Z M 241 463 L 243 465 Q 244 462 241 463 Z M 285 463 L 285 465 L 288 464 L 285 463 Z M 303 463 L 305 465 Q 306 462 303 463 Z M 239 465 L 241 467 Q 242 464 239 465 Z M 287 465 L 287 467 L 290 466 L 287 465 Z M 301 465 L 303 467 Q 304 464 301 465 Z M 173 467 L 171 469 L 175 469 Q 176 466 173 467 Z M 237 467 L 239 469 Q 240 466 237 467 Z M 289 467 Q 288 470 291 469 Q 292 466 289 467 Z M 299 467 Q 298 470 301 469 Q 302 466 299 467 Z M 235 469 L 237 471 Q 238 468 235 469 Z M 292 469 L 293 471 Q 294 468 292 469 Z M 297 469 L 297 471 L 299 470 L 297 469 Z M 167 471 Q 166 474 169 473 Q 170 470 167 471 Z M 233 471 L 235 473 Q 236 470 233 471 Z M 293 471 Q 292 475 297 473 Q 298 469 293 471 Z M 231 473 L 233 475 Q 234 472 231 473 Z M 229 475 L 231 477 Q 232 474 229 475 Z M 227 477 L 229 479 Q 230 476 227 477 Z M 225 479 L 227 481 Q 228 478 225 479 Z M 223 481 L 225 483 Q 226 480 223 481 Z M 221 483 L 223 485 Q 224 482 221 483 Z M 219 485 L 221 487 Q 222 484 219 485 Z M 217 487 L 219 489 Q 220 486 217 487 Z M 215 489 L 217 491 Q 218 488 215 489 Z M 165 509 L 165 511 L 168 510 L 165 509 Z M 207 509 L 209 511 Q 210 508 207 509 Z M 167 511 Q 166 514 169 513 Q 170 510 167 511 Z M 205 511 Q 204 514 207 513 Q 208 510 205 511 Z M 172 515 Q 171 518 175 517 Q 176 514 172 515 Z M 199 515 L 199 517 L 203 516 L 199 515 Z M 176 517 L 177 519 L 183 519 L 183 517 L 176 517 Z M 191 517 L 191 519 L 198 519 L 199 518 L 191 517 Z M 184 519 L 185 521 Q 190 522 191 520 L 184 519 Z M 66 535 L 64 537 L 67 537 Q 68 534 66 535 Z M 609 539 L 609 541 L 612 541 L 609 539 Z M 72 543 L 70 545 L 73 545 Q 74 542 72 543 Z M 603 547 L 603 549 L 606 549 L 603 547 Z M 601 549 L 601 551 L 604 551 L 601 549 Z M 78 551 L 76 553 L 79 553 Q 80 550 78 551 Z M 80 553 L 78 555 L 81 555 Q 82 552 80 553 Z M 595 557 L 595 559 L 598 559 L 595 557 Z M 593 559 L 593 561 L 596 561 L 593 559 Z M 86 561 L 84 563 L 87 563 Q 88 560 86 561 Z M 591 561 L 591 563 L 594 563 L 591 561 Z M 88 563 L 86 565 L 89 565 Q 90 562 88 563 Z M 589 563 L 589 565 L 592 565 L 589 563 Z M 90 565 L 88 567 L 91 567 Q 92 564 90 565 Z M 92 567 L 90 569 L 93 569 Q 94 566 92 567 Z M 94 569 L 92 571 L 95 571 Q 96 568 94 569 Z M 96 571 L 94 573 L 97 573 Q 98 570 96 571 Z M 583 571 L 583 573 L 586 573 L 583 571 Z M 98 573 L 96 575 L 99 575 Q 100 572 98 573 Z M 581 573 L 581 575 L 584 575 L 581 573 Z M 100 575 L 98 577 L 101 577 Q 102 574 100 575 Z M 579 575 L 579 577 L 582 577 L 579 575 Z M 102 577 L 100 579 L 103 579 Q 104 576 102 577 Z M 577 577 L 577 579 L 580 579 L 577 577 Z M 104 579 L 102 581 L 105 581 Q 106 578 104 579 Z M 575 579 L 575 581 L 578 581 L 575 579 Z M 106 581 L 104 583 L 107 583 Q 108 580 106 581 Z M 573 581 L 573 583 L 576 583 L 573 581 Z M 108 583 L 106 585 L 109 585 Q 110 582 108 583 Z M 571 583 L 571 585 L 574 585 L 571 583 Z M 110 585 L 108 587 L 111 587 Q 112 584 110 585 Z M 569 585 L 568 587 L 572 587 L 569 585 Z M 112 587 L 110 589 L 113 589 Q 114 586 112 587 Z M 114 589 L 112 591 L 115 591 Q 116 588 114 589 Z M 563 589 Q 562 592 565 591 Q 566 588 563 589 Z M 116 591 L 114 593 L 117 593 Q 118 590 116 591 Z M 561 591 L 561 593 L 564 593 L 561 591 Z M 118 593 L 117 595 L 121 595 L 118 593 Z M 559 593 L 559 595 L 562 595 L 559 593 Z M 557 595 L 557 597 L 560 597 L 557 595 Z M 123 597 Q 122 600 125 599 Q 126 596 123 597 Z M 555 597 L 555 599 L 558 599 L 555 597 Z M 126 599 L 124 601 L 127 601 Q 128 598 126 599 Z M 553 599 L 552 601 L 556 601 L 553 599 Z M 128 601 L 126 603 L 129 603 Q 130 600 128 601 Z M 130 603 L 129 605 L 133 605 L 130 603 Z M 547 603 Q 546 606 549 605 Q 550 602 547 603 Z M 545 605 L 545 607 L 548 607 L 545 605 Z M 135 607 Q 134 610 137 609 Q 138 606 135 607 Z M 543 607 L 542 609 L 546 609 L 543 607 Z M 138 609 L 137 611 L 141 611 L 138 609 Z M 537 611 L 535 613 L 539 613 Q 540 610 537 611 Z M 143 613 Q 142 616 145 615 Q 146 612 143 613 Z M 146 615 L 145 617 L 149 617 L 146 615 Z M 531 615 Q 530 618 533 617 Q 534 614 531 615 Z M 529 617 L 528 619 L 532 619 L 529 617 Z M 155 621 L 155 623 L 159 623 L 155 621 Z M 523 621 L 521 623 L 525 623 Q 526 620 523 621 Z M 161 625 L 161 627 L 165 627 L 161 625 Z M 513 627 L 511 629 L 515 629 Q 516 626 513 627 Z M 167 629 L 167 631 L 171 631 L 167 629 Z M 503 633 L 501 635 L 505 635 Q 506 632 503 633 Z M 185 639 L 185 641 L 189 641 L 185 639 Z M 195 643 L 195 645 L 199 645 L 195 643 Z M 469 649 L 467 651 L 471 651 Q 472 648 469 649 Z M 213 651 L 213 653 L 217 653 L 213 651 Z M 459 653 L 457 655 L 461 655 Q 462 652 459 653 Z M 223 655 L 223 657 L 229 657 Q 228 654 223 655 Z M 229 657 L 229 659 L 235 659 Q 234 656 229 657 Z M 447 657 L 445 659 L 451 659 Q 452 655 447 657 Z M 235 659 L 235 661 L 241 661 Q 240 658 235 659 Z M 441 659 L 439 661 L 445 661 Q 446 657 441 659 Z M 241 661 L 241 663 L 247 663 Q 246 660 241 661 Z M 435 661 L 433 663 L 439 663 Q 440 659 435 661 Z M 247 663 L 247 665 L 255 665 L 254 663 L 247 663 Z M 427 663 L 425 665 L 433 665 Q 434 662 427 663 Z M 255 665 L 255 667 L 263 667 Q 261 663 255 665 Z M 419 665 L 417 667 L 425 667 Q 426 664 419 665 Z M 263 667 L 263 669 L 271 669 L 270 667 L 263 667 Z M 409 667 L 407 669 L 417 669 L 417 667 L 409 667 Z M 271 669 L 271 671 L 281 671 L 280 669 L 271 669 Z M 399 669 L 397 671 L 407 671 L 407 669 L 399 669 Z M 281 671 L 281 673 L 295 673 L 294 671 L 281 671 Z M 387 671 L 385 673 L 397 673 L 397 671 L 387 671 Z M 295 673 L 295 675 L 315 675 L 314 673 L 295 673 Z M 367 673 L 365 675 L 385 675 L 385 673 L 367 673 Z "/>
  <path fill="rgb(0,0,0)" stroke="rgb(0,0,0)" stroke-width="1" opacity="0" d="M 515 169 Q 518 168 517 171 Q 514 172 515 169 Z "/>
  <path fill="rgb(0,0,0)" stroke="rgb(0,0,0)" stroke-width="1" opacity="0" d="M 513 173 Q 516 172 515 175 Q 512 176 513 173 Z "/>
  <path fill="rgb(0,0,0)" stroke="rgb(0,0,0)" stroke-width="1" opacity="0" d="M 511 179 Q 514 178 513 181 Q 510 182 511 179 Z "/>
  <path fill="rgb(0,0,0)" stroke="rgb(0,0,0)" stroke-width="1" opacity="0" d="M 509 183 Q 512 182 511 185 Q 508 186 509 183 Z "/>
  <path fill="rgb(0,0,0)" stroke="rgb(0,0,0)" stroke-width="1" opacity="0" d="M 507 189 Q 510 188 509 191 Q 506 192 507 189 Z "/>
  <path fill="rgb(0,0,0)" stroke="rgb(0,0,0)" stroke-width="1" opacity="0" d="M 505 193 Q 508 192 507 195 Q 504 196 505 193 Z "/>
  <path fill="rgb(0,0,0)" stroke="rgb(0,0,0)" stroke-width="1" opacity="0" d="M 503 199 Q 506 198 505 201 Q 502 202 503 199 Z "/>
  <path fill="rgb(0,0,0)" stroke="rgb(0,0,0)" stroke-width="1" opacity="0" d="M 501 205 Q 504 204 503 207 Q 500 208 501 205 Z "/>
  <path fill="rgb(0,0,0)" stroke="rgb(0,0,0)" stroke-width="1" opacity="0" d="M 499 209 Q 502 208 501 211 Q 498 212 499 209 Z "/>
  <path fill="rgb(0,0,0)" stroke="rgb(0,0,0)" stroke-width="1" opacity="0" d="M 497 215 Q 500 214 499 217 Q 496 218 497 215 Z "/>
  <path fill="rgb(0,0,0)" stroke="rgb(0,0,0)" stroke-width="1" opacity="0" d="M 495 219 Q 498 218 497 221 Q 494 222 495 219 Z "/>
  <path fill="rgb(0,0,0)" stroke="rgb(0,0,0)" stroke-width="1" opacity="0" d="M 493 225 Q 496 224 495 227 Q 492 228 493 225 Z "/>
  <path fill="rgb(0,0,0)" stroke="rgb(0,0,0)" stroke-width="1" opacity="0" d="M 209 383 Q 212 382 211 385 Q 208 386 209 383 Z "/>
  <path fill="rgb(0,0,0)" stroke="rgb(0,0,0)" stroke-width="1" opacity="0" d="M 274 401 Q 278.1 399.7 277 403 Q 272.9 404.3 274 401 Z "/>
  <path fill="rgb(0,0,0)" stroke="rgb(0,0,0)" stroke-width="1" opacity="0" d="M 307 453 Q 310.7 451.8 309 457 Q 305.3 458.2 307 453 Z "/>
  <path fill="rgb(0,0,0)" stroke="rgb(0,0,0)" stroke-width="1" opacity="0" d="M 165 477 Q 168 476 167 479 Q 164 480 165 477 Z "/>
  <path fill="rgb(0,0,0)" stroke="rgb(0,0,0)" stroke-width="1" opacity="0" d="M 163 481 Q 166 480 165 483 Q 162 484 163 481 Z "/>
  <path fill="rgb(0,0,0)" stroke="rgb(0,0,0)" stroke-width="1" opacity="0" d="M 161.5 484 L 163 485.5 L 163 500.5 L 161 501.5 L 161.5 484 Z "/>
  <path fill="rgb(0,0,0)" stroke="rgb(0,0,0)" stroke-width="1" opacity="0" d="M 212.5 494 L 213 501.5 L 211 500.5 Q 209.8 495.3 212.5 494 Z "/>
  <path fill="rgb(0,0,0)" stroke="rgb(0,0,0)" stroke-width="1" opacity="0" d="M 163 503 Q 166 502 165 505 Q 162 506 163 503 Z "/>
  <path fill="rgb(0,0,0)" stroke="rgb(0,0,0)" stroke-width="1" opacity="0" d="M 209 503 Q 212 502 211 505 Q 208 506 209 503 Z "/>
  <path fill="rgb(255,255,255)" stroke="rgb(255,255,255)" stroke-width="1" opacity="0.984313725490196" d="M 514 164 Q 517.7 162.8 516 168 L 514 168 Q 515.7 173.2 512 172 L 512 178 L 510 178 Q 511.7 183.2 508 182 L 508 188 L 506 188 Q 507.7 193.2 504 192 L 504 197.5 L 502 198 L 502 204 L 500 204 Q 501.7 209.2 498 208 L 498 214 L 496 214 Q 497.7 219.2 494 218 L 494 223.5 Q 490.8 222.7 492 228 L 490 228 L 490 230 L 488 230 L 488 232 L 486 232 L 486 234 L 484 234 L 484 236 L 482 236 L 482 238 L 480 238 L 480 240 L 478 240 L 478 242 L 476 242 L 476 244 L 474 244 L 474 246 L 472 246 L 472 248 L 470 248 L 470 250 L 468 250 L 468 252 L 466 252 L 464 256 L 460 256 L 460 258 L 458 258 L 458 260 L 456 260 L 456 262 L 454 262 L 454 264 L 452 264 L 452 266 L 450 266 L 450 268 L 448 268 L 448 270 L 446 270 L 446 272 L 444 272 L 444 274 L 442 274 L 442 276 L 440 276 L 440 278 L 438 278 L 438 280 L 436 280 L 436 282 L 434 282 L 434 284 L 432 284 L 432 286 L 430 286 L 430 288 L 428 288 L 428 290 L 426 290 L 426 292 L 424 292 L 424 294 L 422 294 L 422 296 L 420 296 L 420 298 L 418 298 L 418 300 L 416 300 L 416 302 L 414 302 L 414 304 L 412 304 L 412 306 L 410 306 L 410 308 L 408 308 L 408 310 L 406 310 L 406 312 L 402 314 L 402 316 L 400 316 L 400 318 L 396 318 L 396 320 L 394 320 L 394 322 L 392 322 L 392 324 L 390 324 L 390 326 L 388 326 L 388 328 L 386 328 L 386 330 L 384 330 L 384 332 L 382 332 L 382 334 L 380 334 L 380 336 L 378 336 L 378 338 L 376 338 L 376 340 L 374 340 L 374 342 L 372 342 L 372 344 L 370 344 L 370 346 L 368 346 L 368 348 L 366 348 L 366 350 L 364 350 L 364 352 L 362 352 L 362 354 L 360 354 L 360 356 L 358 356 L 358 358 L 356 358 L 356 360 L 354 360 L 354 362 L 352 362 L 352 364 L 350 364 L 350 366 L 348 366 L 348 368 L 346 368 L 344 372 L 342 372 L 342 374 L 338 374 L 338 376 L 336 376 L 336 378 L 334 378 L 334 380 L 332 380 L 332 382 L 330 382 L 330 384 L 328 384 L 328 386 L 326 386 L 326 388 L 324 388 L 324 390 L 322 390 L 322 392 L 320 392 L 320 394 L 318 394 L 318 396 L 316 396 L 316 398 L 314 398 L 314 400 L 312 400 L 312 402 L 310 402 L 310 404 L 308 404 L 308 406 L 306 406 L 306 408 L 302 410 L 302 412 L 298 412 L 298 414 L 296 414 L 296 416 L 294 416 L 294 418 L 290 420 L 290 416 L 288 416 L 288 414 L 284 412 L 284 408 L 282 408 L 282 406 L 278 404 L 278 400 L 274 400 L 272 396 L 268 396 L 268 394 L 266 394 L 264 390 L 260 390 L 260 386 L 262 386 L 262 384 L 264 384 L 264 382 L 266 382 L 266 380 L 268 380 L 268 378 L 270 378 L 270 376 L 274 374 L 274 370 L 276 370 L 276 368 L 278 368 L 278 366 L 280 366 L 280 364 L 282 364 L 282 362 L 284 362 L 284 360 L 286 360 L 286 358 L 288 358 L 288 356 L 290 356 L 290 354 L 292 354 L 292 352 L 294 352 L 294 350 L 296 350 L 296 348 L 298 348 L 298 346 L 300 346 L 300 344 L 302 344 L 302 342 L 304 342 L 306 338 L 308 338 L 308 334 L 310 334 L 310 332 L 312 332 L 312 330 L 314 330 L 314 328 L 316 328 L 316 326 L 318 326 L 318 324 L 320 324 L 320 322 L 322 322 L 322 320 L 324 320 L 324 318 L 326 318 L 326 316 L 328 316 L 328 314 L 330 314 L 330 312 L 332 312 L 332 310 L 334 310 L 334 308 L 336 308 L 336 306 L 338 306 L 340 302 L 342 302 L 342 298 L 344 298 L 344 296 L 346 296 L 346 294 L 348 294 L 348 292 L 350 292 L 350 290 L 352 290 L 352 288 L 354 288 L 354 286 L 356 286 L 356 284 L 358 284 L 358 282 L 360 282 L 360 280 L 362 280 L 362 278 L 364 278 L 364 276 L 366 276 L 366 274 L 368 274 L 368 272 L 370 272 L 370 270 L 372 270 L 372 268 L 374 268 L 374 266 L 376 266 L 376 264 L 378 264 L 378 262 L 380 262 L 380 260 L 382 260 L 382 258 L 384 258 L 384 256 L 386 256 L 386 254 L 388 254 L 388 252 L 390 252 L 390 250 L 392 250 L 392 248 L 394 248 L 394 246 L 396 246 L 396 244 L 398 244 L 398 242 L 400 242 L 400 240 L 402 240 L 402 238 L 404 238 L 404 236 L 406 236 L 406 234 L 408 234 L 408 232 L 410 232 L 410 230 L 412 230 L 412 228 L 414 228 L 414 226 L 416 226 L 416 224 L 418 224 L 418 222 L 420 222 L 420 220 L 422 220 L 422 218 L 424 218 L 424 216 L 426 216 L 426 214 L 428 214 L 428 212 L 430 212 L 430 210 L 432 210 L 432 208 L 434 208 L 434 206 L 436 206 L 436 204 L 438 204 L 440 200 L 442 200 L 442 198 L 444 198 L 444 196 L 446 196 L 446 194 L 448 194 L 448 190 Q 451 191 450 188 Q 455.3 189.3 454.5 186 L 460 186 L 460.5 184 L 466 184 L 466.5 182 L 472 182 L 472 180 Q 477.2 181.7 476 178 L 482 178 L 482 176 Q 487.2 177.7 486 174 L 491.5 174 L 492 172 L 498 172 L 498 170 Q 503.2 171.7 502 168 L 508 168 L 508 166 L 514 166 L 514 164 Z "/>
  <path fill="rgb(255,255,255)" stroke="rgb(255,255,255)" stroke-width="1" opacity="0.984313725490196" d="M 222 372 Q 225 371 224 374 L 228 374 L 228 376 L 230 376 L 232 380 L 236 380 L 236 382 L 238 382 L 240 386 L 244 386 L 244 388 L 246 388 L 248 392 L 252 392 L 252 394 L 254 394 L 256 398 L 260 398 L 260 400 L 262 400 L 262 402 L 264 402 L 264 404 L 266 404 L 266 406 L 268 406 L 268 408 L 270 408 L 270 410 L 272 410 L 272 412 L 274 412 L 274 414 L 276 414 L 276 416 L 280 418 L 280 422 L 282 422 L 282 424 L 286 426 L 286 430 L 288 430 L 288 432 L 290 432 L 290 434 L 294 436 L 294 440 L 296 440 L 296 442 L 300 444 L 300 448 L 302 448 L 302 450 L 306 452 L 306 458 L 304 458 L 304 460 L 302 460 L 302 462 L 300 462 L 300 464 L 298 464 L 298 466 L 294 468 L 294 466 L 292 466 L 292 464 L 290 464 L 290 462 L 288 462 L 288 460 L 286 460 L 286 458 L 284 458 L 284 456 L 282 456 L 282 454 L 280 454 L 280 452 L 278 452 L 278 450 L 276 450 L 276 448 L 274 448 L 274 446 L 272 446 L 272 444 L 270 444 L 270 442 L 268 442 L 268 440 L 264 438 L 262 442 L 258 442 L 258 444 L 256 444 L 256 446 L 254 446 L 254 448 L 252 448 L 252 450 L 250 450 L 250 452 L 248 452 L 248 454 L 246 454 L 246 456 L 244 456 L 244 458 L 242 458 L 242 460 L 240 460 L 240 462 L 238 462 L 238 464 L 236 464 L 236 466 L 234 466 L 234 468 L 232 468 L 232 470 L 230 470 L 230 472 L 228 472 L 228 474 L 226 474 L 226 476 L 224 476 L 224 478 L 222 478 L 222 480 L 220 480 L 220 482 L 218 482 L 218 484 L 216 484 L 216 486 L 212 488 L 212 490 L 210 490 L 210 502 L 208 502 L 208 506 L 206 506 L 206 508 L 204 508 L 202 512 Q 196.7 510.7 197.5 514 L 190 514 L 189.5 516 L 184 516 L 184 514 L 176.5 514 Q 177.3 510.7 172 512 L 172 510 L 170 510 L 170 508 L 166 506 Q 167.3 500.7 164 501.5 L 164 484 L 166 484 L 166 480.5 Q 169.3 481.3 168 476 L 170 476 L 172 472 Q 177.3 473.3 176.5 470 L 185.5 470 Q 184.7 466.8 190 468 L 190 466 L 192 466 L 192 464 L 194 464 L 194 462 L 196 462 L 196 460 L 198 460 L 198 458 L 200 458 L 200 456 L 202 456 L 202 454 L 204 454 L 204 452 L 206 452 L 206 450 L 208 450 L 208 448 L 210 448 L 210 446 L 212 446 L 212 444 L 214 444 L 214 442 L 216 442 L 216 440 L 218 440 L 218 438 L 220 438 L 220 436 L 222 436 L 222 434 L 224 434 L 224 432 L 226 432 L 226 430 L 228 430 L 228 428 L 230 428 L 230 426 L 232 426 L 232 424 L 236 422 L 236 420 L 238 420 L 238 418 L 240 418 L 240 414 Q 236.3 415.2 238 410 L 236 410 L 236 408 L 234 408 L 234 406 L 232 406 L 232 404 L 230 404 L 230 402 L 228 402 L 228 400 L 226 400 L 226 398 L 224 398 L 224 396 L 222 396 L 222 394 L 220 394 L 220 392 L 218 392 L 218 390 L 216 390 L 216 388 L 212 386 L 212 382 L 214 382 L 214 380 L 216 380 L 216 378 L 218 378 L 218 376 L 220 376 L 222 372 Z "/>
  <path fill="rgb(255,255,255)" stroke="rgb(255,255,255)" stroke-width="1" opacity="0.06666666666666667" d="M 309 0 Q 312.3 -1.1 311 3 Q 307.7 4.1 309 0 Z "/>
  <path fill="rgb(255,255,255)" stroke="rgb(255,255,255)" stroke-width="1" opacity="0.06666666666666667" d="M 369 0 Q 372.3 -1.1 371 3 Q 367.7 4.1 369 0 Z "/>
  <path fill="rgb(255,255,255)" stroke="rgb(255,255,255)" stroke-width="1" opacity="0.06666666666666667" d="M 291 5 L 307 5.5 L 305.5 7 L 291.5 7 L 289.5 9 L 279.5 9 L 277.5 11 Q 269.5 9 267.5 13 L 259.5 13 L 257.5 15 L 251.5 15 L 243.5 19 L 239 19 L 239 17 L 245 17 L 245 15 L 251 15 L 251.5 13 Q 260.3 14.4 259.5 11 L 268.5 11 L 269.5 9 L 278.5 9 L 279.5 7 L 290.5 7 L 291 5 Z "/>
  <path fill="rgb(255,255,255)" stroke="rgb(255,255,255)" stroke-width="1" opacity="0.06666666666666667" d="M 373.5 5 L 388.5 5 L 389.5 7 L 400.5 7 L 401.5 9 L 410.5 9 L 411.5 11 L 418.5 11 L 419.5 13 L 426.5 13 L 427.5 15 L 435 15 L 435 17 L 441 17 L 441 19 L 447 19 L 447 21 L 453 21 L 453 23 L 448.5 23 L 446.5 21 L 442.5 21 L 434.5 17 L 428.5 17 L 426.5 15 L 420.5 15 Q 419 11.5 412.5 13 L 410.5 11 Q 402.5 13 400.5 9 L 390.5 9 L 388.5 7 L 374.5 7 L 373.5 5 Z "/>
  <path fill="rgb(255,255,255)" stroke="rgb(255,255,255)" stroke-width="1" opacity="0.06666666666666667" d="M 227 21 L 231 21.5 L 225.5 25 L 221 25 L 221 23 L 227 23 L 227 21 Z "/>
  <path fill="rgb(255,255,255)" stroke="rgb(255,255,255)" stroke-width="1" opacity="0.06666666666666667" d="M 459.5 25 Q 464.3 23.7 463 27 Q 459.2 27.8 459.5 25 Z "/>
  <path fill="rgb(255,255,255)" stroke="rgb(255,255,255)" stroke-width="1" opacity="0.06666666666666667" d="M 207 29 L 211 29.5 L 207 31 L 207 29 Z "/>
  <path fill="rgb(255,255,255)" stroke="rgb(255,255,255)" stroke-width="1" opacity="0.06666666666666667" d="M 477.5 33 Q 482.3 31.7 481 35 Q 477.2 35.8 477.5 33 Z "/>
  <path fill="rgb(255,255,255)" stroke="rgb(255,255,255)" stroke-width="1" opacity="0.06666666666666667" d="M 491.5 39 Q 496.3 37.7 495 41 Q 491.2 41.8 491.5 39 Z "/>
  <path fill="rgb(255,255,255)" stroke="rgb(255,255,255)" stroke-width="1" opacity="0.06666666666666667" d="M 173 45 L 177 45.5 L 173 47 L 173 45 Z "/>
  <path fill="rgb(255,255,255)" stroke="rgb(255,255,255)" stroke-width="1" opacity="0.06666666666666667" d="M 509.5 49 Q 514.3 47.7 513 51 Q 509.2 51.8 509.5 49 Z "/>
  <path fill="rgb(255,255,255)" stroke="rgb(255,255,255)" stroke-width="1" opacity="0.06666666666666667" d="M 163 51 L 167 51.5 L 163 53 L 163 51 Z "/>
  <path fill="rgb(255,255,255)" stroke="rgb(255,255,255)" stroke-width="1" opacity="0.06666666666666667" d="M 515.5 53 Q 520.3 51.7 519 55 Q 515.2 55.8 515.5 53 Z "/>
  <path fill="rgb(255,255,255)" stroke="rgb(255,255,255)" stroke-width="1" opacity="0.06666666666666667" d="M 152.5 57 L 157 57.5 L 153 59 Q 154 62 151 61 Q 149.9 58.3 152.5 59 L 152.5 57 Z "/>
  <path fill="rgb(255,255,255)" stroke="rgb(255,255,255)" stroke-width="1" opacity="0.06666666666666667" d="M 525.5 59 L 530 59.5 L 529.5 61 Q 532.1 60.3 531 63 Q 528 64 529 61 L 526.5 61 L 525.5 59 Z "/>
  <path fill="rgb(255,255,255)" stroke="rgb(255,255,255)" stroke-width="1" opacity="0.06666666666666667" d="M 145 63 L 149 63.5 L 145 65 L 145 63 Z "/>
  <path fill="rgb(255,255,255)" stroke="rgb(255,255,255)" stroke-width="1" opacity="0.06666666666666667" d="M 533.5 65 Q 538.3 63.7 537 67 Q 533.2 67.8 533.5 65 Z "/>
  <path fill="rgb(255,255,255)" stroke="rgb(255,255,255)" stroke-width="1" opacity="0.06666666666666667" d="M 138.5 67 L 143 67.5 L 139 69 Q 140 72 137 71 Q 135.9 68.3 138.5 69 L 138.5 67 Z "/>
  <path fill="rgb(255,255,255)" stroke="rgb(255,255,255)" stroke-width="1" opacity="0.06666666666666667" d="M 539.5 69 L 544 69.5 L 543.5 71 L 546 71.5 L 545.5 73 Q 548.1 72.3 547 75 L 545 75 L 543 71 L 540.5 71 L 539.5 69 Z "/>
  <path fill="rgb(255,255,255)" stroke="rgb(255,255,255)" stroke-width="1" opacity="0.06666666666666667" d="M 130.5 73 L 135 73.5 L 131 75 L 131 77 L 127 79 Q 125.9 76.3 128.5 77 L 128.5 75 L 131 74.5 L 130.5 73 Z "/>
  <path fill="rgb(255,255,255)" stroke="rgb(255,255,255)" stroke-width="1" opacity="0.06666666666666667" d="M 549.5 77 L 554 77.5 L 553.5 79 L 556 79.5 L 555.5 81 L 558 81.5 L 557.5 83 Q 560.1 82.3 559 85 L 557 85 L 557 83 L 555 83 L 553 79 L 550.5 79 L 549.5 77 Z "/>
  <path fill="rgb(255,255,255)" stroke="rgb(255,255,255)" stroke-width="1" opacity="0.06666666666666667" d="M 120.5 81 L 125 81.5 L 121 83 L 121 85 L 119 85 L 119 87 L 117 87 L 117 89 L 115 89 L 115 91 L 113 91 L 113 93 L 109 95 Q 107.9 92.3 110.5 93 L 110.5 91 L 113 90.5 L 112.5 89 L 115 88.5 L 114.5 87 L 117 86.5 L 116.5 85 L 119 84.5 L 118.5 83 L 121 82.5 L 120.5 81 Z "/>
  <path fill="rgb(255,255,255)" stroke="rgb(255,255,255)" stroke-width="1" opacity="0.06666666666666667" d="M 561.5 87 L 566 87.5 L 565.5 89 L 568 89.5 L 567.5 91 L 570 91.5 L 569.5 93 L 572 93.5 L 571.5 95 L 574 95.5 L 573.5 97 L 576 97.5 L 575.5 99 L 578 99.5 L 577.5 101 L 580 101.5 L 579.5 103 L 582 103.5 L 581.5 105 L 584 105.5 L 583.5 107 L 586 107.5 L 585.5 109 L 588 109.5 L 587.5 111 L 590 111.5 L 589.5 113 L 592 113.5 L 589 115 L 589 113 L 587 113 L 587 111 L 585 111 L 585 109 L 583 109 L 583 107 L 581 107 L 581 105 L 579 105 L 579 103 L 577 103 L 577 101 L 575 101 L 575 99 L 573 99 L 573 97 L 571 97 L 571 95 L 569 95 L 569 93 L 565 91 L 565 89 L 562.5 89 L 561.5 87 Z "/>
  <path fill="rgb(255,255,255)" stroke="rgb(255,255,255)" stroke-width="1" opacity="0.06666666666666667" d="M 102.5 97 L 107 97.5 L 103 99 Q 104.1 101.7 101.5 101 L 100.5 99 L 103 98.5 L 102.5 97 Z "/>
  <path fill="rgb(255,255,255)" stroke="rgb(255,255,255)" stroke-width="1" opacity="0.06666666666666667" d="M 94.5 107 Q 98.3 106 97 109 L 95 109 L 95 111 L 93 111 L 93 113 L 91 113 L 91 115 L 89 115 L 89 117 L 87 117 L 87 119 L 85 119 Q 86.1 121.7 83.5 121 L 82.5 119 L 85 118.5 L 84.5 117 L 87 116.5 L 86.5 115 L 89 114.5 L 88.5 113 L 91 112.5 L 90.5 111 L 93 110.5 L 92.5 109 L 95 108.5 L 94.5 107 Z "/>
  <path fill="rgb(255,255,255)" stroke="rgb(255,255,255)" stroke-width="1" opacity="0.06666666666666667" d="M 595 121 L 598 121.5 L 597.5 123 L 600 123.5 L 599.5 125 L 602 125.5 L 599 127 L 599 125 L 597 125 L 595 121 Z "/>
  <path fill="rgb(255,255,255)" stroke="rgb(255,255,255)" stroke-width="1" opacity="0.06666666666666667" d="M 76.5 127 Q 80.3 126 79 129 L 77 129 Q 78.1 131.7 75.5 131 L 74.5 129 L 77 128.5 L 76.5 127 Z "/>
  <path fill="rgb(255,255,255)" stroke="rgb(255,255,255)" stroke-width="1" opacity="0.06666666666666667" d="M 605 133 L 608 133.5 L 605 135 L 605 133 Z "/>
  <path fill="rgb(255,255,255)" stroke="rgb(255,255,255)" stroke-width="1" opacity="0.06666666666666667" d="M 68.5 137 Q 72.3 136 71 139 L 68.5 137 Z "/>
  <path fill="rgb(255,255,255)" stroke="rgb(255,255,255)" stroke-width="1" opacity="0.06666666666666667" d="M 611 141 L 614 141.5 L 611 143 L 611 141 Z "/>
  <path fill="rgb(255,255,255)" stroke="rgb(255,255,255)" stroke-width="1" opacity="0.06666666666666667" d="M 62.5 145 Q 66.3 144 65 147 L 62.5 145 Z "/>
  <path fill="rgb(255,255,255)" stroke="rgb(255,255,255)" stroke-width="1" opacity="0.06666666666666667" d="M 513 159 Q 518.2 157.3 517 161 Q 511.8 159.3 513 163 Q 518.6 160.8 517 166.5 L 519 167.5 L 519.5 163 Q 521.8 163.8 521 167.5 L 517 173.5 L 517 177.5 L 509 193.5 L 507 203.5 L 503 209.5 L 503 213.5 L 499 219.5 L 499 223.5 L 495 231 L 493 231 L 493 233 L 491 233 L 491 235 L 489 235 L 489 237 L 487 237 L 487 239 L 485 239 L 485 241 L 483 241 L 483 243 L 481 243 L 481 245 L 479 245 L 479 247 L 477 247 L 477 249 L 475 249 L 475 251 L 473 251 L 473 253 L 471 253 L 471 255 L 469 255 Q 470.1 257.7 467.5 257 Q 466.1 261.8 461 261 L 461 263 L 459 263 L 459 265 L 457 265 L 457 267 L 455 267 L 455 269 L 453 269 L 453 271 L 451 271 L 451 273 L 449 273 L 449 275 L 447 275 L 447 277 L 445 277 L 445 279 L 443 279 L 443 281 L 441 281 L 441 283 L 439 283 L 439 285 L 437 285 L 437 287 L 435 287 L 435 289 L 433 289 L 433 291 L 431 291 L 431 293 L 429 293 L 429 295 L 427 295 L 427 297 L 425 297 L 425 299 L 423 299 L 423 301 L 421 301 L 421 303 L 419 303 L 419 305 L 417 305 L 417 307 L 415 307 L 415 309 L 413 309 L 413 311 L 411 311 L 411 313 L 409 313 L 409 315 L 407 315 L 407 317 L 405 317 Q 406.1 319.7 403.5 319 Q 402.1 323.8 397 323 L 397 325 L 395 325 L 395 327 L 393 327 L 393 329 L 391 329 L 391 331 L 389 331 L 389 333 L 387 333 L 387 335 L 385 335 L 385 337 L 383 337 L 383 339 L 381 339 L 381 341 L 379 341 L 379 343 L 377 343 L 377 345 L 375 345 L 375 347 L 373 347 L 373 349 L 371 349 L 371 351 L 369 351 L 369 353 L 367 353 L 367 355 L 365 355 L 365 357 L 363 357 L 363 359 L 361 359 L 361 361 L 359 361 L 359 363 L 357 363 L 357 365 L 355 365 L 355 367 L 353 367 L 353 369 L 351 369 L 351 371 L 349 371 L 349 373 L 347 373 Q 348.1 375.7 345.5 375 Q 344.1 379.8 339 379 L 339 381 L 337 381 L 337 383 L 335 383 L 335 385 L 333 385 L 333 387 L 331 387 L 331 389 L 329 389 L 329 391 L 327 391 L 327 393 L 325 393 L 325 395 L 323 395 L 323 397 L 321 397 L 321 399 L 319 399 L 319 401 L 317 401 L 317 403 L 315 403 L 315 405 L 313 405 L 313 407 L 311 407 L 311 409 L 309 409 L 309 411 L 307 411 Q 308.1 413.7 305.5 413 Q 304.1 417.8 299 417 L 299 419 L 297 419 Q 298.1 421.7 295.5 421 L 293 425 L 290 425.5 L 291 429 L 293 429 L 293 431 L 295 431 L 295 433 Q 297.7 431.9 297 434.5 Q 299.8 435.6 299 439 L 301 439 L 301 441 Q 303.7 439.9 303 442.5 Q 305.8 443.6 305 447 L 307 447 L 307 449 Q 309.7 447.9 309 450.5 Q 312.3 451.8 311 457.5 L 309 461 L 307 461 L 307 463 L 305 463 L 305 465 L 303 465 L 303 467 L 301 467 Q 302.1 469.7 299.5 469 L 297 473 L 293 473 L 293 471.5 L 289 469 L 289 467 L 287 467 L 287 465 L 285 465 L 285 463 L 283 463 L 283 461 L 281 461 L 281 459 L 279 459 L 279 457 L 277 457 L 277 455 L 275 455 L 275 453 L 273 453 L 273 451 L 271 451 L 271 449 L 269 449 L 269 447 L 267 447 Q 268.1 444.3 265.5 445 L 264.5 444 L 261.5 447 L 259 447 L 259 449 L 257 449 L 257 451 L 255 451 L 255 453 L 253 453 L 253 455 L 251 455 L 251 457 L 249 457 L 249 459 L 247 459 L 247 461 L 245 461 L 245 463 L 243 463 L 243 465 L 241 465 L 241 467 L 239 467 L 239 469 L 237 469 L 237 471 L 235 471 L 235 473 L 233 473 L 233 475 L 231 475 L 231 477 L 229 477 L 229 479 L 227 479 L 227 481 L 225 481 L 225 483 L 223 483 L 223 485 L 221 485 L 221 487 L 217 489 L 217 491 L 215 491 L 215 501.5 L 211 509 L 209 509 L 209 511 L 207 511 Q 208.1 513.7 205.5 513 L 197.5 519 L 191.5 519 Q 190.3 522.3 184.5 521 Q 183 517.5 176.5 519 L 167 513 L 167 511 L 165 511 L 165 509 Q 162.3 510.1 163 507.5 L 159 501.5 L 159 484.5 L 165 473 L 167 473 Q 165.9 470.3 168.5 471 L 176.5 465 L 184.5 465 Q 185.6 462.3 189 463 L 189 461 L 191 461 L 191 459 L 193 459 L 193 457 L 195 457 L 195 455 L 197 455 L 197 453 L 199 453 L 199 451 L 201 451 L 201 449 L 203 449 L 203 447 L 205 447 L 205 445 L 207 445 L 207 443 L 209 443 L 209 441 L 211 441 L 211 439 L 213 439 L 213 437 L 215 437 L 215 435 L 217 435 L 217 433 L 219 433 L 219 431 L 221 431 L 221 429 L 223 429 L 223 427 L 225 427 L 225 425 L 227 425 L 227 423 L 229 423 L 229 421 L 231 421 L 231 419 L 233 419 L 233 417 Q 235.7 418.1 235 415.5 Q 232.3 414.4 233 411 L 231 411 L 231 409 L 229 409 L 229 407 L 227 407 L 227 405 L 225 405 L 225 403 L 223 403 L 223 401 L 221 401 L 221 399 L 219 399 L 219 397 L 217 397 L 217 395 L 215 395 L 215 393 L 213 393 L 213 391 L 211 391 L 211 389 Q 208.3 390.1 209 387.5 Q 206.3 386.8 207 382.5 L 209 379 L 211 379 L 211 377 L 213 377 L 213 375 L 215 375 L 215 373 L 217 373 Q 215.9 370.3 218.5 371 L 221 367 L 225 367 Q 223.8 370 227.5 369 L 233 373 Q 231.8 376 235.5 375 L 241 379 Q 239.8 382 243.5 381 L 249 385 Q 247.8 388 251.5 387 L 255 389.5 L 255 386.5 L 257 383 L 259 383 L 259 381 L 261 381 L 261 379 L 263 379 L 263 377 L 265 377 L 265 375 L 269 373 L 269 370.5 L 271 367 L 273 367 L 273 365 L 275 365 L 275 363 L 277 363 L 277 361 L 279 361 L 279 359 L 281 359 L 281 357 L 283 357 L 283 355 L 285 355 L 285 353 L 287 353 L 287 351 L 289 351 L 289 349 L 291 349 L 291 347 L 293 347 L 293 345 L 295 345 L 295 343 L 297 343 L 297 341 L 299 341 L 301 337 L 303 337 L 303 334.5 L 305 331 L 307 331 L 307 329 L 309 329 L 309 327 L 311 327 L 311 325 L 313 325 L 313 323 L 315 323 L 315 321 L 317 321 L 317 319 L 319 319 L 319 317 L 321 317 L 321 315 L 323 315 L 323 313 L 325 313 L 325 311 L 327 311 L 327 309 L 329 309 L 329 307 L 331 307 L 331 305 L 333 305 L 335 301 L 337 301 L 337 298.5 L 339 295 L 341 295 L 341 293 L 343 293 L 343 291 L 345 291 L 345 289 L 347 289 L 347 287 L 349 287 L 349 285 L 351 285 L 351 283 L 353 283 L 353 281 L 355 281 L 355 279 L 357 279 L 357 277 L 359 277 L 359 275 L 361 275 L 361 273 L 363 273 L 363 271 L 365 271 L 365 269 L 367 269 L 367 267 L 369 267 L 369 265 L 371 265 L 371 263 L 373 263 L 373 261 L 375 261 L 375 259 L 377 259 L 377 257 L 379 257 L 379 255 L 381 255 L 381 253 L 383 253 L 383 251 L 385 251 L 385 249 L 387 249 L 387 247 L 389 247 L 389 245 L 391 245 L 391 243 L 393 243 L 393 241 L 395 241 L 395 239 L 397 239 L 397 237 L 399 237 L 399 235 L 401 235 L 401 233 L 403 233 L 403 231 L 405 231 L 405 229 L 407 229 L 407 227 L 409 227 L 409 225 L 411 225 L 411 223 L 413 223 L 413 221 L 415 221 L 415 219 L 417 219 L 417 217 L 419 217 L 419 215 L 421 215 L 421 213 L 423 213 L 423 211 L 425 211 L 425 209 L 427 209 L 427 207 L 429 207 L 429 205 L 431 205 L 431 203 L 433 203 L 435 199 L 437 199 L 437 197 L 439 197 L 439 195 L 441 195 L 441 193 L 443 193 L 443 190.5 L 445 187 L 454.5 181 L 458.5 181 L 460.5 179 L 470.5 177 L 486.5 169 L 496.5 167 L 508.5 161 L 513 161 L 513 159 Z M 507 163 L 507 165 L 502 165 Q 503 168 498 167 L 499 169 L 503 167 L 507 167 L 509 165 L 513 165 L 513 163 L 507 163 Z M 514 164 L 514 166 L 508 166 L 508 168 L 502 168 Q 503 172 498 170 L 498 172 L 492 172 L 492 174 L 486 174 Q 487 178 482 176 L 482 178 L 476 178 Q 477 182 472 180 L 472 182 L 467 182 L 466 184 L 461 184 L 460 186 L 455 186 Q 455 189 450 188 Q 451 191 448 190 L 448 194 L 446 194 L 446 196 L 444 196 L 444 198 L 442 198 L 442 200 L 440 200 L 438 204 L 436 204 L 436 206 L 434 206 L 434 208 L 432 208 L 432 210 L 430 210 L 430 212 L 428 212 L 428 214 L 426 214 L 426 216 L 424 216 L 424 218 L 422 218 L 422 220 L 420 220 L 420 222 L 418 222 L 418 224 L 416 224 L 416 226 L 414 226 L 414 228 L 412 228 L 412 230 L 410 230 L 410 232 L 408 232 L 408 234 L 406 234 L 406 236 L 404 236 L 404 238 L 402 238 L 402 240 L 400 240 L 400 242 L 398 242 L 398 244 L 396 244 L 396 246 L 394 246 L 394 248 L 392 248 L 392 250 L 390 250 L 390 252 L 388 252 L 388 254 L 386 254 L 386 256 L 384 256 L 384 258 L 382 258 L 382 260 L 380 260 L 380 262 L 378 262 L 378 264 L 376 264 L 376 266 L 374 266 L 374 268 L 372 268 L 372 270 L 370 270 L 370 272 L 368 272 L 368 274 L 366 274 L 366 276 L 364 276 L 364 278 L 362 278 L 362 280 L 360 280 L 360 282 L 358 282 L 358 284 L 356 284 L 356 286 L 354 286 L 354 288 L 352 288 L 352 290 L 350 290 L 350 292 L 348 292 L 348 294 L 346 294 L 346 296 L 344 296 L 344 298 L 342 298 L 342 302 L 340 302 L 338 306 L 336 306 L 336 308 L 334 308 L 334 310 L 332 310 L 332 312 L 330 312 L 330 314 L 328 314 L 328 316 L 326 316 L 326 318 L 324 318 L 324 320 L 322 320 L 322 322 L 320 322 L 320 324 L 318 324 L 318 326 L 316 326 L 316 328 L 314 328 L 314 330 L 312 330 L 312 332 L 310 332 L 310 334 L 308 334 L 308 338 L 306 338 L 304 342 L 302 342 L 302 344 L 300 344 L 300 346 L 298 346 L 298 348 L 296 348 L 296 350 L 294 350 L 294 352 L 292 352 L 292 354 L 290 354 L 290 356 L 288 356 L 288 358 L 286 358 L 286 360 L 284 360 L 284 362 L 282 362 L 282 364 L 280 364 L 280 366 L 278 366 L 278 368 L 276 368 L 276 370 L 274 370 L 274 374 L 270 376 L 270 378 L 268 378 L 268 380 L 266 380 L 266 382 L 264 382 L 264 384 L 262 384 L 262 386 L 260 386 L 260 390 L 264 390 L 266 394 L 268 394 L 268 396 L 272 396 L 274 400 L 278 400 L 278 404 L 282 406 L 282 408 L 284 408 L 284 412 L 288 414 L 288 416 L 290 416 L 290 420 L 294 418 L 294 416 L 296 416 L 296 414 L 298 414 L 298 412 L 302 412 L 302 410 L 306 408 L 306 406 L 308 406 L 308 404 L 310 404 L 310 402 L 312 402 L 312 400 L 314 400 L 314 398 L 316 398 L 316 396 L 318 396 L 318 394 L 320 394 L 320 392 L 322 392 L 322 390 L 324 390 L 324 388 L 326 388 L 326 386 L 328 386 L 328 384 L 330 384 L 330 382 L 332 382 L 332 380 L 334 380 L 334 378 L 336 378 L 336 376 L 338 376 L 338 374 L 342 374 L 342 372 L 344 372 L 346 368 L 348 368 L 348 366 L 350 366 L 350 364 L 352 364 L 352 362 L 354 362 L 354 360 L 356 360 L 356 358 L 358 358 L 358 356 L 360 356 L 360 354 L 362 354 L 362 352 L 364 352 L 364 350 L 366 350 L 366 348 L 368 348 L 368 346 L 370 346 L 370 344 L 372 344 L 372 342 L 374 342 L 374 340 L 376 340 L 376 338 L 378 338 L 378 336 L 380 336 L 380 334 L 382 334 L 382 332 L 384 332 L 384 330 L 386 330 L 386 328 L 388 328 L 388 326 L 390 326 L 390 324 L 392 324 L 392 322 L 394 322 L 394 320 L 396 320 L 396 318 L 400 318 L 400 316 L 402 316 L 402 314 L 406 312 L 406 310 L 408 310 L 408 308 L 410 308 L 410 306 L 412 306 L 412 304 L 414 304 L 414 302 L 416 302 L 416 300 L 418 300 L 418 298 L 420 298 L 420 296 L 422 296 L 422 294 L 424 294 L 424 292 L 426 292 L 426 290 L 428 290 L 428 288 L 430 288 L 430 286 L 432 286 L 432 284 L 434 284 L 434 282 L 436 282 L 436 280 L 438 280 L 438 278 L 440 278 L 440 276 L 442 276 L 442 274 L 444 274 L 444 272 L 446 272 L 446 270 L 448 270 L 448 268 L 450 268 L 450 266 L 452 266 L 452 264 L 454 264 L 454 262 L 456 262 L 456 260 L 458 260 L 458 258 L 460 258 L 460 256 L 464 256 L 466 252 L 468 252 L 468 250 L 470 250 L 470 248 L 472 248 L 472 246 L 474 246 L 474 244 L 476 244 L 476 242 L 478 242 L 478 240 L 480 240 L 480 238 L 482 238 L 482 236 L 484 236 L 484 234 L 486 234 L 486 232 L 488 232 L 488 230 L 490 230 L 490 228 L 492 228 Q 491 223 494 224 L 494 218 Q 498 219 496 214 L 498 214 L 498 208 Q 502 209 500 204 L 502 204 L 502 198 L 504 198 L 504 192 Q 508 193 506 188 L 508 188 L 508 182 Q 512 183 510 178 L 512 178 L 512 172 Q 516 173 514 168 L 516 168 Q 518 163 514 164 Z M 491 169 L 491 171 L 486 171 Q 487 174 482 173 L 483 175 L 487 173 L 491 173 L 493 171 L 497 171 L 497 169 L 491 169 Z M 515 169 Q 514 172 517 171 Q 518 168 515 169 Z M 513 173 Q 512 176 515 175 Q 516 172 513 173 Z M 475 175 Q 476 178 472 177 L 473 179 L 477 177 L 481 177 L 481 175 L 475 175 Z M 465 179 L 465 181 L 460 181 L 459 183 L 454 183 Q 455 186 450 185 L 451 187 L 455 185 L 459 185 L 461 183 L 465 183 L 467 181 L 471 181 L 471 179 L 465 179 Z M 511 179 Q 510 182 513 181 Q 514 178 511 179 Z M 509 183 Q 508 186 511 185 Q 512 182 509 183 Z M 447 187 Q 446 190 449 189 Q 450 186 447 187 Z M 507 189 Q 506 192 509 191 Q 510 188 507 189 Z M 445 191 L 445 193 L 443 194 Q 445 197 447 193 Q 448 190 445 191 Z M 505 193 Q 504 196 507 195 Q 508 192 505 193 Z M 442 195 Q 442 199 444 196 L 442 195 Z M 440 197 Q 440 201 442 198 L 440 197 Z M 438 199 Q 438 203 440 200 L 438 199 Z M 503 199 Q 502 202 505 201 Q 506 198 503 199 Z M 436 201 Q 436 205 438 202 L 436 201 Z M 434 203 Q 434 207 436 204 L 434 203 Z M 432 205 Q 432 209 434 206 L 432 205 Z M 501 205 Q 500 208 503 207 Q 504 204 501 205 Z M 430 207 Q 430 211 432 208 L 430 207 Z M 428 209 Q 428 213 430 210 L 428 209 Z M 499 209 Q 498 212 501 211 Q 502 208 499 209 Z M 426 211 Q 426 215 428 212 L 426 211 Z M 424 213 Q 424 217 426 214 L 424 213 Z M 422 215 Q 422 219 424 216 L 422 215 Z M 497 215 Q 496 218 499 217 Q 500 214 497 215 Z M 420 217 Q 420 221 422 218 L 420 217 Z M 418 219 Q 418 223 420 220 L 418 219 Z M 495 219 Q 494 222 497 221 Q 498 218 495 219 Z M 416 221 Q 416 225 418 222 L 416 221 Z M 414 223 Q 414 227 416 224 L 414 223 Z M 412 225 Q 412 229 414 226 L 412 225 Z M 493 225 Q 492 228 495 227 Q 496 224 493 225 Z M 410 227 Q 410 231 412 228 L 410 227 Z M 408 229 Q 408 233 410 230 L 408 229 Z M 492 229 L 490 231 L 493 231 Q 494 228 492 229 Z M 406 231 Q 406 235 408 232 L 406 231 Z M 490 231 L 488 233 L 491 233 L 490 231 Z M 404 233 Q 404 237 406 234 L 404 233 Z M 488 233 L 486 235 L 489 235 L 488 233 Z M 402 235 Q 402 239 404 236 L 402 235 Z M 486 235 L 484 237 L 487 237 L 486 235 Z M 400 237 Q 400 241 402 238 L 400 237 Z M 484 237 L 482 239 L 485 239 L 484 237 Z M 398 239 Q 398 243 400 240 L 398 239 Z M 482 239 L 480 241 L 483 241 L 482 239 Z M 396 241 Q 396 245 398 242 L 396 241 Z M 480 241 L 478 243 L 481 243 L 480 241 Z M 394 243 Q 394 247 396 244 L 394 243 Z M 478 243 L 476 245 L 479 245 L 478 243 Z M 392 245 Q 392 249 394 246 L 392 245 Z M 476 245 L 474 247 L 477 247 L 476 245 Z M 390 247 Q 390 251 392 248 L 390 247 Z M 474 247 L 472 249 L 475 249 L 474 247 Z M 388 249 Q 388 253 390 250 L 388 249 Z M 472 249 L 470 251 L 473 251 L 472 249 Z M 386 251 Q 386 255 388 252 L 386 251 Z M 470 251 L 468 253 L 471 253 L 470 251 Z M 384 253 Q 384 257 386 254 L 384 253 Z M 468 253 L 465 257 L 467 257 Q 466 254 469 255 L 468 253 Z M 382 255 Q 382 259 384 256 L 382 255 Z M 380 257 Q 380 261 382 258 L 380 257 Z M 462 257 L 461 259 L 465 259 L 462 257 Z M 378 259 Q 378 263 380 260 L 378 259 Z M 460 259 L 458 261 L 461 261 L 460 259 Z M 376 261 Q 376 265 378 262 L 376 261 Z M 458 261 L 456 263 L 459 263 L 458 261 Z M 374 263 Q 374 267 376 264 L 374 263 Z M 456 263 L 454 265 L 457 265 L 456 263 Z M 372 265 Q 372 269 374 266 L 372 265 Z M 454 265 L 452 267 L 455 267 L 454 265 Z M 370 267 Q 370 271 372 268 L 370 267 Z M 452 267 L 450 269 L 453 269 L 452 267 Z M 368 269 Q 368 273 370 270 L 368 269 Z M 450 269 L 448 271 L 451 271 L 450 269 Z M 366 271 Q 366 275 368 272 L 366 271 Z M 448 271 L 446 273 L 449 273 L 448 271 Z M 364 273 Q 364 277 366 274 L 364 273 Z M 446 273 L 444 275 L 447 275 L 446 273 Z M 362 275 Q 362 279 364 276 L 362 275 Z M 444 275 L 442 277 L 445 277 L 444 275 Z M 360 277 Q 360 281 362 278 L 360 277 Z M 442 277 L 440 279 L 443 279 L 442 277 Z M 358 279 Q 358 283 360 280 L 358 279 Z M 440 279 L 438 281 L 441 281 L 440 279 Z M 356 281 Q 356 285 358 282 L 356 281 Z M 438 281 L 436 283 L 439 283 L 438 281 Z M 354 283 Q 354 287 356 284 L 354 283 Z M 436 283 L 434 285 L 437 285 L 436 283 Z M 352 285 Q 352 289 354 286 L 352 285 Z M 434 285 L 432 287 L 435 287 L 434 285 Z M 350 287 Q 350 291 352 288 L 350 287 Z M 432 287 L 430 289 L 433 289 L 432 287 Z M 348 289 Q 348 293 350 290 L 348 289 Z M 430 289 L 428 291 L 431 291 L 430 289 Z M 346 291 Q 346 295 348 292 L 346 291 Z M 428 291 L 426 293 L 429 293 L 428 291 Z M 344 293 Q 344 297 346 294 L 344 293 Z M 426 293 L 424 295 L 427 295 L 426 293 Z M 341 295 L 341 297 L 344 296 L 341 295 Z M 424 295 L 422 297 L 425 297 L 424 295 Z M 422 297 L 420 299 L 423 299 L 422 297 Z M 339 299 L 339 301 L 337 302 Q 339 305 341 301 Q 342 298 339 299 Z M 420 299 L 418 301 L 421 301 L 420 299 Z M 418 301 L 416 303 L 419 303 L 418 301 Z M 336 303 Q 336 307 338 304 L 336 303 Z M 416 303 L 414 305 L 417 305 L 416 303 Z M 334 305 Q 334 309 336 306 L 334 305 Z M 414 305 L 412 307 L 415 307 L 414 305 Z M 332 307 Q 332 311 334 308 L 332 307 Z M 412 307 L 410 309 L 413 309 L 412 307 Z M 330 309 Q 330 313 332 310 L 330 309 Z M 410 309 L 408 311 L 411 311 L 410 309 Z M 328 311 Q 328 315 330 312 L 328 311 Z M 408 311 L 406 313 L 409 313 L 408 311 Z M 326 313 Q 326 317 328 314 L 326 313 Z M 406 313 L 404 315 L 407 315 L 406 313 Z M 324 315 Q 324 319 326 316 L 324 315 Z M 404 315 L 401 319 L 403 319 Q 402 316 405 317 L 404 315 Z M 322 317 Q 322 321 324 318 L 322 317 Z M 320 319 Q 320 323 322 320 L 320 319 Z M 398 319 L 397 321 L 401 321 L 398 319 Z M 318 321 Q 318 325 320 322 L 318 321 Z M 396 321 L 394 323 L 397 323 L 396 321 Z M 316 323 Q 316 327 318 324 L 316 323 Z M 394 323 L 392 325 L 395 325 L 394 323 Z M 314 325 Q 314 329 316 326 L 314 325 Z M 392 325 L 390 327 L 393 327 L 392 325 Z M 312 327 Q 312 331 314 328 L 312 327 Z M 390 327 L 388 329 L 391 329 L 390 327 Z M 310 329 Q 310 333 312 330 L 310 329 Z M 388 329 L 386 331 L 389 331 L 388 329 Z M 307 331 L 307 333 L 310 332 L 307 331 Z M 386 331 L 384 333 L 387 333 L 386 331 Z M 384 333 L 382 335 L 385 335 L 384 333 Z M 305 335 L 305 337 L 303 338 Q 305 341 307 337 Q 308 334 305 335 Z M 382 335 L 380 337 L 383 337 L 382 335 Z M 380 337 L 378 339 L 381 339 L 380 337 Z M 302 339 Q 302 343 304 340 L 302 339 Z M 378 339 L 376 341 L 379 341 L 378 339 Z M 300 341 Q 300 345 302 342 L 300 341 Z M 376 341 L 374 343 L 377 343 L 376 341 Z M 298 343 Q 298 347 300 344 L 298 343 Z M 374 343 L 372 345 L 375 345 L 374 343 Z M 296 345 Q 296 349 298 346 L 296 345 Z M 372 345 L 370 347 L 373 347 L 372 345 Z M 294 347 Q 294 351 296 348 L 294 347 Z M 370 347 L 368 349 L 371 349 L 370 347 Z M 292 349 Q 292 353 294 350 L 292 349 Z M 368 349 L 366 351 L 369 351 L 368 349 Z M 290 351 Q 290 355 292 352 L 290 351 Z M 366 351 L 364 353 L 367 353 L 366 351 Z M 288 353 Q 288 357 290 354 L 288 353 Z M 364 353 L 362 355 L 365 355 L 364 353 Z M 286 355 Q 286 359 288 356 L 286 355 Z M 362 355 L 360 357 L 363 357 L 362 355 Z M 284 357 Q 284 361 286 358 L 284 357 Z M 360 357 L 358 359 L 361 359 L 360 357 Z M 282 359 Q 282 363 284 360 L 282 359 Z M 358 359 L 356 361 L 359 361 L 358 359 Z M 280 361 Q 280 365 282 362 L 280 361 Z M 356 361 L 354 363 L 357 363 L 356 361 Z M 278 363 Q 278 367 280 364 L 278 363 Z M 354 363 L 352 365 L 355 365 L 354 363 Z M 276 365 Q 276 369 278 366 L 276 365 Z M 352 365 L 350 367 L 353 367 L 352 365 Z M 273 367 L 273 369 L 276 368 L 273 367 Z M 350 367 L 348 369 L 351 369 L 350 367 Z M 221 369 Q 220 373 225 371 Q 226 367 221 369 Z M 348 369 L 346 371 L 349 371 L 348 369 Z M 219 371 L 219 373 L 217 374 Q 219 377 221 373 Q 222 370 219 371 Z M 225 371 L 225 373 L 229 372 L 225 371 Z M 271 371 L 271 373 L 269 374 Q 271 377 273 373 Q 274 370 271 371 Z M 346 371 L 343 375 L 345 375 Q 344 372 347 373 L 346 371 Z M 222 372 L 220 376 L 218 376 L 218 378 L 216 378 L 216 380 L 214 380 L 214 382 L 212 382 L 212 386 L 216 388 L 216 390 L 218 390 L 218 392 L 220 392 L 220 394 L 222 394 L 222 396 L 224 396 L 224 398 L 226 398 L 226 400 L 228 400 L 228 402 L 230 402 L 230 404 L 232 404 L 232 406 L 234 406 L 234 408 L 236 408 L 236 410 L 238 410 Q 236 415 240 414 L 240 418 L 238 418 L 238 420 L 236 420 L 236 422 L 232 424 L 232 426 L 230 426 L 230 428 L 228 428 L 228 430 L 226 430 L 226 432 L 224 432 L 224 434 L 222 434 L 222 436 L 220 436 L 220 438 L 218 438 L 218 440 L 216 440 L 216 442 L 214 442 L 214 444 L 212 444 L 212 446 L 210 446 L 210 448 L 208 448 L 208 450 L 206 450 L 206 452 L 204 452 L 204 454 L 202 454 L 202 456 L 200 456 L 200 458 L 198 458 L 198 460 L 196 460 L 196 462 L 194 462 L 194 464 L 192 464 L 192 466 L 190 466 L 190 468 Q 185 467 186 470 L 177 470 Q 177 473 172 472 L 170 476 L 168 476 Q 169 481 166 481 L 166 484 L 164 484 L 164 502 Q 167 501 166 506 L 170 508 L 170 510 L 172 510 L 172 512 Q 177 511 177 514 L 184 514 L 184 516 L 190 516 L 190 514 L 198 514 Q 197 511 202 512 L 204 508 L 206 508 L 206 506 L 208 506 L 208 502 L 210 502 L 210 490 L 212 490 L 212 488 L 216 486 L 216 484 L 218 484 L 218 482 L 220 482 L 220 480 L 222 480 L 222 478 L 224 478 L 224 476 L 226 476 L 226 474 L 228 474 L 228 472 L 230 472 L 230 470 L 232 470 L 232 468 L 234 468 L 234 466 L 236 466 L 236 464 L 238 464 L 238 462 L 240 462 L 240 460 L 242 460 L 242 458 L 244 458 L 244 456 L 246 456 L 246 454 L 248 454 L 248 452 L 250 452 L 250 450 L 252 450 L 252 448 L 254 448 L 254 446 L 256 446 L 256 444 L 258 444 L 258 442 L 262 442 L 262 440 L 265 441 L 267 440 Q 269 439 268 442 L 270 442 L 270 444 L 272 444 L 272 446 L 274 446 L 274 448 L 276 448 L 276 450 L 278 450 L 278 452 L 280 452 L 280 454 L 282 454 L 282 456 L 284 456 L 284 458 L 286 458 L 286 460 L 288 460 L 288 462 L 290 462 L 290 464 L 292 464 L 292 466 L 294 466 L 294 468 L 298 466 L 298 464 L 300 464 L 300 462 L 302 462 L 302 460 L 304 460 L 304 458 L 306 458 L 306 452 L 302 450 L 302 448 L 300 448 L 300 444 L 296 442 L 296 440 L 294 440 L 294 436 L 290 434 L 290 432 L 288 432 L 288 430 L 286 430 L 286 426 L 282 424 L 282 422 L 280 422 L 280 418 L 276 416 L 276 414 L 274 414 L 274 412 L 272 412 L 272 410 L 270 410 L 270 408 L 268 408 L 268 406 L 266 406 L 266 404 L 264 404 L 264 402 L 262 402 L 262 400 L 260 400 L 260 398 L 256 398 L 254 394 L 252 394 L 252 392 L 248 392 L 246 388 L 244 388 L 244 386 L 240 386 L 238 382 L 236 382 L 236 380 L 232 380 L 230 376 L 228 376 L 228 374 L 224 374 Q 225 371 222 372 Z M 229 373 L 232 377 L 233 375 Q 230 376 231 373 L 229 373 Z M 216 375 Q 216 379 218 376 L 216 375 Z M 268 375 Q 268 379 270 376 L 268 375 Z M 340 375 L 339 377 L 343 377 L 340 375 Z M 214 377 Q 214 381 216 378 L 214 377 Z M 233 377 L 234 379 L 237 378 L 233 377 Z M 266 377 Q 266 381 268 378 L 266 377 Z M 338 377 L 336 379 L 339 379 L 338 377 Z M 211 379 L 211 381 L 214 380 L 211 379 Z M 237 379 L 240 383 L 241 381 Q 238 382 239 379 L 237 379 Z M 264 379 Q 264 383 266 380 L 264 379 Z M 336 379 L 334 381 L 337 381 L 336 379 Z M 262 381 Q 262 385 264 382 L 262 381 Z M 334 381 L 332 383 L 335 383 L 334 381 Z M 209 383 Q 208 386 211 385 Q 212 382 209 383 Z M 241 383 L 242 385 L 245 384 L 241 383 Z M 259 383 L 259 385 L 262 384 L 259 383 Z M 332 383 L 330 385 L 333 385 L 332 383 Z M 245 385 L 248 389 L 249 387 Q 246 388 247 385 L 245 385 Z M 330 385 L 328 387 L 331 387 L 330 385 Z M 211 387 L 211 389 L 214 389 L 211 387 Z M 257 387 L 256 392 Q 258 394 264 393 L 263 391 L 259 391 Q 261 386 257 387 Z M 328 387 L 326 389 L 329 389 L 328 387 Z M 215 389 L 213 391 L 216 391 L 215 389 Z M 249 389 L 250 391 L 253 390 L 249 389 Z M 326 389 L 324 391 L 327 391 L 326 389 Z M 217 391 L 215 393 L 218 393 L 217 391 Z M 253 391 L 256 395 L 257 393 Q 254 394 255 391 L 253 391 Z M 324 391 L 322 393 L 325 393 L 324 391 Z M 219 393 L 217 395 L 220 395 L 219 393 Z M 265 393 L 263 395 L 266 395 L 265 393 Z M 322 393 L 320 395 L 323 395 L 322 393 Z M 221 395 L 219 397 L 222 397 L 221 395 Z M 257 395 L 258 397 L 261 396 L 257 395 Z M 267 395 L 265 397 L 267 397 L 267 395 Z M 320 395 L 318 397 L 321 397 L 320 395 Z M 223 397 L 221 399 L 224 399 L 223 397 Z M 261 397 L 261 399 L 263 398 L 261 397 Z M 269 397 L 268 399 Q 272 398 271 401 Q 274 402 273 400 Q 273 396 269 397 Z M 318 397 L 316 399 L 319 399 L 318 397 Z M 225 399 L 223 401 L 226 401 L 225 399 Z M 263 399 Q 263 403 265 400 L 263 399 Z M 316 399 L 314 401 L 317 401 L 316 399 Z M 227 401 L 225 403 L 228 403 L 227 401 Z M 265 401 Q 265 405 267 402 L 265 401 Z M 269 401 Q 268 404 271 403 Q 272 400 269 401 Z M 274 401 Q 273 404 277 403 Q 278 400 274 401 Z M 314 401 L 312 403 L 315 403 L 314 401 Z M 229 403 L 227 405 L 230 405 L 229 403 Z M 267 403 Q 267 407 269 404 L 267 403 Z M 271 403 Q 270 406 273 405 Q 274 402 271 403 Z M 312 403 L 310 405 L 313 405 L 312 403 Z M 231 405 L 229 407 L 232 407 L 231 405 Z M 269 405 Q 269 409 271 406 L 269 405 Z M 273 405 Q 272 408 275 407 Q 276 404 273 405 Z M 277 405 L 277 407 L 280 407 L 277 405 Z M 310 405 L 308 407 L 311 407 L 310 405 Z M 233 407 L 231 409 L 234 409 L 233 407 Z M 271 407 Q 271 411 273 408 L 271 407 Z M 275 407 Q 274 410 277 409 Q 278 406 275 407 Z M 281 407 L 280 409 Q 282 408 281 411 L 283 411 L 281 407 Z M 308 407 L 306 409 L 309 409 L 308 407 Z M 235 409 L 234 411 Q 236 410 235 413 L 237 413 L 235 409 Z M 273 409 Q 273 413 275 410 L 273 409 Z M 277 409 Q 276 412 279 411 Q 280 408 277 409 Z M 306 409 L 303 413 L 305 413 Q 304 410 307 411 L 306 409 Z M 275 411 Q 275 415 277 412 L 275 411 Z M 277 413 Q 277 417 279 414 L 277 413 Z M 283 413 L 283 415 L 286 415 L 283 413 Z M 300 413 L 299 415 L 303 415 L 300 413 Z M 237 415 Q 236 418 239 417 Q 240 414 237 415 Z M 279 415 L 281 417 Q 282 414 279 415 Z M 287 415 L 286 417 Q 288 416 287 419 L 289 419 L 287 415 Z M 298 415 L 296 417 L 299 417 L 298 415 Z M 236 417 L 237 419 Q 238 416 236 417 Z M 296 417 L 294 419 L 297 419 L 296 417 Z M 234 419 Q 234 423 236 420 L 234 419 Z M 281 419 L 284 423 L 285 421 Q 282 422 283 419 L 281 419 Z M 294 419 Q 292 422 295 421 L 294 419 Z M 232 421 Q 232 425 234 422 L 232 421 Z M 287 421 Q 286 425 293 423 Q 294 420 287 421 Z M 230 423 Q 230 427 232 424 L 230 423 Z M 285 423 L 287 425 Q 288 422 285 423 Z M 228 425 Q 228 429 230 426 L 228 425 Z M 226 427 Q 226 431 228 428 L 226 427 Z M 287 427 L 290 431 L 291 429 Q 288 430 289 427 L 287 427 Z M 224 429 Q 224 433 226 430 L 224 429 Z M 222 431 Q 222 435 224 432 L 222 431 Z M 291 431 Q 291 435 293 432 L 291 431 Z M 220 433 Q 220 437 222 434 L 220 433 Z M 293 433 L 295 435 Q 296 432 293 433 Z M 218 435 Q 218 439 220 436 L 218 435 Z M 216 437 Q 216 441 218 438 L 216 437 Z M 295 437 L 298 441 L 299 439 Q 296 440 297 437 L 295 437 Z M 214 439 Q 214 443 216 440 L 214 439 Z M 212 441 Q 212 445 214 442 L 212 441 Z M 264 441 Q 262 444 265 443 L 264 441 Z M 267 441 Q 265 444 268 443 L 267 441 Z M 299 441 L 301 443 Q 302 440 299 441 Z M 210 443 Q 210 447 212 444 L 210 443 Z M 260 443 L 259 445 L 263 445 L 260 443 Z M 269 443 L 267 445 L 270 445 L 269 443 Z M 208 445 Q 208 449 210 446 L 208 445 Z M 258 445 L 256 447 L 259 447 L 258 445 Z M 271 445 L 269 447 L 272 447 L 271 445 Z M 301 445 L 304 449 L 305 447 Q 302 448 303 445 L 301 445 Z M 206 447 Q 206 451 208 448 L 206 447 Z M 256 447 L 254 449 L 257 449 L 256 447 Z M 273 447 L 271 449 L 274 449 L 273 447 Z M 204 449 Q 204 453 206 450 L 204 449 Z M 254 449 L 252 451 L 255 451 L 254 449 Z M 275 449 L 273 451 L 276 451 L 275 449 Z M 305 449 L 307 451 Q 308 448 305 449 Z M 202 451 Q 202 455 204 452 L 202 451 Z M 252 451 L 250 453 L 253 453 L 252 451 Z M 277 451 L 275 453 L 278 453 L 277 451 Z M 200 453 Q 200 457 202 454 L 200 453 Z M 250 453 L 248 455 L 251 455 L 250 453 Z M 279 453 L 277 455 L 280 455 L 279 453 Z M 307 453 Q 305 458 309 457 Q 311 452 307 453 Z M 198 455 Q 198 459 200 456 L 198 455 Z M 248 455 L 246 457 L 249 457 L 248 455 Z M 281 455 L 279 457 L 282 457 L 281 455 Z M 196 457 Q 196 461 198 458 L 196 457 Z M 246 457 L 244 459 L 247 459 L 246 457 Z M 283 457 L 281 459 L 284 459 L 283 457 Z M 194 459 Q 194 463 196 460 L 194 459 Z M 244 459 L 242 461 L 245 461 L 244 459 Z M 285 459 L 283 461 L 286 461 L 285 459 Z M 306 459 L 304 461 L 307 461 Q 308 458 306 459 Z M 192 461 Q 192 465 194 462 L 192 461 Z M 242 461 L 240 463 L 243 463 L 242 461 Z M 287 461 L 285 463 L 288 463 L 287 461 Z M 304 461 L 302 463 L 305 463 L 304 461 Z M 190 463 Q 190 467 192 464 L 190 463 Z M 240 463 L 238 465 L 241 465 L 240 463 Z M 289 463 L 287 465 L 290 465 L 289 463 Z M 302 463 L 300 465 L 303 465 L 302 463 Z M 186 465 L 187 467 L 190 466 L 186 465 Z M 238 465 L 236 467 L 239 467 L 238 465 Z M 291 465 L 290 467 Q 292 466 291 469 L 293 469 L 291 465 Z M 300 465 L 297 469 L 299 469 Q 298 466 301 467 L 300 465 Z M 175 467 Q 176 470 172 469 L 173 471 L 177 469 L 185 469 L 185 467 L 175 467 Z M 236 467 L 234 469 L 237 469 L 236 467 Z M 234 469 L 232 471 L 235 471 L 234 469 Z M 293 469 Q 292 473 297 471 Q 298 467 293 469 Z M 169 471 L 167 475 L 171 473 Q 172 470 169 471 Z M 232 471 L 230 473 L 233 473 L 232 471 Z M 230 473 L 228 475 L 231 475 L 230 473 Z M 228 475 L 226 477 L 229 477 L 228 475 Z M 165 477 Q 164 480 167 479 Q 168 476 165 477 Z M 226 477 L 224 479 L 227 479 L 226 477 Z M 224 479 L 222 481 L 225 481 L 224 479 Z M 163 481 Q 162 484 165 483 Q 166 480 163 481 Z M 222 481 L 220 483 L 223 483 L 222 481 Z M 220 483 L 218 485 L 221 485 L 220 483 Z M 162 484 L 161 502 L 163 501 L 163 486 L 162 484 Z M 218 485 L 216 487 L 219 487 L 218 485 Z M 216 487 L 214 489 L 217 489 L 216 487 Z M 214 489 L 211 493 L 213 493 Q 212 490 215 491 L 214 489 Z M 213 494 Q 210 495 211 501 L 213 502 L 213 494 Z M 163 503 Q 162 506 165 505 Q 166 502 163 503 Z M 209 503 Q 208 506 211 505 Q 212 502 209 503 Z M 165 507 L 165 509 L 168 509 L 165 507 Z M 208 507 L 206 509 L 209 509 Q 210 506 208 507 Z M 169 509 L 168 511 Q 170 510 169 513 L 171 513 L 169 509 Z M 206 509 L 203 513 L 205 513 Q 204 510 207 511 L 206 509 Z M 173 513 L 172 515 Q 177 514 176 517 L 183 517 L 183 519 L 191 519 L 191 517 L 199 517 Q 198 514 203 515 L 202 513 L 198 515 L 192 515 L 190 517 L 185 517 L 183 515 L 177 515 L 173 513 Z "/>
  <path fill="rgb(255,255,255)" stroke="rgb(255,255,255)" stroke-width="1" opacity="0.06666666666666667" d="M 0 307 L 3 307.5 L 0 309 L 0 307 Z "/>
  <path fill="rgb(255,255,255)" stroke="rgb(255,255,255)" stroke-width="1" opacity="0.06666666666666667" d="M 677.5 319 Q 681.3 318 680 321 L 677.5 319 Z "/>
  <path fill="rgb(255,255,255)" stroke="rgb(255,255,255)" stroke-width="1" opacity="0.06666666666666667" d="M 678.5 359 Q 681.1 358.3 680 361 L 677 360.5 L 678.5 359 Z "/>
  <path fill="rgb(255,255,255)" stroke="rgb(255,255,255)" stroke-width="1" opacity="0.06666666666666667" d="M 0 369 L 3 370.5 L 0 371 L 0 369 Z "/>
  <path fill="rgb(255,255,255)" stroke="rgb(255,255,255)" stroke-width="1" opacity="0.06666666666666667" d="M 65.5 535 Q 68.1 534.3 67 537 L 64 536.5 L 65.5 535 Z "/>
  <path fill="rgb(255,255,255)" stroke="rgb(255,255,255)" stroke-width="1" opacity="0.06666666666666667" d="M 609 539 L 612 540.5 L 609 541 L 609 539 Z "/>
  <path fill="rgb(255,255,255)" stroke="rgb(255,255,255)" stroke-width="1" opacity="0.06666666666666667" d="M 71.5 543 Q 74.1 542.3 73 545 L 70 544.5 L 71.5 543 Z "/>
  <path fill="rgb(255,255,255)" stroke="rgb(255,255,255)" stroke-width="1" opacity="0.06666666666666667" d="M 603 547 L 606 548.5 L 603 549.5 L 603.5 551 Q 599.8 552 601 549 Q 604 550 603 547 Z "/>
  <path fill="rgb(255,255,255)" stroke="rgb(255,255,255)" stroke-width="1" opacity="0.06666666666666667" d="M 77.5 551 Q 80.1 550.3 79 553 L 81 553 L 81 555 L 78 554.5 L 78.5 553 L 76 552.5 L 77.5 551 Z "/>
  <path fill="rgb(255,255,255)" stroke="rgb(255,255,255)" stroke-width="1" opacity="0.06666666666666667" d="M 595 557 L 598 558.5 L 595 559.5 L 595.5 561 L 593 561.5 L 593.5 563 L 591 563.5 L 591.5 565 Q 587.8 566 589 563 L 591 563 L 591 561 L 593 561 L 595 557 Z "/>
  <path fill="rgb(255,255,255)" stroke="rgb(255,255,255)" stroke-width="1" opacity="0.06666666666666667" d="M 85.5 561 Q 88.1 560.3 87 563 L 89 563 L 89 565 L 91 565 L 91 567 L 93 567 L 93 569 L 95 569 L 95 571 L 97 571 L 97 573 L 99 573 L 99 575 L 101 575 L 101 577 L 103 577 L 103 579 L 105 579 L 105 581 L 107 581 L 107 583 L 109 583 L 109 585 L 111 585 L 111 587 L 113 587 L 113 589 L 115 589 L 115 591 L 117 591 L 117 593 L 119.5 593 L 120.5 595 L 116 594.5 L 116.5 593 L 114 592.5 L 114.5 591 L 112 590.5 L 112.5 589 L 110 588.5 L 110.5 587 L 108 586.5 L 108.5 585 L 106 584.5 L 106.5 583 L 104 582.5 L 104.5 581 L 102 580.5 L 102.5 579 L 100 578.5 L 100.5 577 L 98 576.5 L 98.5 575 L 96 574.5 L 96.5 573 L 94 572.5 L 94.5 571 L 92 570.5 L 92.5 569 L 90 568.5 L 90.5 567 L 88 566.5 L 88.5 565 L 86 564.5 L 86.5 563 L 84 562.5 L 85.5 561 Z "/>
  <path fill="rgb(255,255,255)" stroke="rgb(255,255,255)" stroke-width="1" opacity="0.06666666666666667" d="M 583 571 L 586 572.5 L 583 573.5 L 583.5 575 L 581 575.5 L 581.5 577 L 579 577.5 L 579.5 579 L 577 579.5 L 577.5 581 L 575 581.5 L 575.5 583 L 573 583.5 L 573.5 585 L 571 585.5 L 571.5 587 L 567 586.5 L 571 585 L 571 583 L 573 583 L 573 581 L 575 581 L 575 579 L 577 579 L 577 577 L 579 577 L 579 575 L 581 575 L 583 571 Z "/>
  <path fill="rgb(255,255,255)" stroke="rgb(255,255,255)" stroke-width="1" opacity="0.06666666666666667" d="M 563 589 Q 566 588 565 591 L 563 591.5 L 563.5 593 L 561 593.5 L 561.5 595 L 559 595.5 L 559.5 597 L 557 597.5 L 557.5 599 L 555 599.5 L 555.5 601 L 551 600.5 L 555 599 L 555 597 L 557 597 L 557 595 L 559 595 L 559 593 L 561 593 L 563 589 Z "/>
  <path fill="rgb(255,255,255)" stroke="rgb(255,255,255)" stroke-width="1" opacity="0.06666666666666667" d="M 123 597 L 125 597 L 125 599 L 129 601 L 129 603 L 131.5 603 L 132.5 605 L 128 604.5 L 128.5 603 L 126 602.5 L 126.5 601 L 124 600.5 L 124.5 599 Q 121.9 599.7 123 597 Z "/>
  <path fill="rgb(255,255,255)" stroke="rgb(255,255,255)" stroke-width="1" opacity="0.06666666666666667" d="M 547 603 Q 550 602 549 605 L 547 605.5 L 547.5 607 L 545 607.5 L 545.5 609 L 541 608.5 L 545 607 L 547 603 Z "/>
  <path fill="rgb(255,255,255)" stroke="rgb(255,255,255)" stroke-width="1" opacity="0.06666666666666667" d="M 135 607 Q 138 606 137 609 L 139.5 609 L 140.5 611 L 136 610.5 L 136.5 609 Q 133.9 609.7 135 607 Z "/>
  <path fill="rgb(255,255,255)" stroke="rgb(255,255,255)" stroke-width="1" opacity="0.06666666666666667" d="M 536.5 611 Q 540.3 610 539 613 L 535 612.5 L 536.5 611 Z "/>
  <path fill="rgb(255,255,255)" stroke="rgb(255,255,255)" stroke-width="1" opacity="0.06666666666666667" d="M 143 613 Q 146 612 145 615 L 147.5 615 L 148.5 617 L 144 616.5 L 144.5 615 Q 141.9 615.7 143 613 Z "/>
  <path fill="rgb(255,255,255)" stroke="rgb(255,255,255)" stroke-width="1" opacity="0.06666666666666667" d="M 531 615 Q 534 614 533 617 L 531 617.5 L 531.5 619 L 527 618.5 L 531 617 L 531 615 Z "/>
  <path fill="rgb(255,255,255)" stroke="rgb(255,255,255)" stroke-width="1" opacity="0.06666666666666667" d="M 155 621 L 159 622.5 L 155 623 L 155 621 Z "/>
  <path fill="rgb(255,255,255)" stroke="rgb(255,255,255)" stroke-width="1" opacity="0.06666666666666667" d="M 522.5 621 Q 526.3 620 525 623 L 521 622.5 L 522.5 621 Z "/>
  <path fill="rgb(255,255,255)" stroke="rgb(255,255,255)" stroke-width="1" opacity="0.06666666666666667" d="M 161 625 L 165 626.5 L 161 627 L 161 625 Z "/>
  <path fill="rgb(255,255,255)" stroke="rgb(255,255,255)" stroke-width="1" opacity="0.06666666666666667" d="M 512.5 627 Q 516.3 626 515 629 L 511 628.5 L 512.5 627 Z "/>
  <path fill="rgb(255,255,255)" stroke="rgb(255,255,255)" stroke-width="1" opacity="0.06666666666666667" d="M 167 629 L 171 630.5 L 167 631 L 167 629 Z "/>
  <path fill="rgb(255,255,255)" stroke="rgb(255,255,255)" stroke-width="1" opacity="0.06666666666666667" d="M 502.5 633 Q 506.3 632 505 635 L 501 634.5 L 502.5 633 Z "/>
  <path fill="rgb(255,255,255)" stroke="rgb(255,255,255)" stroke-width="1" opacity="0.06666666666666667" d="M 185 639 L 189 640.5 L 185 641 L 185 639 Z "/>
  <path fill="rgb(255,255,255)" stroke="rgb(255,255,255)" stroke-width="1" opacity="0.06666666666666667" d="M 195 643 L 199 644.5 L 195 645 L 195 643 Z "/>
  <path fill="rgb(255,255,255)" stroke="rgb(255,255,255)" stroke-width="1" opacity="0.06666666666666667" d="M 468.5 649 Q 472.3 648 471 651 L 467 650.5 L 468.5 649 Z "/>
  <path fill="rgb(255,255,255)" stroke="rgb(255,255,255)" stroke-width="1" opacity="0.06666666666666667" d="M 213 651 L 217 652.5 L 213 653 L 213 651 Z "/>
  <path fill="rgb(255,255,255)" stroke="rgb(255,255,255)" stroke-width="1" opacity="0.06666666666666667" d="M 458.5 653 Q 462.3 652 461 655 L 457 654.5 L 458.5 653 Z "/>
  <path fill="rgb(255,255,255)" stroke="rgb(255,255,255)" stroke-width="1" opacity="0.06666666666666667" d="M 223 655 L 227.5 655 L 229.5 657 L 233.5 657 L 235.5 659 L 239.5 659 L 247.5 663 L 253.5 663 L 255.5 665 L 261.5 665 Q 263 668.5 269.5 667 L 271.5 669 Q 279.5 667 281.5 671 L 293.5 671 L 295.5 673 L 313.5 673 L 315 674.5 L 295 675 L 294.5 673 L 281.5 673 L 280.5 671 L 271.5 671 L 271 669 L 263.5 669 L 262.5 667 L 255.5 667 L 254.5 665 L 247.5 665 L 247 663 L 241 663 L 241 661 L 235 661 L 235 659 L 229 659 L 229 657 L 223 657 L 223 655 Z "/>
  <path fill="rgb(255,255,255)" stroke="rgb(255,255,255)" stroke-width="1" opacity="0.06666666666666667" d="M 446.5 657 Q 452.4 655.3 451 659 L 445 659 L 445 661 L 439 661 L 439 663 L 433 663 L 432.5 665 L 425.5 665 L 424.5 667 L 417.5 667 L 416.5 669 L 407.5 669 L 406.5 671 L 397.5 671 L 396.5 673 L 385.5 673 L 384.5 675 L 365.5 675 L 366.5 673 L 384.5 673 L 386.5 671 L 396.5 671 L 398.5 669 L 406.5 669 L 408.5 667 L 416.5 667 L 418.5 665 L 424.5 665 Q 426 661.5 432.5 663 L 434.5 661 L 438.5 661 L 446.5 657 Z "/>
  <path fill="rgb(255,255,255)" stroke="rgb(255,255,255)" stroke-width="1" opacity="0.06666666666666667" d="M 317 677 Q 320.3 675.9 319 680 Q 315.7 681.1 317 677 Z "/>
  <path fill="rgb(255,255,255)" stroke="rgb(255,255,255)" stroke-width="1" opacity="0.06666666666666667" d="M 361 677 Q 364.3 675.9 363 680 Q 359.7 681.1 361 677 Z "/>
</svg>
