<?xml version='1.0' encoding='UTF-8'?>
<svg xmlns="http://www.w3.org/2000/svg" width="512" height="512" version="1.1" desc="Created with imagetracer.js version 1.2.6" shape-rendering="geometricPrecision" text-rendering="geometricPrecision" image-rendering="optimizeQuality" viewBox="0 0 680.0 680.0">
  <path fill="rgb(0,0,0)" stroke="rgb(0,0,0)" stroke-width="1" opacity="0" d="M 0 0 L 308.5 0 L 309 3 L 311 3 L 311.5 0 L 369 0 Q 367.7 4.1 371 3 L 371.5 0 L 680 0 L 680 312.5 L 677.5 313 L 678.5 315 L 680 315.5 L 680 365 L 677 366.5 L 680 367 L 680 680 L 365 680 Q 366.3 675.9 363 677 L 362.5 680 L 317 680 Q 318.3 675.9 315 677 L 314.5 680 L 0 680 L 0 367.5 L 2.5 367 L 1.5 365 L 0 364.5 L 0 315 L 3 313.5 L 0 313 L 0 0 Z M 291 5 L 291 7 L 306 7 L 307 6 L 291 5 Z M 374 5 L 375 7 L 389 7 L 389 5 L 374 5 Z M 279 7 L 279 9 L 290 9 L 291 8 L 279 7 Z M 390 7 L 391 9 L 401 9 L 401 7 L 390 7 Z M 269 9 L 269 11 L 278 11 L 279 10 L 269 9 Z M 402 9 L 403 11 L 411 11 L 411 9 L 402 9 Z M 261 11 L 261 13 L 268 13 L 269 12 L 261 11 Z M 412 11 L 413 13 L 419 13 L 419 11 L 412 11 Z M 253 13 L 253 15 L 260 15 L 261 14 L 253 13 Z M 420 13 L 421 15 L 427 15 L 427 13 L 420 13 Z M 245 15 L 245 17 L 252 17 L 253 16 L 245 15 Z M 428 15 L 429 17 L 435 17 L 435 15 L 428 15 Z M 239 17 L 239 19 Q 244 20 245 18 L 239 17 Z M 436 17 Q 435 20 441 19 Q 442 15 436 17 Z M 233 19 L 233 21 Q 238 22 239 20 L 233 19 Z M 442 19 Q 441 22 447 21 Q 448 17 442 19 Z M 227 21 L 227 23 Q 232 24 233 22 L 227 21 Z M 448 21 Q 447 24 453 23 Q 454 19 448 21 Z M 221 23 L 221 25 Q 226 26 227 24 L 221 23 Z M 460 25 Q 459 28 463 27 Q 464 24 460 25 Z M 207 29 L 207 31 L 211 30 L 207 29 Z M 474 31 Q 473 34 477 33 Q 478 30 474 31 Z M 177 43 L 177 45 L 181 44 L 177 43 Z M 500 43 Q 499 46 503 45 Q 504 42 500 43 Z M 510 49 Q 509 52 513 51 Q 514 48 510 49 Z M 163 51 L 163 53 L 167 52 L 163 51 Z M 157 55 L 157 57 L 161 56 L 157 55 Z M 520 55 Q 519 58 523 57 Q 524 54 520 55 Z M 151 59 L 151 61 L 155 60 L 151 59 Z M 526 59 Q 525 62 529 61 Q 530 58 526 59 Z M 145 63 L 146 65 L 149 64 L 145 63 Z M 532 63 L 533 65 L 536 64 L 532 63 Z M 143 65 Q 142 68 145 67 Q 146 64 143 65 Z M 535 65 Q 534 68 537 67 Q 538 64 535 65 Z M 137 69 L 138 71 L 141 70 L 137 69 Z M 540 69 L 541 71 L 544 70 L 540 69 Z M 135 71 Q 134 74 137 73 Q 138 70 135 71 Z M 543 71 Q 542 74 545 73 Q 546 70 543 71 Z M 129 75 L 130 77 L 133 76 L 129 75 Z M 548 75 L 549 77 L 552 76 L 548 75 Z M 127 77 L 129 79 Q 130 76 127 77 Z M 551 77 L 551 79 L 554 78 L 551 77 Z M 125 79 Q 124 82 127 81 Q 128 78 125 79 Z M 553 79 L 553 81 L 556 80 L 553 79 Z M 555 81 Q 554 84 557 83 Q 558 80 555 81 Z M 119 83 L 120 85 L 123 84 L 119 83 Z M 117 85 L 119 87 Q 120 84 117 85 Z M 560 85 L 561 87 L 564 86 L 560 85 Z M 115 87 L 117 89 Q 118 86 115 87 Z M 563 87 L 563 89 L 566 88 L 563 87 Z M 113 89 L 115 91 Q 116 88 113 89 Z M 565 89 L 565 91 L 568 90 L 565 89 Z M 111 91 L 113 93 Q 114 90 111 91 Z M 567 91 L 567 93 L 570 92 L 567 91 Z M 109 93 L 111 95 Q 112 92 109 93 Z M 569 93 L 569 95 L 572 94 L 569 93 Z M 107 95 L 109 97 Q 110 94 107 95 Z M 571 95 L 571 97 L 574 96 L 571 95 Z M 105 97 L 107 99 Q 108 96 105 97 Z M 573 97 L 573 99 L 576 98 L 573 97 Z M 103 99 L 105 101 Q 106 98 103 99 Z M 575 99 L 575 101 L 578 100 L 575 99 Z M 101 101 L 103 103 Q 104 100 101 101 Z M 577 101 L 577 103 L 580 102 L 577 101 Z M 99 103 L 101 105 Q 102 102 99 103 Z M 579 103 L 579 105 L 582 104 L 579 103 Z M 97 105 L 99 107 Q 100 104 97 105 Z M 581 105 L 581 107 L 584 106 L 581 105 Z M 95 107 L 97 109 Q 98 106 95 107 Z M 583 107 L 583 109 L 586 108 L 583 107 Z M 93 109 L 95 111 Q 96 108 93 109 Z M 585 109 L 585 111 L 588 110 L 585 109 Z M 91 111 L 93 113 Q 94 110 91 111 Z M 587 111 L 587 113 L 590 112 L 587 111 Z M 89 113 L 91 115 Q 92 112 89 113 Z M 589 113 L 589 115 L 592 114 L 589 113 Z M 87 115 L 89 117 Q 90 114 87 115 Z M 591 115 L 591 117 L 594 116 L 591 115 Z M 85 117 L 87 119 Q 88 116 85 117 Z M 597 123 L 597 125 L 600 124 L 597 123 Z M 79 125 L 81 127 Q 82 124 79 125 Z M 599 125 L 599 127 L 602 126 L 599 125 Z M 77 127 L 79 129 Q 80 126 77 127 Z M 601 127 L 601 129 L 604 128 L 601 127 Z M 71 135 L 73 137 Q 74 134 71 135 Z M 607 135 L 607 137 L 610 136 L 607 135 Z M 65 143 L 67 145 Q 68 142 65 143 Z M 617 149 L 617 151 L 620 150 L 617 149 Z M 243 229 L 242 231 L 279 231 L 278 229 L 243 229 Z M 449 229 L 448 231 L 453 231 Q 452 228 449 229 Z M 237 231 L 235 233 L 241 233 Q 242 229 237 231 Z M 279 231 L 279 233 L 287 233 Q 285 229 279 231 Z M 445 231 L 444 233 L 448 233 L 445 231 Z M 454 231 L 452 233 L 455 233 L 454 231 Z M 231 233 L 229 235 L 235 235 Q 236 231 231 233 Z M 243 233 L 235 237 L 231 237 L 229 239 Q 224 238 225 241 L 221 239 L 221 243 Q 224 242 223 245 L 225 245 Q 224 242 227 243 L 243 260 L 243 261 L 239 259 L 241 265 L 243 265 Q 242 262 245 263 L 247 267 L 243 265 L 243 268 L 247 274 L 247 278 L 251 284 L 251 288 L 253 290 Q 252 296 255 298 L 255 304 L 257 306 L 257 318 L 259 320 Q 257 325 261 327 L 262 322 Q 264 323 263 327 Q 268 328 270 325 L 277 325 Q 278 329 285 327 L 287 331 Q 284 332 285 329 L 277 330 Q 278 332 283 331 L 285 335 L 287 335 Q 286 332 289 333 L 291 337 L 287 335 Q 286 340 289 342 L 289 349 L 285 355 L 285 357 L 289 355 L 283 363 L 279 361 L 275 361 L 274 363 Q 280 361 279 365 Q 274 364 273 367 L 268 367 L 260 363 Q 254 362 253 365 L 249 363 L 248 365 Q 250 364 249 367 L 245 365 L 243 371 L 247 369 L 241 377 Q 238 378 239 375 L 237 375 L 227 395 L 225 405 L 223 407 L 223 415 L 221 417 L 221 446 L 223 448 L 223 454 L 225 456 L 225 460 L 227 463 Q 230 464 229 461 L 233 463 L 236 463 L 242 457 Q 244 456 243 459 L 245 459 L 247 453 Q 244 452 245 455 Q 242 456 243 454 L 248 449 L 250 449 Q 251 453 253 450 L 251 449 L 254 445 L 260 447 L 261 445 Q 256 446 257 443 L 264 445 L 265 443 Q 260 444 261 441 L 268 443 L 269 441 Q 264 442 265 439 Q 268 438 270 441 L 274 441 L 275 439 Q 268 441 269 437 L 274 437 L 282 433 L 288 433 L 290 431 L 300 431 L 302 429 L 319 429 L 319 416 L 321 414 L 322 429 L 323 428 L 323 412 Q 326 410 325 407 L 321 409 L 328 401 L 332 403 L 345 403 Q 346 400 349 401 Q 350 404 346 403 L 347 405 L 353 403 L 357 409 L 353 407 Q 352 410 355 412 L 355 425 L 359 423 L 357 427 Q 354 428 355 425 L 353 425 L 351 429 L 351 434 L 355 441 L 357 441 Q 356 438 359 439 L 365 447 L 363 448 Q 365 451 367 447 Q 371 447 371 450 Q 372 452 370 451 L 371 453 Q 372 450 375 451 Q 376 454 372 453 L 373 455 L 379 453 Q 380 456 376 455 L 377 457 L 383 455 Q 384 458 380 457 L 381 459 L 385 457 L 389 459 L 393 459 L 395 461 L 399 461 L 401 463 L 411 463 L 413 465 L 436 465 Q 438 461 446 463 L 448 461 L 455 461 L 455 455 Q 459 454 457 461 L 459 460 L 459 455 L 457 451 L 455 451 Q 456 454 454 453 L 447 445 L 451 447 L 449 441 L 447 441 Q 448 444 446 443 L 441 437 L 445 439 L 441 429 L 439 429 Q 440 432 438 431 L 435 427 L 439 429 L 439 427 L 433 417 L 431 407 L 429 405 Q 431 398 427 397 L 427 389 L 425 387 L 425 373 L 424 371 L 423 384 L 421 383 L 421 371 L 403 371 L 404 369 L 421 369 L 420 367 L 404 367 L 400 369 L 393 361 L 397 363 Q 398 358 395 357 L 395 350 L 397 348 L 397 344 Q 400 342 399 339 L 395 341 L 402 333 L 406 335 L 419 335 L 421 333 L 425 335 L 428 335 L 440 323 Q 442 322 441 325 L 443 325 L 445 319 L 441 321 L 444 317 Q 446 316 445 319 L 447 319 L 457 300 L 457 296 L 459 294 Q 457 287 461 286 L 461 272 L 463 270 L 463 261 L 461 259 L 461 245 L 459 243 L 459 237 L 457 233 Q 454 232 455 235 L 452 233 Q 447 232 447 235 L 443 235 L 441 235 L 439 239 L 443 237 L 439 243 Q 436 244 437 241 L 435 241 L 435 243 Q 432 242 433 245 L 432 247 Q 434 246 433 249 Q 433 251 429 251 Q 427 247 425 251 L 427 251 L 425 255 L 421 253 L 417 253 L 416 255 Q 422 253 421 257 Q 416 256 415 259 L 411 257 L 407 257 L 406 259 Q 412 257 411 261 Q 406 260 405 263 L 399 263 L 397 265 L 389 265 L 387 267 L 375 267 L 373 269 L 365 269 L 365 281 L 364 282 L 363 269 L 361 271 L 361 285 Q 358 286 359 289 L 363 287 L 357 295 L 353 293 Q 346 291 345 295 L 353 295 L 353 297 L 345 297 L 345 299 Q 342 300 343 297 L 335 297 L 336 295 L 343 295 L 342 293 L 336 293 L 332 295 L 325 287 L 329 289 Q 330 284 327 283 L 327 276 L 331 268 L 331 263 L 327 255 L 325 255 Q 326 258 324 257 L 317 249 L 319 249 Q 317 245 316 249 Q 312 250 311 247 Q 310 244 313 245 L 312 243 Q 310 246 307 245 Q 306 242 311 243 L 310 241 L 303 243 Q 302 240 307 241 L 306 239 L 302 241 L 298 239 L 294 239 L 292 237 L 288 237 L 286 235 L 280 235 L 278 233 L 243 233 Z M 287 233 L 287 235 L 293 235 Q 292 232 287 233 Z M 227 235 L 225 237 L 229 237 Q 230 234 227 235 Z M 293 235 L 293 237 L 299 237 Q 298 234 293 235 Z M 299 237 L 299 239 L 303 239 L 299 237 Z M 437 239 L 437 241 L 440 241 L 437 239 Z M 225 245 L 225 247 L 228 246 L 225 245 Z M 313 245 L 313 247 L 317 247 L 313 245 Z M 227 247 L 227 249 L 230 248 L 227 247 Z M 429 247 L 427 249 L 431 249 Q 432 246 429 247 Z M 229 249 L 229 251 L 232 250 L 229 249 Z M 319 249 Q 318 252 321 251 Q 322 248 319 249 Z M 231 251 L 231 253 L 234 252 L 231 251 Z M 322 251 L 320 253 L 323 253 Q 324 250 322 251 Z M 423 251 L 421 253 L 425 253 Q 426 250 423 251 Z M 233 253 L 233 255 L 236 254 L 233 253 Z M 324 253 L 322 255 L 325 255 Q 326 252 324 253 Z M 235 255 L 235 257 L 238 256 L 235 255 Z M 413 255 L 411 257 L 415 257 Q 416 254 413 255 Z M 237 257 L 237 259 L 240 258 L 237 257 Z M 399 259 L 397 261 L 405 261 Q 406 258 399 259 Z M 389 261 L 387 263 L 397 263 L 397 261 L 389 261 Z M 375 263 L 373 265 L 387 265 L 387 263 L 375 263 Z M 367 265 L 365 267 L 373 267 Q 374 264 367 265 Z M 330 289 L 328 291 L 331 291 Q 332 288 330 289 Z M 357 289 L 357 291 L 360 291 L 357 289 Z M 332 291 L 331 293 L 335 293 L 332 291 Z M 355 291 L 354 293 L 358 293 L 355 291 Z M 343 295 Q 342 298 345 297 Q 346 294 343 295 Z M 439 325 L 441 327 Q 442 324 439 325 Z M 269 327 L 270 329 L 277 329 L 277 327 L 269 327 Z M 437 327 L 439 329 Q 440 326 437 327 Z M 264 329 L 265 331 Q 268 332 269 330 L 264 329 Z M 435 329 L 437 331 Q 438 328 435 329 Z M 433 331 L 435 333 Q 436 330 433 331 Z M 431 333 Q 430 336 433 335 Q 434 332 431 333 Z M 401 335 L 402 337 L 405 336 L 401 335 Z M 420 335 L 421 337 L 424 336 L 420 335 Z M 429 335 Q 429 339 431 336 L 429 335 Z M 399 337 L 401 339 Q 402 336 399 337 Z M 424 337 L 425 339 Q 428 340 429 338 L 424 337 Z M 283 357 L 283 359 L 286 359 L 283 357 Z M 255 359 L 254 361 L 261 361 Q 260 358 255 359 Z M 281 359 L 280 361 L 284 361 L 281 359 Z M 251 361 L 249 363 L 253 363 Q 254 360 251 361 Z M 261 361 L 261 363 L 267 363 Q 266 360 261 361 Z M 267 363 L 267 365 L 273 365 L 273 363 L 267 363 Z M 398 363 L 396 365 L 399 365 Q 400 362 398 363 Z M 400 365 L 399 367 L 403 367 L 400 365 Z M 241 371 L 241 373 L 244 373 L 241 371 Z M 239 373 L 239 375 L 242 375 L 239 373 Z M 327 403 L 328 405 L 331 404 L 327 403 Z M 325 405 L 327 407 Q 328 404 325 405 Z M 350 405 L 351 407 L 354 406 L 350 405 Z M 301 431 L 301 433 L 318 433 L 319 432 L 301 431 Z M 289 433 L 289 435 L 300 435 L 301 434 L 289 433 Z M 281 435 L 281 437 L 288 437 L 289 436 L 281 435 Z M 275 437 L 275 439 Q 280 440 281 438 L 275 437 Z M 446 439 L 444 441 L 447 441 Q 448 438 446 439 Z M 357 441 L 357 443 L 360 442 L 357 441 Z M 359 443 L 359 445 L 362 444 L 359 443 Z M 361 445 Q 360 448 363 447 Q 364 444 361 445 Z M 253 447 L 253 449 L 257 448 L 253 447 Z M 452 447 L 450 449 L 453 449 Q 454 446 452 447 Z M 366 449 Q 365 452 369 451 Q 370 448 366 449 Z M 454 449 L 452 451 L 455 451 Q 456 448 454 449 Z M 247 451 L 248 453 L 251 452 L 247 451 Z M 241 459 L 243 461 Q 244 458 241 459 Z M 384 459 Q 383 462 387 461 Q 388 458 384 459 Z M 239 461 Q 238 464 241 463 Q 242 460 239 461 Z M 388 461 Q 387 464 393 463 Q 394 459 388 461 Z M 230 463 Q 230 467 232 464 L 230 463 Z M 237 463 Q 237 467 239 464 L 237 463 Z M 394 463 Q 393 466 399 465 Q 400 461 394 463 Z M 447 463 L 447 465 L 454 465 L 455 464 L 447 463 Z M 232 465 L 233 467 Q 236 468 237 466 L 232 465 Z M 400 465 L 401 467 L 411 467 L 411 465 L 400 465 Z M 437 465 L 437 467 L 446 467 L 447 466 L 437 465 Z M 412 467 L 413 469 L 436 469 L 437 468 L 412 467 Z M 611 537 L 611 539 L 614 539 L 611 537 Z M 72 543 L 70 545 L 73 545 Q 74 542 72 543 Z M 74 545 L 72 547 L 75 547 Q 76 544 74 545 Z M 605 545 L 605 547 L 608 547 L 605 545 Z M 80 553 L 78 555 L 81 555 Q 82 552 80 553 Z M 599 553 L 599 555 L 602 555 L 599 553 Z M 82 555 L 80 557 L 83 557 Q 84 554 82 555 Z M 597 555 L 597 557 L 600 557 L 597 555 Z M 84 557 L 82 559 L 85 559 Q 86 556 84 557 Z M 595 557 L 595 559 L 598 559 L 595 557 Z M 90 565 L 88 567 L 91 567 Q 92 564 90 565 Z M 589 565 L 589 567 L 592 567 L 589 565 Z M 92 567 L 90 569 L 93 569 Q 94 566 92 567 Z M 587 567 L 587 569 L 590 569 L 587 567 Z M 94 569 L 92 571 L 95 571 Q 96 568 94 569 Z M 585 569 L 585 571 L 588 571 L 585 569 Z M 96 571 L 94 573 L 97 573 Q 98 570 96 571 Z M 583 571 L 583 573 L 586 573 L 583 571 Z M 98 573 L 96 575 L 99 575 Q 100 572 98 573 Z M 581 573 L 581 575 L 584 575 L 581 573 Z M 100 575 L 98 577 L 101 577 Q 102 574 100 575 Z M 579 575 L 579 577 L 582 577 L 579 575 Z M 102 577 L 100 579 L 103 579 Q 104 576 102 577 Z M 577 577 L 577 579 L 580 579 L 577 577 Z M 104 579 L 102 581 L 105 581 Q 106 578 104 579 Z M 575 579 L 575 581 L 578 581 L 575 579 Z M 106 581 L 104 583 L 107 583 Q 108 580 106 581 Z M 573 581 L 573 583 L 576 583 L 573 581 Z M 108 583 L 106 585 L 109 585 Q 110 582 108 583 Z M 571 583 L 571 585 L 574 585 L 571 583 Z M 110 585 L 108 587 L 111 587 Q 112 584 110 585 Z M 569 585 L 569 587 L 572 587 L 569 585 Z M 112 587 L 110 589 L 113 589 Q 114 586 112 587 Z M 567 587 L 567 589 L 570 589 L 567 587 Z M 114 589 L 112 591 L 115 591 Q 116 588 114 589 Z M 565 589 L 565 591 L 568 591 L 565 589 Z M 116 591 L 115 593 L 119 593 L 116 591 Z M 563 591 L 562 593 L 566 593 L 563 591 Z M 121 595 Q 120 598 123 597 Q 124 594 121 595 Z M 557 595 Q 556 598 559 597 Q 560 594 557 595 Z M 124 597 L 122 599 L 125 599 Q 126 596 124 597 Z M 555 597 L 555 599 L 558 599 L 555 597 Z M 126 599 L 124 601 L 127 601 Q 128 598 126 599 Z M 553 599 L 553 601 L 556 601 L 553 599 Z M 128 601 L 127 603 L 131 603 L 128 601 Z M 551 601 L 550 603 L 554 603 L 551 601 Z M 133 605 Q 132 608 135 607 Q 136 604 133 605 Z M 545 605 Q 544 608 547 607 Q 548 604 545 605 Z M 136 607 L 135 609 L 139 609 L 136 607 Z M 543 607 L 542 609 L 546 609 L 543 607 Z M 141 611 Q 140 614 143 613 Q 144 610 141 611 Z M 537 611 Q 536 614 539 613 Q 540 610 537 611 Z M 144 613 L 143 615 L 147 615 L 144 613 Z M 535 613 L 534 615 L 538 615 L 535 613 Z M 149 617 L 149 619 L 153 619 L 149 617 Z M 529 617 L 527 619 L 531 619 Q 532 616 529 617 Z M 155 621 L 155 623 L 159 623 L 155 621 Z M 523 621 L 521 623 L 525 623 Q 526 620 523 621 Z M 161 625 L 161 627 L 165 627 L 161 625 Z M 517 625 L 515 627 L 519 627 Q 520 624 517 625 Z M 171 631 L 171 633 L 175 633 L 171 631 Z M 507 631 L 505 633 L 509 633 Q 510 630 507 631 Z M 213 651 L 213 653 L 217 653 L 213 651 Z M 465 651 L 463 653 L 467 653 Q 468 650 465 651 Z M 223 655 L 223 657 L 229 657 Q 228 654 223 655 Z M 453 655 L 451 657 L 457 657 Q 458 653 453 655 Z M 229 657 L 229 659 L 233 659 L 229 657 Z M 447 657 L 445 659 L 451 659 Q 452 655 447 657 Z M 441 659 L 439 661 L 445 661 Q 446 657 441 659 Z M 241 661 L 241 663 L 247 663 Q 246 660 241 661 Z M 435 661 L 433 663 L 439 663 Q 440 659 435 661 Z M 247 663 L 247 665 L 255 665 L 254 663 L 247 663 Z M 427 663 L 425 665 L 433 665 Q 434 662 427 663 Z M 255 665 L 255 667 L 263 667 Q 261 663 255 665 Z M 419 665 L 417 667 L 425 667 Q 426 664 419 665 Z M 263 667 L 263 669 L 271 669 L 270 667 L 263 667 Z M 411 667 L 409 669 L 417 669 Q 418 665 411 667 Z M 271 669 L 271 671 L 281 671 L 280 669 L 271 669 Z M 401 669 L 399 671 L 409 671 L 409 669 L 401 669 Z M 281 671 L 281 673 L 295 673 L 294 671 L 281 671 Z M 387 671 L 385 673 L 399 673 L 399 671 L 387 671 Z M 295 673 L 295 675 L 313 675 L 312 673 L 295 673 Z M 369 673 L 367 675 L 385 675 L 385 673 L 369 673 Z "/>
  <path fill="rgb(0,0,0)" stroke="rgb(0,0,0)" stroke-width="1" opacity="0" d="M 455 237 Q 458 235.8 457 239.5 L 455 238.5 L 455 237 Z "/>
  <path fill="rgb(0,0,0)" stroke="rgb(0,0,0)" stroke-width="1" opacity="0" d="M 455 241 Q 458 240 457 243 Q 454 244 455 241 Z "/>
  <path fill="rgb(0,0,0)" stroke="rgb(0,0,0)" stroke-width="1" opacity="0" d="M 458.5 244 L 459 255.5 L 457 254.5 L 457 245.5 L 458.5 244 Z "/>
  <path fill="rgb(0,0,0)" stroke="rgb(0,0,0)" stroke-width="1" opacity="0" d="M 434 245 Q 438.1 243.7 437 247 Q 432.9 248.3 434 245 Z "/>
  <path fill="rgb(0,0,0)" stroke="rgb(0,0,0)" stroke-width="1" opacity="0" d="M 457 257 Q 460 256 459 259 Q 456 260 457 257 Z "/>
  <path fill="rgb(0,0,0)" stroke="rgb(0,0,0)" stroke-width="1" opacity="0" d="M 325 259 Q 328 258 327 261 Q 324 262 325 259 Z "/>
  <path fill="rgb(0,0,0)" stroke="rgb(0,0,0)" stroke-width="1" opacity="0" d="M 460.5 260 L 461 269.5 L 459 268.5 Q 457.3 261.8 460.5 260 Z "/>
  <path fill="rgb(0,0,0)" stroke="rgb(0,0,0)" stroke-width="1" opacity="0" d="M 328.5 262 L 329 267.5 L 327 266.5 Q 326.3 262.8 328.5 262 Z "/>
  <path fill="rgb(0,0,0)" stroke="rgb(0,0,0)" stroke-width="1" opacity="0" d="M 247 269 Q 250 268 249 271 Q 246 272 247 269 Z "/>
  <path fill="rgb(0,0,0)" stroke="rgb(0,0,0)" stroke-width="1" opacity="0" d="M 325 269 Q 328 268 327 271 Q 324 272 325 269 Z "/>
  <path fill="rgb(0,0,0)" stroke="rgb(0,0,0)" stroke-width="1" opacity="0" d="M 457 271 Q 460 270 459 273 Q 456 274 457 271 Z "/>
  <path fill="rgb(0,0,0)" stroke="rgb(0,0,0)" stroke-width="1" opacity="0" d="M 249 273 Q 252 272 251 275 Q 248 276 249 273 Z "/>
  <path fill="rgb(0,0,0)" stroke="rgb(0,0,0)" stroke-width="1" opacity="0" d="M 458.5 274 L 459 285.5 L 457 284.5 L 457 275.5 L 458.5 274 Z "/>
  <path fill="rgb(0,0,0)" stroke="rgb(0,0,0)" stroke-width="1" opacity="0" d="M 323 275 Q 326 274 325 277 Q 322 278 323 275 Z "/>
  <path fill="rgb(0,0,0)" stroke="rgb(0,0,0)" stroke-width="1" opacity="0" d="M 251 279 Q 254 278 253 281 Q 250 282 251 279 Z "/>
  <path fill="rgb(0,0,0)" stroke="rgb(0,0,0)" stroke-width="1" opacity="0" d="M 323 281 Q 326 280 325 283 Q 322 284 323 281 Z "/>
  <path fill="rgb(0,0,0)" stroke="rgb(0,0,0)" stroke-width="1" opacity="0" d="M 253 283 Q 256 282 255 285 Q 252 286 253 283 Z "/>
  <path fill="rgb(0,0,0)" stroke="rgb(0,0,0)" stroke-width="1" opacity="0" d="M 363 283 Q 366 282 365 285 Q 362 286 363 283 Z "/>
  <path fill="rgb(0,0,0)" stroke="rgb(0,0,0)" stroke-width="1" opacity="0" d="M 455 287 Q 458 286 457 289 Q 454 290 455 287 Z "/>
  <path fill="rgb(0,0,0)" stroke="rgb(0,0,0)" stroke-width="1" opacity="0" d="M 255 289 Q 258 288 257 291 Q 254 292 255 289 Z "/>
  <path fill="rgb(0,0,0)" stroke="rgb(0,0,0)" stroke-width="1" opacity="0" d="M 456.5 290 L 457 293.5 L 455 292.5 L 456.5 290 Z "/>
  <path fill="rgb(0,0,0)" stroke="rgb(0,0,0)" stroke-width="1" opacity="0" d="M 255.5 292 L 257 294.5 L 255 295.5 L 255.5 292 Z "/>
  <path fill="rgb(0,0,0)" stroke="rgb(0,0,0)" stroke-width="1" opacity="0" d="M 453 295 Q 456 294 455 297 Q 452 298 453 295 Z "/>
  <path fill="rgb(0,0,0)" stroke="rgb(0,0,0)" stroke-width="1" opacity="0" d="M 257 297 Q 260 296 259 299 Q 256 300 257 297 Z "/>
  <path fill="rgb(0,0,0)" stroke="rgb(0,0,0)" stroke-width="1" opacity="0" d="M 257.5 300 L 259 302.5 L 257 303.5 L 257.5 300 Z "/>
  <path fill="rgb(0,0,0)" stroke="rgb(0,0,0)" stroke-width="1" opacity="0" d="M 451 301 Q 454 300 453 303 Q 450 304 451 301 Z "/>
  <path fill="rgb(0,0,0)" stroke="rgb(0,0,0)" stroke-width="1" opacity="0" d="M 259 305 Q 262 304 261 307 Q 258 308 259 305 Z "/>
  <path fill="rgb(0,0,0)" stroke="rgb(0,0,0)" stroke-width="1" opacity="0" d="M 449 305 Q 452 304 451 307 Q 448 308 449 305 Z "/>
  <path fill="rgb(0,0,0)" stroke="rgb(0,0,0)" stroke-width="1" opacity="0" d="M 259.5 308 Q 262.8 309.8 261 316.5 L 259 317.5 L 259.5 308 Z "/>
  <path fill="rgb(0,0,0)" stroke="rgb(0,0,0)" stroke-width="1" opacity="0" d="M 447 309 Q 450 308 449 311 Q 446 312 447 309 Z "/>
  <path fill="rgb(0,0,0)" stroke="rgb(0,0,0)" stroke-width="1" opacity="0" d="M 445 313 Q 448 312 447 315 Q 444 316 445 313 Z "/>
  <path fill="rgb(0,0,0)" stroke="rgb(0,0,0)" stroke-width="1" opacity="0" d="M 261 319 Q 264 318 263 321 Q 260 322 261 319 Z "/>
  <path fill="rgb(0,0,0)" stroke="rgb(0,0,0)" stroke-width="1" opacity="0" d="M 335 329 L 348.5 329 L 349 331 L 335.5 331 L 335 329 Z "/>
  <path fill="rgb(0,0,0)" stroke="rgb(0,0,0)" stroke-width="1" opacity="0" d="M 331 331 Q 334.4 330.3 335.5 333 L 348.5 333 L 352.5 331 L 359 339 L 355 337 Q 353.8 342.1 357 343.5 L 357 354.5 L 351 362.5 L 355 363 Q 354 360 357 361 L 354.5 365 L 348.5 363 L 347.5 365 Q 352.3 363.7 351 367 Q 347.6 367.8 346.5 365 L 339.5 365 Q 338.4 367.7 335 367 Q 333.7 363.7 338.5 365 L 337.5 363 L 331.5 365 L 325 357 L 329 359 Q 329.8 355.6 327 354.5 L 327 350.5 L 325 348.5 L 325 343.5 L 331 335.5 L 327 335 Q 328 338 325 337 L 327.5 333 L 333.5 335 L 334.5 333 Q 329.7 334.3 331 331 Z M 350 333 L 351 335 L 354 334 L 350 333 Z M 353 335 L 353 337 L 356 336 L 353 335 Z M 330 359 L 328 361 L 331 361 Q 332 358 330 359 Z M 332 361 L 331 363 L 335 363 L 332 361 Z "/>
  <path fill="rgb(0,0,0)" stroke="rgb(0,0,0)" stroke-width="1" opacity="0" d="M 405 331 L 418.5 331 L 419 333 L 405.5 333 L 405 331 Z "/>
  <path fill="rgb(0,0,0)" stroke="rgb(0,0,0)" stroke-width="1" opacity="0" d="M 323 339 Q 326 338 325 341 Q 322 342 323 339 Z "/>
  <path fill="rgb(0,0,0)" stroke="rgb(0,0,0)" stroke-width="1" opacity="0" d="M 291 341 Q 294 340 293 343 Q 290 344 291 341 Z "/>
  <path fill="rgb(0,0,0)" stroke="rgb(0,0,0)" stroke-width="1" opacity="0" d="M 321 343 Q 324 342 323 345 Q 320 346 321 343 Z "/>
  <path fill="rgb(0,0,0)" stroke="rgb(0,0,0)" stroke-width="1" opacity="0" d="M 359 343 Q 362 342 361 345 Q 358 346 359 343 Z "/>
  <path fill="rgb(0,0,0)" stroke="rgb(0,0,0)" stroke-width="1" opacity="0" d="M 393 343 Q 396 342 395 345 Q 392 346 393 343 Z "/>
  <path fill="rgb(0,0,0)" stroke="rgb(0,0,0)" stroke-width="1" opacity="0" d="M 359.5 346 Q 361.8 346.8 361 350.5 L 359 351.5 L 359.5 346 Z "/>
  <path fill="rgb(0,0,0)" stroke="rgb(0,0,0)" stroke-width="1" opacity="0" d="M 291 347 Q 294 346 293 349 Q 290 350 291 347 Z "/>
  <path fill="rgb(0,0,0)" stroke="rgb(0,0,0)" stroke-width="1" opacity="0" d="M 321 347 Q 324 346 323 349 Q 320 350 321 347 Z "/>
  <path fill="rgb(0,0,0)" stroke="rgb(0,0,0)" stroke-width="1" opacity="0" d="M 391 349 Q 394 348 393 351 Q 390 352 391 349 Z "/>
  <path fill="rgb(0,0,0)" stroke="rgb(0,0,0)" stroke-width="1" opacity="0" d="M 289 351 Q 292 350 291 353 Q 288 354 289 351 Z "/>
  <path fill="rgb(0,0,0)" stroke="rgb(0,0,0)" stroke-width="1" opacity="0" d="M 323 353 Q 326 352 325 355 Q 322 356 323 353 Z "/>
  <path fill="rgb(0,0,0)" stroke="rgb(0,0,0)" stroke-width="1" opacity="0" d="M 359 353 Q 362 352 361 355 Q 358 356 359 353 Z "/>
  <path fill="rgb(0,0,0)" stroke="rgb(0,0,0)" stroke-width="1" opacity="0" d="M 391 355 Q 394 354 393 357 Q 390 358 391 355 Z "/>
  <path fill="rgb(0,0,0)" stroke="rgb(0,0,0)" stroke-width="1" opacity="0" d="M 357 357 Q 360 356 359 359 Q 356 360 357 357 Z "/>
  <path fill="rgb(0,0,0)" stroke="rgb(0,0,0)" stroke-width="1" opacity="0" d="M 339 367 L 346.5 367 L 347 369 L 339.5 369 L 339 367 Z "/>
  <path fill="rgb(0,0,0)" stroke="rgb(0,0,0)" stroke-width="1" opacity="0" d="M 237 379 Q 240 378 239 381 Q 236 382 237 379 Z "/>
  <path fill="rgb(0,0,0)" stroke="rgb(0,0,0)" stroke-width="1" opacity="0" d="M 235 383 Q 238 382 237 385 Q 234 386 235 383 Z "/>
  <path fill="rgb(0,0,0)" stroke="rgb(0,0,0)" stroke-width="1" opacity="0" d="M 421 385 Q 424 384 423 387 Q 420 388 421 385 Z "/>
  <path fill="rgb(0,0,0)" stroke="rgb(0,0,0)" stroke-width="1" opacity="0" d="M 233 387 Q 236 386 235 389 Q 232 390 233 387 Z "/>
  <path fill="rgb(0,0,0)" stroke="rgb(0,0,0)" stroke-width="1" opacity="0" d="M 424.5 388 L 425 393.5 L 423 392.5 Q 422.3 388.8 424.5 388 Z "/>
  <path fill="rgb(0,0,0)" stroke="rgb(0,0,0)" stroke-width="1" opacity="0" d="M 231 391 Q 234 390 233 393 Q 230 394 231 391 Z "/>
  <path fill="rgb(0,0,0)" stroke="rgb(0,0,0)" stroke-width="1" opacity="0" d="M 423 395 Q 426 394 425 397 Q 422 398 423 395 Z "/>
  <path fill="rgb(0,0,0)" stroke="rgb(0,0,0)" stroke-width="1" opacity="0" d="M 229 397 Q 232 396 231 399 Q 228 400 229 397 Z "/>
  <path fill="rgb(0,0,0)" stroke="rgb(0,0,0)" stroke-width="1" opacity="0" d="M 426.5 398 L 427 401.5 L 425 400.5 L 426.5 398 Z "/>
  <path fill="rgb(0,0,0)" stroke="rgb(0,0,0)" stroke-width="1" opacity="0" d="M 331 399 L 344.5 399 L 345 401 L 331.5 401 L 331 399 Z "/>
  <path fill="rgb(0,0,0)" stroke="rgb(0,0,0)" stroke-width="1" opacity="0" d="M 227 403 Q 230 402 229 405 Q 226 406 227 403 Z "/>
  <path fill="rgb(0,0,0)" stroke="rgb(0,0,0)" stroke-width="1" opacity="0" d="M 425 403 Q 428 402 427 405 Q 424 406 425 403 Z "/>
  <path fill="rgb(0,0,0)" stroke="rgb(0,0,0)" stroke-width="1" opacity="0" d="M 225.5 406 Q 227.8 406.8 227 410.5 L 225 411.5 L 225.5 406 Z "/>
  <path fill="rgb(0,0,0)" stroke="rgb(0,0,0)" stroke-width="1" opacity="0" d="M 427 409 Q 430 408 429 411 Q 426 412 427 409 Z "/>
  <path fill="rgb(0,0,0)" stroke="rgb(0,0,0)" stroke-width="1" opacity="0" d="M 319 411 Q 322 410 321 413 Q 318 414 319 411 Z "/>
  <path fill="rgb(0,0,0)" stroke="rgb(0,0,0)" stroke-width="1" opacity="0" d="M 357 411 Q 360 410 359 413 Q 356 414 357 411 Z "/>
  <path fill="rgb(0,0,0)" stroke="rgb(0,0,0)" stroke-width="1" opacity="0" d="M 225 413 Q 228 412 227 415 Q 224 416 225 413 Z "/>
  <path fill="rgb(0,0,0)" stroke="rgb(0,0,0)" stroke-width="1" opacity="0" d="M 357.5 414 Q 360.3 415.3 359 420.5 L 357 421.5 L 357.5 414 Z "/>
  <path fill="rgb(0,0,0)" stroke="rgb(0,0,0)" stroke-width="1" opacity="0" d="M 429 415 Q 432 414 431 417 Q 428 418 429 415 Z "/>
  <path fill="rgb(0,0,0)" stroke="rgb(0,0,0)" stroke-width="1" opacity="0" d="M 223.5 416 L 225 417.5 L 225 444.5 L 223 445.5 L 223.5 416 Z "/>
  <path fill="rgb(0,0,0)" stroke="rgb(0,0,0)" stroke-width="1" opacity="0" d="M 431 419 Q 434 418 433 421 Q 430 422 431 419 Z "/>
  <path fill="rgb(0,0,0)" stroke="rgb(0,0,0)" stroke-width="1" opacity="0" d="M 433 423 Q 436 422 435 425 Q 432 426 433 423 Z "/>
  <path fill="rgb(0,0,0)" stroke="rgb(0,0,0)" stroke-width="1" opacity="0" d="M 353 429 Q 356.3 427.7 355 432.5 L 353 433.5 L 353 429 Z "/>
  <path fill="rgb(0,0,0)" stroke="rgb(0,0,0)" stroke-width="1" opacity="0" d="M 439 433 Q 442 432 441 435 Q 438 436 439 433 Z "/>
  <path fill="rgb(0,0,0)" stroke="rgb(0,0,0)" stroke-width="1" opacity="0" d="M 355 435 Q 358 434 357 437 Q 354 438 355 435 Z "/>
  <path fill="rgb(0,0,0)" stroke="rgb(0,0,0)" stroke-width="1" opacity="0" d="M 225 447 Q 228 446 227 449 Q 224 450 225 447 Z "/>
  <path fill="rgb(0,0,0)" stroke="rgb(0,0,0)" stroke-width="1" opacity="0" d="M 225.5 450 L 227 452.5 L 225 453.5 L 225.5 450 Z "/>
  <path fill="rgb(0,0,0)" stroke="rgb(0,0,0)" stroke-width="1" opacity="0" d="M 227 455 Q 230 454 229 457 Q 226 458 227 455 Z "/>
  <path fill="rgb(255,255,255)" stroke="rgb(255,255,255)" stroke-width="1" opacity="0.21176470588235294" d="M 309 0 Q 312.3 -1.1 311 3 Q 307.7 4.1 309 0 Z "/>
  <path fill="rgb(255,255,255)" stroke="rgb(255,255,255)" stroke-width="1" opacity="0.21176470588235294" d="M 369 0 Q 372.3 -1.1 371 3 Q 367.7 4.1 369 0 Z "/>
  <path fill="rgb(255,255,255)" stroke="rgb(255,255,255)" stroke-width="1" opacity="0.21176470588235294" d="M 291 5 L 307 5.5 L 305.5 7 L 291.5 7 L 289.5 9 L 279.5 9 Q 277.5 13 269.5 11 L 267.5 13 L 261.5 13 Q 260 16.5 253.5 15 L 251.5 17 L 245.5 17 L 243.5 19 L 239.5 19 L 237.5 21 L 233.5 21 L 225.5 25 L 221 25 L 221 23 L 227 23 L 227 21 L 233 21 L 233 19 L 239 19 L 239 17 L 245 17 L 245.5 15 L 252.5 15 L 253.5 13 L 260.5 13 L 261.5 11 L 269 11 L 269.5 9 L 278.5 9 L 279.5 7 L 290.5 7 L 291 5 Z "/>
  <path fill="rgb(255,255,255)" stroke="rgb(255,255,255)" stroke-width="1" opacity="0.21176470588235294" d="M 373.5 5 L 388.5 5 L 389.5 7 L 400.5 7 L 401.5 9 L 410.5 9 L 411.5 11 L 418.5 11 L 419.5 13 L 426.5 13 L 427.5 15 L 435 15 L 435 17 L 441 17 L 441 19 L 447 19 L 447 21 L 453 21 L 453 23 L 448.5 23 L 446.5 21 L 442.5 21 L 434.5 17 L 428.5 17 L 426.5 15 L 420.5 15 Q 419 11.5 412.5 13 L 410.5 11 Q 402.5 13 400.5 9 L 390.5 9 L 388.5 7 L 374.5 7 L 373.5 5 Z "/>
  <path fill="rgb(255,255,255)" stroke="rgb(255,255,255)" stroke-width="1" opacity="0.21176470588235294" d="M 459.5 25 Q 464.3 23.7 463 27 Q 459.2 27.8 459.5 25 Z "/>
  <path fill="rgb(255,255,255)" stroke="rgb(255,255,255)" stroke-width="1" opacity="0.21176470588235294" d="M 207 29 L 211 29.5 L 207 31 L 207 29 Z "/>
  <path fill="rgb(255,255,255)" stroke="rgb(255,255,255)" stroke-width="1" opacity="0.21176470588235294" d="M 473.5 31 Q 478.3 29.7 477 33 Q 473.2 33.8 473.5 31 Z "/>
  <path fill="rgb(255,255,255)" stroke="rgb(255,255,255)" stroke-width="1" opacity="0.21176470588235294" d="M 177 43 L 181 43.5 L 177 45 L 177 43 Z "/>
  <path fill="rgb(255,255,255)" stroke="rgb(255,255,255)" stroke-width="1" opacity="0.21176470588235294" d="M 499.5 43 Q 504.3 41.7 503 45 Q 499.2 45.8 499.5 43 Z "/>
  <path fill="rgb(255,255,255)" stroke="rgb(255,255,255)" stroke-width="1" opacity="0.21176470588235294" d="M 509.5 49 Q 514.3 47.7 513 51 Q 509.2 51.8 509.5 49 Z "/>
  <path fill="rgb(255,255,255)" stroke="rgb(255,255,255)" stroke-width="1" opacity="0.21176470588235294" d="M 163 51 L 167 51.5 L 163 53 L 163 51 Z "/>
  <path fill="rgb(255,255,255)" stroke="rgb(255,255,255)" stroke-width="1" opacity="0.21176470588235294" d="M 157 55 L 161 55.5 L 157 57 L 157 55 Z "/>
  <path fill="rgb(255,255,255)" stroke="rgb(255,255,255)" stroke-width="1" opacity="0.21176470588235294" d="M 519.5 55 Q 524.3 53.7 523 57 Q 519.2 57.8 519.5 55 Z "/>
  <path fill="rgb(255,255,255)" stroke="rgb(255,255,255)" stroke-width="1" opacity="0.21176470588235294" d="M 151 59 L 155 59.5 L 151 61 L 151 59 Z "/>
  <path fill="rgb(255,255,255)" stroke="rgb(255,255,255)" stroke-width="1" opacity="0.21176470588235294" d="M 525.5 59 Q 530.3 57.7 529 61 Q 525.2 61.8 525.5 59 Z "/>
  <path fill="rgb(255,255,255)" stroke="rgb(255,255,255)" stroke-width="1" opacity="0.21176470588235294" d="M 144.5 63 L 149 63.5 L 145 65 Q 146 68 143 67 Q 141.9 64.3 144.5 65 L 144.5 63 Z "/>
  <path fill="rgb(255,255,255)" stroke="rgb(255,255,255)" stroke-width="1" opacity="0.21176470588235294" d="M 531.5 63 L 536 63.5 L 535.5 65 Q 538.1 64.3 537 67 Q 534 68 535 65 L 532.5 65 L 531.5 63 Z "/>
  <path fill="rgb(255,255,255)" stroke="rgb(255,255,255)" stroke-width="1" opacity="0.21176470588235294" d="M 136.5 69 L 141 69.5 L 137 71 Q 138 74 135 73 Q 133.9 70.3 136.5 71 L 136.5 69 Z "/>
  <path fill="rgb(255,255,255)" stroke="rgb(255,255,255)" stroke-width="1" opacity="0.21176470588235294" d="M 539.5 69 L 544 69.5 L 543.5 71 Q 546.1 70.3 545 73 Q 542 74 543 71 L 540.5 71 L 539.5 69 Z "/>
  <path fill="rgb(255,255,255)" stroke="rgb(255,255,255)" stroke-width="1" opacity="0.21176470588235294" d="M 128.5 75 L 133 75.5 L 129 77 L 129 79 L 125 81 Q 123.9 78.3 126.5 79 L 126.5 77 L 129 76.5 L 128.5 75 Z "/>
  <path fill="rgb(255,255,255)" stroke="rgb(255,255,255)" stroke-width="1" opacity="0.21176470588235294" d="M 547.5 75 L 552 75.5 L 551.5 77 L 554 77.5 L 553.5 79 L 556 79.5 L 555.5 81 Q 558.1 80.3 557 83 L 555 83 L 555 81 L 553 81 L 551 77 L 548.5 77 L 547.5 75 Z "/>
  <path fill="rgb(255,255,255)" stroke="rgb(255,255,255)" stroke-width="1" opacity="0.21176470588235294" d="M 118.5 83 L 123 83.5 L 119 85 L 119 87 L 117 87 L 117 89 L 115 89 L 115 91 L 113 91 L 113 93 L 111 93 L 111 95 L 109 95 L 109 97 L 107 97 L 107 99 L 105 99 L 105 101 L 103 101 L 103 103 L 101 103 L 101 105 L 99 105 L 99 107 L 97 107 L 97 109 L 95 109 L 95 111 L 93 111 L 93 113 L 91 113 L 91 115 L 89 115 L 89 117 L 87 117 Q 88.1 119.7 85.5 119 L 84.5 117 L 87 116.5 L 86.5 115 L 89 114.5 L 88.5 113 L 91 112.5 L 90.5 111 L 93 110.5 L 92.5 109 L 95 108.5 L 94.5 107 L 97 106.5 L 96.5 105 L 99 104.5 L 98.5 103 L 101 102.5 L 100.5 101 L 103 100.5 L 102.5 99 L 105 98.5 L 104.5 97 L 107 96.5 L 106.5 95 L 109 94.5 L 108.5 93 L 111 92.5 L 110.5 91 L 113 90.5 L 112.5 89 L 115 88.5 L 114.5 87 L 117 86.5 L 116.5 85 L 119 84.5 L 118.5 83 Z "/>
  <path fill="rgb(255,255,255)" stroke="rgb(255,255,255)" stroke-width="1" opacity="0.21176470588235294" d="M 559.5 85 L 564 85.5 L 563.5 87 L 566 87.5 L 565.5 89 L 568 89.5 L 567.5 91 L 570 91.5 L 569.5 93 L 572 93.5 L 571.5 95 L 574 95.5 L 573.5 97 L 576 97.5 L 575.5 99 L 578 99.5 L 577.5 101 L 580 101.5 L 579.5 103 L 582 103.5 L 581.5 105 L 584 105.5 L 583.5 107 L 586 107.5 L 585.5 109 L 588 109.5 L 587.5 111 L 590 111.5 L 589.5 113 L 592 113.5 L 591.5 115 L 594 115.5 L 591 117 L 591 115 L 589 115 L 589 113 L 587 113 L 587 111 L 585 111 L 585 109 L 583 109 L 583 107 L 581 107 L 581 105 L 579 105 L 579 103 L 577 103 L 577 101 L 575 101 L 575 99 L 573 99 L 573 97 L 571 97 L 571 95 L 569 95 L 569 93 L 567 93 L 567 91 L 563 89 L 563 87 L 560.5 87 L 559.5 85 Z "/>
  <path fill="rgb(255,255,255)" stroke="rgb(255,255,255)" stroke-width="1" opacity="0.21176470588235294" d="M 597 123 L 600 123.5 L 599.5 125 L 602 125.5 L 601.5 127 L 604 127.5 L 601 129 L 601 127 L 599 127 L 597 123 Z "/>
  <path fill="rgb(255,255,255)" stroke="rgb(255,255,255)" stroke-width="1" opacity="0.21176470588235294" d="M 78.5 125 Q 82.3 124 81 127 L 79 127 Q 80.1 129.7 77.5 129 L 76.5 127 L 79 126.5 L 78.5 125 Z "/>
  <path fill="rgb(255,255,255)" stroke="rgb(255,255,255)" stroke-width="1" opacity="0.21176470588235294" d="M 70.5 135 Q 74.3 134 73 137 L 70.5 135 Z "/>
  <path fill="rgb(255,255,255)" stroke="rgb(255,255,255)" stroke-width="1" opacity="0.21176470588235294" d="M 607 135 L 610 135.5 L 607 137 L 607 135 Z "/>
  <path fill="rgb(255,255,255)" stroke="rgb(255,255,255)" stroke-width="1" opacity="0.21176470588235294" d="M 64.5 143 Q 68.3 142 67 145 L 64.5 143 Z "/>
  <path fill="rgb(255,255,255)" stroke="rgb(255,255,255)" stroke-width="1" opacity="0.21176470588235294" d="M 617 149 L 620 149.5 L 617 151 L 617 149 Z "/>
  <path fill="rgb(255,255,255)" stroke="rgb(255,255,255)" stroke-width="1" opacity="0.21176470588235294" d="M 242.5 229 L 277.5 229 Q 279 232.5 285.5 231 L 287.5 233 L 297.5 235 L 309.5 241 L 313.5 245 L 315.5 245 L 321 249 L 321 251 L 323 251 L 323 253 L 325 253 L 325 255 Q 327.7 253.9 327 256.5 L 331 262.5 L 331 267.5 L 327 275.5 L 327 282.5 Q 330.3 284 329 289 Q 332 288 331 291 L 333.5 291 L 335.5 293 Q 342.2 291.8 344.5 295 L 346.5 293 L 352.5 293 Q 353.6 290.3 357 291 Q 356 288 359 289 L 359 286.5 L 361 284.5 L 361 270.5 L 362.5 269 L 363.5 282 L 365 280.5 L 365 269 L 372.5 269 L 374.5 267 L 386.5 267 L 388.5 265 L 396.5 265 L 398.5 263 L 404.5 263 Q 405.9 259.8 411 261 L 411 259 L 405 259 L 405 261 L 397.5 261 L 396.5 263 L 387.5 263 L 386.5 265 L 373.5 265 Q 374.3 268.4 365.5 267 L 366.5 265 Q 373 266.5 374.5 263 L 386.5 263 L 388.5 261 L 396.5 261 Q 398 257.5 404.5 259 L 416.5 253 L 420.5 253 L 424.5 251 L 433 244.5 Q 432.3 241.9 435 243 L 435 241 L 437 241 L 437 239 L 439 239 L 439 236.5 L 442.5 235 Q 447 236 448 233.5 L 443 232.5 L 448.5 229 L 451.5 229 L 457 233 L 459 236.5 L 459 242.5 L 461 244.5 L 461 258.5 L 463 260.5 L 463 269.5 L 461 271.5 L 461 285.5 Q 457.5 287 459 293.5 L 457 295.5 L 457 299.5 L 447 319 Q 444 317.8 445 321.5 L 443 325 L 441 325 L 441 327 L 439 327 L 439 329 L 437 329 L 437 331 L 435 331 L 435 333 L 433 333 Q 434.1 335.7 431.5 335 L 427.5 339 L 424.5 339 L 418.5 335 L 405.5 335 Q 404.4 337.8 401 337 Q 402 340 399 339 L 399 341.5 L 395 349.5 L 395 356.5 Q 398.3 357.9 397 363 Q 400 362 399 365 L 401.5 365 L 403.5 367 L 419.5 367 L 421 368.5 L 403 369 L 403.5 371 L 421 371 L 421 382.5 L 423 383.5 L 423.5 371 L 425 372.5 L 425 386.5 L 427 388.5 L 427 396.5 Q 430.5 398 429 404.5 L 431 406.5 L 433 416.5 L 439 426.5 L 439 429 Q 441.7 427.9 441 430.5 L 445 436.5 L 445 439 L 447 439 L 447 441 Q 449.7 439.9 449 442.5 Q 451.8 443.6 451 447 L 453 447 L 453 449 L 455 449 L 455 451 Q 457.7 449.9 457 452.5 Q 460.3 453.8 459 459.5 L 457 460.5 Q 459 453.6 455 455 L 455 461 L 447.5 461 L 445.5 463 Q 437.5 461 435.5 465 L 412.5 465 L 410.5 463 L 400.5 463 L 398.5 461 L 394.5 461 L 392.5 459 L 388.5 459 L 384.5 457 L 383.5 459 Q 388.5 458 387.5 461 L 393 461 L 393.5 463 L 399 463 L 399.5 465 L 410.5 465 L 411.5 467 L 437 467 L 437.5 465 L 446.5 465 Q 445.7 461.6 454.5 463 L 453.5 465 Q 447 463.5 445.5 467 L 437.5 467 L 435.5 469 L 412.5 469 L 410.5 467 L 400.5 467 L 398.5 465 L 388.5 463 L 372.5 455 L 368.5 451 L 366.5 451 L 361 447 L 361 445 L 359 445 L 359 443 L 357 443 L 357 441 Q 354.3 442.1 355 439.5 L 351 433.5 L 351 428.5 L 353 425 L 355 424.5 L 355 411.5 Q 352.3 410.4 353 407 L 350.5 407 L 344.5 403 L 331.5 403 Q 330.4 405.8 327 405 Q 328 408 325 407 L 325 409.5 L 323 411.5 L 323 427.5 L 321.5 429 L 320.5 414 L 319 415.5 L 319 429 L 301.5 429 L 299.5 431 L 289.5 431 L 287.5 433 L 281.5 433 L 273.5 437 L 269 437 L 269 439 L 275 439 L 275 437 L 281 437 L 281.5 435 L 288.5 435 L 289.5 433 L 300.5 433 L 301.5 431 L 318.5 431 L 317.5 433 L 301.5 433 L 299.5 435 L 289.5 435 Q 288 438.5 281.5 437 L 279.5 439 L 269.5 441 L 253.5 449 L 249.5 453 L 247 453 L 245 459 L 243 459 L 243 461 L 241 461 Q 242.1 463.7 239.5 463 L 235.5 467 L 232.5 467 L 227 463 L 225 459.5 L 225 455.5 L 223 453.5 L 223 447.5 L 221 445.5 L 221 416.5 L 223 414.5 L 223 406.5 L 225 404.5 L 227 394.5 L 237 375 L 239 375 L 239 373 L 243 371 L 243 368.5 L 245 365 L 254.5 359 L 259.5 359 L 267.5 363 L 272.5 363 L 274.5 361 L 278.5 361 Q 279.6 358.3 283 359 Q 282 356 285 357 L 285 354.5 L 289 348.5 L 289 341.5 Q 285.7 340.1 287 335 Q 284.3 336.1 285 333.5 L 282.5 331 Q 277.5 332 276.5 329 L 269.5 329 Q 268.8 331.8 264.5 331 L 263.5 329 L 269 328.5 Q 267.6 325.8 263 327 Q 264 323.2 261.5 322 L 260.5 327 Q 257.5 325.5 259 319.5 L 257 317.5 L 257 305.5 L 255 303.5 L 255 297.5 Q 251.5 296 253 289.5 L 251 287.5 L 251 283.5 L 247 277.5 L 247 273.5 L 243 267.5 L 243 265 Q 240.3 266.1 241 263.5 Q 238.3 262.4 239 259 L 237 259 L 237 257 L 235 257 L 235 255 L 233 255 L 233 253 L 231 253 L 231 251 L 229 251 L 229 249 L 227 249 L 227 247 L 225 247 L 225 245 L 221 243 L 221 239 L 225 241 Q 223.7 237.7 228.5 239 L 230.5 237 L 234.5 237 L 242.5 233 L 277.5 233 L 279.5 235 L 285.5 235 L 287.5 237 L 291.5 237 L 293.5 239 L 297.5 239 L 301.5 241 L 302.5 239 Q 297.5 240 298.5 237 L 293 237 L 292.5 235 L 287 235 L 286.5 233 L 279 233 L 278.5 231 L 241 231 L 241 233 L 235.5 233 L 235 235 L 229.5 235 Q 230.5 238 225.5 237 L 226.5 235 L 230.5 233 L 234.5 233 L 236.5 231 L 240.5 231 L 242.5 229 Z M 448 231 L 449 233 Q 452 234 453 232 L 448 231 Z M 453 233 L 455 235 Q 456 232 453 233 Z M 244 234 L 242 236 L 238 236 L 236 238 L 232 238 Q 230 241 226 240 Q 225 243 228 242 L 244 259 L 244 262 L 248 265 L 248 268 Q 251 267 250 272 L 252 272 L 252 278 Q 256 277 254 282 L 256 282 L 256 288 L 258 289 Q 257 297 260 297 L 260 304 L 262 305 L 262 318 L 264 318 Q 262 324 266 326 L 269 324 L 278 324 Q 279 328 286 326 Q 289 327 288 332 L 292 335 Q 290 341 294 340 L 294 350 Q 291 349 292 354 L 290 354 L 290 358 L 284 364 Q 279 363 280 366 Q 275 365 274 368 L 267 368 L 259 364 Q 254 363 254 366 L 250 366 Q 251 369 248 368 L 248 372 L 242 378 L 240 378 L 240 382 L 238 382 L 238 386 L 236 386 L 236 390 L 234 390 L 234 394 L 232 394 L 232 400 L 230 400 L 230 406 L 228 407 L 228 416 L 226 416 L 226 446 L 228 447 L 228 454 L 230 454 L 230 460 L 234 462 L 241 456 Q 244 457 242 453 Q 244 447 250 448 L 253 444 L 256 444 Q 255 441 260 442 L 260 440 L 264 440 L 264 438 L 268 438 L 268 436 L 273 436 L 281 432 L 287 432 L 289 430 L 299 430 L 301 428 L 318 428 L 318 411 L 320 410 L 320 407 L 327 400 Q 331 401 330 398 L 346 398 Q 345 401 350 400 L 350 402 Q 356 401 358 407 Q 357 412 360 411 L 360 426 L 356 428 L 356 434 L 358 434 L 358 438 L 360 438 L 366 446 Q 371 445 372 449 L 372 450 L 376 450 L 376 452 L 380 452 L 380 454 L 384 454 L 384 456 Q 388 455 390 458 L 394 458 L 396 460 L 400 460 L 402 462 L 412 462 L 414 464 L 435 464 L 437 462 L 445 462 L 447 460 L 454 460 L 454 455 L 453 454 L 446 448 L 446 444 L 440 440 L 440 437 Q 437 437 438 432 L 434 430 L 434 427 Q 431 427 432 422 L 430 422 L 430 418 L 428 418 L 428 412 L 426 412 L 426 406 L 424 406 L 424 398 L 422 398 L 422 389 L 420 388 L 420 372 L 403 372 L 402 370 L 399 370 L 392 364 Q 394 357 390 358 L 390 349 L 392 348 L 392 342 L 394 342 L 394 339 L 401 332 Q 405 333 404 330 L 420 330 L 420 332 Q 424 331 426 334 L 440 322 Q 439 317 443 316 L 444 316 L 444 312 L 446 312 L 446 308 L 448 308 L 448 304 L 450 304 L 450 300 L 452 300 L 452 294 L 454 294 L 454 287 L 456 286 L 456 271 L 458 270 L 458 261 L 456 260 L 456 245 L 454 244 L 454 236 L 451 234 Q 448 237 444 236 Q 445 242 440 244 L 438 244 L 438 248 L 434 248 L 434 250 Q 433 253 428 252 L 426 256 Q 421 255 422 258 Q 417 257 416 260 Q 411 259 412 262 Q 407 261 406 264 L 400 264 L 398 266 L 390 266 L 388 268 L 376 268 L 374 270 L 366 270 L 366 286 L 364 286 L 364 290 L 358 296 Q 353 295 354 298 L 346 298 L 346 300 Q 341 301 342 298 L 334 298 L 334 296 L 331 296 L 324 290 Q 326 283 322 284 L 322 275 L 324 274 L 324 268 L 326 268 L 326 262 L 324 262 L 324 258 L 323 258 L 316 250 Q 311 251 310 248 L 310 246 L 306 246 L 306 244 L 302 244 L 302 242 Q 298 243 297 240 L 293 240 L 291 238 L 287 238 L 285 236 L 279 236 L 277 234 L 244 234 Z M 441 237 L 441 239 L 439 240 Q 441 243 443 239 Q 444 236 441 237 Z M 455 237 L 455 239 L 457 240 Q 458 236 455 237 Z M 303 241 L 303 243 L 307 242 L 303 241 Z M 437 241 L 437 243 L 440 242 L 437 241 Z M 455 241 Q 454 244 457 243 Q 458 240 455 241 Z M 225 243 L 225 245 L 228 245 L 225 243 Z M 307 243 L 307 245 L 311 244 L 307 243 Z M 459 244 L 457 246 L 457 255 L 459 256 L 459 244 Z M 229 245 L 227 247 L 230 247 L 229 245 Z M 311 245 L 311 247 Q 312 250 316 249 L 317 247 L 313 247 Q 314 244 311 245 Z M 434 245 Q 433 248 437 247 Q 438 244 434 245 Z M 231 247 L 229 249 L 232 249 L 231 247 Z M 431 247 Q 432 250 428 249 L 429 251 Q 433 251 433 249 Q 434 246 431 247 Z M 233 249 L 231 251 L 234 251 L 233 249 Z M 317 249 L 320 253 L 321 251 Q 318 252 319 249 L 317 249 Z M 235 251 L 233 253 L 236 253 L 235 251 Z M 425 251 Q 426 254 422 253 L 423 255 Q 426 255 427 253 Q 428 250 425 251 Z M 237 253 L 235 255 L 238 255 L 237 253 Z M 321 253 Q 321 257 323 254 L 321 253 Z M 239 255 L 237 257 L 240 257 L 239 255 Z M 323 255 L 325 257 Q 326 254 323 255 Z M 415 255 Q 416 258 412 257 L 413 259 L 417 257 L 421 257 L 421 255 L 415 255 Z M 241 257 L 240 259 Q 242 258 241 261 L 243 261 L 241 257 Z M 457 257 Q 456 260 459 259 Q 460 256 457 257 Z M 325 259 Q 324 262 327 261 Q 328 258 325 259 Z M 461 260 Q 457 262 459 269 L 461 270 L 461 260 Z M 329 262 Q 326 263 327 267 L 329 268 L 329 262 Z M 243 263 L 245 267 Q 248 268 247 266 L 243 263 Z M 247 269 Q 246 272 249 271 Q 250 268 247 269 Z M 325 269 Q 324 272 327 271 Q 328 268 325 269 Z M 457 271 Q 456 274 459 273 Q 460 270 457 271 Z M 249 273 Q 248 276 251 275 Q 252 272 249 273 Z M 459 274 L 457 276 L 457 285 L 459 286 L 459 274 Z M 323 275 Q 322 278 325 277 Q 326 274 323 275 Z M 251 279 Q 250 282 253 281 Q 254 278 251 279 Z M 323 281 Q 322 284 325 283 Q 326 280 323 281 Z M 253 283 Q 252 286 255 285 Q 256 282 253 283 Z M 363 283 Q 362 286 365 285 Q 366 282 363 283 Z M 325 287 L 328 291 L 329 289 Q 326 290 327 287 L 325 287 Z M 361 287 L 361 289 L 359 290 Q 361 293 363 289 Q 364 286 361 287 Z M 455 287 Q 454 290 457 289 Q 458 286 455 287 Z M 255 289 Q 254 292 257 291 Q 258 288 255 289 Z M 457 290 L 455 293 L 457 294 L 457 290 Z M 329 291 Q 329 295 331 292 L 329 291 Z M 358 291 Q 358 295 360 292 L 358 291 Z M 256 292 L 255 296 L 257 295 L 256 292 Z M 331 293 L 332 295 L 335 294 L 331 293 Z M 354 293 L 355 295 L 358 294 L 354 293 Z M 335 295 L 336 297 L 343 297 L 343 295 L 335 295 Z M 345 295 L 346 297 L 353 297 L 353 295 L 345 295 Z M 453 295 Q 452 298 455 297 Q 456 294 453 295 Z M 257 297 Q 256 300 259 299 Q 260 296 257 297 Z M 343 297 Q 342 300 345 299 Q 346 296 343 297 Z M 258 300 L 257 304 L 259 303 L 258 300 Z M 451 301 Q 450 304 453 303 Q 454 300 451 301 Z M 259 305 Q 258 308 261 307 Q 262 304 259 305 Z M 449 305 Q 448 308 451 307 Q 452 304 449 305 Z M 260 308 L 259 318 L 261 317 Q 263 310 260 308 Z M 447 309 Q 446 312 449 311 Q 450 308 447 309 Z M 445 313 Q 444 316 447 315 Q 448 312 445 313 Z M 444 317 L 441 321 L 445 319 Q 446 316 444 317 Z M 261 319 Q 260 322 263 321 Q 264 318 261 319 Z M 440 323 L 438 325 L 441 325 Q 442 322 440 323 Z M 270 325 L 269 327 L 277 327 L 278 329 L 285 329 L 285 331 Q 288 332 287 330 L 285 327 Q 278 329 277 325 L 270 325 Z M 438 325 L 436 327 L 439 327 L 438 325 Z M 436 327 L 434 329 L 437 329 L 436 327 Z M 434 329 L 432 331 L 435 331 L 434 329 Z M 405 331 L 406 333 L 419 333 L 419 331 L 405 331 Z M 432 331 L 429 335 L 431 335 Q 430 332 433 333 L 432 331 Z M 287 333 L 289 337 Q 292 338 291 336 L 287 333 Z M 402 333 L 401 335 L 405 335 L 402 333 Z M 421 333 L 420 335 L 424 335 L 421 333 Z M 400 335 L 398 337 L 401 337 L 400 335 Z M 425 335 L 424 337 L 429 337 Q 428 334 425 335 Z M 398 337 L 395 341 L 397 341 Q 396 338 399 339 L 398 337 Z M 291 341 Q 290 344 293 343 Q 294 340 291 341 Z M 393 343 Q 392 346 395 345 Q 396 342 393 343 Z M 291 347 Q 290 350 293 349 Q 294 346 291 347 Z M 391 349 Q 390 352 393 351 Q 394 348 391 349 Z M 289 351 Q 288 354 291 353 Q 292 350 289 351 Z M 287 355 L 287 357 L 285 358 Q 287 361 289 357 Q 290 354 287 355 Z M 391 355 Q 390 358 393 357 Q 394 354 391 355 Z M 284 359 Q 284 363 286 360 L 284 359 Z M 253 361 Q 254 364 250 363 L 251 365 L 255 363 L 260 363 L 268 367 Q 273 368 275 365 Q 280 367 279 363 L 273 363 L 273 365 L 267 365 L 267 363 L 261 363 L 261 361 L 253 361 Z M 280 361 L 281 363 L 284 362 L 280 361 Z M 393 361 L 396 365 L 397 363 Q 394 364 395 361 L 393 361 Z M 247 365 Q 246 368 249 367 Q 250 364 247 365 Z M 397 365 Q 397 369 399 366 L 397 365 Z M 399 367 L 400 369 L 403 368 L 399 367 Z M 245 369 L 245 371 L 243 372 Q 245 375 247 371 Q 248 368 245 369 Z M 242 373 Q 242 377 244 374 L 242 373 Z M 239 375 L 239 377 L 242 376 L 239 375 Z M 237 379 Q 236 382 239 381 Q 240 378 237 379 Z M 235 383 Q 234 386 237 385 Q 238 382 235 383 Z M 421 385 Q 420 388 423 387 Q 424 384 421 385 Z M 233 387 Q 232 390 235 389 Q 236 386 233 387 Z M 425 388 Q 422 389 423 393 L 425 394 L 425 388 Z M 231 391 Q 230 394 233 393 Q 234 390 231 391 Z M 423 395 Q 422 398 425 397 Q 426 394 423 395 Z M 229 397 Q 228 400 231 399 Q 232 396 229 397 Z M 427 398 L 425 401 L 427 402 L 427 398 Z M 331 399 L 332 401 L 345 401 L 345 399 L 331 399 Z M 328 401 L 327 403 L 331 403 L 328 401 Z M 347 401 L 345 403 L 349 403 Q 350 400 347 401 Z M 227 403 Q 226 406 229 405 Q 230 402 227 403 Z M 326 403 L 324 405 L 327 405 L 326 403 Z M 351 403 L 350 405 L 354 405 L 351 403 Z M 425 403 Q 424 406 427 405 Q 428 402 425 403 Z M 324 405 L 321 409 L 323 409 Q 322 406 325 407 L 324 405 Z M 355 405 L 354 407 Q 356 406 355 409 L 357 409 L 355 405 Z M 226 406 L 225 412 L 227 411 Q 228 407 226 406 Z M 427 409 Q 426 412 429 411 Q 430 408 427 409 Z M 319 411 Q 318 414 321 413 Q 322 410 319 411 Z M 357 411 Q 356 414 359 413 Q 360 410 357 411 Z M 225 413 Q 224 416 227 415 Q 228 412 225 413 Z M 358 414 L 357 422 L 359 421 Q 360 415 358 414 Z M 429 415 Q 428 418 431 417 Q 432 414 429 415 Z M 224 416 L 223 446 L 225 445 L 225 418 L 224 416 Z M 431 419 Q 430 422 433 421 Q 434 418 431 419 Z M 357 423 L 355 427 L 359 425 Q 360 422 357 423 Z M 433 423 Q 432 426 435 425 Q 436 422 433 423 Z M 435 427 L 435 429 L 439 431 L 437 427 L 435 427 Z M 353 429 L 353 434 L 355 433 Q 356 428 353 429 Z M 439 433 Q 438 436 441 435 Q 442 432 439 433 Z M 355 435 Q 354 438 357 437 Q 358 434 355 435 Z M 441 437 L 444 441 L 445 439 Q 442 440 443 437 L 441 437 Z M 265 439 L 265 441 L 269 441 L 265 439 Z M 357 439 L 357 441 L 360 441 L 357 439 Z M 261 441 L 261 443 L 265 443 L 261 441 Z M 361 441 L 359 443 L 362 443 L 361 441 Z M 445 441 L 447 443 Q 448 440 445 441 Z M 257 443 L 257 445 L 261 445 L 257 443 Z M 363 443 L 362 445 Q 364 444 363 447 L 365 447 L 363 443 Z M 254 445 L 251 449 Q 254 450 253 447 L 257 447 L 254 445 Z M 447 445 L 450 449 L 451 447 Q 448 448 449 445 L 447 445 Z M 225 447 Q 224 450 227 449 Q 228 446 225 447 Z M 367 447 L 366 449 Q 370 448 369 451 Q 372 452 371 450 Q 371 447 367 447 Z M 248 449 L 247 451 L 251 451 L 248 449 Z M 451 449 Q 451 453 453 450 L 451 449 Z M 226 450 L 225 454 L 227 453 L 226 450 Z M 246 451 L 243 455 L 245 455 Q 244 452 247 453 L 246 451 Z M 373 451 L 371 453 L 375 453 Q 376 450 373 451 Z M 453 451 L 455 453 Q 456 450 453 451 Z M 377 453 L 375 455 L 379 455 Q 380 452 377 453 Z M 227 455 Q 226 458 229 457 Q 230 454 227 455 Z M 381 455 L 379 457 L 383 457 Q 384 454 381 455 Z M 242 457 L 240 459 L 243 459 Q 244 456 242 457 Z M 240 459 L 237 463 L 239 463 Q 238 460 241 461 L 240 459 Z M 229 461 L 229 463 L 232 463 L 229 461 Z M 233 463 L 232 465 L 237 465 Q 236 462 233 463 Z "/>
  <path fill="rgb(255,255,255)" stroke="rgb(255,255,255)" stroke-width="1" opacity="0.21176470588235294" d="M 0 313 L 3 313.5 L 0 315 L 0 313 Z "/>
  <path fill="rgb(255,255,255)" stroke="rgb(255,255,255)" stroke-width="1" opacity="0.21176470588235294" d="M 677.5 313 Q 681.3 312 680 315 L 677.5 313 Z "/>
  <path fill="rgb(255,255,255)" stroke="rgb(255,255,255)" stroke-width="1" opacity="0.21176470588235294" d="M 334 328 L 349.5 328 Q 348.5 331 353.5 330 L 360 336.5 L 360 342 L 362 342.5 L 362 356 L 360 356 Q 361.2 361.3 358 360.5 L 358 363.5 Q 356.7 367 352 366 L 352 368 Q 346.7 366.7 347.5 370 L 338 370 L 338 368 Q 332.7 369.3 333.5 366 L 330.5 366 L 324 359.5 L 324 356 L 322 356 L 322 350 L 320 349.5 L 320 342 L 322 342 Q 320.7 336.7 324 337.5 L 324 334.5 Q 325.3 331 330 332 L 330 330 Q 335.2 331.7 334 328 Z M 335 329 L 336 331 L 349 331 L 349 329 L 335 329 Z M 331 331 L 331 333 L 335 333 L 331 331 Z M 351 331 L 350 333 L 354 333 L 351 331 Z M 328 333 L 325 337 Q 328 338 327 335 L 331 335 L 328 333 Z M 336 333 L 332 335 L 325 344 L 325 349 L 329 357 L 329 359 Q 332 358 331 361 L 334 361 L 340 365 L 347 365 L 351 363 L 357 355 L 357 344 L 355 342 L 355 337 Q 352 338 353 335 Q 350 336 349 333 L 336 333 Z M 355 333 L 353 335 L 356 335 L 355 333 Z M 357 335 L 356 337 Q 358 336 357 339 L 359 339 L 357 335 Z M 323 339 Q 322 342 325 341 Q 326 338 323 339 Z M 321 343 Q 320 346 323 345 Q 324 342 321 343 Z M 359 343 Q 358 346 361 345 Q 362 342 359 343 Z M 360 346 L 359 352 L 361 351 Q 362 347 360 346 Z M 321 347 Q 320 350 323 349 Q 324 346 321 347 Z M 323 353 Q 322 356 325 355 Q 326 352 323 353 Z M 359 353 Q 358 356 361 355 Q 362 352 359 353 Z M 325 357 L 328 361 L 329 359 Q 326 360 327 357 L 325 357 Z M 357 357 Q 356 360 359 359 Q 360 356 357 357 Z M 329 361 Q 329 365 331 362 L 329 361 Z M 355 361 Q 356 364 352 363 L 353 365 Q 357 365 357 363 Q 358 360 355 361 Z M 331 363 L 332 365 L 335 364 L 331 363 Z M 335 365 L 335 367 L 339 366 L 335 365 Z M 348 365 Q 347 368 351 367 Q 352 364 348 365 Z M 339 367 L 340 369 L 347 369 L 347 367 L 339 367 Z "/>
  <path fill="rgb(255,255,255)" stroke="rgb(255,255,255)" stroke-width="1" opacity="0.21176470588235294" d="M 0 365 L 3 366.5 L 0 367 L 0 365 Z "/>
  <path fill="rgb(255,255,255)" stroke="rgb(255,255,255)" stroke-width="1" opacity="0.21176470588235294" d="M 678.5 365 Q 681.1 364.3 680 367 L 677 366.5 L 678.5 365 Z "/>
  <path fill="rgb(255,255,255)" stroke="rgb(255,255,255)" stroke-width="1" opacity="0.21176470588235294" d="M 611 537 L 614 538.5 L 611 539 L 611 537 Z "/>
  <path fill="rgb(255,255,255)" stroke="rgb(255,255,255)" stroke-width="1" opacity="0.21176470588235294" d="M 71.5 543 Q 74.1 542.3 73 545 L 75 545 L 75 547 L 72 546.5 L 72.5 545 L 70 544.5 L 71.5 543 Z "/>
  <path fill="rgb(255,255,255)" stroke="rgb(255,255,255)" stroke-width="1" opacity="0.21176470588235294" d="M 605 545 L 608 546.5 L 605 547 L 605 545 Z "/>
  <path fill="rgb(255,255,255)" stroke="rgb(255,255,255)" stroke-width="1" opacity="0.21176470588235294" d="M 79.5 553 Q 82.1 552.3 81 555 L 83 555 L 83 557 L 85 557 L 85 559 L 82 558.5 L 82.5 557 L 80 556.5 L 80.5 555 L 78 554.5 L 79.5 553 Z "/>
  <path fill="rgb(255,255,255)" stroke="rgb(255,255,255)" stroke-width="1" opacity="0.21176470588235294" d="M 599 553 L 602 554.5 L 599 555.5 L 599.5 557 L 597 557.5 L 597.5 559 Q 593.8 560 595 557 L 597 557 L 599 553 Z "/>
  <path fill="rgb(255,255,255)" stroke="rgb(255,255,255)" stroke-width="1" opacity="0.21176470588235294" d="M 89.5 565 Q 92.1 564.3 91 567 L 93 567 L 93 569 L 95 569 L 95 571 L 97 571 L 97 573 L 99 573 L 99 575 L 101 575 L 101 577 L 103 577 L 103 579 L 105 579 L 105 581 L 107 581 L 107 583 L 109 583 L 109 585 L 111 585 L 111 587 L 113 587 L 113 589 L 115 589 L 115 591 L 117.5 591 L 118.5 593 L 114 592.5 L 114.5 591 L 112 590.5 L 112.5 589 L 110 588.5 L 110.5 587 L 108 586.5 L 108.5 585 L 106 584.5 L 106.5 583 L 104 582.5 L 104.5 581 L 102 580.5 L 102.5 579 L 100 578.5 L 100.5 577 L 98 576.5 L 98.5 575 L 96 574.5 L 96.5 573 L 94 572.5 L 94.5 571 L 92 570.5 L 92.5 569 L 90 568.5 L 90.5 567 L 88 566.5 L 89.5 565 Z "/>
  <path fill="rgb(255,255,255)" stroke="rgb(255,255,255)" stroke-width="1" opacity="0.21176470588235294" d="M 589 565 L 592 566.5 L 589 567.5 L 589.5 569 L 587 569.5 L 587.5 571 L 585 571.5 L 585.5 573 L 583 573.5 L 583.5 575 L 581 575.5 L 581.5 577 L 579 577.5 L 579.5 579 L 577 579.5 L 577.5 581 L 575 581.5 L 575.5 583 L 573 583.5 L 573.5 585 L 571 585.5 L 571.5 587 L 569 587.5 L 569.5 589 L 567 589.5 L 567.5 591 L 565 591.5 L 565.5 593 L 561 592.5 L 565 591 L 565 589 L 567 589 L 567 587 L 569 587 L 569 585 L 571 585 L 571 583 L 573 583 L 573 581 L 575 581 L 575 579 L 577 579 L 577 577 L 579 577 L 579 575 L 581 575 L 581 573 L 583 573 L 583 571 L 585 571 L 585 569 L 589 567 L 589 565 Z "/>
  <path fill="rgb(255,255,255)" stroke="rgb(255,255,255)" stroke-width="1" opacity="0.21176470588235294" d="M 121 595 L 123 595 L 123 597 L 125 597 L 127 601 L 129.5 601 L 130.5 603 L 126 602.5 L 126.5 601 L 124 600.5 L 124.5 599 L 122 598.5 L 122.5 597 Q 119.9 597.7 121 595 Z "/>
  <path fill="rgb(255,255,255)" stroke="rgb(255,255,255)" stroke-width="1" opacity="0.21176470588235294" d="M 557 595 Q 560 594 559 597 L 557 597.5 L 557.5 599 L 555 599.5 L 555.5 601 L 553 601.5 L 553.5 603 L 549 602.5 L 553 601 L 553 599 L 555 599 L 557 595 Z "/>
  <path fill="rgb(255,255,255)" stroke="rgb(255,255,255)" stroke-width="1" opacity="0.21176470588235294" d="M 133 605 Q 136 604 135 607 L 137.5 607 L 138.5 609 L 134 608.5 L 134.5 607 Q 131.9 607.7 133 605 Z "/>
  <path fill="rgb(255,255,255)" stroke="rgb(255,255,255)" stroke-width="1" opacity="0.21176470588235294" d="M 545 605 Q 548 604 547 607 L 545 607.5 L 545.5 609 L 541 608.5 L 545 607 L 545 605 Z "/>
  <path fill="rgb(255,255,255)" stroke="rgb(255,255,255)" stroke-width="1" opacity="0.21176470588235294" d="M 141 611 Q 144 610 143 613 L 145.5 613 L 146.5 615 L 142 614.5 L 142.5 613 Q 139.9 613.7 141 611 Z "/>
  <path fill="rgb(255,255,255)" stroke="rgb(255,255,255)" stroke-width="1" opacity="0.21176470588235294" d="M 537 611 Q 540 610 539 613 L 537 613.5 L 537.5 615 L 533 614.5 L 537 613 L 537 611 Z "/>
  <path fill="rgb(255,255,255)" stroke="rgb(255,255,255)" stroke-width="1" opacity="0.21176470588235294" d="M 149 617 L 153 618.5 L 149 619 L 149 617 Z "/>
  <path fill="rgb(255,255,255)" stroke="rgb(255,255,255)" stroke-width="1" opacity="0.21176470588235294" d="M 528.5 617 Q 532.3 616 531 619 L 527 618.5 L 528.5 617 Z "/>
  <path fill="rgb(255,255,255)" stroke="rgb(255,255,255)" stroke-width="1" opacity="0.21176470588235294" d="M 155 621 L 159 622.5 L 155 623 L 155 621 Z "/>
  <path fill="rgb(255,255,255)" stroke="rgb(255,255,255)" stroke-width="1" opacity="0.21176470588235294" d="M 522.5 621 Q 526.3 620 525 623 L 521 622.5 L 522.5 621 Z "/>
  <path fill="rgb(255,255,255)" stroke="rgb(255,255,255)" stroke-width="1" opacity="0.21176470588235294" d="M 161 625 L 165 626.5 L 161 627 L 161 625 Z "/>
  <path fill="rgb(255,255,255)" stroke="rgb(255,255,255)" stroke-width="1" opacity="0.21176470588235294" d="M 516.5 625 Q 520.3 624 519 627 L 515 626.5 L 516.5 625 Z "/>
  <path fill="rgb(255,255,255)" stroke="rgb(255,255,255)" stroke-width="1" opacity="0.21176470588235294" d="M 171 631 L 175 632.5 L 171 633 L 171 631 Z "/>
  <path fill="rgb(255,255,255)" stroke="rgb(255,255,255)" stroke-width="1" opacity="0.21176470588235294" d="M 506.5 631 Q 510.3 630 509 633 L 505 632.5 L 506.5 631 Z "/>
  <path fill="rgb(255,255,255)" stroke="rgb(255,255,255)" stroke-width="1" opacity="0.21176470588235294" d="M 213 651 L 217 652.5 L 213 653 L 213 651 Z "/>
  <path fill="rgb(255,255,255)" stroke="rgb(255,255,255)" stroke-width="1" opacity="0.21176470588235294" d="M 464.5 651 Q 468.3 650 467 653 L 463 652.5 L 464.5 651 Z "/>
  <path fill="rgb(255,255,255)" stroke="rgb(255,255,255)" stroke-width="1" opacity="0.21176470588235294" d="M 223 655 L 227.5 655 L 233 658.5 L 229 659 L 229 657 L 223 657 L 223 655 Z "/>
  <path fill="rgb(255,255,255)" stroke="rgb(255,255,255)" stroke-width="1" opacity="0.21176470588235294" d="M 452.5 655 Q 458.4 653.3 457 657 L 451 657 L 451 659 L 445 659 L 445 661 L 439 661 L 439 663 L 433 663 L 432.5 665 L 425.5 665 L 424.5 667 L 417.5 667 Q 418.3 670.4 409.5 669 L 408.5 671 L 399.5 671 L 398.5 673 L 385.5 673 L 384.5 675 L 367.5 675 L 368.5 673 L 384.5 673 L 386.5 671 L 398.5 671 Q 400.5 667 408.5 669 L 410.5 667 L 416.5 667 L 418.5 665 L 424.5 665 Q 426 661.5 432.5 663 L 434.5 661 L 438.5 661 L 440.5 659 L 444.5 659 L 452.5 655 Z "/>
  <path fill="rgb(255,255,255)" stroke="rgb(255,255,255)" stroke-width="1" opacity="0.21176470588235294" d="M 241 661 Q 246 659.8 247.5 663 L 253.5 663 L 255.5 665 L 261.5 665 L 263.5 667 L 269.5 667 L 271.5 669 L 279.5 669 L 281.5 671 L 293.5 671 L 295.5 673 L 311.5 673 L 313 674.5 L 295 675 L 294.5 673 L 281.5 673 L 280.5 671 L 271.5 671 L 271 669 L 263.5 669 L 262.5 667 L 255.5 667 L 254.5 665 L 247.5 665 L 247 663 L 241 663 L 241 661 Z "/>
  <path fill="rgb(255,255,255)" stroke="rgb(255,255,255)" stroke-width="1" opacity="0.21176470588235294" d="M 315 677 Q 318.3 675.9 317 680 Q 313.7 681.1 315 677 Z "/>
  <path fill="rgb(255,255,255)" stroke="rgb(255,255,255)" stroke-width="1" opacity="0.21176470588235294" d="M 363 677 Q 366.3 675.9 365 680 Q 361.7 681.1 363 677 Z "/>
  <path fill="rgb(255,255,255)" stroke="rgb(255,255,255)" stroke-width="1" opacity="0.996078431372549" d="M 243.5 234 L 276.5 234 L 278.5 236 L 284.5 236 L 286.5 238 L 290.5 238 L 292.5 240 L 296.5 240 Q 297.8 243 302 242 L 302 244 L 306 244 L 306 246 L 310 246 L 310 247.5 Q 311.3 251 316 250 L 322.5 258 L 324 258 L 324 262 L 326 262 L 326 268 L 324 268 L 324 274 L 322 274.5 L 322 284 Q 326 282.6 324 289.5 L 330.5 296 L 334 296 L 334 298 L 341.5 298 Q 340.7 301.3 346 300 L 346 298 L 353.5 298 Q 352.5 295 357.5 296 L 364 289.5 L 364 286 L 366 285.5 L 366 270 L 373.5 270 L 375.5 268 L 387.5 268 L 389.5 266 L 397.5 266 L 399.5 264 L 405.5 264 Q 407 260.8 412 262 Q 410.7 258.7 415.5 260 Q 416.9 256.8 422 258 Q 420.7 254.7 425.5 256 L 428 252 Q 432.7 253 434 249.5 L 434 248 L 438 248 L 438 244 L 439.5 244 Q 445 242.4 444 236 Q 448.5 236.8 450.5 234 L 454 236 L 454 243.5 L 456 244.5 L 456 259.5 L 458 260.5 L 458 270 L 456 270.5 L 456 285.5 L 454 286.5 L 454 294 L 452 294 L 452 300 L 450 300 L 450 304 L 448 304 L 448 308 L 446 308 L 446 312 L 444 312 L 444 316 L 442.5 316 Q 439 317.3 440 322 L 425.5 334 Q 424.3 331 420 332 L 419.5 330 L 404 330 Q 405.3 333.3 400.5 332 L 394 338.5 L 394 342 L 392 342 L 392 348 L 390 348.5 L 390 358 Q 394 356.6 392 363.5 L 398.5 370 L 402 370 L 402.5 372 L 420 372 L 420 387.5 L 422 388.5 L 422 397.5 L 424 398 L 424 406 L 426 406 L 426 411.5 L 428 412 L 428 418 L 430 418 L 430 422 L 432 422 Q 430.8 427.3 434 426.5 L 434 429.5 L 438 432 Q 436.7 437.3 440 436.5 L 440 439.5 L 446 444 L 446 447.5 L 452.5 454 L 454 454.5 L 454 460 L 446.5 460 L 444.5 462 L 436.5 462 L 434.5 464 L 413.5 464 L 411.5 462 L 401.5 462 L 399.5 460 L 395.5 460 L 393.5 458 L 389.5 458 Q 388.3 455 384 456 L 384 454 L 380 454 L 380 452 L 376 452 L 376 450 L 372 450 L 372 448.5 Q 370.7 445 366 446 L 359.5 438 L 358 438 L 358 434 L 356 434 L 356 428 L 360 425.5 L 360 410.5 Q 357 411.5 358 406.5 Q 356.4 401 350 402 L 350 400 Q 344.7 401.3 345.5 398 L 330 398 Q 331.3 401.3 326.5 400 L 320 406.5 L 320 410 L 318 410.5 L 318 428 L 300.5 428 L 298.5 430 L 288.5 430 L 286.5 432 L 280.5 432 L 272.5 436 L 268 436 L 268 438 L 264 438 L 264 440 L 260 440 L 260 442 Q 254.7 440.8 255.5 444 L 252.5 444 L 250 448 Q 243.6 447 242 452.5 Q 243.5 456.9 240.5 456 L 233.5 462 L 230 460 L 230 454 L 228 453.5 L 228 446.5 L 226 445.5 L 226 416 L 228 415.5 L 228 406.5 L 230 406 L 230 400 L 232 400 L 232 394 L 234 394 L 234 390 L 236 390 L 236 386 L 238 386 L 238 382 L 240 382 L 240 378 L 241.5 378 L 248 371.5 L 248 368 Q 251 369 250 366 L 253.5 366 Q 254.3 363.3 258.5 364 L 266.5 368 L 273.5 368 Q 274.9 364.8 280 366 Q 278.7 362.7 283.5 364 L 290 357.5 L 290 354 L 292 354 Q 290.8 348.7 294 349.5 L 294 340 Q 290 341.4 292 334.5 L 288 332 Q 289 327.3 285.5 326 Q 279 327.5 277.5 324 L 268.5 324 L 265.5 326 Q 262.3 324.1 264 318 L 262 317.5 L 262 304.5 L 260 303.5 L 260 296.5 Q 256.6 297.3 258 288.5 L 256 288 L 256 282 L 254 282 Q 255.7 276.8 252 278 L 252 272 L 250 272 Q 251.3 266.7 248 267.5 L 248 264.5 L 244 262 L 244 258.5 L 227.5 242 Q 224.9 242.7 226 240 Q 230.3 241 231.5 238 L 235.5 238 L 237.5 236 L 241.5 236 L 243.5 234 Z M 244 235 L 236 239 Q 230 237 231 241 L 237 241 L 238 239 L 243 239 L 243 237 L 277 237 L 278 239 L 285 239 L 285 241 L 291 241 L 291 243 L 297 243 L 297 241 L 293 241 L 285 237 L 279 237 L 277 235 L 244 235 Z M 449 235 Q 448 238 451 237 Q 452 234 449 235 Z M 445 237 L 445 239 L 449 239 L 445 237 Z M 451 237 Q 450 240 453 239 Q 454 236 451 237 Z M 244 239 Q 243 242 238 241 L 235 244 Q 234 246 237 245 L 237 247 L 239 247 L 239 249 L 241 249 L 241 251 L 243 251 L 243 253 L 245 253 L 245 255 L 247 255 L 249 259 Q 248 262 251 261 L 257 273 L 257 277 L 261 283 L 261 287 L 263 289 Q 262 295 265 297 L 265 303 L 267 305 L 267 317 L 270 319 L 278 319 Q 279 323 286 321 L 291 325 L 293 329 Q 292 332 295 331 L 297 335 L 297 339 L 299 341 L 299 350 L 293 360 Q 294 362 291 361 L 291 363 L 289 363 L 289 365 L 284 369 L 280 371 L 276 371 L 274 373 L 267 373 L 259 369 L 256 369 L 251 374 Q 252 376 249 375 L 249 377 L 247 377 L 247 379 L 245 379 L 245 382 L 237 396 L 235 406 L 233 408 L 233 416 L 231 418 L 231 445 Q 235 446 233 453 L 237 455 Q 236 452 239 451 Q 238 448 241 449 L 241 447 L 247 443 L 249 443 L 253 439 L 269 431 L 279 429 L 281 427 L 287 427 L 289 425 L 299 425 L 301 423 L 313 423 L 313 411 L 317 405 Q 316 402 319 403 L 319 401 L 321 401 L 321 399 L 331 393 L 346 393 L 354 397 L 358 401 Q 360 400 359 403 L 361 403 L 365 411 L 365 426 L 363 428 Q 364 430 361 429 Q 360 433 363 435 L 363 437 L 367 439 L 367 441 L 370 441 L 374 445 L 390 453 L 400 455 L 402 457 L 412 457 L 414 459 L 435 459 Q 436 455 445 457 L 447 455 Q 448 452 445 453 L 445 451 L 443 451 L 441 448 L 441 445 L 437 443 L 433 436 Q 434 432 431 433 L 423 418 L 421 408 L 419 406 Q 420 399 417 398 L 417 390 L 415 388 L 415 377 L 403 377 L 395 371 Q 392 372 393 369 L 391 369 L 391 367 L 389 367 L 387 364 L 387 360 L 385 358 L 385 349 L 391 337 Q 390 334 393 335 L 393 333 L 395 333 L 395 331 L 405 325 L 420 325 L 426 329 Q 428 330 427 327 L 429 327 L 429 325 L 431 325 L 431 323 L 433 323 L 433 321 L 435 321 Q 434 318 437 317 Q 436 314 439 315 L 439 313 L 447 299 L 447 295 L 449 293 Q 448 286 451 285 L 451 271 L 453 269 Q 455 261 451 260 L 451 246 Q 448 244 449 241 L 445 243 L 445 245 L 443 245 L 443 248 Q 442 250 441 248 L 436 249 L 433 253 Q 436 254 435 251 L 439 252 L 426 261 L 422 263 L 418 263 L 412 267 Q 407 266 406 269 L 400 269 L 398 271 L 390 271 L 388 273 L 376 273 Q 374 276 371 275 L 371 286 L 367 292 Q 368 294 365 293 L 365 295 L 363 295 L 363 297 L 354 303 Q 347 302 346 305 Q 341 306 341 303 L 335 303 L 327 297 Q 324 298 325 295 L 323 295 L 323 293 L 321 293 L 319 290 L 319 286 L 317 284 L 317 275 L 321 267 Q 322 262 319 262 L 319 259 L 315 257 L 315 255 L 313 255 L 309 251 L 297 245 L 287 243 L 285 241 L 279 241 L 277 239 L 244 239 Z M 229 241 L 232 245 L 233 243 Q 230 244 231 241 L 229 241 Z M 444 241 L 442 243 L 445 243 Q 446 240 444 241 Z M 451 241 L 451 244 L 453 243 Q 454 240 451 241 Z M 299 243 L 297 245 L 301 245 Q 302 242 299 243 Z M 442 243 L 439 247 L 441 247 Q 440 244 443 245 L 442 243 Z M 233 245 Q 233 249 235 246 L 233 245 Z M 303 245 L 301 247 L 305 247 Q 306 244 303 245 Z M 453 245 Q 452 248 455 247 Q 456 244 453 245 Z M 235 247 Q 235 251 237 248 L 235 247 Z M 307 247 L 306 249 Q 310 248 309 251 Q 312 252 311 250 Q 311 247 307 247 Z M 454 248 L 453 260 L 455 259 L 455 250 L 454 248 Z M 237 249 Q 237 253 239 250 L 237 249 Z M 239 251 Q 239 255 241 252 L 239 251 Z M 313 251 L 312 253 L 316 253 L 313 251 Z M 241 253 Q 241 257 243 254 L 241 253 Z M 317 253 L 315 255 L 318 255 L 317 253 Z M 430 253 L 427 257 Q 430 258 429 255 L 433 255 L 430 253 Z M 243 255 L 245 257 Q 246 254 243 255 Z M 319 255 L 317 257 L 320 257 L 319 255 Z M 321 257 L 320 259 Q 322 258 321 261 L 323 261 L 321 257 Z M 424 257 L 422 259 Q 416 257 417 261 L 423 261 L 423 259 L 427 259 L 424 257 Z M 245 259 L 245 261 L 249 263 L 247 259 L 245 259 Z M 414 261 L 406 265 L 400 265 L 398 267 Q 389 265 388 269 L 376 269 L 374 271 Q 366 270 367 273 L 375 273 L 376 271 L 389 271 L 390 269 L 399 269 L 400 267 L 407 267 L 407 265 L 413 265 L 413 263 L 417 263 L 414 261 Z M 455 261 Q 454 264 457 263 Q 458 260 455 261 Z M 323 263 Q 321 268 325 267 Q 327 262 323 263 Z M 249 265 Q 248 268 251 267 Q 252 264 249 265 Z M 455 267 Q 454 270 457 269 Q 458 266 455 267 Z M 251 269 Q 250 272 253 271 Q 254 268 251 269 Z M 454 270 L 453 282 L 455 281 L 455 272 L 454 270 Z M 321 271 Q 320 274 323 273 Q 324 270 321 271 Z M 320 274 L 319 284 L 321 283 Q 323 276 320 274 Z M 253 275 Q 252 278 255 277 Q 256 274 253 275 Z M 367 275 L 367 285 L 369 286 L 369 276 L 367 275 Z M 255 279 Q 254 282 257 281 Q 258 278 255 279 Z M 453 283 Q 452 286 455 285 Q 456 282 453 283 Z M 257 285 Q 256 288 259 287 Q 260 284 257 285 Z M 321 285 Q 320 288 323 287 Q 324 284 321 285 Z M 452 286 L 451 290 L 453 289 L 452 286 Z M 365 287 Q 364 290 367 289 Q 368 286 365 287 Z M 261 288 L 259 291 L 261 292 L 261 288 Z M 323 291 L 323 293 L 326 293 L 323 291 Z M 364 291 L 362 293 L 365 293 Q 366 290 364 291 Z M 451 291 Q 450 294 453 293 Q 454 290 451 291 Z M 259 293 Q 258 296 261 295 Q 262 292 259 293 Z M 327 293 L 326 295 Q 328 294 327 297 L 329 297 L 327 293 Z M 362 293 L 359 297 L 361 297 Q 360 294 363 295 L 362 293 Z M 263 296 L 261 299 L 263 300 L 263 296 Z M 331 297 L 330 299 Q 334 298 333 301 L 342 301 L 341 299 L 335 299 L 331 297 Z M 356 297 Q 354 300 348 299 L 347 301 L 355 301 L 355 299 L 359 299 L 356 297 Z M 449 297 Q 448 300 451 299 Q 452 296 449 297 Z M 261 301 Q 260 304 263 303 Q 264 300 261 301 Z M 343 301 L 342 303 L 347 303 Q 346 300 343 301 Z M 447 301 Q 446 304 449 303 Q 450 300 447 301 Z M 265 304 Q 261 306 263 313 L 265 314 L 265 304 Z M 445 305 Q 444 308 447 307 Q 448 304 445 305 Z M 443 309 Q 442 312 445 311 Q 446 308 443 309 Z M 441 313 L 439 317 L 443 315 Q 444 312 441 313 Z M 263 315 Q 262 318 265 317 Q 266 314 263 315 Z M 267 318 L 265 320 Q 264 322 267 321 L 267 318 Z M 437 319 L 437 321 L 435 322 Q 437 325 439 321 Q 440 318 437 319 Z M 268 321 L 268 323 L 278 323 L 280 325 L 286 325 L 289 327 L 289 325 Q 286 326 287 323 Q 278 324 279 321 L 268 321 Z M 265 323 Q 264 326 267 325 Q 268 322 265 323 Z M 434 323 Q 434 327 436 324 L 434 323 Z M 432 325 Q 432 329 434 326 L 432 325 Z M 403 327 Q 404 330 400 329 L 401 331 L 405 329 L 420 329 L 424 331 L 425 329 Q 420 330 421 327 L 403 327 Z M 430 327 Q 430 331 432 328 L 430 327 Z M 289 329 L 289 331 L 293 333 L 291 329 L 289 329 Z M 427 329 L 427 331 L 430 330 L 427 329 Z M 397 331 L 397 333 L 395 334 Q 397 337 399 333 Q 400 330 397 331 Z M 425 331 Q 424 334 427 333 Q 428 330 425 331 Z M 393 335 L 393 337 L 396 336 L 393 335 Z M 293 337 Q 292 340 295 339 Q 296 336 293 337 Z M 391 339 Q 390 342 393 341 Q 394 338 391 339 Z M 297 340 Q 293 342 295 349 L 297 350 L 297 340 Z M 389 345 Q 388 348 391 347 Q 392 344 389 345 Z M 388 348 L 387 358 L 389 357 Q 391 350 388 348 Z M 293 351 Q 292 354 295 353 Q 296 350 293 351 Z M 291 355 Q 290 358 293 357 Q 294 354 291 355 Z M 290 359 L 288 361 L 291 361 Q 292 358 290 359 Z M 389 359 Q 388 362 391 361 Q 392 358 389 359 Z M 288 361 L 285 365 L 287 365 Q 286 362 289 363 L 288 361 Z M 255 365 Q 254 369 259 367 L 259 369 L 265 369 L 265 371 L 275 371 L 275 369 L 281 369 Q 280 366 285 367 L 284 365 L 280 367 L 276 367 L 274 369 L 267 369 L 265 367 L 261 367 Q 259 364 255 365 Z M 391 365 L 391 367 L 394 367 L 391 365 Z M 252 367 L 249 371 Q 252 372 251 369 L 255 369 L 252 367 Z M 395 367 L 394 369 Q 396 368 395 371 L 397 371 L 395 367 Z M 399 371 L 398 373 Q 402 372 401 375 L 419 375 L 419 373 L 403 373 L 399 371 Z M 248 373 L 246 375 L 249 375 Q 250 372 248 373 Z M 246 375 L 244 377 L 247 377 L 246 375 Z M 244 377 L 241 381 L 243 381 Q 242 378 245 379 L 244 377 Z M 417 377 L 417 388 L 419 387 L 419 378 L 417 377 Z M 239 383 Q 238 386 241 385 Q 242 382 239 383 Z M 237 387 Q 236 390 239 389 Q 240 386 237 387 Z M 419 389 Q 418 392 421 391 Q 422 388 419 389 Z M 235 391 Q 234 394 237 393 Q 238 390 235 391 Z M 420 392 L 419 398 L 421 397 Q 422 393 420 392 Z M 233 395 Q 232 398 235 397 Q 236 394 233 395 Z M 329 395 Q 330 398 326 397 L 327 399 L 331 397 L 346 397 L 350 399 L 351 397 Q 346 398 347 395 L 329 395 Z M 323 399 L 323 401 L 321 402 Q 323 405 325 401 Q 326 398 323 399 Z M 351 399 L 351 401 L 355 400 L 351 399 Z M 421 399 Q 420 402 423 401 Q 424 398 421 399 Z M 231 401 Q 230 404 233 403 Q 234 400 231 401 Z M 355 401 L 355 403 L 359 405 L 357 401 L 355 401 Z M 422 402 L 421 406 L 423 405 L 422 402 Z M 319 403 L 319 405 L 322 404 L 319 403 Z M 229 407 Q 228 410 231 409 Q 232 406 229 407 Z M 317 407 Q 316 410 319 409 Q 320 406 317 407 Z M 359 407 Q 358 410 361 409 Q 362 406 359 407 Z M 423 407 Q 422 410 425 409 Q 426 406 423 407 Z M 231 410 Q 228 411 229 415 L 231 416 L 231 410 Z M 316 410 L 315 423 L 317 423 L 317 412 L 316 410 Z M 363 410 L 361 412 L 361 425 L 363 425 L 363 410 Z M 425 413 Q 424 416 427 415 Q 428 412 425 413 Z M 227 417 Q 226 420 229 419 Q 230 416 227 417 Z M 427 419 Q 426 422 429 421 Q 430 418 427 419 Z M 229 420 L 227 422 L 227 441 L 229 442 L 229 420 Z M 429 423 Q 428 426 431 425 Q 432 422 429 423 Z M 299 425 L 299 427 L 288 427 L 287 429 L 280 429 L 279 431 L 274 431 L 273 433 L 268 433 Q 269 436 264 435 L 265 437 L 269 435 L 273 435 L 275 433 L 279 433 L 281 431 L 287 431 L 289 429 L 299 429 L 301 427 L 317 427 L 317 425 L 299 425 Z M 360 427 L 358 429 L 361 429 Q 362 426 360 427 Z M 431 427 Q 430 430 433 429 Q 434 426 431 427 Z M 358 429 Q 355 434 359 433 L 358 429 Z M 433 431 L 435 435 Q 438 436 437 434 L 433 431 Z M 359 435 L 362 439 L 363 437 Q 360 438 361 435 L 359 435 Z M 260 437 Q 259 440 263 439 Q 264 436 260 437 Z M 437 437 Q 436 440 439 439 Q 440 436 437 437 Z M 256 439 Q 255 442 259 441 Q 260 438 256 439 Z M 363 439 Q 363 443 365 440 L 363 439 Z M 252 441 Q 251 444 255 443 Q 256 440 252 441 Z M 365 441 Q 365 445 367 442 L 365 441 Z M 439 441 L 439 443 L 442 443 L 439 441 Z M 227 443 Q 226 446 229 445 Q 230 442 227 443 Z M 249 443 Q 250 446 246 445 L 247 447 Q 251 447 251 445 Q 252 442 249 443 Z M 367 443 L 368 445 L 371 444 L 367 443 Z M 443 443 L 442 445 Q 444 444 443 447 L 445 447 L 443 443 Z M 371 445 L 371 447 Q 372 450 376 449 L 377 447 L 373 447 Q 374 444 371 445 Z M 231 446 L 229 449 L 231 450 L 231 446 Z M 243 447 L 241 451 L 245 449 Q 246 446 243 447 Z M 377 449 L 377 451 L 381 450 L 377 449 Z M 445 449 L 445 451 L 448 451 L 445 449 Z M 229 451 Q 228 454 231 453 Q 232 450 229 451 Z M 381 451 L 381 453 L 385 452 L 381 451 Z M 449 451 L 447 453 L 450 453 L 449 451 Z M 239 453 L 239 455 L 237 456 Q 239 459 241 455 Q 242 452 239 453 Z M 385 453 L 385 455 L 389 454 L 385 453 Z M 451 453 L 449 455 L 452 455 L 451 453 Z M 389 455 L 389 457 L 394 457 L 402 461 L 412 461 L 414 463 L 435 463 Q 436 459 445 461 L 447 459 L 453 459 L 453 456 L 452 456 L 452 457 L 445 457 L 445 459 L 435 459 L 435 461 L 414 461 L 413 459 L 402 459 L 401 457 L 395 457 L 395 455 L 389 455 Z M 231 457 Q 230 460 233 459 Q 234 456 231 457 Z M 235 457 L 235 459 L 238 458 L 235 457 Z M 233 459 Q 232 462 235 461 Q 236 458 233 459 Z "/>
  <path fill="rgb(255,255,255)" stroke="rgb(255,255,255)" stroke-width="1" opacity="0.996078431372549" d="M 334.5 323 L 349.5 323 L 359 329 L 359 331 L 361 331 L 361 333 Q 363.7 331.9 363 334.5 L 367 342.5 L 367 355.5 L 361 367 L 347.5 375 L 338.5 375 L 325 367 L 325 365 L 323 365 L 323 363 Q 320.3 364.1 321 361.5 L 315 349.5 L 315 342.5 L 321 331 L 334.5 323 Z M 333 325 Q 334 328 330 327 L 331 329 L 335 327 L 350 327 L 354 329 L 355 327 Q 350 328 351 325 L 333 325 Z M 334 328 Q 335 332 330 330 L 330 332 Q 325 331 324 335 L 324 338 Q 321 337 322 342 L 320 342 L 320 350 L 322 350 L 322 356 L 324 356 L 324 360 L 331 366 L 334 366 Q 333 369 338 368 L 338 370 L 348 370 Q 347 367 352 368 L 352 366 Q 357 367 358 364 L 358 361 Q 361 361 360 356 L 362 356 L 362 343 L 360 342 L 360 337 L 354 330 Q 349 331 350 328 L 334 328 Z M 326 329 Q 325 332 329 331 Q 330 328 326 329 Z M 355 329 L 358 333 L 359 331 Q 356 332 357 329 L 355 329 Z M 323 331 Q 322 334 325 333 Q 326 330 323 331 Z M 359 333 L 361 335 Q 362 332 359 333 Z M 321 335 Q 320 338 323 337 Q 324 334 321 335 Z M 319 339 Q 318 342 321 341 Q 322 338 319 339 Z M 361 339 Q 360 342 363 341 Q 364 338 361 339 Z M 318 342 L 317 350 L 319 349 Q 320 343 318 342 Z M 365 342 L 363 344 L 363 355 L 365 356 L 365 342 Z M 319 351 Q 318 354 321 353 Q 322 350 319 351 Z M 321 357 Q 320 360 323 359 Q 324 356 321 357 Z M 361 357 Q 360 360 363 359 Q 364 356 361 357 Z M 323 361 L 323 363 L 326 363 L 323 361 Z M 359 361 Q 358 364 361 363 Q 362 360 359 361 Z M 327 363 L 326 365 Q 328 364 327 367 L 329 367 L 327 363 Z M 357 365 Q 356 368 359 367 Q 360 364 357 365 Z M 331 367 L 329 369 L 333 369 Q 334 366 331 367 Z M 353 367 L 353 369 L 357 369 L 353 367 Z M 335 369 L 334 371 Q 338 370 337 373 L 349 373 Q 348 370 353 371 L 352 369 L 348 371 L 339 371 L 335 369 Z "/>
  <path fill="rgb(255,255,255)" stroke="rgb(255,255,255)" stroke-width="1" opacity="1" d="M 243.5 235 L 276.5 235 L 278.5 237 L 284.5 237 L 292.5 241 L 297 241 Q 298.4 245 291.5 243 L 292.5 245 L 296.5 245 Q 297.6 242.3 301 243 Q 302.3 246.3 297.5 245 L 298.5 247 L 305 245 Q 306.3 248.3 301.5 247 L 302.5 249 L 308.5 247 L 311 251 L 309 251.5 Q 310.8 254.8 312.5 251 L 314.5 251 L 323 259.5 Q 323.7 262.1 321 261 Q 322 258 319 259 L 321 266.5 L 317 274.5 L 317 283.5 L 319 285.5 L 319 289.5 L 321 293 L 323 293 Q 321.9 290.3 324.5 291 L 329 297 L 327 297.5 Q 328.8 300.8 330.5 297 L 334.5 299 L 340.5 299 Q 341.3 301.8 345.5 301 L 347.5 299 L 353.5 299 L 357.5 297 Q 359.3 300.8 361 297.5 L 359 297 L 363.5 291 Q 366.1 290.3 365 293 L 367 293 L 371 285.5 L 371 275 L 375 273.5 L 367 273 Q 365.9 269.5 373.5 271 L 375.5 269 L 387.5 269 Q 389.5 265 397.5 267 L 399.5 265 L 405.5 265 L 407.5 263 L 411.5 263 L 415.5 261 Q 416.5 264 421.5 263 L 422.5 261 Q 415.6 263 417 259 L 421.5 259 L 425.5 257 Q 427.3 260.8 429 257.5 L 427 257 L 429.5 253 L 433.5 255 L 434.5 253 Q 432.3 253.8 433 251.5 L 435.5 249 L 440.5 248 Q 441.8 250.3 443 247.5 Q 444 243.8 441 245 Q 442 248 439 247 L 443.5 241 Q 446.1 240.3 445 243 L 447 243 Q 446 240 449 241 Q 448.3 244.4 451 245.5 L 451 259.5 Q 454.8 261.3 453 268.5 L 451 270.5 L 451 284.5 Q 447.5 286 449 292.5 L 447 294.5 L 447 298.5 L 439 312.5 L 439 315 L 443 313 L 440.5 317 Q 437.9 317.7 439 315 L 437 315 L 435 321 L 439 319 L 439 320.5 L 428.5 331 Q 425.9 330.3 427 333 L 425 333 L 427 329 L 421.5 331 L 419.5 329 L 404.5 329 L 400.5 331 Q 398.8 327.3 397 330.5 L 399 331 L 394.5 337 Q 391.9 337.7 393 335 L 391 335 L 387 342.5 L 387 346.5 L 385 348.5 L 385 357.5 L 387 359.5 L 387 363.5 L 389 367 L 391 367 Q 389.9 364.3 392.5 365 L 397 371 L 395 371.5 Q 396.8 374.8 398.5 371 L 402.5 373 L 419 373 L 418.5 375 L 401.5 375 L 402.5 377 L 415 377 L 415 387.5 L 417 389.5 L 417 397.5 L 419 399.5 L 419 405.5 L 421 407.5 L 423 417.5 L 431 433 L 433 433 Q 431.9 430.3 434.5 431 L 437 435 L 433 433 L 437 443 L 439 443 Q 437.9 440.3 440.5 441 L 445 447 L 441 445 L 443 451 L 445 451 Q 443.9 448.3 446.5 449 L 453 455.5 L 453 459 Q 446.4 457.3 444.5 461 L 436.5 461 L 434.5 463 L 413.5 463 L 411.5 461 L 401.5 461 L 393.5 457 L 389 457 Q 387.6 453 394.5 455 L 393.5 453 L 389.5 453 Q 388.4 455.8 385 455 Q 383.7 451.7 388.5 453 L 387.5 451 L 381 453 Q 379.7 449.7 384.5 451 L 383.5 449 L 377 451 Q 375.7 447.7 380.5 449 L 379.5 447 L 373.5 449 L 371 445 L 373 444.5 Q 371.3 441.3 369.5 445 L 367.5 445 L 359 436.5 Q 358.3 433.9 361 435 Q 360 438 363 437 L 361 429 L 358 429.5 L 359 433 Q 355.7 434.3 357 429.5 L 361 427 Q 360 430 363 429 L 365 425.5 L 365 410.5 L 361 403 L 359 403 Q 360.1 405.7 357.5 405 L 355 401 L 357 400.5 Q 355.3 397.3 353.5 401 Q 349.8 402 351 399 L 355 398.5 L 351.5 397 L 347.5 399 L 345.5 397 L 330.5 397 L 326.5 399 Q 324.8 395.2 323 398.5 L 325 399 L 320.5 405 Q 317.9 405.7 319 403 L 317 403 L 313 410.5 L 313 423 L 300.5 423 L 299 424.5 L 317 425 L 316.5 427 L 300.5 427 L 298.5 429 L 288.5 429 Q 287 432.5 280.5 431 L 278.5 433 L 274.5 433 L 272.5 435 L 268.5 435 L 264.5 437 L 260.5 435 L 259.5 437 Q 264.3 435.7 263 439 L 256.5 437 L 255.5 439 Q 260.3 437.7 259 441 L 252.5 439 L 251.5 441 Q 256.3 439.7 255 443 Q 251.6 443.8 250.5 441 L 249.5 443 Q 251.8 442.3 251 444.5 Q 250.5 447.5 246.5 447 Q 244.8 443.2 243 446.5 L 245 447 L 242.5 451 Q 239.9 451.7 241 449 L 239 449 L 237 455 L 241 453 L 236.5 459 Q 233.9 458.3 235 461 L 233 461 L 231 457 L 235 459 Q 233.8 456 237.5 457 L 236.5 455 L 233 452.5 Q 234.5 446 231 444.5 L 231 417.5 L 233 415.5 L 233 407.5 L 235 405.5 L 237 395.5 L 245 381.5 L 245 379 L 241 381 L 247.5 373 Q 250.1 372.3 249 375 L 251 375 L 255 369.5 L 251 369 Q 252 372 249 371 L 251.5 367 L 259 369 L 259 367 Q 253.8 368.7 255 365 Q 259.3 364 260.5 367 L 264.5 367 L 266.5 369 L 273.5 369 L 275.5 367 L 279.5 367 L 283.5 365 Q 285.3 368.7 287 365.5 L 285 365 L 289.5 359 Q 292.1 358.3 291 361 L 293 361 L 299 349.5 L 299 340.5 L 297 338.5 L 297 334.5 L 295 331 L 293 331 Q 294.1 333.7 291.5 333 L 289 329 L 293 331 L 291 325 L 289 325 Q 290.1 327.7 287.5 327 L 285.5 325 Q 279 326.5 277.5 323 L 268 323 L 268.5 321 L 278.5 321 L 277.5 319 Q 269 321 267 316.5 L 267 304.5 L 265 302.5 L 265 296.5 Q 261.5 295 263 288.5 L 261 286.5 L 261 282.5 L 257 276.5 L 257 272.5 L 251 261 L 249 261 Q 250.1 263.7 247.5 263 L 245 259 L 249 261 L 247 255 L 245 255 Q 246.1 257.7 243.5 257 L 228.5 241 L 231 241 L 231.5 239 L 235.5 239 L 243.5 235 Z M 243 237 L 244 239 L 277 239 L 277 237 L 243 237 Z M 237 239 L 237 241 Q 242 242 243 240 L 237 239 Z M 278 239 L 279 241 L 285 241 L 285 239 L 278 239 Z M 231 241 L 231 243 L 234 242 L 232 245 L 235 245 L 237 242 L 231 241 Z M 286 241 Q 285 244 291 243 Q 292 239 286 241 Z M 443 243 L 445 245 Q 446 242 443 243 Z M 236 245 L 234 247 L 237 247 Q 238 244 236 245 Z M 238 247 L 236 249 L 239 249 Q 240 246 238 247 Z M 240 249 L 238 251 L 241 251 Q 242 248 240 249 Z M 306 249 Q 305 252 309 251 Q 310 248 306 249 Z M 242 251 L 240 253 L 243 253 Q 244 250 242 251 Z M 435 251 L 435 253 L 439 252 L 435 251 Z M 244 253 L 242 255 L 245 255 Q 246 252 244 253 Z M 312 253 L 313 255 L 316 254 L 312 253 Z M 315 255 L 315 257 L 318 256 L 315 255 Z M 429 255 L 429 257 L 433 256 L 429 255 Z M 317 257 L 317 259 L 320 258 L 317 257 Z M 423 259 L 423 261 L 427 260 L 423 259 Z M 413 263 L 413 265 L 417 264 L 413 263 Z M 407 265 L 407 267 Q 412 268 413 266 L 407 265 Z M 399 267 L 399 269 L 406 269 L 407 268 L 399 267 Z M 389 269 L 389 271 L 398 271 L 399 270 L 389 269 Z M 375 271 L 375 273 L 388 273 L 389 272 L 375 271 Z M 323 293 L 323 295 L 326 294 L 323 293 Z M 363 293 L 365 295 Q 366 292 363 293 Z M 325 295 Q 324 298 327 297 Q 328 294 325 295 Z M 361 295 Q 360 298 363 297 Q 364 294 361 295 Z M 330 299 Q 329 302 333 301 Q 334 298 330 299 Z M 355 299 L 355 301 L 359 300 L 355 299 Z M 334 301 L 335 303 Q 340 304 342 302 L 334 301 Z M 347 301 L 348 303 Q 353 304 355 302 L 347 301 Z M 342 303 L 343 305 Q 346 306 347 304 L 342 303 Z M 279 321 L 279 323 L 287 323 Q 285 319 279 321 Z M 433 321 L 433 323 L 436 323 L 433 321 Z M 288 323 Q 286 326 289 325 L 288 323 Z M 335 323 L 334 325 L 351 325 L 350 323 L 335 323 Z M 431 323 L 431 325 L 434 325 L 431 323 Z M 331 325 L 329 327 L 333 327 Q 334 324 331 325 Z M 351 325 L 351 327 L 355 327 L 351 325 Z M 405 325 L 404 327 L 421 327 L 420 325 L 405 325 Z M 429 325 L 429 327 L 432 327 L 429 325 Z M 327 327 L 326 329 Q 330 328 329 331 Q 326 332 325 329 L 324 331 Q 326 330 325 333 L 321 331 L 315 343 L 315 350 L 317 352 L 317 356 L 321 363 Q 324 364 323 361 L 329 366 Q 330 368 328 367 L 329 369 Q 330 366 333 367 Q 334 370 330 369 L 331 371 L 335 369 L 339 371 L 348 371 L 350 369 L 356 371 L 357 369 Q 352 370 353 367 Q 356 366 358 369 L 359 367 Q 356 368 357 365 L 361 367 L 367 356 L 367 343 L 365 341 L 365 337 L 363 333 L 361 333 Q 362 336 360 335 L 355 329 L 357 329 Q 355 325 354 329 L 350 327 L 335 327 L 333 329 L 327 327 Z M 401 327 L 399 329 L 403 329 Q 404 326 401 327 Z M 421 327 L 421 329 L 425 329 L 421 327 Z M 427 327 L 427 329 L 430 329 L 427 327 Z M 357 329 Q 356 332 359 331 Q 360 328 357 329 Z M 360 331 L 358 333 L 361 333 Q 362 330 360 331 Z M 395 331 Q 394 334 397 333 Q 398 330 395 331 Z M 393 333 L 393 335 L 396 335 L 393 333 Z M 289 361 L 291 363 Q 292 360 289 361 Z M 287 363 Q 286 366 289 365 Q 290 362 287 363 Z M 323 363 L 323 365 L 326 364 L 323 363 Z M 325 365 Q 324 368 327 367 Q 328 364 325 365 Z M 281 367 L 281 369 L 285 368 L 281 367 Z M 391 367 L 391 369 L 394 368 L 391 367 Z M 260 369 Q 259 372 265 371 Q 266 367 260 369 Z M 275 369 L 275 371 Q 280 372 281 370 L 275 369 Z M 393 369 Q 392 372 395 371 Q 396 368 393 369 Z M 266 371 L 267 373 Q 273 375 275 372 L 266 371 Z M 334 371 Q 333 374 337 373 Q 338 370 334 371 Z M 349 371 L 349 373 L 353 372 L 349 371 Z M 338 373 L 339 375 L 348 375 L 349 374 L 338 373 Z M 398 373 Q 397 376 401 375 Q 402 372 398 373 Z M 247 375 L 249 377 Q 250 374 247 375 Z M 245 377 L 247 379 Q 248 376 245 377 Z M 331 393 L 330 395 L 347 395 L 346 393 L 331 393 Z M 327 395 L 325 397 L 329 397 Q 330 394 327 395 Z M 347 395 L 347 397 L 351 397 L 347 395 Z M 321 399 Q 320 402 323 401 Q 324 398 321 399 Z M 319 401 L 319 403 L 322 403 L 319 401 Z M 357 401 Q 356 404 359 403 Q 360 400 357 401 Z M 289 425 L 287 427 L 299 427 L 299 425 L 289 425 Z M 281 427 L 279 429 L 287 429 Q 288 426 281 427 Z M 275 429 L 273 431 L 279 431 Q 280 427 275 429 Z M 269 431 L 267 433 L 273 433 Q 274 429 269 431 Z M 265 433 L 263 435 L 267 435 Q 268 432 265 433 Z M 364 437 L 362 439 L 365 439 Q 366 436 364 437 Z M 366 439 L 364 441 L 367 441 Q 368 438 366 439 Z M 368 441 L 367 443 L 371 443 L 368 441 Z M 247 443 L 245 445 L 249 445 Q 250 442 247 443 Z M 439 443 L 439 445 L 442 444 L 439 443 Z M 373 445 L 373 447 L 377 447 L 373 445 Z M 241 447 Q 240 450 243 449 Q 244 446 241 447 Z M 445 451 L 445 453 L 448 452 L 445 451 Z M 447 453 L 445 457 L 452 457 Q 453 454 450 455 L 450 454 L 447 453 Z M 395 455 L 395 457 L 401 457 Q 400 454 395 455 Z M 401 457 L 401 459 L 413 459 L 412 457 L 401 457 Z M 437 457 L 435 459 L 445 459 L 445 457 L 437 457 Z M 413 459 L 414 461 L 435 461 L 435 459 L 413 459 Z "/>
  <path fill="rgb(255,255,255)" stroke="rgb(255,255,255)" stroke-width="1" opacity="1" d="M 449 235 L 451 235 L 453 239 L 451 239 L 449 235 Z "/>
  <path fill="rgb(255,255,255)" stroke="rgb(255,255,255)" stroke-width="1" opacity="1" d="M 445 237 L 449 238.5 L 445 239 L 445 237 Z "/>
  <path fill="rgb(255,255,255)" stroke="rgb(255,255,255)" stroke-width="1" opacity="1" d="M 451 241 Q 453.7 239.9 453 242.5 L 451 243.5 L 451 241 Z "/>
  <path fill="rgb(255,255,255)" stroke="rgb(255,255,255)" stroke-width="1" opacity="1" d="M 453 245 Q 456 244 455 247 Q 452 248 453 245 Z "/>
  <path fill="rgb(255,255,255)" stroke="rgb(255,255,255)" stroke-width="1" opacity="1" d="M 453.5 248 L 455 249.5 L 455 258.5 L 453 259.5 L 453.5 248 Z "/>
  <path fill="rgb(255,255,255)" stroke="rgb(255,255,255)" stroke-width="1" opacity="1" d="M 455 261 Q 458 260 457 263 Q 454 264 455 261 Z "/>
  <path fill="rgb(255,255,255)" stroke="rgb(255,255,255)" stroke-width="1" opacity="1" d="M 323 263 Q 326.7 261.8 325 267 Q 321.3 268.2 323 263 Z "/>
  <path fill="rgb(255,255,255)" stroke="rgb(255,255,255)" stroke-width="1" opacity="1" d="M 249 265 Q 252 264 251 267 Q 248 268 249 265 Z "/>
  <path fill="rgb(255,255,255)" stroke="rgb(255,255,255)" stroke-width="1" opacity="1" d="M 455 267 Q 458 266 457 269 Q 454 270 455 267 Z "/>
  <path fill="rgb(255,255,255)" stroke="rgb(255,255,255)" stroke-width="1" opacity="1" d="M 251 269 Q 254 268 253 271 Q 250 272 251 269 Z "/>
  <path fill="rgb(255,255,255)" stroke="rgb(255,255,255)" stroke-width="1" opacity="1" d="M 453.5 270 L 455 271.5 L 455 280.5 L 453 281.5 L 453.5 270 Z "/>
  <path fill="rgb(255,255,255)" stroke="rgb(255,255,255)" stroke-width="1" opacity="1" d="M 321 271 Q 324 270 323 273 Q 320 274 321 271 Z "/>
  <path fill="rgb(255,255,255)" stroke="rgb(255,255,255)" stroke-width="1" opacity="1" d="M 319.5 274 Q 322.8 275.8 321 282.5 L 319 283.5 L 319.5 274 Z "/>
  <path fill="rgb(255,255,255)" stroke="rgb(255,255,255)" stroke-width="1" opacity="1" d="M 253 275 Q 256 274 255 277 Q 252 278 253 275 Z "/>
  <path fill="rgb(255,255,255)" stroke="rgb(255,255,255)" stroke-width="1" opacity="1" d="M 367 275 L 369 275.5 L 369 285.5 L 367 284.5 L 367 275 Z "/>
  <path fill="rgb(255,255,255)" stroke="rgb(255,255,255)" stroke-width="1" opacity="1" d="M 255 279 Q 258 278 257 281 Q 254 282 255 279 Z "/>
  <path fill="rgb(255,255,255)" stroke="rgb(255,255,255)" stroke-width="1" opacity="1" d="M 453 283 Q 456 282 455 285 Q 452 286 453 283 Z "/>
  <path fill="rgb(255,255,255)" stroke="rgb(255,255,255)" stroke-width="1" opacity="1" d="M 257 285 Q 260 284 259 287 Q 256 288 257 285 Z "/>
  <path fill="rgb(255,255,255)" stroke="rgb(255,255,255)" stroke-width="1" opacity="1" d="M 321 285 Q 324 284 323 287 Q 320 288 321 285 Z "/>
  <path fill="rgb(255,255,255)" stroke="rgb(255,255,255)" stroke-width="1" opacity="1" d="M 451.5 286 L 453 288.5 L 451 289.5 L 451.5 286 Z "/>
  <path fill="rgb(255,255,255)" stroke="rgb(255,255,255)" stroke-width="1" opacity="1" d="M 365 287 Q 368 286 367 289 Q 364 290 365 287 Z "/>
  <path fill="rgb(255,255,255)" stroke="rgb(255,255,255)" stroke-width="1" opacity="1" d="M 260.5 288 L 261 291.5 L 259 290.5 L 260.5 288 Z "/>
  <path fill="rgb(255,255,255)" stroke="rgb(255,255,255)" stroke-width="1" opacity="1" d="M 451 291 Q 454 290 453 293 Q 450 294 451 291 Z "/>
  <path fill="rgb(255,255,255)" stroke="rgb(255,255,255)" stroke-width="1" opacity="1" d="M 259 293 Q 262 292 261 295 Q 258 296 259 293 Z "/>
  <path fill="rgb(255,255,255)" stroke="rgb(255,255,255)" stroke-width="1" opacity="1" d="M 262.5 296 L 263 299.5 L 261 298.5 L 262.5 296 Z "/>
  <path fill="rgb(255,255,255)" stroke="rgb(255,255,255)" stroke-width="1" opacity="1" d="M 449 297 Q 452 296 451 299 Q 448 300 449 297 Z "/>
  <path fill="rgb(255,255,255)" stroke="rgb(255,255,255)" stroke-width="1" opacity="1" d="M 261 301 Q 264 300 263 303 Q 260 304 261 301 Z "/>
  <path fill="rgb(255,255,255)" stroke="rgb(255,255,255)" stroke-width="1" opacity="1" d="M 447 301 Q 450 300 449 303 Q 446 304 447 301 Z "/>
  <path fill="rgb(255,255,255)" stroke="rgb(255,255,255)" stroke-width="1" opacity="1" d="M 264.5 304 L 265 313.5 L 263 312.5 Q 261.2 305.8 264.5 304 Z "/>
  <path fill="rgb(255,255,255)" stroke="rgb(255,255,255)" stroke-width="1" opacity="1" d="M 445 305 Q 448 304 447 307 Q 444 308 445 305 Z "/>
  <path fill="rgb(255,255,255)" stroke="rgb(255,255,255)" stroke-width="1" opacity="1" d="M 443 309 Q 446 308 445 311 Q 442 312 443 309 Z "/>
  <path fill="rgb(255,255,255)" stroke="rgb(255,255,255)" stroke-width="1" opacity="1" d="M 263 315 Q 266 314 265 317 Q 262 318 263 315 Z "/>
  <path fill="rgb(255,255,255)" stroke="rgb(255,255,255)" stroke-width="1" opacity="1" d="M 266.5 318 L 267 321 Q 264.3 322.1 265 319.5 L 266.5 318 Z "/>
  <path fill="rgb(255,255,255)" stroke="rgb(255,255,255)" stroke-width="1" opacity="1" d="M 265 323 Q 268 322 267 325 Q 264 326 265 323 Z "/>
  <path fill="rgb(255,255,255)" stroke="rgb(255,255,255)" stroke-width="1" opacity="1" d="M 321 335 Q 324 334 323 337 Q 320 338 321 335 Z "/>
  <path fill="rgb(255,255,255)" stroke="rgb(255,255,255)" stroke-width="1" opacity="1" d="M 293 337 Q 296 336 295 339 Q 292 340 293 337 Z "/>
  <path fill="rgb(255,255,255)" stroke="rgb(255,255,255)" stroke-width="1" opacity="1" d="M 319 339 Q 322 338 321 341 Q 318 342 319 339 Z "/>
  <path fill="rgb(255,255,255)" stroke="rgb(255,255,255)" stroke-width="1" opacity="1" d="M 361 339 Q 364 338 363 341 Q 360 342 361 339 Z "/>
  <path fill="rgb(255,255,255)" stroke="rgb(255,255,255)" stroke-width="1" opacity="1" d="M 391 339 Q 394 338 393 341 Q 390 342 391 339 Z "/>
  <path fill="rgb(255,255,255)" stroke="rgb(255,255,255)" stroke-width="1" opacity="1" d="M 296.5 340 L 297 349.5 L 295 348.5 Q 293.3 341.8 296.5 340 Z "/>
  <path fill="rgb(255,255,255)" stroke="rgb(255,255,255)" stroke-width="1" opacity="1" d="M 317.5 342 Q 320.3 343.3 319 348.5 L 317 349.5 L 317.5 342 Z "/>
  <path fill="rgb(255,255,255)" stroke="rgb(255,255,255)" stroke-width="1" opacity="1" d="M 364.5 342 L 365 355.5 L 363 354.5 L 363 343.5 L 364.5 342 Z "/>
  <path fill="rgb(255,255,255)" stroke="rgb(255,255,255)" stroke-width="1" opacity="1" d="M 389 345 Q 392 344 391 347 Q 388 348 389 345 Z "/>
  <path fill="rgb(255,255,255)" stroke="rgb(255,255,255)" stroke-width="1" opacity="1" d="M 387.5 348 Q 390.8 349.8 389 356.5 L 387 357.5 L 387.5 348 Z "/>
  <path fill="rgb(255,255,255)" stroke="rgb(255,255,255)" stroke-width="1" opacity="1" d="M 293 351 Q 296 350 295 353 Q 292 354 293 351 Z "/>
  <path fill="rgb(255,255,255)" stroke="rgb(255,255,255)" stroke-width="1" opacity="1" d="M 319 351 Q 322 350 321 353 Q 318 354 319 351 Z "/>
  <path fill="rgb(255,255,255)" stroke="rgb(255,255,255)" stroke-width="1" opacity="1" d="M 291 355 Q 294 354 293 357 Q 290 358 291 355 Z "/>
  <path fill="rgb(255,255,255)" stroke="rgb(255,255,255)" stroke-width="1" opacity="1" d="M 321 357 Q 324 356 323 359 Q 320 360 321 357 Z "/>
  <path fill="rgb(255,255,255)" stroke="rgb(255,255,255)" stroke-width="1" opacity="1" d="M 361 357 Q 364 356 363 359 Q 360 360 361 357 Z "/>
  <path fill="rgb(255,255,255)" stroke="rgb(255,255,255)" stroke-width="1" opacity="1" d="M 389 359 Q 392 358 391 361 Q 388 362 389 359 Z "/>
  <path fill="rgb(255,255,255)" stroke="rgb(255,255,255)" stroke-width="1" opacity="1" d="M 359 361 Q 362 360 361 363 Q 358 364 359 361 Z "/>
  <path fill="rgb(255,255,255)" stroke="rgb(255,255,255)" stroke-width="1" opacity="1" d="M 417 377 L 419 377.5 L 419 386.5 L 417 387.5 L 417 377 Z "/>
  <path fill="rgb(255,255,255)" stroke="rgb(255,255,255)" stroke-width="1" opacity="1" d="M 239 383 Q 242 382 241 385 Q 238 386 239 383 Z "/>
  <path fill="rgb(255,255,255)" stroke="rgb(255,255,255)" stroke-width="1" opacity="1" d="M 237 387 Q 240 386 239 389 Q 236 390 237 387 Z "/>
  <path fill="rgb(255,255,255)" stroke="rgb(255,255,255)" stroke-width="1" opacity="1" d="M 419 389 Q 422 388 421 391 Q 418 392 419 389 Z "/>
  <path fill="rgb(255,255,255)" stroke="rgb(255,255,255)" stroke-width="1" opacity="1" d="M 235 391 Q 238 390 237 393 Q 234 394 235 391 Z "/>
  <path fill="rgb(255,255,255)" stroke="rgb(255,255,255)" stroke-width="1" opacity="1" d="M 419.5 392 Q 421.8 392.8 421 396.5 L 419 397.5 L 419.5 392 Z "/>
  <path fill="rgb(255,255,255)" stroke="rgb(255,255,255)" stroke-width="1" opacity="1" d="M 233 395 Q 236 394 235 397 Q 232 398 233 395 Z "/>
  <path fill="rgb(255,255,255)" stroke="rgb(255,255,255)" stroke-width="1" opacity="1" d="M 421 399 Q 424 398 423 401 Q 420 402 421 399 Z "/>
  <path fill="rgb(255,255,255)" stroke="rgb(255,255,255)" stroke-width="1" opacity="1" d="M 231 401 Q 234 400 233 403 Q 230 404 231 401 Z "/>
  <path fill="rgb(255,255,255)" stroke="rgb(255,255,255)" stroke-width="1" opacity="1" d="M 421.5 402 L 423 404.5 L 421 405.5 L 421.5 402 Z "/>
  <path fill="rgb(255,255,255)" stroke="rgb(255,255,255)" stroke-width="1" opacity="1" d="M 229 407 Q 232 406 231 409 Q 228 410 229 407 Z "/>
  <path fill="rgb(255,255,255)" stroke="rgb(255,255,255)" stroke-width="1" opacity="1" d="M 317 407 Q 320 406 319 409 Q 316 410 317 407 Z "/>
  <path fill="rgb(255,255,255)" stroke="rgb(255,255,255)" stroke-width="1" opacity="1" d="M 359 407 Q 362 406 361 409 Q 358 410 359 407 Z "/>
  <path fill="rgb(255,255,255)" stroke="rgb(255,255,255)" stroke-width="1" opacity="1" d="M 423 407 Q 426 406 425 409 Q 422 410 423 407 Z "/>
  <path fill="rgb(255,255,255)" stroke="rgb(255,255,255)" stroke-width="1" opacity="1" d="M 230.5 410 L 231 415.5 L 229 414.5 Q 228.3 410.8 230.5 410 Z "/>
  <path fill="rgb(255,255,255)" stroke="rgb(255,255,255)" stroke-width="1" opacity="1" d="M 315.5 410 L 317 411.5 L 317 423 L 315 422.5 L 315.5 410 Z "/>
  <path fill="rgb(255,255,255)" stroke="rgb(255,255,255)" stroke-width="1" opacity="1" d="M 362.5 410 L 363 425 L 361 424.5 L 361 411.5 L 362.5 410 Z "/>
  <path fill="rgb(255,255,255)" stroke="rgb(255,255,255)" stroke-width="1" opacity="1" d="M 425 413 Q 428 412 427 415 Q 424 416 425 413 Z "/>
  <path fill="rgb(255,255,255)" stroke="rgb(255,255,255)" stroke-width="1" opacity="1" d="M 227 417 Q 230 416 229 419 Q 226 420 227 417 Z "/>
  <path fill="rgb(255,255,255)" stroke="rgb(255,255,255)" stroke-width="1" opacity="1" d="M 427 419 Q 430 418 429 421 Q 426 422 427 419 Z "/>
  <path fill="rgb(255,255,255)" stroke="rgb(255,255,255)" stroke-width="1" opacity="1" d="M 228.5 420 L 229 441.5 L 227 440.5 L 227 421.5 L 228.5 420 Z "/>
  <path fill="rgb(255,255,255)" stroke="rgb(255,255,255)" stroke-width="1" opacity="1" d="M 429 423 Q 432 422 431 425 Q 428 426 429 423 Z "/>
  <path fill="rgb(255,255,255)" stroke="rgb(255,255,255)" stroke-width="1" opacity="1" d="M 431 427 Q 434 426 433 429 Q 430 430 431 427 Z "/>
  <path fill="rgb(255,255,255)" stroke="rgb(255,255,255)" stroke-width="1" opacity="1" d="M 437 437 Q 440 436 439 439 Q 436 440 437 437 Z "/>
  <path fill="rgb(255,255,255)" stroke="rgb(255,255,255)" stroke-width="1" opacity="1" d="M 227 443 Q 230 442 229 445 Q 226 446 227 443 Z "/>
  <path fill="rgb(255,255,255)" stroke="rgb(255,255,255)" stroke-width="1" opacity="1" d="M 230.5 446 L 231 449.5 L 229 448.5 L 230.5 446 Z "/>
  <path fill="rgb(255,255,255)" stroke="rgb(255,255,255)" stroke-width="1" opacity="1" d="M 229 451 Q 232 450 231 453 Q 228 454 229 451 Z "/>
</svg>
